<svg xmlns="http://www.w3.org/2000/svg" width="428.454" height="48.681" viewBox="0 0 428.454 48.681">
  <defs>
    <style>
      .cls-1 {
        fill: #81eeff;
        opacity: 0.55;
      }
    </style>
  </defs>
  <path id="path2987" class="cls-1" d="M413.238,348.418c-.738-.065-.838-.443-.116-.44.493,0,1.282.276,1.284.445C414.406,348.512,414.3,348.511,413.238,348.418Zm10.621-.346c-.181-.176.654-.434,1.085-.335.193.044.352.165.353.269C425.3,348.221,424.071,348.278,423.859,348.072Zm-8.854-.33a2.064,2.064,0,0,1,.667-.008c.217.033.094.064-.273.069S414.855,347.779,415.005,347.742Zm-241.747.806c-.076-.074-.039-.135.083-.136a.591.591,0,0,1,.361.134c.076.074.039.135-.083.136A.591.591,0,0,1,173.259,348.547Zm241.8-1.631c0-.106.117-.168.262-.139.4.08.464.328.079.33C415.211,347.107,415.057,347.022,415.056,346.916Zm20.008-.386c-.263-.1-.215-.127.221-.118a11.692,11.692,0,0,1,1.224.112c.644.1.635.1-.221.118a4.513,4.513,0,0,1-1.224-.112ZM433,346.313a1.387,1.387,0,0,1,.556,0c.153.037.028.068-.277.069s-.431-.029-.279-.067Zm2.946-.04a1.837,1.837,0,0,1,.874-.207c1.459-.148,1.363-.394-.131-.337a10.029,10.029,0,0,1-1.974-.1c-.368-.083-1.436-.251-2.373-.373a20.217,20.217,0,0,1-2.329-.417,8.918,8.918,0,0,0-1.568-.269c-1.355-.107-1.486-.444-.174-.449.615,0,.954.049.871.132s.1.145.378.157a13.647,13.647,0,0,1,1.961.178,11.083,11.083,0,0,0,1.614.175c.214.008.365.09.336.182-.06.188,2.163.462,3.894.479,1.3.013,2.044.326,1.661.705-.2.2-.532.253-1.646.257A4.238,4.238,0,0,1,435.951,346.273Zm-4.5-.078c-.031-.018-.624-.061-1.318-.095a8.359,8.359,0,0,1-1.67-.213c-.329-.122-.213-.139.593-.087a14.09,14.09,0,0,1,3,.327C432.14,346.215,431.585,346.277,431.447,346.195Zm-266.877.5a.786.786,0,0,0-.577-.065c-.3.059-.39.029-.312-.1.162-.263-1.015-.639-1.568-.5-.689.173-1,.151-1-.071,0-.112.148-.2.331-.2s.333-.062.332-.137-.152-.135-.335-.134-.334-.057-.335-.129-.4-.1-.89-.073-.889,0-.89-.069.1-.127.221-.127.221-.153.219-.339.1-.339.219-.339c.295,0,.281-.5-.017-.613a.706.706,0,0,0-.873.565c0,.374-.325.424-.631.1-.193-.207-.242-.208-.561-.011s-.308.225-.018.292a1.055,1.055,0,0,1,.549.417.741.741,0,0,0,.532.34c.547,0,.614.382.077.442-.478.054-.477.057.066.192s.544.139.081.231a2.686,2.686,0,0,1-.663.063,2.685,2.685,0,0,0-.678.073,1.182,1.182,0,0,1-.947-.172l-.459-.276.908,0c.948,0,1.139-.266.294-.4-.413-.067-.575-.315-.574-.875a.608.608,0,0,0-.232-.433c-.128-.093-.184-.218-.123-.278s-.03-.261-.2-.445c-.235-.255-.311-.279-.315-.1-.007.3-.894.329-.9.03,0-.116-.1-.173-.224-.127s-.222.013-.223-.075.185-.13.444-.09.445.021.444-.037c0-.19-1.228-.256-2.574-.138-1.316.115-1.64.047-1.653-.349-.009-.283.424-.338,1.087-.14.924.276,1.25.106.924-.482a.866.866,0,0,1-.121-.693c.081-.132.028-.224-.128-.223-.333,0-1.462.54-1.386.661.031.049-.043.11-.165.135s-.223-.02-.223-.1-.252-.146-.557-.144c-.565,0-.766.208-.3.3.166.033.2.187.105.433l-.153.382-1.027-.689c-.989-.663-1.417-.781-2.172-.6-.5.118-.442.237.331.734.678.436.775.78.194.69-.168-.026-.607-.063-.974-.083-.573-.03-.659-.085-.608-.386.085-.5-.533-.322-.7.2a.8.8,0,0,1-.52.492,1.9,1.9,0,0,0-.68.338c-.413.355-1.728.343-1.886-.017-.088-.2-.01-.271.3-.272.233,0,.425.059.425.132s.176.044.388-.067.577-.285.81-.389c.561-.249.315-.612-.546-.806-.693-.156-.924-.5-.339-.5s.3-.427-.365-.572c-.285-.062-.354.01-.333.35s-.069.437-.48.475c-.367.033-.471.111-.38.283s-.053.3-.434.422a1.83,1.83,0,0,1-1.393-.057c-.458-.133-.708-.27-.556-.3a.352.352,0,0,0,.274-.321q0-.259.46-.261c.607,0,.431-.326-.207-.381-.522-.045-.662-.362-.21-.476.208-.052.194-.1-.058-.21-.27-.113-.193-.158.4-.234.5-.064.662-.137.507-.231a.524.524,0,0,0-.541.023,1.15,1.15,0,0,1-.671.078,6.67,6.67,0,0,0-1.639.161c-1.27.241-1.972.474-1.42.472.154,0,.213.065.132.147-.106.106-.216.107-.391,0a1.452,1.452,0,0,0-.63-.145c-.47,0-.819.3-.439.379.178.035.2.108.061.211-.234.175-.066.9.208.9.1,0,.125.121.062.271-.114.272-.637.356-1.072.172a1.853,1.853,0,0,1-.543-.673c-.171-.316-.4-.574-.507-.573s-.177-.075-.154-.169a.617.617,0,0,0-.133-.411c-.236-.323.419-.769,1-.679.5.077.558-.15.189-.729-.187-.294-.282-.333-.434-.181a.222.222,0,0,0,.042.366c.171.123.152.188-.066.231a26.518,26.518,0,0,1-5.345.706c-.219-.025-.4.019-.4.1s.151.106.334.063c.4-.1.435.063.059.312-.221.147-.221.164,0,.087.312-.109.39.132.082.25a6.3,6.3,0,0,1-1.391-.068c-2.177-.261-3.009-.277-3.654-.068-.555.18-.574.208-.188.276a12.964,12.964,0,0,0,3.441.211c.5-.166,1.325-.18,1.327-.023a2.747,2.747,0,0,0,1.119-.023,4.043,4.043,0,0,1,1.612.011c.448.136.453.147.05.12-.333-.022-.429.04-.38.246s-.157.326-1.049.525c-1.462.327-3.284.371-3.637.089-.383-.306-1-.412-1.2-.2a2.912,2.912,0,0,1-1.906.2c-.577-.185-1.077.1-.9.515.162.382-.162.419-1.107.124-.869-.272-1.256-.249-1.252.074a.249.249,0,0,1-.219.272c-.122,0-.224-.14-.226-.313,0-.284-.092-.31-.948-.274-.52.022-1.066.043-1.215.048s-.212.1-.141.211.045.208-.06.215c-1.9.125-2.551.116-2.468-.037.051-.093.333-.171.628-.173.555,0,1.532-.331,1.531-.511,0-.057-.281-.1-.624-.1a2.2,2.2,0,0,1-.86-.14,3.144,3.144,0,0,0-1.046-.165c-.458-.013-.81-.093-.811-.185,0-.112-.21-.09-.666.07-.858.3-.84.436.059.437h.723l-.553.265-.553.265.833-.084c1.011-.1,1.115.118.171.36-.607.156-.91.41-.488.408.1,0,.191.121.212.27a.239.239,0,0,1-.249.272,1.558,1.558,0,0,0-.681.271c-.38.259-.38.273.012.363.241.055.442.028.493-.067.142-.266.468-.181.435.113-.028.247-.134.266-1.04.192a5.275,5.275,0,0,1-1.222-.2,2.369,2.369,0,0,0-.835-.116c-.863,0-.782-.215.151-.407.427-.088.776-.216.775-.284s.224-.126.5-.128c.458,0,.447-.02-.139-.2a4.3,4.3,0,0,0-.947-.2c-.169,0-.309-.06-.31-.134s.2-.136.443-.137c.29,0,.444-.092.442-.262,0-.331-1.144-.569-2.276-.475a5.581,5.581,0,0,1-1.364-.054c-.506-.115-.548-.088-.68.435-.127.507-.077.59.546.91.71.364.693.54-.052.543-.291,0-.391-.064-.307-.2s-.053-.229-.409-.281c-.318-.047-.49-.151-.425-.257s0-.219-.14-.27c-.182-.067-.178-.146.015-.289.4-.3-.369-.591-1.181-.445-.78.14-.809-.035-.056-.34a3.774,3.774,0,0,1,1.421-.2,3.044,3.044,0,0,0,1.23-.16,2.8,2.8,0,0,1,1.127-.158c.97.047,1.647-.091,1.644-.335,0-.217-.572-.263-.773-.061a.857.857,0,0,1-.611.024,2.928,2.928,0,0,0-1.1.038c-.725.17-1.036.048-.636-.25.31-.231.308-.233-.338-.446-.418-.137-.4-.157.275-.305.531-.117.72-.241.717-.47,0-.263-.119-.311-.75-.309a5.7,5.7,0,0,1-1.419-.205,1.806,1.806,0,0,0-.812-.123c-.076.047-.139.019-.14-.063a6.02,6.02,0,0,0-2.744-.175.492.492,0,0,1-.527.008c-.165-.1-.2-.037-.122.207.134.411-.244.461-1.02.135a2.09,2.09,0,0,0-1.44-.054,9.165,9.165,0,0,1-1.038.145,3.949,3.949,0,0,0-.7.123,8.782,8.782,0,0,1-3.56-.6,5.5,5.5,0,0,0-1.358-.18A3.111,3.111,0,0,1,90.325,339a2.385,2.385,0,0,0-1.9-.125,1.334,1.334,0,0,1-.871,0,2.784,2.784,0,0,0-.864-.164c-.62-.029-.783-.174-.314-.278.16-.036-.029-.169-.447-.314a1.927,1.927,0,0,1-.727-.354c0-.056-.21-.1-.463-.1-.618,0-.507-.545.15-.747a6.278,6.278,0,0,0,.84-.333c.5-.255,1,.014.59.317-.612.455.285.624,1.556.292.552-.144.733-.278.75-.554.021-.339-.028-.359-.69-.28a1.355,1.355,0,0,1-.877-.076c-.115-.112-.02-.138.315-.086s.48.013.478-.127c0-.162-.207-.184-1.057-.111a5.331,5.331,0,0,0-1.248.209c-.247.151-.846.019-.677-.15.074-.074-.111-.09-.446-.037-.315.05-.574.032-.575-.038,0-.153-.986-.439-1.505-.436-.471,0-.1.223.5.3.409.053.413.067.053.164-.619.167-1.693-.158-1.562-.472.087-.209-.008-.261-.48-.259a1.018,1.018,0,0,1-.725-.209c-.106-.165-.337-.192-1.051-.123-.669.065-.825.05-.583-.054a3.664,3.664,0,0,1,1.078-.148c.589,0,.717-.05.609-.219a1.107,1.107,0,0,1-.138-.262,5.418,5.418,0,0,0-1-.136,3.094,3.094,0,0,0-1.555.137c-.711.288-.7.437.05.548.4.059.509.124.328.193a.219.219,0,0,0-.128.33c.082.127.037.226-.1.227s-.245.062-.245.136.164.135.362.134c.3,0,.311.035.086.2-.431.321-.723.241-.629-.171.111-.484-.373-.789-1.44-.906-.684-.075-.834-.052-.832.127,0,.12-.148.219-.331.22s-.334-.053-.335-.12a2.237,2.237,0,0,0-1-.166l-1-.044.006.525c0,.416-.055.5-.285.38a1.551,1.551,0,0,0-.779-.065c-.287.047-.489.018-.49-.071s-.2-.15-.446-.149c-.346,0-.446-.088-.449-.4,0-.227-.127-.412-.283-.419s-.029-.065.277-.13c.456-.1.384-.112-.4-.091-1.194.033-1.628-.261-.784-.532a2.277,2.277,0,0,1,1.48-.091,9.187,9.187,0,0,0,2.317.437c.275,0,.5-.061.5-.135s.152-.136.34-.137c.272,0,.293-.056.1-.271a.861.861,0,0,0-.554-.269c-.558,0-.6-.254-.1-.669a2.409,2.409,0,0,1,1.5-.5c.847-.081.943-.118.569-.217s-.435-.22-.372-.655c.085-.585-.057-.651-.67-.308-.381.213-.411.2-.552-.213a.706.706,0,0,0-1.074-.416.9.9,0,0,1-.775.014c-.579-.186-.584-.341-.019-.586.348-.151.413-.284.3-.618-.08-.234-.255-.426-.389-.425s-.018-.1.258-.216c.4-.173.449-.256.239-.408s-.134-.219.43-.341c.382-.083.633-.209.559-.281s.049-.214.274-.315.359-.2.3-.23l-.828-.346a3.828,3.828,0,0,0-2.625-.108c-.255.158-.22.209.228.331.684.186,1.115.641.743.783a5.827,5.827,0,0,1-2.339-.1,2.039,2.039,0,0,0-.91-.066c-.454.057-.691.012-.879-.17a5.574,5.574,0,0,0-2.34-.426.142.142,0,0,1-.168-.143,5.558,5.558,0,0,1,2.577-.869,1.543,1.543,0,0,0,.791-.117,1.548,1.548,0,0,1,.8-.116c.217.05.289.024.192-.069-.215-.209.283-.367.585-.185a3.478,3.478,0,0,0,2.159-.061,1.171,1.171,0,0,1,.588-.206.566.566,0,0,0,.439-.2c.139-.226,1.411-.292,1.414-.073,0,.074-.188.136-.419.137a2.606,2.606,0,0,0-.94.262l-.52.26,1.024-.075c1.178-.086,1.342.006,1.413.789.032.352-.063.572-.279.647-.271.094-.247.139.142.264a1.61,1.61,0,0,0,1.052-.014c.388-.11.634-.119.735-.028a1.5,1.5,0,0,0,.542.223c.416.091.543.365.171.366-.427,0,.613.5,1.236.593.7.1,2.1-.274,2.1-.565,0-.222-.726-.445-1.436-.442-.314,0-.571-.051-.572-.117s-.2-.151-.447-.189-.446-.136-.447-.217.2-.149.443-.15.444-.087.443-.19.148-.224.331-.268.332-.173.33-.287c0-.269-1.4-.279-1.759-.012-.418.311-1.128.37-1.131.1s.67-.688,1.15-.69c.363,0,1.033-.4.7-.419a11.7,11.7,0,0,1-1.395-.182c-.6-.114-.41-.342.207-.246.4.062.438.025.306-.285-.116-.274-.068-.356.207-.357.693,0,.344-.215-.591-.359a10.429,10.429,0,0,0-2.592-.051c-.11.01-.3.191-.416.4-.183.328-.314.377-.863.331-.524-.045-.7.01-.9.288-.221.3-.352.334-1.047.268a2.111,2.111,0,0,0-1.176.129,3.171,3.171,0,0,1-2.189.179c-.584-.266-.731-.244-.585.088.113.257.058.277-.551.2a4.219,4.219,0,0,0-1.5.127c-1.1.285-1.1.284-.455-.24.309-.25.561-.556.56-.679,0-.28.517-.294.889-.025.3.219.892.273.89.081,0-.065-.152-.194-.337-.286-.4-.2-.438-.561-.075-.785a1.865,1.865,0,0,1,1.411-.042c.306.18,1.312.231,1.4.071a2.98,2.98,0,0,1,.273-.364c.143-.165.044-.338-.362-.627-.308-.22-.56-.473-.561-.564q0-.164-.612-.077c-.574.082-.585.075-.191-.116.489-.236.376-.362-1.058-1.172-1.044-.59-.729-.725.688-.295,1.234.374,1.6.384,1.6.043,0-.357.991-.819,1.57-.729.36.056.4.1.166.2-.245.107-.244.14.009.2s.257.091,0,.188c-.445.17.277.563,1.029.56.6,0,1.67-.5,1.667-.779,0-.231,1.151-.447,1.821-.341a1.174,1.174,0,0,0,1.346-.727.433.433,0,0,1,.741-.041c.1.15.359.178,1.072.115s.976-.035,1.077.122a2.063,2.063,0,0,0,1.037.294,2.393,2.393,0,0,1,.907.184c0,.052.226.1.5.114.486.018.488.013.067-.175-.4-.178-.345-.195.665-.208a27.086,27.086,0,0,0,4.067-.4.9.9,0,0,1-.731-.892c-.012-.149-.267-.407-.565-.575-.648-.363-.566-.436.6-.536a4.375,4.375,0,0,1,1.611.14c.825.246,1.324.276,1.321.078,0-.074.149-.136.332-.137s.333-.062.332-.137.1-.136.226-.136.063.154-.138.344a5.687,5.687,0,0,1-2.844.873c-.287-.163-.569-.151-.567.024,0,.079.091.109.2.068a.31.31,0,0,1,.34.144c.118.183.353.2,1.414.124a7.948,7.948,0,0,0,2.929-.653c0-.047-.219-.12-.493-.163-.39-.06-.439-.113-.23-.242s.386-.127.815.01a2.037,2.037,0,0,0,.839.106c.456-.109.742-.091.683.043-.073.164.322.153.86-.026.428-.142.424-.153-.13-.416-.7-.331-.822-.88-.147-.663.547.175,1.053.057,1.193-.28.115-.274,1.261-.393,1.264-.131,0,.213.446.156.589-.075.071-.115-.035-.317-.234-.45-.569-.378-.453-.423.912-.352l1.277.067-.492-.275a2.124,2.124,0,0,0-.792-.274,2.211,2.211,0,0,1-.734-.2c-.409-.187-.395-.2.234-.133.932.092,1.757-.205,1.809-.652.054-.465.448-.921.795-.919a12.85,12.85,0,0,1,1.5.3c1.523.369,4.005.349,4-.032,0-.284.83-.528,1.753-.515.532.007.686-.042.617-.2-.115-.261.3-.509.733-.439.284.046.283.034-.006-.087-.268-.112-.283-.192-.076-.4s.194-.3.007-.41-.155-.152.125-.153c.255,0,.377-.112.374-.34,0-.324.626-.512.693-.206.016.074.042.182.058.24a2.534,2.534,0,0,0,.5.493c.448.369.518.382,1.376.245.935-.148,2.123-.095,1.941.088-.213.213,1.247.251,2.742.071a12.835,12.835,0,0,1,2.806-.071,7.142,7.142,0,0,0,1.464.037,1.278,1.278,0,0,1,.64.062,1.809,1.809,0,0,0,1.061-.02,3.286,3.286,0,0,1,.847-.128c.122.018.152-.01.065-.062s-.02-.179.148-.283c.395-.243.639-.242.488,0s.243.329.963.216c.449-.071.49-.111.22-.214a6.234,6.234,0,0,0-1.709-.462c-.177,0-.258-.062-.18-.14a.916.916,0,0,1,.624-.056c.477.084.478.083.036-.126-.246-.116-.4-.215-.336-.22s.773-.028,1.583-.051a4.413,4.413,0,0,0,1.847-.274,1.633,1.633,0,0,1,.694-.233c.175,0,.317-.062.316-.137s-.142-.135-.313-.134a1.527,1.527,0,0,1-.776-.471l-.464-.472.6-.018a7.252,7.252,0,0,1,.827.012,12.124,12.124,0,0,0,3.636-.229c.54-.2.749-.217.961-.089s.191.163-.094.164c-.5,0-.7.247-.386.475a.7.7,0,0,0,.632.077c.853-.26,1.811-.4,1.813-.264a5.069,5.069,0,0,0,2.147-.076c.264-.042.963-.118,1.555-.169,1.567-.136,1.9-.213,1.771-.411-.088-.137.168-.163,1.15-.115a6.533,6.533,0,0,0,2.372-.238,12.487,12.487,0,0,1,2.927-.35c2.05-.056,2.45-.14,2.051-.429-.212-.153-.172-.19.209-.192.6,0,.607-.219.023-.406-.245-.079-.447-.239-.449-.357,0-.17.154-.2.759-.13a1.672,1.672,0,0,0,.9-.056c.077-.077.009-.149-.151-.159s.159-.064.708-.118l1-.1-1.043-.016a3.2,3.2,0,0,0-1.179.12.6.6,0,0,1-.371.137c-.129,0,.422-.393,1.226-.875,1-.6,1.418-.943,1.324-1.089-.149-.231-.09-.238,2.208-.262a4.237,4.237,0,0,1,1.451.136,2.484,2.484,0,0,0,.811.3c.523.119.59.175.332.276-.281.11-.278.127.02.128a1.323,1.323,0,0,0,.589-.15c.179-.11.446-.112.989,0,.812.16,1.226.145,1.123-.04-.036-.065.186-.09.495-.055.406.046.6,0,.686-.183.108-.213.206-.225.727-.088a2.865,2.865,0,0,1,.747.281.691.691,0,0,0,.5.039c.316-.075.452-.551.4-1.4-.005-.087.123-.128.284-.091a8.048,8.048,0,0,0,1.554-.1c.92-.12,1.29-.235,1.369-.423.085-.2.326-.263,1.138-.28a20.991,20.991,0,0,0,2.9-.2c.55-.079.713-.065.6.049-.086.086-.057.157.065.156a.584.584,0,0,0,.358-.137,1.055,1.055,0,0,1,.581-.138c.28,0,.386.056.287.156s0,.13.377.066a16.738,16.738,0,0,1,3.847-.282c.3.1.116.2-.975.5-.742.205-1.288.432-1.213.5a6.549,6.549,0,0,0,2.922-.083,15.655,15.655,0,0,1,1.843-.206c.539,0,.546.011.145.2a9.7,9.7,0,0,1-1.552.425c-1.707.345-1.819.524-.241.385.733-.065,1.833-.11,2.445-.1a16,16,0,0,0,2.313-.178c1.11-.18,1.241-.176,1.733.057s.508.261.136.407c-.337.132-.3.143.214.074.336-.045,1.061-.121,1.61-.169.872-.076,1-.129,1-.416s.083-.324.718-.289c.509.028.747.118.807.306.067.208.019.235-.219.124a3.831,3.831,0,0,0-.686-.223c-.327-.069-.35-.032-.159.267.142.223.145.4.009.506a.215.215,0,0,0-.023.343c.157.152.4.155,1.377.016.653-.093,1.487-.2,1.853-.24a8.37,8.37,0,0,0,1.11-.2c.244-.069.718-.187,1.053-.263.512-.115.609-.216.6-.627,0-.376-.109-.506-.451-.559-.656-.1-.549-.239.384-.5a8.789,8.789,0,0,1,3.276-.336c.342.115.32.154-.21.369-.451.183-.514.258-.264.316a2.672,2.672,0,0,0,.829-.007c.346-.057.451-.033.343.076-.223.223.538.2,1.5-.052a2.6,2.6,0,0,0,1.03-.478c.312-.36.7-.345,1.276.05a3.616,3.616,0,0,0,1.99.411c.836.048,1.921.149,2.411.225a18.415,18.415,0,0,0,2.392.119,4.914,4.914,0,0,1,1.5.1c0,.13-.655.231-2.331.359a7.142,7.142,0,0,0-2.552.488c0,.051-.209.127-.466.169s-.423.156-.368.254c.138.247,2.129.262,2.923.022a1.983,1.983,0,0,1,.867-.107c.131.049.163.02.074-.066s.081-.184.463-.235c.341-.046,1.022-.172,1.514-.281,1.054-.232,1.457-.253.993-.05-.245.107-.1.12.549.052a2.652,2.652,0,0,0,1.186-.363.792.792,0,0,1,.645-.192,1.1,1.1,0,0,0,.642-.077,1.461,1.461,0,0,1,.749-.086c.246.038.446.026.446-.026,0-.255,6.675-.56,8.334-.381a19.973,19.973,0,0,0,2.445-.058,12.8,12.8,0,0,1,2.223-.024c.446.105.446.105,0,.132a5.978,5.978,0,0,1-.611.011c-.215-.02-.206.142.019.355a5.738,5.738,0,0,0,2.384.428,7.7,7.7,0,0,1,2.553-.018c0,.058.227.17.5.25l.5.145-.556.032a6.671,6.671,0,0,0-1.665.224,16.52,16.52,0,0,1-2.1.243c-1.509.09-2.15.281-1.468.437a6.59,6.59,0,0,0,1.648-.13,3.7,3.7,0,0,1,1.469-.093c.134.08.109.127-.067.128-.154,0-.222.057-.152.126.26.253,13.647-.062,15.349-.361a8.952,8.952,0,0,1,1.632-.12,1.372,1.372,0,0,0,1.043-.227c.266-.235.611-.268,3.13-.3,1.557-.022,2.91-.07,3.005-.106s1.252-.078,2.57-.092a26.785,26.785,0,0,0,2.887-.136.923.923,0,0,1,.618.012,5.127,5.127,0,0,0,2.2-.137c.32-.076.582-.093.583-.039a27.315,27.315,0,0,0,4.391-.067c.826-.058,1.167-.035,1.168.08,0,.095.185.131.446.089.3-.049.445-.006.446.132s.148.182.576.115c.372-.058.524-.04.432.051a1.24,1.24,0,0,1-.657.143,1.588,1.588,0,0,0-.79.206,2.511,2.511,0,0,1-1.15.208c-.527,0-.82.057-.736.138s-.017.135-.208.136-.346.064-.345.139c0,.127.461.1,1.639-.1a.807.807,0,0,1,.605.112c.157.152.356.146,1.191-.041.809-.18,1.048-.19,1.241-.051a9.206,9.206,0,0,0,3.329.045c0-.073-.227-.137-.5-.143-.478-.011-.475-.016.054-.115.457-.085,8-.115,19.456-.078a17.5,17.5,0,0,0,2.6-.136c.355-.085.624-.092.667-.018a7.13,7.13,0,0,0,1.8.145,9.7,9.7,0,0,1,1.724.1,10.923,10.923,0,0,0,1.835.046,26.412,26.412,0,0,1,3.24.156,27.81,27.81,0,0,0,3.115.182c.94,0,2.611.077,3.713.18s2.754.218,3.672.257,2.32.13,3.115.2a88.433,88.433,0,0,0,9.122.461,48.432,48.432,0,0,0-6.012-.741c-1.806-.117-13.259-.719-14.239-.749a17.987,17.987,0,0,1-2.834-.327c-.093-.056.47-.065,1.252-.019,1.995.116,12.036.086,12.639-.037.394-.081.471-.059.369.106-.112.182.2.2,2.449.153a14.453,14.453,0,0,1,2.579.061c0,.064.157.116.348.115s.29.055.222.123c-.167.167,1.083.321,2.353.29a2.629,2.629,0,0,1,1.3.17c.214.155.921.192,3.38.176,1.71-.011,3.171.017,3.246.063a6.333,6.333,0,0,1-1.568.106c-1.978.028-2.07.033-2.24.138a3.285,3.285,0,0,0,1.133.1,11.485,11.485,0,0,1,2.02.216,40.454,40.454,0,0,0,6.51.508,13.147,13.147,0,0,1,2.359.163,21.433,21.433,0,0,0,3,.227,63.575,63.575,0,0,1,7.807.5c1.06.22,3.3.267,3.3.068,0-.069-.177-.153-.391-.186-.365-.057-.365-.061.006-.078a.663.663,0,0,1,.533.2c.1.153.183.168.3.053s.459-.124,1.45,0a11.673,11.673,0,0,0,2.027.082,2.007,2.007,0,0,1,.842.026,6.382,6.382,0,0,0,2.456.012c.078-.078.036-.142-.093-.141a.223.223,0,0,1-.238-.2c0-.268.754-.264,1.126.006.238.173.24.233.008.321-.17.065.1.113.683.12.532.006,1.218.042,1.524.079s1.581.068,2.833.068a14.059,14.059,0,0,1,2.392.113.9.9,0,0,0,.561.04,1.5,1.5,0,0,1,.774.091,3.406,3.406,0,0,0,1.334.1,2.27,2.27,0,0,1,1.007.05c0,.063.157.114.348.114.206,0,.281-.065.186-.157-.228-.221.995-.062,2.554.334.69.175,1.655.383,2.145.463,1.156.188,4.087.281,3.588.113-.532-.178-.447-.4.134-.357.314.026.49.129.473.275-.031.264.934.422,2.1.343.909-.061.643-.364-.356-.406-.63-.027-1.066-.242-.494-.244a.207.207,0,0,0,.22-.19c0-.1.148-.224.331-.268.21-.05.334,0,.335.138,0,.18.176.2,1.024.128,1.126-.1,2.156,0,1.967.19-.067.067.056.3.272.52.38.386.445.4,1.963.373a8.89,8.89,0,0,1,2.1.147,19.484,19.484,0,0,0,3.287.212,24.211,24.211,0,0,1,3.2.182.8.8,0,0,0,.788-.068c.288-.178.292-.211.02-.21a1.166,1.166,0,0,1-.587-.19c-.223-.161-.115-.184.694-.145.527.026,1.129.049,1.337.052a1.258,1.258,0,0,1,.762.489c.582.734,1.844.9,1.869.252,0-.075.093-.052.2.049.157.149.285.129.663-.1.553-.341.587-.5.131-.607-.2-.045-.333,0-.332.111,0,.231-.373.318-1.045.242-.594-.067-.7-.274-.122-.249.221.01.361-.062.324-.166s.049-.269.19-.373.186-.19.1-.189,0-.1.193-.214a.613.613,0,0,0,.127-1c-.327-.31-.034-.434.416-.176.5.289.884.929.459.771q-.281-.1-.115.058c.21.2.542.043,1.078-.521l.4-.418-.624-.013c-.39-.008-.476-.037-.228-.078.347-.056.324-.1-.186-.339-.385-.182-.508-.321-.363-.41a.228.228,0,0,0,.116-.3c-.1-.149.423-.367,1.256-.529a1.2,1.2,0,0,0,.617-.632c.24-.5.34-.56.87-.525.425.028.62.128.673.344.061.249.173.289.614.22.4-.063.54-.03.542.133,0,.348.437.25.685-.155.439-.717,1.22-.769,2.19-.147.485.311.684.571.688.9a.979.979,0,0,0,.389.718c.265.176.307.284.135.349a1.047,1.047,0,0,0-.391.636,3.437,3.437,0,0,1-.51,1.017c-.2.261-.37.488-.375.5a8.761,8.761,0,0,1-.949.123l-.941.1.024-1c.037-1.575-.382-2.729-.828-2.282a.341.341,0,0,1-.329.07,1.636,1.636,0,0,0-.815.316c-.489.3-.619.5-.6.919.04.72.287,1.138.671,1.136.175,0,.32.09.321.2a.207.207,0,0,1-.212.2.775.775,0,0,0-.451.275c-.179.207-.167.286.051.322a9.285,9.285,0,0,1,2.183.469,10.443,10.443,0,0,0,1.79.334c1.542.217,1.746.279,1.477.445a4.659,4.659,0,0,1-1.645.217c-1.3.024-1.327.031-1.1.33a.936.936,0,0,0,.753.3c.361,0,.521.076.523.253,0,.3.793.43,1.537.259a2.629,2.629,0,0,1,1.342.147,13.33,13.33,0,0,0,2.875.345,5.608,5.608,0,0,1,2.4.336c.548.364.292.422-1.158.265-1.622-.176-2.54-.174-2.538,0,0,.076.266.2.59.272.883.2.439.329-1.169.34a4.843,4.843,0,0,0-1.592.163,1.3,1.3,0,0,1-.786.083c-.415-.047-.537-.107-.356-.176s.082-.1-.259-.1a18.68,18.68,0,0,1-1.982-.217c-1.891-.289-3.054-.369-3.2-.22s.741.379,1.425.341a17.268,17.268,0,0,1,3.229.455,2.754,2.754,0,0,0,.557.11c.534.048,2.039.164,3,.231,1.06.074,3,.3,4.2.481.476.073,1.377.156,2,.183s1.671.084,2.323.126l1.185.076-.38-.348a1.307,1.307,0,0,0-.579-.347c-.109,0-.075-.122.076-.271.365-.362.81-.344,1.6.061.357.185.572.336.477.336s-.051.089.1.2.207.26.129.338.041.141.271.14a1.552,1.552,0,0,1,.626.12,5.662,5.662,0,0,0,1.325.195c.612.04,1.363.1,1.669.135.584.065,1.247.129,3.45.332.735.068,1.805.133,2.38.145,1.116.023,1.859.21,1.346.339-.462.116.625.533,1.623.623,1.147.1,1.9-.136.826-.263a2.5,2.5,0,0,1-.85-.2,1.143,1.143,0,0,0-.663-.033c-.33.052-.542.026-.543-.065s.1-.151.234-.151.173-.062.1-.136.107-.136.43-.137.57.052.57.119c0,.135.68.322.83.229.053-.033-.065-.208-.263-.389-.491-.45-.126-.619,1.551-.721a11.987,11.987,0,0,0,1.382-.129,13.35,13.35,0,0,0-3.444-1.492c-.818-.218-1.184-.4-1.286-.642-.114-.268-.407-.387-1.424-.578l-1.281-.241,1.262-.046,1.262-.046-.129-.465c-.1-.352-.042-.485.232-.551.459-.109.463-.707.008-1.01a1.445,1.445,0,0,1-.475-.753l-.13-.524.575.4a1.811,1.811,0,0,1,.584.549c.005.08.236.266.513.415s.833.493,1.237.764a3.109,3.109,0,0,0,.976.493c.134,0,.194.117.133.261-.119.285.565.819,1.047.818.184,0,.286.154.274.415-.017.375-.081.411-.631.365-.471-.04-.611,0-.609.188,0,.322.4.449.781.252a.827.827,0,0,1,.569-.065c.192.071.191.12-.005.2-.17.065.022.2.549.387a6.3,6.3,0,0,0,.968.286,1.624,1.624,0,0,1,.578.336,1.609,1.609,0,0,0,.779.344c.214,0,.135.063-.2.146a4.507,4.507,0,0,1-1.222.082c-.93-.079-1.666.12-1.663.451,0,.307-.04.3,3.054.326,2.18.017,2.812-.08,2.345-.361a.5.5,0,0,0-.572-.006.717.717,0,0,1-.711-.023c-.879-.386.141-.579,2.175-.412.789.065.825.087.5.305-.411.281-.433.555-.079,1.019.248.326.354.343,1.99.337,1.5-.006,1.746.026,1.865.25a1.017,1.017,0,0,0,.665.335c.381.057.5.149.422.333-.12.288,1.088.894,1.552.777.215-.054.214-.071,0-.078-.153-.005-.279-.077-.28-.16s.212-.118.555-.067c.321.048.556.024.555-.055s-.1-.138-.224-.137-.2-.045-.176-.1-.081-.239-.236-.406c-.252-.272-.226-.318.237-.427a7.23,7.23,0,0,1,1.6-.053c.78.05,1.035.027.92-.085a1.258,1.258,0,0,0-.684-.153c-.669,0-1.229-.125-1.231-.28a5.948,5.948,0,0,1,2.453.007,7.3,7.3,0,0,1,1.038.478c.475.265.547.367.316.455s-.184.135.178.2c.511.1.659.463.2.5-.153.013-1.149.033-2.214.044a7.911,7.911,0,0,0-2.21.19c-.219.135-.04.168.874.165,1.47-.006,3.153.436,3.171.833a3.655,3.655,0,0,1-1.205.106,4.386,4.386,0,0,0-1.333.129c-.317.317.207.52,1.729.673,2.561.256,2.6.264,2.607.479,0,.323-.572.377-1.236.115a5.679,5.679,0,0,0-1.86-.244,5.324,5.324,0,0,1-1.8-.235c-.673-.283-2.352-.3-2.52-.032-.1.17.662.738.881.652a1.768,1.768,0,0,1,.4-.035c.254,0,.265.064.06.349-.227.314-.351.344-1.2.292-1.048-.064-1.295.128-.331.256.337.045.913.13,1.281.19.634.1.643.113.169.2-.738.142-.6.336.232.333a3.736,3.736,0,0,1,1.169.179,6.257,6.257,0,0,0,1.483.247l1.042.065-1.27-.561c-.7-.309-1.471-.631-1.716-.716-.407-.141-.383-.156.263-.162a1.889,1.889,0,0,0,.845-.143,1.868,1.868,0,0,1,.845-.138c.63,0,4.235.378,5.719.6l.557.084-.662.117a5.092,5.092,0,0,1-1.486-.014,19.062,19.062,0,0,0-4.4-.186c.018.246,2.054.715,3.5.806.972.061,1.391.145,1.393.277s.278.189.9.186c.592,0,.941.065,1.027.2a.766.766,0,0,0,.572.2,2.894,2.894,0,0,1,1.01.267l.568.268-1.015,0a3.8,3.8,0,0,0-1.307.179c-.345.206-1.016.133-2.419-.266a8.244,8.244,0,0,0-3.77-.289,3.266,3.266,0,0,1-1.875-.075c-.561-.138-1.022-.321-1.023-.407s-.3-.219-.671-.295c-.524-.109-.668-.1-.667.041,0,.1.162.259.358.357.325.162.325.191,0,.337-.59.266.02.422,2.324.592,1.163.086,2.315.18,2.559.209.512.061,1.159.111,3.338.261,1.405.1,1.166.116-2.444.2-2.2.053-4.176.045-4.39-.019a2.92,2.92,0,0,0-1.112.014c-.655.118-.67.131-.154.14a3.035,3.035,0,0,1,1,.207,3.758,3.758,0,0,0,1.237.2c.735,0,.794.03.7.34-.088.292-.022.339.482.337a3.436,3.436,0,0,0,1.013-.168,11.967,11.967,0,0,1,4.918.49,2.451,2.451,0,0,0,.83.327.807.807,0,0,1,.5.267.685.685,0,0,0,.4.253,4.247,4.247,0,0,1,.494.005c.41.025-1.288.417-1.83.422-.214,0-.363.072-.332.156s-.542.264-1.274.4-1.1.252-.818.257c.333.006.458.065.355.168s-.041.131.19.076a3.865,3.865,0,0,1,1.95.329c0,.066-.1.084-.219.039s-.163.008-.086.128a.576.576,0,0,0,.444.208c.17,0,.31.063.311.142s-.079.114-.177.077a.888.888,0,0,0-.5.06c-.264.1-.25.126.081.126.221,0,.356.046.3.1-.114.114.194.137,2.356.178,1.751.033,1.532.239-.273.255-1.119.01-1.185.028-.776.2.619.264,1.244.643,1.153.7a3.858,3.858,0,0,1-.911-.162,44.474,44.474,0,0,0-5.673-.734c-.924.036-.769.132.353.219.593.046,1.217.11,1.388.143.566.109.042.234-.918.22-.927-.014-.935-.01-.388.178.507.174.518.194.114.219a5.219,5.219,0,0,0-1.3.191,25.3,25.3,0,0,1-5.3-.244c-.732-.19-.719-.193.981-.205a5.257,5.257,0,0,0,1.722-.148c0-.074-.127-.139-.28-.143s-1.079-.023-2.057-.042c-2.5-.048-3.964-.268-4.246-.64a.658.658,0,0,0-.538-.255c-.549.077-1.369-.1-1.207-.265.093-.093.053-.115-.1-.055-.141.054-.256.033-.257-.046s-.177-.141-.391-.138c-.31,0-.261.074.239.338a2.808,2.808,0,0,0,.949.33c.177,0,.322.06.323.134,0,.171-.6.181-.7.012s-1.282.007-1.9.277a1.123,1.123,0,0,0-.585.565c-.089.312.007.376.828.552,1.959.419,2.7.612,2.387.619-.717.016.334.4,1.179.43a2.293,2.293,0,0,1,1,.192,6.438,6.438,0,0,0,1.822.238,18.957,18.957,0,0,1,4.311.47,16.1,16.1,0,0,0,2.59.322,13.561,13.561,0,0,1,3.564.534,1.911,1.911,0,0,1-.2.362,7.8,7.8,0,0,0-.435.869l-.238.557-1.06-.311c-1.32-.387-1.993-.413-.964-.037.6.218.695.306.449.4-.224.087-.11.123.4.122a1.814,1.814,0,0,1,.869.154c.11.107-.006.13-.375.076-.294-.043-1.735-.107-3.2-.142l-2.669-.064,1.156.226a2.576,2.576,0,0,1,1.256.454c.064.145.43.261,1,.317a5.494,5.494,0,0,1,1.309.274c.367.166.316.178-.479.118a17.434,17.434,0,0,1-1.782-.249,5.8,5.8,0,0,0-2.713-.107c-.046.084.112.183.352.22a.636.636,0,0,1,.514.384c.057.233.293.352.9.452.96.159.976.171.8.6-.1.243-.211.293-.427.192a1.738,1.738,0,0,0-.845-.032c-.546.1-.544.1.113.132.563.025.587.039.156.091a1.752,1.752,0,0,1-.818-.091,5.843,5.843,0,0,0-2.338.095c-.592.12.472.371,1.449.342.685-.021.787,0,.446.1-.3.082.255.118,1.669.108,1.162-.008,2.263,0,2.446.015a6.39,6.39,0,0,0,1.055-.071c.51-.071.722-.052.723.066,0,.1-.147.133-.344.088s-.3-.031-.235.028-.355.185-.924.281c-.758.127-.948.2-.713.292.437.162.272.232-.775.327-.673.061-.754.051-.334-.041.535-.117.53-.122-.161-.132-.549-.008-.686.036-.586.192s-.011.187-.617.12a5.434,5.434,0,0,0-1.525-.038c-.326.023-.1.076.557.128l1.113.088-1.154.026a3.62,3.62,0,0,1-1.3-.119,5.034,5.034,0,0,0-1.848-.043c-1.88.113-3.125.408-2.726.648.174.1.511.092,1.192-.046,1.235-.249,1.63-.214,3.931.35,2.071.507,2.926.848,2.138.851a5.5,5.5,0,0,1-1.273-.266c-1.046-.336-1.024-.337-1.286.091-.2.334-.284.352-1.245.276-.565-.045-1.313-.08-1.663-.079-.4,0-.637-.068-.638-.191,0-.259-.746-.386-1.585-.27-.54.075-.657.149-.563.362.085.192.029.247-.2.195-.175-.04-.317-.007-.316.073a5.372,5.372,0,0,1-2.447-.118c-.776-.13-.733-.143.716-.213a2.335,2.335,0,0,0,.853-.182c.181-.112-.01-.176-.721-.244a6.412,6.412,0,0,1-1.679-.414,4.978,4.978,0,0,0-2.449-.316c-2.089.006-2.734-.081-2.76-.375-.013-.14-.06-.159-.13-.051a.9.9,0,0,1-.592.185c-.265.009.07.121.744.25,1.415.271,1.65.6.452.627-1.641.041-1.778.062-1.776.265,0,.114-.237.263-.531.332a1.938,1.938,0,0,0-.677.27c-.232.232-1.015.182-.868-.056.069-.112.009-.2-.133-.2s-.2-.062-.12-.138.057-.13-.044-.119a4.209,4.209,0,0,1-.517,0c-.3-.015-.3-.032,0-.152.273-.111.253-.131-.112-.111-.244.013-.845.015-1.334,0-.64-.014-.8-.055-.566-.146s.123-.122-.4-.111a2.53,2.53,0,0,1-.949-.12,1.581,1.581,0,0,0-.775-.069c-.417.05-.518.127-.416.318.118.221.043.243-.6.177-.406-.041-.863-.1-1.016-.125s-.278.039-.276.148a.218.218,0,0,1-.233.2c-.13,0-.176-.059-.1-.131s-.255-.107-.877-.066c-.888.058-1.01.034-1.012-.2s-.119-.256-1.114-.187a2.578,2.578,0,0,1-1.112-.046,13.611,13.611,0,0,0-3.759.167c-.237.118-.336.114-.411-.019s-.163-.142-.451,0-.321.144-.178,0c.112-.115.067-.17-.126-.153-.664.058-1.1-.009-.958-.149.088-.088-.019-.136-.266-.119-.227.016-.763.014-1.192,0-.758-.032-.752-.035.221-.131.943-.093.955-.1.221-.118-.428-.01-1.029-.053-1.335-.094-.437-.059-.484-.044-.222.068.3.127.3.144,0,.147a2.427,2.427,0,0,1-.78-.182,3.073,3.073,0,0,0-1.44-.089,9.034,9.034,0,0,1-1.779-.018c-.429-.063-1.37-.178-2.092-.257-1.186-.129-1.341-.118-1.612.11-.2.169-.225.3-.074.388.392.235.247.488-.272.473-.381-.01-.407-.029-.109-.077.215-.035.342-.111.282-.17a3.822,3.822,0,0,0-1.263.081,12.341,12.341,0,0,1-4.028.078,5.493,5.493,0,0,0-1.329-.1c-.415.048-.3.114.667.372a3.959,3.959,0,0,1,1.172.423,4.143,4.143,0,0,1-1.833.14c-.478-.018-.611.037-.609.249,0,.3-.258.341-.884.141a14.717,14.717,0,0,0-2.351-.147c-1.066-.008-2.248-.051-2.626-.1l-.688-.083.719-.185c.569-.146.666-.223.466-.368-.343-.248.234-.382,1.237-.287,1.033.1,1.395-.177.718-.545a9.545,9.545,0,0,0-3.155-.975,4.232,4.232,0,0,1-1.082-.15,10.01,10.01,0,0,0-1.933-.173,13.78,13.78,0,0,1-2.681-.309,11.022,11.022,0,0,0-2.049-.285,18.813,18.813,0,0,1-1.895-.125c-1.062-.128-4.781-.331-8.187-.447l-1.78-.061,1.059.205a4.5,4.5,0,0,1,1.059.276,16.046,16.046,0,0,1-2.835-.035c-.413-.089-.34-.3.108-.313.333-.009.324-.028-.057-.126-.446-.115-.446-.115,0-.134.724-.032-.477-.277-1.435-.292a10.437,10.437,0,0,1-1.572-.17,18.385,18.385,0,0,0-2.7-.137,5.772,5.772,0,0,1-1.675-.075c.17-.065.145-.115-.079-.158-.647-.125-4.147-.483-5.893-.6-.979-.068-2.431-.185-3.227-.26s-1.95-.181-2.565-.236a10.233,10.233,0,0,1-1.336-.178,19.487,19.487,0,0,0-2.109-.162c-1.04-.046-2.041-.105-2.225-.132-.485-.071-3.562-.193-6.006-.238-2.034-.037-4.271-.143-5.673-.269-.367-.033-1.168-.09-1.78-.127s-2.164-.178-3.45-.313-3.01-.276-3.832-.314-2.575-.156-3.894-.264c-3.172-.259-3.817-.3-6.181-.375-1.1-.036-2.9-.119-4-.186-2.285-.138-4.686-.243-6.785-.3a20.333,20.333,0,0,1-2.337-.191c-.5-.087-3.094-.176-5.895-.2-7.224-.069-9.967-.129-10.221-.223a1.178,1.178,0,0,0-.616.043,21.022,21.022,0,0,1-2.615.231c-6.031.285-6.914.314-7.224.235a23.947,23.947,0,0,0-2.779.027c-1.345.062-4.2.155-6.335.206s-3.94.1-4,.1-.911.031-1.889.062-2.678.1-3.779.148-3.4.133-5.112.183c-4.7.136-6.268.288-6.888.671a.845.845,0,0,1-.555.155.32.32,0,0,0-.31.05c-.066.066.434.126,1.111.133.737.007,1.177-.04,1.1-.117a40.945,40.945,0,0,1,5.666.063c.748.058,1.666.076,9.74.2,1.993.03,3.745.1,3.893.155a18.112,18.112,0,0,0,2.493.069c1.378-.019,2.012.011,1.669.079-.305.061-2.155.13-4.112.153a49.368,49.368,0,0,0-7.223.3c-1.254.216-13.759.172-13.987-.049-.381-.37-6.635-.529-7.584-.194-.423.149-.462.2-.165.2.405,0,.565.273.163.275-.126,0-.833-.12-1.571-.268-1.4-.281-2.16-.228-1.417.1.392.172.389.181-.064.183a1.061,1.061,0,0,1-.664-.2,6.545,6.545,0,0,0-3.045-.209,2.822,2.822,0,0,1-1.368.072,3.006,3.006,0,0,0-1.6.124,3.5,3.5,0,0,1-.716.282c-.722.165,4.335.156,6-.01.629-.063.725-.044.5.1A13.4,13.4,0,0,1,237,336.7a3.586,3.586,0,0,0-1.055.1c0,.109-.232.126-2.644.2a8.357,8.357,0,0,0-2.25.223c-.121.121-.182.12-.252,0a20.566,20.566,0,0,0-4.574-.064,5.156,5.156,0,0,0,1.405.078,29.917,29.917,0,0,1,5.17.454c.085.054-1.823.063-4.239.021-4.607-.082-5.287,0-3.5.43,1.4.334,1.1.485-.719.369a14.335,14.335,0,0,0-4.22.086c-.358.221-.613.2-.616-.052,0-.163-.119-.186-.5-.1a25.337,25.337,0,0,1-2.834.132c-2.647.021-3.012.054-2.221.2.348.064-.216.1-1.5.108-2.167.006-2.636.095-2,.375.572.251.252.347-1.183.353a11.152,11.152,0,0,0-1.907.154,11.336,11.336,0,0,1-1.6.2,2.88,2.88,0,0,0-1.161.231.475.475,0,0,0,.263.853c.89.168.41.307-1.385.4-2.358.122-3.1,0-3.364-.546-.215-.445-.842-.61-1.61-.423-.8.194-2.1.148-2.1-.073s-.351-.271-.554-.068c-.078.078-.515-.011-1.046-.212a1.928,1.928,0,0,0-1.448-.195,3.536,3.536,0,0,1-1.542,0,5.357,5.357,0,0,0-1.823-.006c-2.52.443-2.7.446-3.341.05a2.5,2.5,0,0,0-1.316-.377c-.4,0-.722.034-.722.086a1.585,1.585,0,0,1-.664.276c-.761.209-.874.431-.218.429.245,0,.445.067.446.152s.208-.008.46-.206c.544-.427.928-.35.73.145-.137.341-.116.349.689.266.662-.068.806-.046.71.108-.077.125.146.269.632.407.667.19,1.716.732,1.418.733a12.22,12.22,0,0,1-2.644-.413c-.109-.106-.274-.107-.567-.005-.392.136-.393.149-.017.235.285.066.355.172.25.38a1.533,1.533,0,0,0-.125.661c.02.342-.047.373-.8.374-.912,0-1.151-.072-1.515-.466a.755.755,0,0,0-.448-.259,1.127,1.127,0,0,1-.5-.168.687.687,0,0,0-.475-.111c-.1.037-.349-.129-.558-.369-.229-.262-.34-.322-.278-.15.08.225.014.273-.3.224s-.38-.149-.283-.456.045-.392-.253-.391a1.587,1.587,0,0,0-.7.2,1.057,1.057,0,0,1-.891.07,1.9,1.9,0,0,0-.809-.037c-.152.058-.19.011-.105-.127.1-.154-.07-.281-.557-.426-.861-.257-.847-.258-.844.042,0,.136.279.332.616.434.717.217,1.746.662,1.533.663-.08,0,.031.163.248.361.389.356.388.36-.1.284-.34-.053-.5-.017-.495.113,0,.1-.186.191-.415.192-.462,0-1-.309-.773-.448a.573.573,0,0,1,.443.061c.5.25.319-.062-.272-.466a.982.982,0,0,0-1.189-.184c-.591.183-.66.174-1.031-.122-.534-.427-.781-.4-.775.09q0,.406.338.4c.183,0,.309.064.28.143s.5.279,1.172.443c.9.218,1.246.379,1.3.6a.376.376,0,0,0,.318.3c.134,0,.188.033.121.075a2.808,2.808,0,0,1-.962-.133,3.668,3.668,0,0,0-.92-.159c-.136.084.19.494.392.493.338,0,2.1,1.056,1.936,1.159-.089.055-.348-.016-.575-.159a5.819,5.819,0,0,0-2.256-1c-.3,0-.4.066-.309.2.137.214-.23.264-1.64.224-.866-.024-.917.162-.16.584.308.171.56.362.561.425s-.12.04-.267-.048a2.551,2.551,0,0,0-.989-.158,1.978,1.978,0,0,1-.85-.123,1.613,1.613,0,0,0-.761-.112c-.795.017-1.141-.109-1.145-.417,0-.163-.283-.291-.864-.395-1.107-.2-1.144-.195-1.141.073,0,.346,1.372,1.016,1.937.948.361-.043.505.019.581.252.115.353-.187.6-.744.6a13.612,13.612,0,0,1-4.945-1.785c-.235-.136-.49-.207-.567-.16s-.033.129.1.18a2.224,2.224,0,0,1,.863.88c.005.062.185.19.4.284s.392.231.392.3.258.2.572.288c.684.186.527.425-.281.428a2.384,2.384,0,0,0-.963.216c-.264.148-.43.167-.536.064Zm-1.155-3.257a2.252,2.252,0,0,0-1.588-.432c-.185.04-.189.179-.015.517.3.583,1.295.854,1.562.425a.57.57,0,0,0,.041-.51Zm-1.441.03c0-.075.1-.173.22-.22s.222-.024.223.051-.1.173-.22.22S161.975,343.539,161.974,343.464Zm10.366.638c-.066-.064,0-.278.148-.476.223-.3.371-.347.88-.283.351.045.612.019.611-.059,0-.158-.7-.315-1.147-.257-.165.022-.278-.033-.251-.121s-.149-.2-.392-.244-.442-.137-.442-.2-.343-.158-.761-.2a3.913,3.913,0,0,1-1.217-.34c-.55-.308-.7-.32-.7-.056,0,.127-.127.169-.355.117-.263-.06-.335-.014-.273.175a.457.457,0,0,0,.415.261c.182,0,.307.076.279.163s.349.23.837.316a2.093,2.093,0,0,1,.89.272c0,.063.228.25.5.417a1.951,1.951,0,0,1,.533.4c.061.213.093.237.321.236.13,0,.182-.053.116-.117Zm2.088-.434c0-.074-.107-.135-.237-.134s-.173.062-.1.136a.461.461,0,0,0,.237.134C174.386,343.8,174.429,343.743,174.428,343.668Zm279.352-1.973a1.375,1.375,0,0,0-1.057-.01c-.056.056.186.107.537.114s.585-.04.52-.1Zm-332.344,1.07c.237.054.3.029.194-.076-.25-.243-.806-.185-.783.082.011.13.068.164.126.075S121.241,342.719,121.437,342.764Zm34.592-.054c.227-.14-.281-.59-.664-.589-.288,0-.3.038-.074.2.208.151.212.2.016.2-.145,0-.2.062-.124.136a.89.89,0,0,0,.845.046Zm-27.685-.279c-.069-.041-.192.034-.274.168-.119.193-.093.209.125.075.151-.092.218-.2.149-.243Zm-12.068.127a.58.58,0,0,0-.458-.051c-.458.109-.4.184.133.182C116.2,342.687,116.348,342.628,116.275,342.558ZM426.82,341.19a.7.7,0,0,0-.426.013c-.073.045.058.077.293.07C426.945,341.265,427,341.233,426.82,341.19Zm-307.642.845c-.074-.045-.126.035-.115.178.012.158.065.19.135.081a.184.184,0,0,0-.02-.259Zm290.032-1.048a7.246,7.246,0,0,1-1.115-.291.92.92,0,0,0-.39-.093c-.646-.029-.743-.058-.615-.185.075-.075-.008-.1-.19-.057a2.682,2.682,0,0,1-1.034-.143c-.926-.287-1.07-.174-.411.323.555.418,1.578.591,3.758.637l1,.021Zm-296.671,1.042c.23-.228.2-.289-.173-.41-.4-.127-1.332.016-1.33.2.005.5,1.062.644,1.5.207Zm334.582-1.168a8.285,8.285,0,0,0-2.3-.042,6.244,6.244,0,0,0,1.41.1C446.843,340.912,447.243,340.886,447.12,340.861Zm7.119-.206a.5.5,0,0,0-.4.094c-.216.135-.191.15.125.075C454.186,340.773,454.308,340.7,454.24,340.655Zm-270.567.807a.84.84,0,0,0-.337-.432.528.528,0,0,1-.268-.336c0-.241-.15-.221-.65.088-.421.26-.42.267.107.609C183.173,341.811,183.773,341.848,183.672,341.462Zm-66.923.255a1.123,1.123,0,0,0,.623-.12c.076-.076-.15-.133-.528-.131-.816,0-1.364.126-1.362.305,0,.077.169.091.389.033A3.749,3.749,0,0,1,116.749,341.717Zm55.575-.4a.494.494,0,0,0-.371-.208c-.164,0-.16.087.014.282C172.247,341.7,172.535,341.64,172.325,341.313Zm244.482-.759a.7.7,0,0,0-.426.012c-.073.045.058.077.293.07C416.932,340.629,416.985,340.6,416.807,340.554Zm39.814-.166a5.19,5.19,0,0,0-1,0c-.275.033-.049.059.5.057S456.9,340.419,456.621,340.388Zm-343.968.539.708-.017-.724-.138a2.013,2.013,0,0,1-.732-.22,1.163,1.163,0,0,0-.323-.331c-.28-.222-.364-.228-.77-.052-.251.108-.381.242-.289.3s-.024.185-.255.29c-.407.184-.4.194.115.31a2.688,2.688,0,0,0,1.05,0,7.337,7.337,0,0,1,1.221-.137Zm8.469.047c.347-.162.371-.232.135-.4a2.1,2.1,0,0,0-1.822.024c-.575.321-.5.43.321.489.4.028.773.059.835.069A1.726,1.726,0,0,0,121.121,340.974Zm342.8-1.44a.845.845,0,0,0-.526.086c-.164.1-.077.118.292.058C463.991,339.63,464.091,339.568,463.924,339.535Zm-260.18.976c0-.233-.688-.384-1.195-.264-.718.171-.358.464.567.46C203.516,340.706,203.746,340.633,203.745,340.511Zm-85.783.247a.423.423,0,0,0-.534,0c-.206.127-.146.163.269.161s.474-.038.265-.164Zm317.08-1.268c.878,0,.732-.078-.34-.175-.523-.047-.788-.026-.7.057.162.158-1.018.016-1.338-.161a3.34,3.34,0,0,0-1-.132l-.79-.015.777-.1.777-.1-.73-.015c-.476-.01-.775.059-.86.2a.439.439,0,0,1-.448.139c-.176-.04-.256-.013-.18.061a2.356,2.356,0,0,0,.958.138c.451,0,1.222.053,1.711.112a6.143,6.143,0,0,0,1.186.055A7.907,7.907,0,0,1,435.042,339.489Zm-252.645.9c0-.074-.177-.134-.391-.132-.333,0-.34.023-.054.134C182.374,340.551,182.4,340.551,182.4,340.385Zm15.9-.2c.075-.075.055-.142-.044-.15-1.552-.124-1.931-.072-1.475.2a2.673,2.673,0,0,0,1.519-.051Zm-10.263-.3c.069-.112.029-.2-.09-.2a.208.208,0,0,0-.213.2c0,.112.042.2.09.2S187.962,340,188.031,339.889Zm-59.48.19c.468-.183.02-.264-1.187-.212-1.463.062-1.621.345-.188.337A6.1,6.1,0,0,0,128.551,340.079Zm-2.417-.276c0-.137-.222-.165-1.475-.184-.47-.007-.659.044-.586.158C124.2,339.979,126.136,340,126.134,339.8Zm76.71-.313c0-.074-.152-.135-.335-.134s-.333.062-.332.137.152.135.335.134S202.845,339.564,202.844,339.49Zm255.979-1a1.384,1.384,0,0,0-.556,0c-.153.038-.027.068.279.067s.43-.032.277-.069Zm-321.146,1.043c.07-.047,0-.112-.152-.145s-.28-.146-.281-.251c0-.395-.753-.138-.992.34-.154.308-.125.321.568.233A3.712,3.712,0,0,0,137.677,339.533ZM462.3,338.11a5.3,5.3,0,0,0-.761-.136c-.488-.064-.578-.052-.333.048C461.51,338.144,462.527,338.226,462.3,338.11Zm-343.34.937.507-.2-.463-.259a1.367,1.367,0,0,0-1.215-.1c-.774.159-1.51.55-1.033.548a.232.232,0,0,1,.252.2C117.013,339.47,118.171,339.363,118.963,339.047Zm-9.179.146a.57.57,0,0,0-.348-.134c-.115,0-.209.062-.208.136s.157.135.348.134S109.86,339.267,109.784,339.193Zm6.373-.789a4.171,4.171,0,0,1,.93-.189c.691,0,.563-.273-.222-.469-1.02-.255-.985-.257-.982.072,0,.306-.863.588-1.208.393-.319-.181-.569-.144-.566.084,0,.112-.142.2-.318.2a.77.77,0,0,0-.463.144C113.134,338.838,115.373,338.649,116.157,338.4Zm6.493-.342a3.89,3.89,0,0,0,1.015-.351c0-.044-.1-.041-.232.008a.8.8,0,0,1-.541-.066c-.236-.118-.467-.1-.976.059a3,3,0,0,0-.824.371c-.1.1-.061.121.1.06.141-.054.256-.033.257.046,0,.189.021.187,1.2-.128Zm333.266-1.185a1.382,1.382,0,0,0-.556,0c-.153.038-.027.068.279.067s.431-.033.277-.069Zm.685-.218c-.057-.056.328-.109.855-.119.81-.015.872-.034.4-.123l-.557-.106.556-.026c.306-.015.423-.058.261-.1a4.174,4.174,0,0,0-1.221.147,11.41,11.41,0,0,1-1.745.252c-1.193.051-.855.187.446.18.61,0,1.063-.051,1.006-.107Zm-338.194,1.219q.122-.2-.2-.12c-.351.084-.44.319-.12.318A.435.435,0,0,0,118.406,337.878Zm331.945-1.484c.584-.274.473-.355-.48-.351-.547,0-.91.075-.986.2C448.673,336.584,449.714,336.693,450.351,336.394Zm3.766-.055a.7.7,0,0,0-.426.012c-.073.045.058.077.293.07C454.242,336.414,454.294,336.382,454.116,336.339Zm1.846-.186a3.774,3.774,0,0,0-1.293-.11l-1.154.025,1,.091c1.533.139,1.594.139,1.445-.006Zm-364.988,1.3c0-.324-.41-.371-.665-.077-.2.235-.171.275.214.274C90.774,337.646,90.976,337.557,90.975,337.45Zm369.263-1.408a2.065,2.065,0,0,0-.667.008c-.15.038.027.065.394.061s.49-.035.273-.069Zm-226.47-.154a1.384,1.384,0,0,0-.556,0c-.152.038-.027.068.279.067s.43-.032.277-.069Zm27.451-.242c.044-.084-.15-.19-.43-.237a28.077,28.077,0,0,0-4.293-.063,1.951,1.951,0,0,1-1.127-.031c-.183-.11-.761.032-.759.187a8.881,8.881,0,0,0,2.058.112c2.809-.012,2.808-.012,2.964.139A2.308,2.308,0,0,0,261.219,335.646ZM93.286,335.7a1.326,1.326,0,0,1,.731-.233c.692,0,1.159-.147,1.157-.358,0-.1.173-.191.387-.195.355-.005.352-.023-.036-.2s-.389-.2-.059-.281c.2-.048.366-.138.365-.2,0-.211-.912-.285-1.29-.1-.285.136-.275.106.043-.124l.42-.3-.694.052a5.113,5.113,0,0,0-1.277.288,2.342,2.342,0,0,1-1.005.17c-.232-.036-.422-.015-.422.047s-.174.146-.387.186-.02.057.43.036.8.008.779.061.162.2.408.32c.374.186.383.21.055.149a3.161,3.161,0,0,0-2.024.532,3.591,3.591,0,0,0-.577.4,10.88,10.88,0,0,0,1.361.015C92.645,335.937,93.086,335.867,93.286,335.7Zm-.5-.445a.7.7,0,0,1,.426-.012c.178.042.126.075-.133.082C92.848,335.33,92.717,335.3,92.79,335.254Zm1.931-.866c0-.07.1-.165.217-.211s.163.006.089.127C94.883,334.539,94.724,334.583,94.722,334.388Zm-2-.06c0-.033.1-.1.221-.144s.222-.02.223.059-.1.144-.221.144S92.72,334.361,92.72,334.328Zm158.327.733a.108.108,0,0,0-.112-.1c-.885,0-.894.006-.554.138.364.141.668.125.667-.036Zm196.223-.768c.37-.1.321-.119-.292-.125-.437,0-.68.048-.6.128C446.543,334.454,446.669,334.454,447.27,334.293Zm14.668-.744a7.482,7.482,0,0,0-3.214-.122c-.328.128-.332.127,1.215.32.245.03,1,.055,1.668.055h1.223ZM85.612,335.094c0-.075-.157-.135-.348-.134s-.284.062-.208.136a.571.571,0,0,0,.348.134C85.52,335.23,85.613,335.169,85.612,335.094Zm359.761-1.387a1.6,1.6,0,0,0-.55-.114c-.3-.034-.5-.01-.431.054C444.507,333.759,445.375,333.812,445.374,333.707ZM71.822,334.744a2.2,2.2,0,0,0-.669-.129c-.3,0-.3.016,0,.131a2.2,2.2,0,0,0,.668.129c.3,0,.3-.016,0-.131Zm3.1-.743c0-.128-.668-.19-.785-.073-.071.071.076.129.328.128A1.033,1.033,0,0,0,74.927,334Zm11.936-.078c.74-.124.371-.46-.5-.457-.813,0-1.221.238-.736.422A1.99,1.99,0,0,0,86.862,333.923Zm360.094-1.616a.7.7,0,0,0-.426.012c-.073.045.058.077.293.07C447.082,332.381,447.134,332.349,446.956,332.306Zm1.291-.141a4.347,4.347,0,0,0-1.51-.383c-.193.119.587.422,1.08.42A1.348,1.348,0,0,0,448.247,332.165Zm-368.565.477c-.184-.062-.276-.169-.206-.24.26-.26-1.211-.179-1.664.092-.277.166-.224.2.4.276a2.472,2.472,0,0,1,.835.2c.065.063.31.041.545-.05C79.952,332.779,79.966,332.737,79.682,332.642Zm2.014.249c0-.281-.916-.315-1.44-.053l-.534.267.988-.047A2.189,2.189,0,0,0,81.7,332.891Zm367.7-1.806c-.911-.264-1.152-.4-1.058-.581.178-.35-.287-.514-1.875-.663a4.454,4.454,0,0,0-1.993.063l-.581.2.612,0c.336,0,.612.062.613.134s.142.1.313.057c.212-.05.362.062.47.35a.788.788,0,0,0,.415.479c.2.043,2.545.213,4.04.293C450.473,331.421,450.043,331.273,449.394,331.085ZM84.027,332.46l-.558-.191.6-.007a1.55,1.55,0,0,1,.721.112,1.7,1.7,0,0,0,.675.181c.3.034.507.017.45-.038-.156-.151.972-.391,2.26-.481a3.131,3.131,0,0,1,1.292.059.663.663,0,0,0,.409.136c.159,0,.131-.055-.07-.133-.27-.1-.235-.131.178-.134.332,0,.458.051.356.153s-.06.12.093.061.2-.309.112-.678c-.108-.459-.062-.6.217-.667.335-.08.859.279.79.541-.107.406.747.717,1.084.394a8.284,8.284,0,0,1,1.049-.627,2.692,2.692,0,0,0,.887-.613c0-.079.263-.129.58-.11.645.038,1.357-.335.824-.431-1.985-.359-4.037-.409-4.4-.108a5.672,5.672,0,0,1-1.425.139,2.948,2.948,0,0,0-2.051.509c-.485.308-.737.592-.7.788s-.076.324-.329.357c-.276.036-.35-.01-.256-.163s-.012-.213-.448-.211c-.6,0-.815.328-.3.453.167.04.122.072-.11.079-.214.007-.388.065-.388.129a4.168,4.168,0,0,1-1.358.2,5.942,5.942,0,0,0-1.609.246c-.194.128-.116.145.346.077a1.258,1.258,0,0,1,.736.047.878.878,0,0,0,.515.129c.274,0,.224-.058-.182-.2Zm.657-.883c.27-.108.241-.133-.155-.133a1.16,1.16,0,0,0-.623.136C83.733,331.754,84.248,331.751,84.684,331.577Zm351.252-1.394a2.068,2.068,0,0,0-.667.008c-.15.038.027.065.394.061S436.152,330.217,435.936,330.184Zm1.868-.262c-.954-.388-3.6-.631-3.593-.33,0,.335,1.01.489,3.15.482C438.026,330.071,438.105,330.044,437.8,329.921Zm22.827-.1.679-.086-.538-.3c-.49-.273-.659-.289-1.9-.18a8.965,8.965,0,0,1-1.539.053c-.146-.054-.444.222-.442.41a15.958,15.958,0,0,0,2.364.168A10.829,10.829,0,0,0,460.63,329.823Zm-375.066.938c0-.075-.1-.135-.224-.135s-.222.062-.221.136.1.135.224.134S85.566,330.836,85.565,330.761Zm-3.117-.326q0-.2-.669-.2c-.384,0-.668.075-.669.172q0,.169-.219-.033c-.12-.111-.219-.136-.22-.056,0,.244.26.326,1.038.323C82.22,330.64,82.45,330.575,82.448,330.436Zm2-.207c0-.072-.151-.1-.334-.052s-.332.1-.332.132.151.053.334.052S84.448,330.3,84.447,330.228Zm-4.212-.127c.633-.21.537-.628-.168-.732a1.388,1.388,0,0,0-.722.025c-.3.26-1.332.576-1.463.449-.22-.214-1.668-.159-1.665.063,0,.121.157.165.428.121a2.022,2.022,0,0,1,.835.073,6.972,6.972,0,0,0,2.757,0Zm6.43-.118a.352.352,0,0,0,.108-.28c0-.138.3-.274.777-.358a3.647,3.647,0,0,0,.887-.23,1.63,1.63,0,0,1,.554-.164c.337-.053.295-.073-.175-.083-.915-.019-4.048.992-3.8,1.229A4.019,4.019,0,0,0,86.665,329.983Zm357.718-1.466c-.053-.161-.286-.236-.723-.234-.784,0-1.017.3-.3.378C444.341,328.771,444.462,328.754,444.384,328.517Zm7.253-.079a2.88,2.88,0,0,0-1.578-.018c-.355.085-.336.107.15.176C450.909,328.695,451.8,328.6,451.637,328.438Zm-360.359,1.15c.734-.15.608-.3-.338-.387-1.288-.124-1.485-.1-1.793.2-.261.258-.246.276.171.193.252-.05.458-.038.459.026C89.778,329.758,90.539,329.739,91.278,329.588Zm355.813-1.522a2.194,2.194,0,0,0-.668-.129c-.3,0-.3.016,0,.131a2.2,2.2,0,0,0,.669.128C447.389,328.2,447.389,328.181,447.09,328.066ZM85.271,329.323c.275-.046.5-.138.5-.2,0-.2-1.059-.126-1.191.088s-.047.239.693.115Zm6.449-.734c-.1-.318-.686-.337-1.241-.04-.6.323-.489.395.517.319C91.583,328.825,91.773,328.751,91.72,328.59Zm369.5-1.36a17.773,17.773,0,0,0-4.016-.413c-.129.077.085.128.557.131.422,0,1.368.086,2.1.183l1.429.189C461.345,327.325,461.312,327.285,461.221,327.229Zm4.822-.14a2.754,2.754,0,0,0,.771-.13c-.038-.023-.735-.078-1.549-.122-1.42-.077-1.475-.069-1.356.2.1.219.251.265.709.21C464.939,327.21,465.581,327.138,466.043,327.089ZM81.608,328.261c-.181-.282-.521-.231-.517.077,0,.176.111.241.322.191C81.587,328.487,81.675,328.367,81.608,328.261ZM468.2,326.693c0-.112-.149-.2-.328-.2a9.988,9.988,0,0,1-1.294-.195c-.533-.108-1.363-.228-1.845-.268l-.877-.072.951.266a13.206,13.206,0,0,0,1.783.353,7.6,7.6,0,0,1,1.167.2C468.2,326.926,468.2,326.926,468.2,326.693ZM93.314,327.755c0-.072-.151-.1-.334-.052s-.332.1-.332.133.151.053.334.052S93.314,327.827,93.314,327.755Zm356.2-1.6c.324-.129.267-.136-1.058-.131a.3.3,0,0,0-.239.136C448.125,326.338,449.077,326.335,449.515,326.16Zm-368.888.895c-.156-.113-.329-.177-.385-.143-.153.095.163.35.432.349C80.822,327.26,80.8,327.183,80.627,327.055Zm366.547-1.427a4.107,4.107,0,0,0-.891-.109c-.357,0-.335.027.112.112C447.158,325.776,447.742,325.774,447.174,325.628Zm-358.1.786c0-.074.243-.136.541-.138a1.327,1.327,0,0,0,.679-.138c.152-.152-.2-.171-.93-.049-.488.082-.9.462-.5.461C88.979,326.55,89.075,326.488,89.074,326.414Zm355.862-2.078a4.644,4.644,0,0,0-1.781-.2c-.772.051.776.4,1.783.4h.889l-.892-.2ZM94.959,325.713c.075-.075-.07-.135-.322-.134s-.457.063-.456.137.146.135.322.134A.765.765,0,0,0,94.959,325.713Zm339.163-2.431a2.377,2.377,0,0,0-.667-.02c-.418.01-.583.046-.367.079s.328.127.238.22.039.069.275-.041S434.071,323.3,434.122,323.282Zm1.948.269c-.26-.156-1.757-.2-1.6-.043a2.2,2.2,0,0,0,.946.136C435.858,323.643,436.152,323.6,436.07,323.552Zm-4.934-.536a2.846,2.846,0,0,1-.669-.164,12.9,12.9,0,0,0-2.725-.142c-.817.033-.565.291.281.288.428,0,.779.043.779.1a4.827,4.827,0,0,0,1.39.039C430.956,323.1,431.381,323.047,431.136,323.016ZM465,322.763a1.068,1.068,0,0,0-.661-.148c-.2.046-.109.117.258.209C465.371,323.018,465.415,323.012,465,322.763Zm-30.2-.2c0-.073-.2-.114-.44-.09-.663.064-.718.17-.1.2C434.556,322.685,434.8,322.637,434.8,322.563Zm6.447-.148a9.569,9.569,0,0,0-1.458-.318c-.568-.063-.682-.031-.708.2-.023.207.072.259.385.208a4.961,4.961,0,0,1,1.156.035C441.854,322.714,442.069,322.671,441.247,322.416Zm12.117-.126a3.612,3.612,0,0,0-.879-.334,2.155,2.155,0,0,1-.67-.254,6.636,6.636,0,0,0-2.666-.551,12.62,12.62,0,0,1-1.783-.2,25.355,25.355,0,0,0-5.256-.109c-.157.06.115.23.715.446.789.284.887.359.525.4-.841.1-.827.277.034.419a4.014,4.014,0,0,0,2.1,0,2.826,2.826,0,0,1,1.264-.012,40.589,40.589,0,0,0,4.834.34c1.1.036,2.041.092,2.1.125a.514.514,0,0,0,.229.058c.071,0-.172-.15-.541-.331Zm-17.568-.048c.251-.155.168-.221-.518-.417-.956-.273-3.618-.447-2.767-.181.276.086.5.209.5.272s.2.114.446.113.445.055.446.125.277.151.613.18.694.063.795.073A1.006,1.006,0,0,0,435.8,322.242Zm-332.943.5c.225-.168.167-.184-.384-.107-1.067.148-1.238.2-1.111.321A2.063,2.063,0,0,0,102.853,322.746Zm328.715-1.8c.08-.08-.041-.23-.268-.333-.616-.28-.768-.235-.48.142C431.094,321.114,431.335,321.176,431.567,320.944Zm16.55-.6a5.418,5.418,0,0,0-2.225-.108c-.183.062-.282.119-.221.127s.41.043.775.078a4.556,4.556,0,0,1,.737.107c.132.079.935-.095.934-.2ZM73.68,321.656c0-.029-.151-.053-.334-.052s-.333.06-.332.133.151.1.334.052.332-.1.332-.133Zm377.772-1.587a2.865,2.865,0,0,0-.728-.443L450,319.26l1.223-.014,1.223-.014-.725-.188c-.4-.1-.726-.283-.727-.4,0-.293-.613-.259-.927.051-.356.353-.77.236-2.02-.568-.721-.464-.974-.713-.793-.782.405-.155.2-.209-1.727-.447-2.308-.285-3.689-.271-4.06.042-.267.226-.325.224-1.114-.025a4.969,4.969,0,0,1-1.09-.461c-.264-.2-.35-.191-1.87.276-.385.118-.992-.316-.762-.546.072-.072-.2-.138-.606-.147-1.042-.024-2.091-.071-3.609-.163a8.457,8.457,0,0,0-1.667.018c-1.816.506-3.022.455-3.692-.158-.28-.256-.54-.315-1.372-.312a2.2,2.2,0,0,1-1.314-.232c-.22-.181-.641-.239-1.806-.249a15.616,15.616,0,0,1-1.853-.092,11.089,11.089,0,0,0-2.51-.412c-1.613.352-1.595.343-1.139.528a9.548,9.548,0,0,0,1.492.346,3.907,3.907,0,0,1,1.227.338,4.808,4.808,0,0,0,2.13.6,1.639,1.639,0,0,0,.8-.2.817.817,0,0,1,.587-.122c.249.057.265.118.071.263-.265.2.119.251,1.323.185.443-.024.5.016.368.272-.145.286-.11.3.7.194a8.882,8.882,0,0,1,1.08-.087c.122.011,1.571.04,3.218.064,2.262.033,3.053.091,3.231.237a5.076,5.076,0,0,0,1.677.285c1.3.082,1.4.071,1.009-.105-.425-.193-.425-.2.034-.289.728-.144,1.52.029,1.562.341.03.225-.059.262-.484.2-.584-.087-.911.2-.506.442.177.107.174.244-.012.5-.343.467-.357.451.468.524,2.015.178,2.615.2,2.614.09a2.932,2.932,0,0,0-1.06-.364c-1.039-.241-1.047-.247-.408-.321.621-.072.633-.086.257-.312a.908.908,0,0,0-.6-.159c-.112.043-.2.021-.205-.049,0-.222,2.088-.013,2.585.259a1.522,1.522,0,0,0,.67.222,6.264,6.264,0,0,1,1.2.186,16.707,16.707,0,0,0,1.782.289c.428.036,1.08.107,1.447.157.6.082.639.069.36-.133-.261-.19-.261-.224,0-.223.44,0,.752.167.754.4,0,.134.3.227.892.273a5.8,5.8,0,0,1,2.341.559c0,.056-.1.1-.221.1s-.222.065-.221.143.453.128,1.113.107a4.141,4.141,0,0,0,1.113-.113Zm-9.308-2.018c-1.026-.394-.906-.583.164-.256a2.137,2.137,0,0,1,.894.405C443.2,318.4,442.952,318.361,442.144,318.05Zm5.134,1.8a1.385,1.385,0,0,0-.556,0c-.152.038-.027.068.279.067s.43-.032.277-.069Zm-8.62-.144c.077-.077-.012-.1-.21-.052-.384.092-.454.189-.134.188A.561.561,0,0,0,438.659,319.707Zm18.566-.2c0-.07-.1-.165-.225-.21-.417-.155-.23-.468.333-.556.447-.07.509-.126.3-.275a1.25,1.25,0,0,0-.631-.185,1.438,1.438,0,0,1-.629-.152c-.321-.193-1.612.1-1.609.369,0,.1.329.332.729.523s.827.406.95.475c.293.166.78.172.778.01Zm-387.233,1.45c.069-.069-.041-.225-.243-.346-.426-.256-.89-.076-.673.262a.732.732,0,0,0,.916.084Zm9.015-.115a1.159,1.159,0,0,1,.581-.205c.169,0,.306-.062.3-.137s-.144-.135-.317-.134a.6.6,0,0,1-.467-.4c-.189-.507-.849-.54-1.349-.068-.451.425-.252.615.645.617.59,0,.644.025.322.141-.405.146-.526.4-.19.4A1.029,1.029,0,0,0,79.007,320.836Zm3.13-.141c.262.1.255-.355-.01-.606-.172-.163-.286-.158-.767.037a3.177,3.177,0,0,1-.906.23c-.579,0-.374.262.274.347.337.044.713.1.835.114a.322.322,0,0,0,.3-.082.246.246,0,0,1,.277-.041Zm2.648.006c0-.061-.138-.194-.307-.3-.26-.156-.372-.147-.732.06a3.516,3.516,0,0,1-.748.321c-.177.042.152.065.732.051A2.64,2.64,0,0,0,84.786,320.7Zm4.57-.1a2.749,2.749,0,0,1,.859-.173c.875-.063.973-.34.145-.41-.366-.031-.614-.007-.552.054s.014.111-.109.111a.592.592,0,0,1-.362-.134c-.086-.084-.282-.088-.514-.012a11.177,11.177,0,0,1-1.652.226,3.905,3.905,0,0,0-1.276.213,9.479,9.479,0,0,0,3.459.125Zm6.839-.833c.717-.175-.182-.482-1.277-.435-.344.015-.368.053-.137.22.176.127.192.2.043.2a.614.614,0,0,1-.375-.134c-.19-.185-1.225-.167-1.223.021,0,.085.2.119.446.079s.389-.017.321.051c-.145.145,1.606.142,2.2,0Zm-11.307-.107c.083-.083-.235-.129-.822-.119-.81.015-.872.034-.4.124C84.457,319.817,84.732,319.816,84.887,319.661Zm370.9-2.557c.083-.353-.454-.717-1.056-.714-.491,0-.541.242-.158.745C454.9,317.565,455.68,317.545,455.784,317.1Zm-31.073-.373a5.721,5.721,0,0,0-.872-.131l-.779-.079.78.181C424.53,316.862,424.975,316.877,424.711,316.731ZM462,316.342a.705.705,0,0,0-.656.007c-.178.11-.066.149.412.144C462.336,316.486,462.366,316.468,462,316.342Zm-15.935-.188c0-.074-.108-.135-.237-.134s-.173.062-.1.136a.461.461,0,0,0,.237.134C446.027,316.29,446.071,316.229,446.07,316.154Zm3.407-.154c.72-.016-.988-.388-1.787-.389a8.635,8.635,0,0,1-1.521-.135c-.762-.173-1.208-.017-.652.227a4.346,4.346,0,0,0,1.314.187,7.339,7.339,0,0,1,1.349.12,2.062,2.062,0,0,0,.741.055A3.863,3.863,0,0,1,449.477,316Zm-10.309-.63a5.711,5.711,0,0,0-2.446.01,3.6,3.6,0,0,0,1.391.128C439.093,315.5,439.4,315.462,439.168,315.37ZM102.62,316.392c.192-.046.294-.138.225-.2a1.4,1.4,0,0,0-1.288.087c-.133.215.4.274,1.063.117Zm311.462-1.353a.423.423,0,0,0-.534,0c-.206.127-.146.163.269.161s.474-.038.265-.164Zm19.186-.322a.461.461,0,0,0-.237-.134c-.054,0-.1.061-.1.136s.107.135.237.134S433.345,314.791,433.268,314.717Zm-25.684-.166a2.2,2.2,0,0,0-.669-.128c-.3,0-.3.016,0,.131a2.195,2.195,0,0,0,.668.129C407.883,314.681,407.883,314.667,407.584,314.551Zm-4.9-1.124c0-.2-.388-.32-1.673-.5-1.758-.248-2.6-.272-2.8-.078-.152.152-.237.145-.474-.036a7.443,7.443,0,0,0-2.847-.306c0,.131.612.471.844.471a3.2,3.2,0,0,1,.853.336c.559.29.684.308.892.134.133-.112.285-.177.338-.145a12.684,12.684,0,0,0,1.536.126c.792.037,1.791.118,2.22.18C402.442,313.73,402.683,313.691,402.68,313.427Zm-300.569.387a1.383,1.383,0,0,0-.556,0c-.152.038-.027.068.279.067s.43-.032.277-.069Zm284.764-2.022c-.437-.17-.732-.168-.556,0a.888.888,0,0,0,.515.131c.324,0,.33-.022.041-.133Zm56.158-.5c.051,0,.092-.092.091-.2s-.211-.2-.545-.2a1.3,1.3,0,0,1-.705-.156c-.109-.106-.041-.13.208-.073.2.047.37.021.369-.056,0-.257-.736-.056-.8.221-.076.31.541.647.99.541a2.861,2.861,0,0,1,.395-.072Zm-60.278-.09a5.089,5.089,0,0,0-1.753-.214c-.344.015-.368.053-.137.22a2.911,2.911,0,0,0,1.419.186C383.421,311.378,383.422,311.378,382.755,311.2ZM401.319,311a.326.326,0,0,0-.205-.27c-.341-.126-.888.074-.757.278C400.518,311.255,401.322,311.249,401.319,311Zm-1.331-.477c.47,0,.583-.2.195-.345-.131-.049-.189-.168-.129-.265.121-.2-.617-.359-1.105-.242-.171.041-.31.153-.309.248,0,.216.559.354,1,.248.183-.044.333-.027.334.037s-.346.185-.771.267c-.659.129-.838.114-1.224-.1a.923.923,0,0,0-.919-.1c-.593.2-.3.38.669.421a1.538,1.538,0,0,1,.861.211c.087.135.221.11.538-.1a1.868,1.868,0,0,1,.858-.281Zm-50.869.389a1.384,1.384,0,0,0-.556,0c-.152.038-.027.068.279.067s.43-.032.277-.069ZM396,310.367a1.648,1.648,0,0,0-.025-.428c-.09-.481-1.127-.863-1.122-.414,0,.126-.208.2-.554.205-.8,0-.669.163.4.5C395.827,310.572,395.97,310.588,396,310.367Zm46.223-.152c-.184-.07-.285-.175-.225-.234s-.19-.12-.557-.135c-.635-.027-.643-.021-.165.123.276.083.5.2.5.266s.176.113.39.111c.332,0,.34-.022.054-.131Zm-67.931,0a.656.656,0,0,0-.4-.132c-.159,0-.131.055.07.133.429.166.506.166.333,0Zm19.845-.039a2.977,2.977,0,0,0-.778,0c-.214.035-.038.062.39.06S394.354,310.213,394.139,310.18Zm-14.513-.389a.461.461,0,0,0-.237-.134c-.054,0-.1.061-.1.136s.107.135.237.134S379.7,309.865,379.626,309.791Zm-7.005-.111a4.4,4.4,0,0,1,.665-.231l.554-.159-.593-.007a5.651,5.651,0,0,1-.946-.087c-.23-.053-.352-.006-.35.133s-.122.185-.332.137a1.765,1.765,0,0,0-.722.03c-.3.084-.22.125.391.192.885.1,1.176.095,1.334-.008Zm4.267.029a.7.7,0,0,0-.426.012c-.073.045.058.077.293.07C377.013,309.784,377.065,309.752,376.888,309.71Zm31.531-.24a.2.2,0,0,0-.2-.2.444.444,0,0,0-.324.2c-.077.124,0,.2.2.2C408.273,309.674,408.419,309.582,408.418,309.47Zm-39.345-.393c.2-.149.19-.194-.047-.2-.168,0-.781-.026-1.362-.048-.727-.027-1.056.012-1.055.127,0,.262.164.3,1.218.308A2.762,2.762,0,0,0,369.073,309.077Zm17.414-.24c.159-.159-1.243-.169-1.647-.012-.239.093-.071.129.6.128A3.029,3.029,0,0,0,386.487,308.837Zm-20.882-.221a6.654,6.654,0,0,0-1.224-.1,3.959,3.959,0,0,1-.938-.075,1.648,1.648,0,0,0-.667-.027c-.157.039-.065.075.2.08a1.218,1.218,0,0,1,.626.144,4.42,4.42,0,0,0,1.4.118C366.131,308.741,366.2,308.725,365.6,308.616Zm-4.3-.332a.7.7,0,0,0-.426.012c-.073.045.058.077.293.07C361.432,308.358,361.485,308.326,361.307,308.284Zm16.189-.109c-.443-.172-1.4-.168-1.223.005a1.88,1.88,0,0,0,.848.13C377.661,308.306,377.751,308.274,377.5,308.175Zm-20.8-.037a24.22,24.22,0,0,0-4.267-.486c-.258.159.121.237,1.976.4C356.855,308.279,356.947,308.282,356.694,308.138Zm-7.555-.525a.8.8,0,0,0-.473-.133c-.183,0-.271.062-.195.136a.8.8,0,0,0,.472.133C349.128,307.749,349.216,307.688,349.139,307.614Zm-2.789-.866c0-.2-.884-.4-1.612-.368a.861.861,0,0,1-.515-.109,5.319,5.319,0,0,0-2.622.078c-.166.27.357.348.655.1.215-.18.305-.178.772.019a4.629,4.629,0,0,0,1.425.228,7.284,7.284,0,0,1,1.342.12c.245.063.471.119.5.124s.055-.081.053-.191Zm-5.38-.641c.069-.227-.017-.244-.775-.154-.958.114-1.189.18-1.187.34a2.1,2.1,0,0,0,.943.09C340.682,306.366,340.909,306.3,340.97,306.106Zm-2.589.1a.7.7,0,0,0-.426.012c-.073.045.058.077.293.07C338.506,306.286,338.559,306.254,338.381,306.211ZM148.942,305.9a1.382,1.382,0,0,0-.556,0c-.152.038-.027.068.279.067s.43-.032.277-.069Zm3.556-.128c.03-.075-.171-.154-.447-.177-.528-.043-.695.179-.219.292C152.2,305.981,152.432,305.941,152.5,305.777Zm166.04-.529c0-.029-.156-.089-.347-.132s-.287-.022-.209.054C318.115,305.3,318.54,305.358,318.539,305.248Zm.888-.086c0-.074-.107-.135-.237-.134s-.173.062-.1.136a.462.462,0,0,0,.237.134C319.384,305.3,319.428,305.237,319.427,305.162Zm1.683-.023a2.13,2.13,0,0,0-1.1.018c-.154.095.126.133.875.121l1.1-.018Zm-167.118.014c0-.07-.177-.131-.391-.136s.01-.091.5-.191.792-.188.676-.2c-.454-.029.331-.327.9-.343a1.114,1.114,0,0,0,.686-.169c.147-.276-.631-.324-1.432-.089-.745.219-.8.218-1.084-.014a6.122,6.122,0,0,0-3.386-.005c-.537.331.025.633.89.478.581-.1.694-.082.8.151a.361.361,0,0,0,.424.2c.167-.04.3-.013.3.059s-.124.134-.276.138.023.086.391.183C153.677,305.4,153.994,305.379,153.992,305.153Zm-1.341-.664c0-.074.154-.136.345-.137s.285.06.211.135a.563.563,0,0,1-.345.137C152.746,304.625,152.651,304.564,152.65,304.49Zm4.288.677c.523-.026.492-.242-.046-.325-.567-.088-2.494.172-2.345.317.1.1.553.1,2.391.008Zm30.348-.842c.2-.122.142-.2-.237-.316a1.59,1.59,0,0,0-1.112.034c-.339.1-.557.247-.484.318A3.079,3.079,0,0,0,187.286,304.325Zm7.826-.686c0-.074-.1-.135-.224-.135s-.222.062-.221.136.1.135.224.135S195.113,303.714,195.112,303.639Zm-6.631-.2a.7.7,0,0,0-.426.012c-.073.045.058.077.293.07C188.606,303.513,188.658,303.481,188.48,303.438Zm9.519-.09c0-.079-.1-.105-.223-.059s-.221.112-.221.144.1.059.223.059S198,303.427,198,303.349Zm2.753-.218c.082-.132.031-.194-.131-.16-.332.069-.511.377-.219.376a.475.475,0,0,0,.35-.216Zm-28.441-.22c.4-.1.39-.111-.112-.111a5.206,5.206,0,0,0-1.221.2l-.665.2.777-.087A11.842,11.842,0,0,0,172.312,302.911Zm27.576-.213a.5.5,0,0,0-.4.094c-.216.135-.191.15.125.075C199.834,302.816,199.957,302.739,199.888,302.7Zm15.46-.225a.955.955,0,0,0,.561-.159c.116-.116-.24-.13-1.37-.055a14.42,14.42,0,0,0-1.621.16c-.052.032.031.149.184.26.246.178.369.178,1.059,0a6.432,6.432,0,0,1,1.186-.2Zm-14.688.12c0-.033-.1-.059-.223-.059s-.222.065-.221.144.1.105.223.059.221-.111.221-.144Zm23-.226a1.59,1.59,0,0,1,.814-.129.707.707,0,0,0,.509-.054c.193-.193-.616-.269-1.625-.152a8.2,8.2,0,0,1-1.41.05.9.9,0,0,0-.78.225c-.266.269-.231.279.892.271A5.087,5.087,0,0,0,223.659,302.367ZM203,302.189c.412-.193.406-.2-.164-.2-.725,0-1.3.124-1.294.286C201.547,302.466,202.532,302.409,203,302.189Zm17.329-.143c.172-.172-.122-.171-.556,0-.286.114-.28.133.044.133a.88.88,0,0,0,.512-.135ZM96.858,346.612c0-.169.219-.344.551-.438.3-.086.555-.125.555-.086a2.353,2.353,0,0,1-.551.438C96.9,346.869,96.861,346.874,96.858,346.612Zm30.018-.034c0-.079.1-.144.221-.144s.223.026.223.059-.1.1-.221.144S126.877,346.657,126.876,346.578Zm-4.217-.25c-.174-.2-.179-.282-.014-.282.27,0,.567.377.385.49-.066.041-.233-.053-.371-.207Zm48.653-.03a.667.667,0,0,1-.47-.292c-.126-.286.273-.976.425-.734a.547.547,0,0,0,.421.168c.173,0,.316.086.317.193s.22.235.486.285l.484.091-.537.184a3.235,3.235,0,0,1-.648.173C171.728,346.36,171.513,346.33,171.311,346.3Zm248.129-1a11.3,11.3,0,0,0-1.65-.1c-1.648-.033-2.867-.3-2.871-.62,0-.141.288-.215.964-.248.612-.029.916,0,.828.092-.162.162,1.865.548,2.866.546.375,0,1.233.037,1.906.085.994.071,1.12.105.669.186a11.572,11.572,0,0,1-2.713.062Zm-17.684-.072a.7.7,0,0,1,.426-.012c.178.042.125.075-.133.082C401.815,345.307,401.683,345.275,401.756,345.23Zm-296.176.987a1.318,1.318,0,0,1,.794-.186c.567-.013.655.019.456.167C106.515,346.434,105.456,346.45,105.581,346.217Zm-.947-.2c0-.19.811-.419,1.836-.517s1.6-.015,1.378.207c-.072.072-.288.062-.515-.023-.3-.113-.627-.08-1.421.144C104.779,346.147,104.635,346.169,104.633,346.017Zm69.817-.31c0-.079.1-.144.221-.144s.223.026.223.059-.1.1-.221.144S174.452,345.786,174.451,345.707Zm-59.591.1c0-.074-.154-.135-.34-.134a.886.886,0,0,1-.6-.341c-.212-.279-.2-.382.087-.557.316-.2.361-.19.5.064a.4.4,0,0,0,.486.2c.224-.053.314-.011.268.125-.039.113.182.332.489.486l.559.28-.723.007C115.186,345.939,114.86,345.881,114.86,345.807Zm33.944-.229a.436.436,0,0,1-.152-.338c0-.187.166-.249.679-.251.581,0,.661-.043.538-.273-.163-.306.089-.353.555-.1.262.141.27.133.048-.045s-.2-.27.047-.474c.308-.257.319-.256.656.008.471.37.445.454-.195.635-.3.086-.553.231-.552.322,0,.167-.925.607-1.283.608A.781.781,0,0,1,148.8,345.578Zm-46.966,0a1.057,1.057,0,0,0-.681-.062c-.444.07-.531.033-.534-.228,0-.225.19-.357.694-.475.778-.182,1.118-.125.943.159-.2.323.614.472,1.643.3s1.249-.122,1.04.217c-.108.174-.445.224-1.546.229A5.065,5.065,0,0,1,101.838,345.578Zm-3.217-.342c0-.071.258-.277.575-.459.5-.288.566-.3.5-.076C99.616,344.967,98.624,345.461,98.621,345.236Zm302.17-1.41a.868.868,0,0,0-.475-.055.318.318,0,0,1-.3-.075c-.078-.075-.01-.139.15-.14.215,0,.2-.036-.037-.128-.455-.172-.148-.32.436-.21.264.05.424.125.356.167s.041.148.242.237C401.589,343.81,401.252,344,400.791,343.826Zm58.478-.325c0-.164,1.091-.46,1.705-.463.711,0,.644.217-.1.319-.336.046-.835.124-1.11.173S459.27,343.566,459.27,343.5Zm-281.178.549c-.081-.079-.1-.177-.03-.217.158-.1.594.072.6.231S178.275,344.228,178.092,344.05Zm231.53-.9c-.659-.1-.434-.307.33-.311.4,0,1.273-.041,1.945-.086l1.222-.082-.542.271a6.557,6.557,0,0,1-2.955.209Zm-230.746.642c0-.079.1-.144.221-.144s.223.026.223.059-.1.1-.221.144S178.878,343.872,178.877,343.793Zm265.484-1.138c0-.109.3-.264.663-.343a2.225,2.225,0,0,1,.666-.093,3.15,3.15,0,0,1-.663.343c-.517.228-.664.248-.666.093Zm-17.622-.029c-.471-.165-.506-.439-.084-.655a3.82,3.82,0,0,1,1.654-.312c-.09.418.086.565.678.562.865,0,1.35.335.648.453A9.685,9.685,0,0,1,426.738,342.626Zm-339.311,1.11a.5.5,0,0,1,.4-.094c.069.041-.054.118-.272.169C87.236,343.886,87.211,343.87,87.427,343.736Zm347.479-1.4c-.076-.074.073-.136.332-.137s.41.059.335.134a.543.543,0,0,1-.332.137A.552.552,0,0,1,434.906,342.333ZM84.877,343.681a.7.7,0,0,1,.426-.012c.178.042.126.075-.133.082C84.936,343.758,84.8,343.726,84.877,343.681Zm52.412-.4c-.246-.148-.448-.32-.449-.383s.2-.226.441-.361.441-.329.44-.429c0-.21.2-.229.643-.061a.3.3,0,0,1,.192.4c-.065.157-.029.318.081.359.225.083-.4.739-.7.741A1.879,1.879,0,0,1,137.289,343.278Zm-50.114-.168a.915.915,0,0,1,.382-.468c.144-.058.064-.129-.2-.181-1.086-.213-1.106-.231-.4-.368.46-.089.734-.238.779-.424a.331.331,0,0,1,.342-.255c.327.039.364-.322.045-.44-.276-.1-.3-.473-.031-.474a.4.4,0,0,1,.307.249c.087.2.264.235.829.182.672-.063.7-.048.474.216-.135.156-.232.332-.215.391.1.364-.086.587-.563.662a2.236,2.236,0,0,0-.831.3c-.243.185-.228.2.1.126.571-.133.475.071-.229.488-.785.464-.975.463-.792-.005Zm116.039-.237c-.183-.178.08-.432.345-.334s.273.467,0,.468a.57.57,0,0,1-.348-.134Zm-54.144.041c0-.1.144-.181.322-.182a.573.573,0,0,1,.44.179c.072.112-.049.181-.322.182C149.269,343.094,149.072,343.013,149.07,342.914Zm269.971-1.066c-.68-.163-.562-.586.178-.641a1.049,1.049,0,0,1,.842.239C420.555,341.925,420.105,342.1,419.041,341.848ZM93.376,342.968c-.517-.226-.41-.457.212-.46.306,0,.556.054.557.124s.219.145.485.167a.887.887,0,0,1,.577.211C95.324,343.222,93.88,343.189,93.376,342.968Zm2.141-.41a1.065,1.065,0,0,1,.753-.144c.47.108.4.152-.456.278C95.188,342.785,95.17,342.777,95.517,342.559Zm-23.912.08c-.368-.221-.1-.446.535-.449.394,0,.623.054.545.132A1.571,1.571,0,0,1,71.6,342.639Zm107.921-.481c0-.075.154-.136.345-.137s.285.06.211.135a.563.563,0,0,1-.345.137c-.115,0-.21-.06-.211-.135Zm209.008-.854c0-.075.374-.136.832-.137.62,0,.749.033.5.131C389.431,341.472,388.535,341.476,388.534,341.3Zm-196.558.6a1.214,1.214,0,0,1,.352-.2c.042,0,.02.091-.049.2a.468.468,0,0,1-.352.2C191.8,342.107,191.817,342.021,191.975,341.9Zm7.448-.1c-.358-.092-.281-.117.388-.128.459-.007.834.048.835.122C200.648,341.962,200.043,341.965,199.423,341.805Zm196.223-.8c-.27-.1-.235-.131.178-.134.286,0,.453.056.378.132-.164.164-.14.163-.556,0Zm-256.369.988c0-.033.1-.1.221-.144s.222-.02.223.059-.1.144-.221.144-.223-.026-.223-.059Zm68.038-.339c0-.169.624-.3.768-.161.065.063-.039.152-.231.2-.465.111-.535.106-.537-.037Zm250.305-.991a2.064,2.064,0,0,1,.667-.008c.217.033.094.064-.273.069s-.544-.023-.394-.061ZM81.687,342.016c0-.074-.347-.134-.768-.132a2.865,2.865,0,0,1-2.078-.872,6.376,6.376,0,0,0-3.033-.517c-.82.2-.289-.114.626-.365a4.192,4.192,0,0,0,1.162-.451,5.282,5.282,0,0,1,2.281-.436l.778-.057-.814.168c-1.12.231-1.225.333-.664.647a3.772,3.772,0,0,1,.845.688c.328.38.435.411,1.213.344.638-.055.826-.029.745.1s.268.232,1.02.346c1.326.2,1.632.593.353.453-.511-.056-.779-.034-.778.065,0,.083-.2.151-.443.152S81.687,342.09,81.687,342.016ZM78.4,340.131c.159,0,.138-.049-.055-.123-.362-.137-.91-.042-.908.158,0,.074.159.1.352.052A3.439,3.439,0,0,1,78.4,340.131Zm60.425,1.584c0-.142-.1-.253-.294-.345-.112-.052.059-.1.381-.1.749,0,.886.135.343.345C139.023,341.71,138.83,341.753,138.83,341.716Zm257.059-1.172c-.293-.1-.432-.215-.311-.262a.893.893,0,0,1,.622.181c.466.309.416.322-.312.08ZM97.025,341.608c-.184-.023-.706-.077-1.16-.12l-.826-.078.46-.284c.382-.236.63-.27,1.467-.2a3.356,3.356,0,0,0,1.3-.068c.215-.11.418-.075.8.137l.509.285-.492.08c-.27.044-.436.134-.368.2C98.823,341.667,97.768,341.7,97.025,341.608Zm7.224-.232a10,10,0,0,1,1.331-.26c.385.016-1.529.517-2,.523C103.341,341.642,103.64,341.524,104.249,341.376Zm26.572.055c0-.062-.277-.191-.615-.286s-.492-.2-.344-.233a1.828,1.828,0,0,1,.829.184c.583.255.734.447.353.448C130.923,341.544,130.823,341.493,130.822,341.43Zm84.714-.411c0-.107.139-.267.312-.355.258-.132.293-.111.2.12C215.9,341.123,215.539,341.292,215.536,341.019ZM93.3,341.48a.7.7,0,0,1,.426-.012c.178.043.126.075-.133.082C93.363,341.557,93.231,341.525,93.3,341.48Zm101.665-.467c-.079-.076.01-.1.209-.054.386.088.458.185.138.186A.567.567,0,0,1,194.97,341.013Zm198.664-1.067a14.5,14.5,0,0,0-1.815-.083c-.859.007-1.2-.035-1.066-.134a3.676,3.676,0,0,1,1.48-.051c.708.051,1.563.1,1.9.1s.612.07.613.144C394.748,340.076,394.451,340.082,393.634,339.946ZM94.485,340.993a.526.526,0,0,1,.322-.114c.115,0,.21.05.21.112s-.144.113-.323.114S94.422,341.055,94.485,340.993Zm-4.03-.245a2.129,2.129,0,0,1,1.272-.8c.092,0,.168.118.17.267,0,.183.151.27.461.269.69,0,.324.223-.5.311a11.046,11.046,0,0,0-1.141.179C90.356,341.059,90.32,341.028,90.455,340.748Zm103.141-.34a1.421,1.421,0,0,1,.6-.206c.2,0,.2.049-.009.2a1.186,1.186,0,0,1-.6.206C193.31,340.612,193.311,340.583,193.6,340.407Zm14.212.063a.7.7,0,0,1,.426-.012c.178.042.126.075-.133.082C207.866,340.547,207.735,340.516,207.808,340.471Zm166.642-.688a2.067,2.067,0,0,1,.667-.008c.217.034.094.064-.273.069S374.3,339.821,374.45,339.783Zm-307.375.733a.752.752,0,0,1-.031-.537c.055-.183-.01-.36-.146-.395s-.024-.049.249-.032c.615.039.949.217.41.219-.331,0-.371.078-.244.475.153.479.005.646-.237.27Zm307.815-1.141a2.066,2.066,0,0,1,.667-.008c.217.033.094.064-.273.069S374.739,339.412,374.89,339.375Zm-3.388-.254c-.425-.256-.226-.431.554-.488.454-.033.564.025.625.332s-.016.372-.369.374A1.844,1.844,0,0,1,371.5,339.121Zm-5.721.034a4.161,4.161,0,0,0-.886-.2c-.545-.078-.346-.1.771-.075a9.618,9.618,0,0,1,1.65.117c.08.048,0,.088-.17.09a6.134,6.134,0,0,0-.764.079A1.227,1.227,0,0,1,365.78,339.154ZM58.543,340.273c0-.271.527-.6.946-.589.36.01.391.03.115.076a.77.77,0,0,0-.512.325C58.973,340.32,58.545,340.466,58.543,340.273Zm44.142-.232c-.073-.07.064-.193.3-.272.465-.154.829.011.579.262A.826.826,0,0,1,102.685,340.041ZM360.6,338.72c-.877-.232-.882-.238-.337-.354.305-.065.6-.122.666-.127a1.7,1.7,0,0,0,.333-.092,1.72,1.72,0,0,1,.611-.046c.75.07.379-.181-.392-.266-.429-.047-.78-.144-.781-.215,0-.171.366-.165.925.014a9.119,9.119,0,0,0,1.6.213c1.311.077,1.5.128.9.248-.231.047-.638.15-.905.229a3.544,3.544,0,0,1-1.167.064c-.514-.06-.681-.031-.679.12,0,.11.158.2.349.2s.285.06.211.135C361.761,339.013,361.675,339.005,360.6,338.72Zm9.229.087c-.26-.1-.2-.131.29-.135.361,0,.567.053.489.131C370.438,338.973,370.257,338.974,369.828,338.807Zm-4.136-.675c-.112-.109,1.073-.243,2.9-.33l1.333-.063-1.126.115a10.349,10.349,0,0,0-1.574.263,2.57,2.57,0,0,1-1.536.016Zm-13.094-.244c-.826-.257-.851-.281-.406-.4a2.015,2.015,0,0,1,.876-.026,2.4,2.4,0,0,0,.68.076c.153-.016.278.03.279.1a.859.859,0,0,0,.139.344c.188.292-.453.255-1.569-.091Zm17.5-.247a.7.7,0,0,1,.426-.012c.178.042.126.075-.133.082-.234.007-.366-.025-.293-.07Zm-23.86-.633c0-.075.155-.136.345-.137s.285.06.211.135a.563.563,0,0,1-.345.137C346.334,337.143,346.239,337.082,346.238,337.008ZM71.93,337.69a1.471,1.471,0,0,1,1.23-.78c.24,0,.223.055-.075.258-.213.145-.332.317-.265.382s-.163.223-.512.35l-.634.231Zm10.379.257c0-.072.149-.132.332-.133s.334.023.334.052-.149.089-.332.132S82.31,338.019,82.309,337.947Zm-7.286-.271c.484-.451,1.022-.478.89-.044-.079.261-.241.346-.662.348-.528,0-.54-.014-.229-.3Zm4.392-.028c0-.141.7-.5.974-.5.154,0,.282.09.283.2s-.123.2-.276.2a3.383,3.383,0,0,0-.629.085C79.574,337.683,79.416,337.688,79.415,337.648Zm4.223-.169c0-.033.1-.1.221-.144s.222-.02.223.059-.1.144-.221.144S83.638,337.512,83.638,337.48ZM77.41,337.3c0-.079.1-.144.221-.144s.223.026.223.059-.1.1-.221.144S77.411,337.381,77.41,337.3Zm-3.7-.185a.461.461,0,0,1,.121-.474c.2-.229.18-.282-.1-.281-.188,0-.342-.06-.343-.134,0-.155.136-.164.826-.055s.872.544.392.872C74.156,337.356,73.883,337.378,73.715,337.117Zm5.515-.309c-.243-.166-.209-.2.22-.2a7.792,7.792,0,0,0,1.008-.088c.359-.06.5-.025.5.124a.346.346,0,0,0,.281.275c.153.037-.172.071-.722.077A2.9,2.9,0,0,1,79.23,336.808Zm2.511.063a.765.765,0,0,1,.456-.137c.176,0,.321.06.322.134s-.2.136-.456.137S81.667,336.945,81.741,336.87Zm-18.773-.115c-.011-.143.04-.223.115-.178a.185.185,0,0,1,.02.259C63.034,336.945,62.981,336.913,62.968,336.755Zm3.757-.486c-.588-.4-.642-.825-.1-.827.174,0,.317-.062.316-.137s.2-.136.443-.137c.428,0,.58.215.473.675a2.27,2.27,0,0,0-.032.508c.021.41-.416.377-1.1-.082Zm6.289.284a.7.7,0,0,1,.426-.012c.178.042.126.075-.133.082C73.073,336.63,72.941,336.6,73.015,336.553Zm-3.93-.229a.475.475,0,0,1,.35-.216c.292,0,.113.307-.219.376C69.053,336.518,69,336.456,69.084,336.324Zm-15.616-.711c-.1-.094-.066-.122.076-.069a.305.305,0,0,0,.349-.082c.079-.122.116-.125.13-.009C54.052,335.685,53.66,335.8,53.469,335.613Zm22.7-.074a.583.583,0,0,1,.358-.137c.122,0,.161.06.086.135a.583.583,0,0,1-.358.137C76.132,335.674,76.093,335.614,76.168,335.539Zm388.876-2.69a25.487,25.487,0,0,0-3.119-.577,4.808,4.808,0,0,1-.557-.08,9.2,9.2,0,0,0-1-.048c-2.487-.036-3.019-.068-2.913-.174.063-.063-.1-.251-.353-.418l-.469-.3,1.308.067a53.428,53.428,0,0,1,6,.535,16.644,16.644,0,0,0,2.659.2c1.883-.008,2.137.161.778.515-.486.127-.885.307-.885.4C466.492,333.182,466.374,333.173,465.044,332.849ZM66.038,334.378a.527.527,0,0,1,.29-.4c.391-.2.8.047.659.4S66.041,334.719,66.038,334.378Zm-14.9-.147c0-.116.42-.484.936-.819s1.435-.948,2.042-1.364c1.031-.706,1.657-.941,1.661-.624,0,.074-.092.136-.206.136a.524.524,0,0,0-.359.306,2.783,2.783,0,0,1-.554.658c-.471.413-.218.665.662.662.532,0,.536,0,.146.27-.493.336-.958.355-.92.038.018-.149-.155-.252-.465-.278-.372-.031-.527.045-.632.307-.1.245-.288.349-.641.35a3.05,3.05,0,0,0-1.085.285C51.245,334.391,51.14,334.4,51.138,334.232Zm13.425-.46a1.138,1.138,0,0,1,.444-.886c.4-.276.4-.282-.01-.291-.233,0-.624-.035-.869-.068s-.8-.068-1.224-.078a2.347,2.347,0,0,1-1.052-.229c-.34-.261-.387-.87-.058-.748.435.161,1.321-.07,1.318-.344,0-.425.849-.686,2.265-.691a3.918,3.918,0,0,0,1.283-.113c0-.06.335-.086.746-.058.627.042.774,0,.911-.268a.862.862,0,0,0,.122-.448c-.088-.278.646-.458,1.218-.3.64.178.717.35.164.367-.232.007-.277.039-.11.079.448.108.325.312-.273.453-.731.173-.7.477.063.648,1.632.364,1.559.335,1.021.4a1.847,1.847,0,0,0-.747.25,1.487,1.487,0,0,1-.743.2c-.593,0-1.464.365-1.461.609,0,.379-.693.345-1.313-.063-.516-.339-.665-.377-.877-.219-.4.294,1.595.852,3.154.884.221,0,.339.072.261.15a.7.7,0,0,1-.513.08c-.2-.034-.689-.1-1.077-.145-.633-.075-.694-.054-.584.194.083.189-.009.311-.291.382-.227.057-.412.226-.41.375,0,.187-.122.258-.4.23a1.488,1.488,0,0,0-.7.108C64.59,334.346,64.539,334.255,64.563,333.771Zm-.229-2.195c.2-.121.311-.249.254-.283-.156-.094-1.028.225-1.026.375C63.564,331.867,63.935,331.823,64.334,331.577Zm-2.968,2.609c0-.143.424-.2.553-.08.078.075-.015.138-.205.138S61.366,334.219,61.366,334.186ZM455.8,331.821c0-.074.043-.136.1-.136a.46.46,0,0,1,.237.134c.076.074.033.135-.1.136S455.805,331.9,455.8,331.821Zm-.83-.078a.7.7,0,0,1,.426-.012c.178.042.125.075-.133.082-.234.007-.366-.025-.293-.07Zm13.629-.672c.108-.108.007-.133-.321-.079a.96.96,0,0,1-.6-.044c-.141-.137,1.006-.172,1.551-.047s.418.322-.214.325C468.641,331.227,468.5,331.174,468.6,331.071Zm-398,1.45c.089-.143-.006-.183-.342-.142-.677.082-.576-.007.42-.374,1.161-.428,2.2-.374,2.054.108-.109.359-.275.4-.649.18-.179-.108-.373-.07-.71.138-.536.331-.951.379-.772.09ZM50,331.958c0-.17.2-.386.439-.48s.442-.283.44-.42.179-.35.4-.474c.485-.271,1.591-.307,1.594-.052,0,.23-1.006.773-1.438.775a.3.3,0,0,0-.329.257c0,.14-.246.356-.551.479C50.023,332.259,50,332.257,50,331.958Zm6.836.194c-.279-.168.123-.461.635-.463.478,0,.505.026.259.27A.751.751,0,0,1,56.838,332.152ZM455.249,330.4c-.556-.253-.288-.422.368-.232.277.08.373.15.213.156s-.228.071-.152.145c.186.181.085.165-.429-.069Zm21.205-1.247a7.82,7.82,0,0,0-1.583-.039c-.6.059-.837.025-.94-.134a1.05,1.05,0,0,0-.754-.21c-1.155,0-2.253-.248-2.191-.5.044-.18.232-.224.811-.191a4.074,4.074,0,0,1,.978.147,14.769,14.769,0,0,0,2,.253c1.766.147,3.672.516,3.676.711A4.45,4.45,0,0,1,476.454,329.152ZM55.992,330.809a3.2,3.2,0,0,1,1.144-.879c.342,0,.2.781-.162.866C56.539,330.9,55.993,330.907,55.992,330.809Zm4-.214c-.306-.058-.432-.113-.279-.121.337-.018.372-.421.036-.42a2.625,2.625,0,0,0-.63.131c-.415.137-1.355.053-1.357-.122,0-.057.306-.182.681-.279.808-.208,1.4-.712,1.4-1.2,0-.261.136-.366.506-.4.275-.025.5.015.5.088s.253.074.666-.023c.548-.129.728-.118,1.028.062.427.257.244.515-.366.518-.237,0-.431.063-.43.137s-.136.136-.3.137c-.683,0-.873.375-.518,1.017.371.671.29.712-.938.478Zm413.745-2.57a5.353,5.353,0,0,0-.945-.119c-1.07-.076-1.232-.172-.558-.33a2.215,2.215,0,0,1,1.2.077c.845.254.853.259.606.353a.434.434,0,0,1-.3.019ZM66.323,329.181c.16-.465.53-.7.819-.53.212.127-.436.969-.747.97C66.259,329.622,66.231,329.45,66.323,329.181Zm1.9-.163c-.2-.143-.144-.2.248-.265.674-.11,1.009.115.448.3C68.582,329.164,68.41,329.156,68.22,329.018Zm-5.427-1.5a1.388,1.388,0,0,1,.556,0c.153.037.029.068-.277.069s-.431-.029-.279-.067Zm-2.456-.594a.5.5,0,0,1,.4-.094c.069.041-.054.118-.272.169C60.146,327.071,60.12,327.056,60.336,326.921Zm.533-.784a.687.687,0,0,1,.556-.191c.4.091.373.262-.054.364C60.757,326.456,60.6,326.4,60.87,326.137Zm409.245-2.182a1.386,1.386,0,0,1,.556,0c.153.037.029.068-.277.069s-.431-.029-.279-.067ZM59.929,325.313c-.445-.165-.117-.322.348-.166.209.07.288.163.175.206A.9.9,0,0,1,59.929,325.313Zm.221-.537c0-.073.311-.232.693-.354.564-.18.728-.189.877-.045s.327.145.931.009c.907-.2,1.571-.221,1.386-.035a1.589,1.589,0,0,1-.763.138,1.877,1.877,0,0,0-.9.207C62.066,324.923,60.152,324.992,60.15,324.775Zm6.541-1.653c-.426-.091-.423-.1.07-.2.585-.116.752-.07.529.145A.8.8,0,0,1,66.691,323.122Zm-4.063-.879a.7.7,0,0,1,.426-.012c.178.043.126.075-.133.082C62.686,322.32,62.555,322.288,62.628,322.243Zm411.3-2.192c-.2-.144-.175-.206.109-.274.372-.089.979.12.982.338,0,.189-.808.141-1.091-.064Zm-6.476-.531a1.056,1.056,0,0,0-.49-.2,1.314,1.314,0,0,1-.527-.189,2.43,2.43,0,0,0-.6-.251c-.192-.042-.211-.109-.059-.21.552-.366,3.508.526,3.1.935A1.775,1.775,0,0,1,467.453,319.52Zm4.007-.784a3.944,3.944,0,0,0-1.159-.036,2.663,2.663,0,0,1-1.015-.054c-.334-.117-.278-.14.347-.146.594-.006.718-.052.607-.225s-.033-.2.422-.134c.865.128,1.97.567,1.631.647a2.421,2.421,0,0,1-.833-.052Zm-7.409-.172a1.387,1.387,0,0,1,.556,0c.153.037.029.068-.277.07s-.431-.029-.279-.067Zm-393.28,1.5a7.811,7.811,0,0,1,2.041-.616c.158,0,.087.074-.156.161a4.808,4.808,0,0,0-.735.337C71.646,320.111,70.773,320.2,70.771,320.06Zm-3.092-.2c-.294-.07-.479-.162-.411-.2a1.728,1.728,0,0,1,.756.13C68.725,320.009,68.513,320.054,67.679,319.855Zm399.755-2.028c0-.074.043-.136.1-.136a.461.461,0,0,1,.237.135c.076.074.033.135-.1.136s-.236-.06-.237-.134ZM73.647,319.1c.318-.236.446-.261.448-.087,0,.066-.162.16-.363.208C73.428,319.294,73.414,319.274,73.647,319.1Zm383.113-3.49c-.832-.606-1.228-1.208-.854-1.3.393-.093,1.263.137,1.265.335,0,.115.335.172.991.17,1.332-.005,1.769.258,1.019.613-.3.144-.711.355-.9.468-.52.306-.766.259-1.518-.289ZM90.62,316.778c-.19-.184.16-.811.424-.759.377.075.373.862,0,.863a.74.74,0,0,1-.419-.1Zm348.317-2.219c0-.075.043-.136.1-.136a.46.46,0,0,1,.237.134c.076.074.033.135-.1.136S438.938,314.633,438.937,314.558Zm-7.109-.747c-.393-.276-.609-.524-.481-.55.344-.071,1.293.419,1.189.614-.05.093.068.168.262.167s.353.059.354.134C433.155,314.468,432.508,314.29,431.828,313.811Zm2.322.225c-.223-.148-.305-.27-.183-.27a2.363,2.363,0,0,1,.739.268c.365.19.419.269.183.27A1.64,1.64,0,0,1,434.151,314.036ZM93.513,315.428c-.076-.074-.091-.135-.033-.135a3.314,3.314,0,0,0,.457-.084c.23-.055.352-.009.353.134,0,.239-.556.3-.777.085ZM89.4,315.31c0-.074.2-.136.443-.137s.445.059.446.134-.2.136-.443.137S89.4,315.384,89.4,315.31Zm350.366-1.577a2.024,2.024,0,0,0-.751-.094c-.256.029-.385-.076-.441-.362-.044-.222-.184-.425-.312-.45-.389-.077-.262-.294.172-.3.656,0,.757-.178.207-.361l-.509-.169.489-.007a8.321,8.321,0,0,1,2.628.926c.065.063-.316.037-.847-.058-.817-.146-.965-.144-.963.017,0,.1.135.189.3.189s.3.059.3.132.245.169.543.213c.346.051.5.149.424.272-.137.222-.682.244-1.238.05Zm9.153-.061c-.01-.019-.053-.144-.1-.278-.063-.2-.017-.213.236-.087.173.086.261.211.194.278-.114.114-.3.162-.334.088Zm-363.87,1.105c-.234-.227.043-.3.719-.2.571.089.586.106.179.209C85.332,314.943,85.217,314.942,85.047,314.777Zm7.235-.08c0-.238.13-.273.323-.086.071.069.028.164-.1.212S92.283,314.813,92.282,314.7Zm341.647-1.6a3.741,3.741,0,0,0-1.242-.476c-.716-.093-2.114-.679-1.853-.777a6.969,6.969,0,0,1,1.359.042c1.133.105,2.025.487,2.049.877,0,.081.266.217.579.3s.509.216.435.291c-.236.236-.673.15-1.326-.259ZM93.057,314.482c-.294-.076-.332-.118-.113-.123a2.066,2.066,0,0,1,.668.121c.408.158.057.16-.556,0Zm336.97-1.377c0-.074.224-.135.5-.135.4,0,.437.025.168.133C430.265,313.274,430.029,313.275,430.027,313.105Zm-6.252-.035A13.114,13.114,0,0,0,422,312.9a5.3,5.3,0,0,1-1.649-.229,5.564,5.564,0,0,1,1.729-.176c1.35-.031,1.758,0,1.857.157C424.082,312.881,423.965,313.184,423.775,313.07Zm10.911-.919c0-.068.2-.092.444-.054a1.115,1.115,0,0,1,.446.121,1,1,0,0,1-.444.054C434.887,312.273,434.687,312.219,434.686,312.151Zm-10.243-.111c-.4-.15-.231-.242.667-.355.553-.07.712-.049.64.085A1.469,1.469,0,0,1,424.443,312.04Zm10.719-.846a1.306,1.306,0,0,1-.494-.675.308.308,0,0,0-.337-.275c-.183,0-.334-.06-.335-.134s.249-.136.554-.138c.392,0,.555-.076.553-.252,0-.137.188-.356.421-.487.4-.226.447-.223.927.065.594.357.852,1.318.4,1.495-.221.087-.224.114-.013.115.153,0,.279.062.279.136s-.2.136-.443.137-.444.092-.442.2C436.238,311.72,435.688,311.621,435.162,311.194Zm-331.731.862a.7.7,0,0,1,.426-.012c.178.042.126.075-.133.082-.234.007-.366-.025-.293-.07Zm326.248-1.66a2.081,2.081,0,0,0-.813-.191.274.274,0,0,1-.288-.142c-.167-.26.289-.261,1.112,0a4.453,4.453,0,0,0,1.055.2c.345,0,.369.034.142.2C430.55,310.712,430.5,310.709,429.679,310.4Zm-13.256-.959c0-.311.078-.339,1-.343a4.084,4.084,0,0,1,1,.058c0,.183-1.037.619-1.48.621C416.54,309.775,416.426,309.7,416.423,309.437Zm-305.449,1.1a.7.7,0,0,1,.426-.012c.178.043.126.075-.133.082C111.032,310.613,110.9,310.581,110.974,310.536Zm2.716-.272c.488-.122,1.086-.29,1.33-.373l.886-.3a20.984,20.984,0,0,0,3.209-1.346,2.1,2.1,0,0,1,.675-.491c.692-.39,2.2-.769,2.2-.553a10.278,10.278,0,0,1-2.788,1.626,1.476,1.476,0,0,0-.689.274,1.61,1.61,0,0,1-.788.274c-.717,0-1.3.272-1.159.535.11.207-.044.255-1.042.326-.644.046-1.521.121-1.949.168l-.777.085Zm323.952-1.4c-.242-.235.03-.286.338-.063.177.128.194.206.047.206A.629.629,0,0,1,437.643,308.868Zm-3.665-.518c0-.074.1-.136.221-.136s.223.06.224.134-.1.136-.221.136S433.978,308.425,433.977,308.35Zm-35.387-.41c-.212-.081-.087-.118.4-.122a2.126,2.126,0,0,1,.814.1c.148.144-.849.165-1.216.025Zm31.823-.184c0-.112.145-.2.324-.2.2,0,.277.078.2.2a.444.444,0,0,1-.324.2A.2.2,0,0,1,430.413,307.755ZM417.6,307.53c-.285-.261-.314-.382-.119-.5.346-.213,1.264.324,1.076.629S418.026,307.923,417.6,307.53Zm-25.046.088a2.064,2.064,0,0,1,.667-.008c.217.033.094.064-.273.069S392.4,307.656,392.55,307.618Zm27.184-.29c0-.059.2-.14.443-.18s.444-.025.445.034-.2.14-.443.18S419.735,307.387,419.735,307.328ZM400.719,307c-.076-.074-.039-.135.083-.136a.59.59,0,0,1,.361.134c.076.074.039.135-.083.136A.591.591,0,0,1,400.719,307Zm-261.831-.352a.2.2,0,0,1,.2-.2.453.453,0,0,1,.329.2c.079.123,0,.2-.2.2C139.037,306.847,138.89,306.756,138.888,306.645Zm257.929-.952a.726.726,0,0,1,.21-.3.319.319,0,0,1,.466-.048c.142.085.192.222.111.3C397.437,305.81,396.814,305.849,396.817,305.692Zm32.03-.422-.54-.249.536-.106c.295-.058.575-.112.622-.12s.117.153.155.358C429.7,305.588,429.578,305.607,428.847,305.27Zm-284.292,1.148a3.035,3.035,0,0,0-1.126-.131c-.583,0-.988-.058-.989-.148s.245-.123.694-.07c.383.045,1.259.082,1.947.082h1.251l-.746.2c-.887.239-.855.237-1.03.067Zm207.622-.93a.7.7,0,0,1,.426-.012c.178.042.126.075-.133.082C352.236,305.565,352.1,305.534,352.178,305.488Zm-2.508-.186c-.429-.061-1.124-.145-1.546-.186-1.1-.107-1.128-.2-.065-.206a2.7,2.7,0,0,1,1.052.131,1.693,1.693,0,0,0,.793.132c.36,0,.655.058.655.133s-.024.129-.054.122S350.1,305.364,349.669,305.3Zm-210.232.731-.89-.093,1.154-.024a3.779,3.779,0,0,1,1.293.111c.152.147-.2.149-1.556.006Zm204.555-1.377c-.167-.162.489-.164,1.112,0,.376.1.335.117-.263.127A1.851,1.851,0,0,1,343.992,304.656Zm-4.105-.4c-1.572-.181-1.578-.247-.015-.177,1.275.057,1.4.042,1.055-.126-.526-.257-.494-.364.107-.364.51,0,1.4.257.907.263a.52.52,0,0,0-.4.275c-.15.295-.192.3-1.653.13Zm-2.741-.337a1.387,1.387,0,0,1,.556,0c.153.037.029.068-.277.069s-.431-.029-.279-.067Zm25.462-.232a.7.7,0,0,1,.426-.012c.178.042.125.075-.133.082C362.667,303.762,362.535,303.731,362.609,303.685Zm-28.693-.032c-.277-.031-.446-.115-.376-.185a.326.326,0,0,1,.316-.059,6.185,6.185,0,0,0,1.088.087c.5.01.849.069.786.132A4.342,4.342,0,0,1,333.916,303.653Zm5.121-.142a.7.7,0,0,1,.426-.012c.178.042.126.075-.133.082C339.1,303.588,338.964,303.556,339.037,303.511Zm-193.284.522c0-.118.117-.191.262-.162.413.082.485.373.092.375C145.914,304.246,145.754,304.151,145.753,304.033Zm183.828-.635c-.771-.046-1.22-.3-.535-.305,1,0,2.368.178,2.107.28a1.4,1.4,0,0,1-.516.095c-.122-.011-.6-.042-1.057-.07Zm2.193-.021c-.063-.061.181-.085.542-.055a2.2,2.2,0,0,1,.656.108A2.355,2.355,0,0,1,331.774,303.376Zm-4.882-.23c-.276-.166-.155-.292.238-.248.214.024.54.052.723.062.233.013.2.054-.11.137C327.174,303.249,327.073,303.255,326.891,303.146Zm-56.567-.031a.7.7,0,0,1,.426-.012c.178.042.125.075-.133.082-.234.007-.366-.025-.293-.07Zm30.788-.4a1.387,1.387,0,0,1,.556,0c.153.037.029.068-.277.069s-.431-.029-.279-.067Zm-113.347.011c0-.074.224-.135.5-.135.4,0,.437.025.168.133C188,302.89,187.766,302.891,187.764,302.721Zm-4.45-.245c0-.079.1-.144.221-.144s.223.026.223.059-.1.1-.221.144S183.315,302.556,183.315,302.477Zm-37.358-.179c0-.029.154-.09.344-.135s.287-.025.21.052C146.381,302.344,145.957,302.407,145.956,302.3Zm37.131-.234a2.179,2.179,0,0,1,.666-.134c.3,0,.3.013,0,.131a2.177,2.177,0,0,1-.666.134C182.792,302.2,182.792,302.181,183.088,302.063Zm70.142-.3c-.222-.216.023-.3.576-.194.384.073.425.119.186.213C253.585,301.945,253.408,301.941,253.229,301.768Zm-71.895-.17-.526-.174.706-.1a2.394,2.394,0,0,1,.839-.017c.073.044-.034.081-.237.082-.433,0-.494.219-.089.317.153.037.179.066.056.065A3.538,3.538,0,0,1,181.335,301.6Zm145.271-.538c-.337-.078-.244-.106.391-.116a3.41,3.41,0,0,1,.834.039C327.833,301.1,327.013,301.154,326.606,301.059Zm-73.652.037c-.671-.161-.633-.229.109-.2,1.3.051,1.314.054.947.2C253.618,301.253,253.6,301.253,252.953,301.1Zm12.114-.062a.5.5,0,0,1,.4-.094c.069.041-.054.118-.272.169C264.876,301.185,264.851,301.169,265.067,301.035Zm-13.505-.063c0-.074.1-.136.221-.136s.223.06.224.135-.1.136-.221.136S251.563,301.046,251.562,300.971Zm-51.081.127a.7.7,0,0,1,.426-.012c.178.042.126.075-.133.082-.234.007-.366-.025-.293-.07Zm59.529-.221c0-.033.1-.1.221-.144s.222-.02.223.059-.1.144-.221.144-.223-.026-.223-.059Zm7.448-.1a7.526,7.526,0,0,1,2.557-.036,5.965,5.965,0,0,1-1.611.127c-1.162.011-1.426-.014-.946-.091Zm-41.474-.373a12.958,12.958,0,0,1,3.669-.015c.089.086-.607.137-1.931.141C226.3,300.529,225.757,300.49,225.984,300.4Zm40.579-.156c-.363-.086-.272-.124.486-.206a3.816,3.816,0,0,1,1.335.039c.354.123.33.141-.191.147a6.312,6.312,0,0,0-.889.066A2.157,2.157,0,0,1,266.563,300.242Zm7.954.012a.7.7,0,0,1,.426-.012c.178.042.125.075-.133.082C274.576,300.331,274.444,300.3,274.517,300.254Zm2.753-.031c-.057-.056.136-.1.43-.1s.535.044.536.1-.193.1-.43.1A1.077,1.077,0,0,1,277.271,300.223Zm-11.987-.075a1.387,1.387,0,0,1,.556,0c.153.037.029.068-.277.069s-.431-.029-.279-.067Z" transform="translate(-50.001 -300)"/>
</svg>