<svg id="Layer_1" data-name="Layer 1" xmlns="http://www.w3.org/2000/svg" xmlns:xlink="http://www.w3.org/1999/xlink" width="353.6096" height="353.4455" viewBox="0 0 353.6096 353.4455"><defs><style>.cls-1{fill:#c65454;}.cls-2{fill:url(#linear-gradient);}.cls-3{fill:#eacd00;}.cls-4{fill:#c4b90f;}</style><linearGradient id="linear-gradient" x1="217.025" y1="393.6488" x2="217.025" y2="40.2032" gradientUnits="userSpaceOnUse"><stop offset="0.0045" stop-color="#84735d"/><stop offset="0.5235" stop-color="#a48e78"/><stop offset="1" stop-color="#c6aa95"/></linearGradient></defs><path id="Subtraction_2-3" data-name="Subtraction 2-3" class="cls-1" d="M234.7218,393.6478h-.0136a14.2786,14.2786,0,0,1-11.8854-6.3456H198.7919l-4.231,3.3a14.3186,14.3186,0,0,1-8.8078,3.0462h-77.84A67.6384,67.6384,0,0,1,40.22,325.95v-26.1a14.4661,14.4661,0,0,1,4.231-10.1541,15.0156,15.0156,0,0,1,2.2-1.7772V235.16l-.425-.2958A14.3324,14.3324,0,0,1,40.262,223.23V163.3625a14.2987,14.2987,0,0,1,4.2309-10.1541,15.1418,15.1418,0,0,1,2.158-1.7772V120.42a14.3144,14.3144,0,0,1-6.3889-11.93v-.5949A67.6381,67.6381,0,0,1,107.96,40.2034h63.1668a14.3406,14.3406,0,0,1,10.1541,4.2309l2.1529,2.158h82.7552l2.158-2.158a14.3386,14.3386,0,0,1,10.155-4.2309H326.137a67.6352,67.6352,0,0,1,67.6927,67.69V213.6682a14.2153,14.2153,0,0,1-4.231,10.1542,9.6249,9.6249,0,0,1-1.1839,1.0581l-1.0582.7649v8.8852a14.223,14.223,0,0,1,6.3881,11.888v33.1252a14.3467,14.3467,0,0,1-4.231,10.1541l-2.158,2.158v1.5647a14.3172,14.3172,0,0,1,6.389,11.9313V325.95a67.6353,67.6353,0,0,1-67.69,67.6936H234.7218ZM103.1237,60.2354a43.3958,43.3958,0,0,0-43.3465,43.3464V330.3875a43.3958,43.3958,0,0,0,43.3465,43.3464H330.9306a43.3956,43.3956,0,0,0,43.3464-43.3464V103.5818a43.3956,43.3956,0,0,0-43.3464-43.3464Z" transform="translate(-40.2202 -40.2032)"/><path id="Subtraction_2-4" data-name="Subtraction 2-4" class="cls-2" d="M234.7218,393.6478h-.0136a14.2786,14.2786,0,0,1-11.8854-6.3456H198.7919l-4.231,3.3a14.3186,14.3186,0,0,1-8.8078,3.0462h-77.84A67.6384,67.6384,0,0,1,40.22,325.95v-26.1a14.4661,14.4661,0,0,1,4.231-10.1541,15.0156,15.0156,0,0,1,2.2-1.7772V235.16l-.425-.2958A14.3324,14.3324,0,0,1,40.262,223.23V163.3625a14.2987,14.2987,0,0,1,4.2309-10.1541,15.1418,15.1418,0,0,1,2.158-1.7772V120.42a14.3144,14.3144,0,0,1-6.3889-11.93v-.5949A67.6381,67.6381,0,0,1,107.96,40.2034h63.1668a14.3406,14.3406,0,0,1,10.1541,4.2309l2.1529,2.158h82.7552l2.158-2.158a14.3386,14.3386,0,0,1,10.155-4.2309H326.137a67.6352,67.6352,0,0,1,67.6927,67.69V213.6682a14.2153,14.2153,0,0,1-4.231,10.1542,9.6249,9.6249,0,0,1-1.1839,1.0581l-1.0582.7649v8.8852a14.223,14.223,0,0,1,6.3881,11.888v33.1252a14.3467,14.3467,0,0,1-4.231,10.1541l-2.158,2.158v1.5647a14.3172,14.3172,0,0,1,6.389,11.9313V325.95a67.6353,67.6353,0,0,1-67.69,67.6936H234.7218ZM103.1237,60.2354a43.3958,43.3958,0,0,0-43.3465,43.3464V330.3875a43.3958,43.3958,0,0,0,43.3465,43.3464H330.9306a43.3956,43.3956,0,0,0,43.3464-43.3464V103.5818a43.3956,43.3956,0,0,0-43.3464-43.3464Z" transform="translate(-40.2202 -40.2032)"/><g id="Group_628" data-name="Group 628"><path id="Path_1948-3" data-name="Path 1948-3" class="cls-3" d="M183.4383,378.2075l68.354.153,2.7622,1.5851V381.57l-2.7622,1.6353-68.354-.17-3.9428-1.8027v-1.2213Z" transform="translate(-40.2202 -40.2032)"/><path id="Path_1956-3" data-name="Path 1956-3" class="cls-3" d="M183.4383,378.2075l68.354.153,2.7622,1.5851V381.57l-2.7622,1.6353-68.354-.17-3.9428-1.8027v-1.2213Z" transform="translate(-40.2202 -40.2032)"/><path id="Path_1947" data-name="Path 1947" class="cls-4" d="M179.5014,380.8261l4.0346,1.3539,68.0471-.1087,2.9433-1.5138V381.86l-2.7537,1.3761-68.3039-.1462-3.9674-1.4993Z" transform="translate(-40.2202 -40.2032)"/></g><g id="Group_629" data-name="Group 629"><path id="Path_1948-4" data-name="Path 1948-4" class="cls-3" d="M183.4383,50.6163l68.354.153,2.7622,1.5851v1.6243l-2.7622,1.6352-68.354-.17-3.9428-1.8027V52.42Z" transform="translate(-40.2202 -40.2032)"/><path id="Path_1956-4" data-name="Path 1956-4" class="cls-3" d="M183.4383,50.6163l68.354.153,2.7622,1.5851v1.6243l-2.7622,1.6352-68.354-.17-3.9428-1.8027V52.42Z" transform="translate(-40.2202 -40.2032)"/><path id="Path_1947-2" data-name="Path 1947-2" class="cls-4" d="M179.5014,53.2264l4.0346,1.354,68.0471-.1088,2.9433-1.5137V54.26l-2.7537,1.376L183.4688,55.49l-3.9674-1.4992Z" transform="translate(-40.2202 -40.2032)"/></g></svg>