<svg xmlns="http://www.w3.org/2000/svg" width="16.035" height="16.035" viewBox="0 0 16.035 16.035">
  <defs>
    <style>
      .cls-1 {
        fill: #fff;
      }
    </style>
  </defs>
  <path id="Icon_material-language" data-name="Icon material-language" class="cls-1" d="M11.009,3a8.017,8.017,0,1,0,8.025,8.017A8.013,8.013,0,0,0,11.009,3Zm5.556,4.81H14.2a12.546,12.546,0,0,0-1.106-2.854A6.438,6.438,0,0,1,16.565,7.81ZM11.017,4.636A11.294,11.294,0,0,1,12.549,7.81H9.486A11.294,11.294,0,0,1,11.017,4.636ZM4.812,12.621a6.271,6.271,0,0,1,0-3.207h2.71a13.241,13.241,0,0,0-.112,1.6,13.241,13.241,0,0,0,.112,1.6Zm.657,1.6H7.834a12.546,12.546,0,0,0,1.106,2.854A6.4,6.4,0,0,1,5.469,14.224ZM7.834,7.81H5.469A6.4,6.4,0,0,1,8.941,4.956,12.546,12.546,0,0,0,7.834,7.81ZM11.017,17.4a11.294,11.294,0,0,1-1.531-3.175h3.063A11.294,11.294,0,0,1,11.017,17.4Zm1.876-4.778H9.141a11.8,11.8,0,0,1-.128-1.6,11.693,11.693,0,0,1,.128-1.6h3.752a11.693,11.693,0,0,1,.128,1.6A11.8,11.8,0,0,1,12.893,12.621Zm.2,4.458A12.547,12.547,0,0,0,14.2,14.224h2.365a6.438,6.438,0,0,1-3.472,2.854Zm1.419-4.458a13.241,13.241,0,0,0,.112-1.6,13.241,13.241,0,0,0-.112-1.6h2.71a6.271,6.271,0,0,1,0,3.207Z" transform="translate(-3 -3)"/>
</svg>