<svg id="Component_7_6" data-name="Component 7 – 6" xmlns="http://www.w3.org/2000/svg" width="34.839" height="59.218" viewBox="0 0 34.839 59.218">
  <defs>
    <style>
      .cls-1 {
        fill: #fff;
      }

      .cls-2 {
        fill: #eacd00;
      }
    </style>
  </defs>
  <path id="Path_378" data-name="Path 378" class="cls-1" d="M2744.606,1723.314a17.586,17.586,0,0,0-2.438-.54c-7.271-2.136-11.605-6.908-12.966-14.369a15.681,15.681,0,0,1-.208-2.82c0-7.919-.023-15.839,0-23.758a17.2,17.2,0,0,1,7.582-14.664,16.753,16.753,0,0,1,7.853-2.951c.1-.012.239.037.289-.117h3.354a4.878,4.878,0,0,0,1.367.276q10.882,2.355,13.885,13.076a16.317,16.317,0,0,1,.494,4.407c0,7.9.008,15.8-.005,23.7a17.191,17.191,0,0,1-7.554,14.676,16.665,16.665,0,0,1-7.905,2.966c-.1.012-.24-.047-.282.117Zm15.623-29.594h.041q0-5.9,0-11.795a15.209,15.209,0,0,0-.4-3.721,13.874,13.874,0,0,0-16.7-10.162,13.661,13.661,0,0,0-10.571,13.158c-.107,8.344-.027,16.689-.024,25.034a11.617,11.617,0,0,0,.715,4.073c2.043,5.482,5.989,8.67,11.784,9.362a13.8,13.8,0,0,0,15.132-13C2760.327,1702.357,2760.229,1698.038,2760.229,1693.721Z" transform="translate(-2728.983 -1664.096)"/>
  <path id="Path_379" data-name="Path 379" class="cls-2" d="M2867.7,1771.875c0,1.291,0,2.581,0,3.871a1.788,1.788,0,1,1-3.561.007q-.016-3.9,0-7.8a1.788,1.788,0,1,1,3.561-.007C2867.7,1769.256,2867.7,1770.566,2867.7,1771.875Z" transform="translate(-2848.49 -1754.206)"/>
</svg>