<svg xmlns="http://www.w3.org/2000/svg" width="99.98" height="99.958" viewBox="0 0 99.98 99.958">
  <defs>
    <style>
      .cls-1 {
        fill: #fff;
        fill-rule: evenodd;
      }
    </style>
  </defs>
  <path id="Path_1385" data-name="Path 1385" class="cls-1" d="M982.539,289.906l.9,8.344,5.528-.228.117-3.37-2.372-.014h-.184l0-.183-.03-1.175-.005-.191.192,0,3.942-.034.2,0-.01.2-.342,6.293-.01.173-.173.007c-.662.025-1.321.015-1.978.006-.675-.009-1.35-.019-2.026.009-.61.026-1.224.089-1.832.149-.74.074-1.474.148-2.184.158l-.166,0-.023-.165-1.375-9.731c-3.383.215-7.123,1.555-10.282,2.685-.567.2-1.115.4-1.655.587l3.2,7.771,5.259-1.763-.814-3.215-2.361.608-.181.047-.049-.181-.28-1.035-.034-.126.108-.077a7.458,7.458,0,0,1,1.852-.684c.779-.214,1.581-.4,2.006-.494l.183-.041.042.183,1.41,6.133.045.2-.2.032a21.628,21.628,0,0,0-4.687,1.446,27.275,27.275,0,0,1-2.923,1.036l-.155.042-.067-.147-4.032-8.905a18.529,18.529,0,0,0-4.108,2.042,74.347,74.347,0,0,0-6.427,4.4,25.961,25.961,0,0,0,2.253,2.927l.246.293h0c.293.352.59.722.889,1.093.614.766,1.239,1.544,1.883,2.225l4.5-3.1a11.884,11.884,0,0,0-.747-1.423,13.757,13.757,0,0,0-.964-1.459,4.382,4.382,0,0,0-.887.528,3.121,3.121,0,0,1-1.243.627l-.124.022-.067-.108-.55-.868-.075-.117.092-.106a6.889,6.889,0,0,1,1.442-1.134,12.176,12.176,0,0,1,1.966-1.013l.152-.058.08.142,3.045,5.439.09.162-.16.093a56.8,56.8,0,0,0-4.8,3.3c-.769.57-1.372,1.017-1.677,1.193l-.1.058-.1-.063-.142-.091a.634.634,0,0,1-.081-.056l0,0h0a.38.38,0,0,1-.049-.052h0c-.021-.026-.064-.077-.171-.187s-.181-.193-.26-.285h0c-.067-.076-.138-.156-.2-.222h0c-.55-.586-1.316-1.514-2.128-2.5h0a36.38,36.38,0,0,0-3.557-3.97,25.033,25.033,0,0,0-2.175,1.92,28.584,28.584,0,0,0-2.211,2.379h0c-.323.4-.72.844-1.139,1.309a14.06,14.06,0,0,0-2.668,3.629,29.949,29.949,0,0,0,3.391,2.415c.628.407,1.246.807,1.787,1.187h0c.256.179.491.329.717.471h0c.313.2.612.388.93.634l3.486-4.289a4.794,4.794,0,0,0-1.111-1.119h0a6.429,6.429,0,0,1-1.2-1.161,3.221,3.221,0,0,0-1.009.927,3.1,3.1,0,0,1-.8.786l-.1.063-.1-.066-.822-.542-.121-.08.046-.137a6.373,6.373,0,0,1,1.067-1.586,9.256,9.256,0,0,1,1.554-1.537l.122-.076.106.1c.2.183.464.42.776.7a29.377,29.377,0,0,1,3.7,3.653l.055.093-.052.094a11.393,11.393,0,0,1-1.457,1.77c-.381.411-.758.82-1.034,1.173h0l-.306.388a14.739,14.739,0,0,0-1.929,2.838l-.068.168-.169-.06a28.294,28.294,0,0,1-5.249-3.152c-1.2-.827-2.359-1.626-3.278-2.139a55.3,55.3,0,0,0-3.4,6.235,26.851,26.851,0,0,0-1.9,5.027l7.947,2.542,2.085-5.052-2.989-1.556-.969,2.083-.071.153-.158-.052-1.1-.359-.2-.064.082-.19,1.548-3.582.079-.184.178.09,5.577,2.816.132.067-.033.144a12.391,12.391,0,0,1-.949,2.281c-.212.435-.423.869-.589,1.257-.263.618-.589,1.43-.855,2.222a11.575,11.575,0,0,0-.442,1.637l-.036.207-.2-.058-9.585-2.729a68.116,68.116,0,0,0-1.6,7.6,17.894,17.894,0,0,0-.27,4.7l8.369.232.513-5.521-3.332-.569-.318,2.258-.024.168-.168-.006-1.14-.034-.164,0-.019-.162a14.462,14.462,0,0,1,.416-3.467l.093-.478.036-.185.185.035,6.114,1.166.158.03,0,.16a17.665,17.665,0,0,1-.274,2.235c-.081.5-.163,1-.214,1.463-.1.9-.139,1.78-.179,2.658-.023.507-.047,1.018-.08,1.521l-.012.175h-.175l-9.863.107a33.4,33.4,0,0,0,.881,8.659c.23,1.189.461,2.377.633,3.6l8.231-2.061-1.057-5.429-3.321.343c.02.237.059.48.1.722a4.325,4.325,0,0,1,.039,1.767l-.033.121-.123.018-1.081.154-.191.027-.023-.192c-.049-.4-.108-.8-.166-1.2-.039-.266-.079-.532-.117-.823l-.041-.286c-.1-.651-.205-1.388.13-1.679l.023-.017a14.053,14.053,0,0,1,3.081-.454,15.438,15.438,0,0,1,3.136-.053l.118.037.014.123a40.727,40.727,0,0,0,.818,4.724c.212.966.419,1.9.584,3.039l.023.163-.159.045-9.4,2.7a18.686,18.686,0,0,0,.9,2.943c.427,1.134.905,2.248,1.243,3.014.385.871.831,1.8,1.29,2.713.479.949.978,1.887,1.442,2.717a27.241,27.241,0,0,0,3.317-1.894l.338-.213h0c.6-.378,1.177-.717,1.74-1.049.649-.383,1.287-.759,1.919-1.164-.261-.558-.577-1.124-.9-1.7a17.224,17.224,0,0,1-1.511-3.2l-3.153,1.236.873,2.159.062.156-.148.08-1.094.593-.18.1-.082-.189-1.573-3.6-.078-.179.183-.072,5.873-2.314.178-.07.067.179a35.425,35.425,0,0,0,2.174,4.5c.455.836.912,1.676,1.334,2.549l.057.118-.09.095a19.247,19.247,0,0,1-4.252,2.846,19.278,19.278,0,0,0-3.955,2.606c1.2,2.6,3.924,5.41,6.2,7.754.59.607,1.152,1.184,1.646,1.716.443-.359,1.954-1.9,3.335-3.394A29.107,29.107,0,0,0,959.719,370c-.438-.49-.9-.951-1.372-1.416a21.657,21.657,0,0,1-2.321-2.564,8.683,8.683,0,0,0-1.042.737c-.573.454-1.184.987-1.528,1.321l.369.483c.319.421.6.794,1.022,1.277l.105.122-.1.123-.2.235a3.567,3.567,0,0,1-.73.706l-.134.1-.117-.122c-.3-.314-1.048-1.109-1.64-1.848a5.723,5.723,0,0,1-.808-1.217l-.046-.116.09-.087a28.909,28.909,0,0,1,2.413-2.064,25.006,25.006,0,0,1,2.49-1.707l.118-.069.1.091a28.505,28.505,0,0,1,2.06,2.2,35.949,35.949,0,0,0,3.309,3.448l.1.09-.053.126a4.079,4.079,0,0,1-1,1.393c-.171.175-.354.363-.55.6-.217.262-.628.719-1.122,1.268a35.261,35.261,0,0,0-3.7,4.51,25.369,25.369,0,0,1,2.9,2.079c.669.525,1.336,1.049,1.961,1.478.672.461,2.057,1.35,3.353,2.078a14.434,14.434,0,0,0,2.1,1.018c.324-.49,1.193-2.175,2.011-3.849.779-1.592,1.509-3.166,1.673-3.671l-4.729-2.732a11.086,11.086,0,0,0-1.16,1.509,5.466,5.466,0,0,0-.641,1.24l1.84,1.262.133.092-.069.146-.484,1.008-.069.144-.152-.043a7.067,7.067,0,0,1-1.733-.871,9.142,9.142,0,0,1-1.661-1.339l-.091-.1.068-.118a34.544,34.544,0,0,1,1.917-2.886,17.98,17.98,0,0,1,1.752-2.12l.1-.093.12.06a25.514,25.514,0,0,1,2.436,1.486,24.857,24.857,0,0,0,2.558,1.55h0l1.536.78.032.02.072.057h0l.047.037h0l.061.048.006,0,.057.049.107.092-.057.128-4.014,8.95a64.232,64.232,0,0,0,7.026,2.578,21.036,21.036,0,0,0,4.8,1.02l1.505-8.265-5.449-1.293-.964,3.143a5.057,5.057,0,0,0,1.007.357,2.984,2.984,0,0,1,1.271.561l.083.078-.03.11-.276.987-.044.155-.158-.018a11.84,11.84,0,0,1-2.2-.466,5.6,5.6,0,0,1-1.6-.748l-.1-.073.026-.119c.127-.578.612-2.075,1.1-3.416a15.172,15.172,0,0,1,1.041-2.424l.07-.1.119.021a26.4,26.4,0,0,1,2.887.744,27.078,27.078,0,0,0,4.7,1.073l.188.024-.025.188-1.328,9.855c.572.042,1.117.085,1.653.128a47.575,47.575,0,0,0,10.736.024l-.9-8.351-5.536.231-.108,3.376,2.348.012h.178l.01.178.063,1.174.01.2h-.2l-3.959.012h-.2l.011-.2.354-6.3.01-.182.182,0c2.159.046,3.932-.065,5.821-.182.7-.043,1.407-.088,2.174-.126l.18-.009.017.181c.1,1.105.44,4.184.82,6.638a18.426,18.426,0,0,0,.646,3.07c3.445-.209,7.634-1.726,10.871-2.9h0l.973-.351-3.2-7.766-5.253,1.759.826,3.237a6.418,6.418,0,0,0,1.407-.436,3.406,3.406,0,0,1,.471-.172h0c.5-.118.71.1.962,1.162l.04.173-.17.051-3.771,1.138-.193.059-.045-.2-1.413-6.128-.047-.2.207-.028a18.758,18.758,0,0,0,4.339-1.35,17.822,17.822,0,0,1,3.213-1.074l.143-.026.062.133,4.1,8.847a18.889,18.889,0,0,0,4.191-2.088,68.112,68.112,0,0,0,6.331-4.356,25.6,25.6,0,0,0-1.636-2.192c-1.327-1.664-3.03-3.688-3.634-4.369a14.51,14.51,0,0,0-1.521,1.075c-.23.179-.463.359-.689.525-.35.256-.711.48-1.068.7a12.651,12.651,0,0,0-1.183.794l1.664,2.921a4.7,4.7,0,0,0,.9-.534,3.945,3.945,0,0,1,1.251-.659l.138-.037.073.122.535.894.074.124-.1.1a8.636,8.636,0,0,1-1.577,1.235h0a9.084,9.084,0,0,1-1.833.9l-.154.052-.074-.144c-.328-.634-.751-1.341-1.185-2.064a25.886,25.886,0,0,1-1.826-3.4l-.057-.142.127-.085,4.8-3.211c.14-.1.319-.252.511-.409a9.852,9.852,0,0,1,1.133-.853l.1-.056.1.066a16.219,16.219,0,0,1,2.343,2.522c.392.476.757.921,1.043,1.231h0c.35.377.712.83,1.085,1.3a14.372,14.372,0,0,0,2.114,2.3,45.132,45.132,0,0,0,5.094-5.029,20.4,20.4,0,0,0,3.1-4.21,31.614,31.614,0,0,0-3.765-2.639c-1.06-.67-2.118-1.339-3.059-2.064l-3.489,4.283a4.906,4.906,0,0,0,1.065,1.074,7.577,7.577,0,0,1,1.236,1.2,3.36,3.36,0,0,0,.917-.847h0a3.887,3.887,0,0,1,.9-.858l.1-.06.1.063.827.529.122.078-.043.138a5.959,5.959,0,0,1-1.036,1.551,10.013,10.013,0,0,1-1.589,1.574l-.115.075-.106-.085c-.431-.344-1.781-1.563-2.888-2.638a12.888,12.888,0,0,1-1.59-1.72l-.052-.091.049-.091a7.992,7.992,0,0,1,1.417-1.735,11.9,11.9,0,0,0,1.075-1.2c.134-.18.31-.408.492-.644a15.857,15.857,0,0,0,1.764-2.608l.072-.155.161.055a18.676,18.676,0,0,1,4.464,2.752,19.3,19.3,0,0,0,4.022,2.542,43.024,43.024,0,0,0,3.221-5.823,32.044,32.044,0,0,0,2.109-5.444l-7.956-2.543-2.086,5.059,2.986,1.549.969-2.086.071-.153.159.052,1.1.364.2.065-.082.189-1.56,3.607-.08.185-.178-.091-5.573-2.837-.134-.068.037-.146a12.614,12.614,0,0,1,.929-2.205c.222-.452.445-.907.624-1.331.246-.584.45-1.2.655-1.822.214-.648.43-1.3.712-1.968l.046-.109.12-.005c.94-.041,3.567.788,5.96,1.544,1.461.461,2.838.9,3.664,1.083a46.367,46.367,0,0,0,1.594-7,20.491,20.491,0,0,0,.223-5.285l-8.346-.249-.53,5.511,3.333.58.314-2.251.023-.165.166,0,1.145.018.166,0,.02.163a10.96,10.96,0,0,1-.314,2.972c-.067.349-.131.68-.177.975l-.03.195-.193-.037-6.127-1.172-.157-.03,0-.16a16.954,16.954,0,0,1,.275-2.264c.08-.488.161-.978.213-1.445.157-1.389.2-2.716.235-4.112v-.048l.006-.182.182,0,9.887-.1a36.552,36.552,0,0,0-.96-9.192c-.2-1.039-.4-2.075-.564-3.1l-8.237,2.1,1.076,5.434,3.323-.358c-.024-.217-.059-.433-.094-.648a4.5,4.5,0,0,1-.051-1.832l.033-.128.132-.013,1.053-.1.18-.017.025.179.528,3.78.027.194-.2.019-6.287.632-.187.019-.02-.187c-.152-1.434-.348-2.735-.589-4s-.527-2.495-.859-3.785l-.046-.176.174-.052,9.443-2.822a29.911,29.911,0,0,0-1.856-5.274h0l-.289-.689c-.3-.718-.676-1.451-1.037-2.151h0l-.336-.655h0c-.145-.287-.343-.64-.546-1-.313-.558-.642-1.144-.836-1.6a16.375,16.375,0,0,0-3.789,2.167,18.018,18.018,0,0,1-3.491,2.056,15.043,15.043,0,0,0,1.1,2.258,15.7,15.7,0,0,1,1.3,2.739l3.149-1.243-.844-2.168-.06-.152.145-.08,1.055-.584.179-.1.084.187c.1.222.213.458.335.713a11.184,11.184,0,0,1,1.122,2.978l.013.141-.132.052-5.709,2.269-.167.067-.074-.165c-.142-.317-.286-.642-.427-.963-.4-.9-.762-1.73-1.212-2.6-.254-.492-.544-1-.832-1.5-.393-.684-.785-1.365-1.072-1.986l-.054-.116.089-.093.017-.025v0a.318.318,0,0,1,.125-.119h0l.044-.018,3.987-2.632h0c.32-.209.735-.466,1.174-.738a26.241,26.241,0,0,0,2.858-1.929,31.641,31.641,0,0,0-3.315-4.611h0l-.3-.372a38.317,38.317,0,0,0-2.612-2.821c-.56-.567-1.112-1.123-1.611-1.67a17.935,17.935,0,0,0-2.642,2.709h0l-.335.388h0c-.419.478-.837.925-1.246,1.363-.538.576-1.065,1.141-1.571,1.749.322.336.673.683,1.034,1.038a23.21,23.21,0,0,1,2.691,2.974,10.46,10.46,0,0,0,.978-.709h0c.623-.491,1.31-1.076,1.634-1.38a2.481,2.481,0,0,0-.688-.946,2.95,2.95,0,0,1-.759-1.015l-.056-.127.1-.091.852-.739.13-.113.124.119c.322.309,1.017,1.064,1.6,1.777a7.966,7.966,0,0,1,.935,1.316l.063.136-.117.092c-.353.279-.768.619-1.19.965h0a29.614,29.614,0,0,1-3.757,2.773l-.131.075-.1-.111-5.367-5.844-.112-.122.106-.127c.12-.143.212-.263.3-.375h0a7.4,7.4,0,0,1,.485-.581l0,0,0,0,5.511-6.384a27.419,27.419,0,0,0-4.616-3.584,35.96,35.96,0,0,0-5.659-3.253c-.32.494-1.165,2.137-1.971,3.783-.791,1.615-1.542,3.225-1.719,3.739l4.727,2.737a15.419,15.419,0,0,0,.987-1.339,16.676,16.676,0,0,0,.891-1.437c-.376-.226-.83-.528-1.245-.8-.242-.161-.472-.314-.653-.43l-.145-.093.08-.153.51-.973.065-.124.137.026a5.78,5.78,0,0,1,1.593.8,11.065,11.065,0,0,1,1.793,1.377l.078.091-.048.109a27.329,27.329,0,0,1-1.622,2.363c-.875,1.195-1.827,2.44-2.06,2.668l-.1.1-.123-.069c-.541-.3-1.065-.655-1.613-1.024-.52-.349-1.062-.714-1.659-1.062-.357-.207-.808-.427-1.274-.653a10.84,10.84,0,0,1-2.256-1.3l-.1-.092.057-.126,4.02-8.961a65.157,65.157,0,0,0-7.042-2.571,21.125,21.125,0,0,0-4.792-1.016l-1.5,8.276,5.452,1.279.987-3.235a9.2,9.2,0,0,0-1.528-.553c-.28-.083-.531-.158-.713-.231l-.157-.062.045-.163.272-.986.05-.181.182.05,3.683,1.016.15.042-.011.154a18.062,18.062,0,0,1-.868,2.975,20.992,20.992,0,0,1-1.264,3.046l-.069.1-.119-.021c-.732-.127-1.56-.363-2.517-.635a42.6,42.6,0,0,0-5.058-1.193l-.182-.029.024-.181,1.306-9.835c-2.024-.217-4.105-.4-6.186-.462a36.37,36.37,0,0,0-6.2.3Zm1.63,7.219-.5-6.232-.015-.181.182-.021a38.037,38.037,0,0,1,4.762-.206,43.721,43.721,0,0,1,4.988.346l.182.024-.019.182-1.035,9.832c1.775.315,3.269.59,4.713.929a37.359,37.359,0,0,1,4.467,1.343,34.19,34.19,0,0,0,1.441-3.315c.733-1.845,1.478-3.864,1.646-4.516a16.272,16.272,0,0,0-2.588-.986,28.05,28.05,0,0,0-3.389-.871,6.919,6.919,0,0,0-.483,1.38,13.571,13.571,0,0,0-.333,1.894l2.144.618.171.05-.038.172-.253,1.133-.039.173-.174-.027a11.255,11.255,0,0,1-1.263-.29h0c-.193-.053-.392-.107-.6-.158l-.011,0-1.687-.516-.167-.051.036-.169,1.26-5.92.031-.148.152,0c1.828-.02,4.358.921,6.582,1.75,1.015.378,1.968.733,2.756.959l.2.059-.082.2-3.827,9.2.453.23a68.337,68.337,0,0,1,6.04,3.336c.295.189.541.377.773.554a5.487,5.487,0,0,0,1.023.668,13.536,13.536,0,0,0,1.813-2.26c.277-.4.548-.791.831-1.154.177-.227.376-.472.588-.732a17.96,17.96,0,0,0,1.876-2.577c-.479-.3-1.076-.73-1.715-1.194a17.683,17.683,0,0,0-3.591-2.239l-1.608,2.958,1.847,1.177.124.08-.046.138c-.03.092-.044.142-.055.181h0a1.033,1.033,0,0,1-.246.45c-.265.367-.272.37-.376.389l-.056.041-.094.072-.1-.052c-.609-.3-1.332-.731-2.025-1.145-.361-.216-.716-.43-1.037-.612l-.159-.089.085-.162,2.871-5.491.072-.138.148.044a21.5,21.5,0,0,1,3.952,2.22,30.733,30.733,0,0,1,4.21,3.155l.084.1-.062.115a24.614,24.614,0,0,1-3.247,4.146,32.474,32.474,0,0,0-2.657,3.219,1.857,1.857,0,0,1-.175.227l-.042.107a54.808,54.808,0,0,1,6.063,6.376h0l.474.557A14.965,14.965,0,0,0,1022.93,314a18.023,18.023,0,0,1,3.321-2.377,15.848,15.848,0,0,0-2.038-2.82h0a11.772,11.772,0,0,0-2.213-2.132,7.729,7.729,0,0,1-1.321,1.421,8.365,8.365,0,0,0-.917.913,2.426,2.426,0,0,0,.675.8,2.332,2.332,0,0,1,.8,1.076l.042.113-.085.085-.1.1a1.96,1.96,0,0,1-.9.592l-.119.048-.088-.094c-.243-.259-.446-.495-.638-.718a8.126,8.126,0,0,0-1.708-1.606l-.116-.079.043-.134a9.408,9.408,0,0,1,1.853-2.4,15.676,15.676,0,0,1,2.72-2.38l.141-.074.1.126a33.076,33.076,0,0,0,2.341,2.629,19.791,19.791,0,0,1,3.749,4.827l.072.148-.138.091c-.432.283-1.233.853-2.172,1.52a66.4,66.4,0,0,1-5.923,3.952,7.175,7.175,0,0,0,.767,1.337h0c.15.225.3.453.454.705a43.217,43.217,0,0,1,2.387,4.9c.253.58.507,1.157.758,1.712l7.917-2.773a25.834,25.834,0,0,0-1.292-3.471,12.642,12.642,0,0,0-1.3-2.419l-2.955,1.551.92,2.194.076.183-.187.067-1.055.38-.16.058-.073-.152-1.579-3.24-.076-.155.149-.09c.576-.346,2.265-1.351,3.659-2.1a11.866,11.866,0,0,1,1.924-.9l.171-.043.056.168a25.469,25.469,0,0,0,1.6,3.526,20.585,20.585,0,0,1,2.155,5.375l.031.163-.159.051-9.354,3.023a22.508,22.508,0,0,0,.556,2.253c.217.777.441,1.574.578,2.3h0c.082.44.172,1.223.266,2.053.128,1.12.266,2.333.4,2.87l8.4-.516c-.021-.812-.157-2.345-.347-3.745a16.662,16.662,0,0,0-.489-2.545l-3.285.638.248,2.355.021.2-.2.005-1.134.03-.164,0-.027-.161-.6-3.488-.031-.176.176-.04,6.033-1.369.168-.038.052.165a40.346,40.346,0,0,1,1.044,5.652,15.423,15.423,0,0,1,.125,4.08l-.032.144-.147,0-9.756.263c-.035.645-.053,1.264-.07,1.878-.03,1.073-.061,2.134-.176,3.262-.093.909-.255,1.77-.413,2.613-.117.625-.233,1.242-.317,1.854l8.273,1.844c.084-.513.2-1.086.319-1.685h0a21.917,21.917,0,0,0,.6-4.585l-3.383-.173,0,.1a4.036,4.036,0,0,1-.47,2.139l-.063.09-.109-.011-1.008-.1-.187-.018.016-.186.314-3.642.015-.182.183.009,6.149.33.151.008.025.15a19.776,19.776,0,0,1-.307,4.786,22.267,22.267,0,0,1-1.173,4.94l-.07.135-.145-.037-9.556-2.432a39.581,39.581,0,0,1-3.388,8.674l-.13.265c.871.42,1.893,1.047,2.942,1.69a23.606,23.606,0,0,0,4.391,2.326,17.936,17.936,0,0,0,1.323-2.392,33.349,33.349,0,0,0,1.37-3.245,4.786,4.786,0,0,0-1.208-.567h0l-.3-.111h0l-.309-.121h0a10.457,10.457,0,0,0-1.319-.454l-.858,2.056-.071.169-.17-.065-1.177-.448-.182-.069.075-.18,1.412-3.4.069-.167.17.062,5.741,2.1.137.051-.014.145a19.323,19.323,0,0,1-1.574,4.2,28.565,28.565,0,0,1-2.518,4.612l-.08.088-.114-.035a30.126,30.126,0,0,1-3.749-2.134l-.6-.375h0c-.344-.21-.721-.452-1.114-.7a27.161,27.161,0,0,0-3.035-1.775,16.458,16.458,0,0,0-1.1,1.568l-.277.424c-.208.312-.506.694-.849,1.111h0c-.332.4-.721.852-1.12,1.308-.212.256-.435.518-.666.781s-.453.513-.681.761c-.314.365-.6.709-.837,1.011a6.109,6.109,0,0,0-.4.572c.436.422,1.112,1.158,1.865,1.977a32.515,32.515,0,0,0,4,3.97,34.8,34.8,0,0,0,2.6-2.71,14.016,14.016,0,0,0,1.553-2.015,14.017,14.017,0,0,0-1.578-1.271,5.643,5.643,0,0,0-1.147-.669c-.157.188-.285.354-.4.5a4.6,4.6,0,0,1-1.1,1.115l-.126.088-.112-.1-.762-.709-.1-.092.055-.123a7.73,7.73,0,0,1,1.306-1.812h0a12.81,12.81,0,0,0,.843-1.037l.09-.129.144.066a17.466,17.466,0,0,1,2.617,1.7c.958.714,1.906,1.479,2.493,1.955l.122.1-.076.138a29.419,29.419,0,0,1-3.077,3.887,25.457,25.457,0,0,1-3.413,3.357l-.112.07-.1-.082a9.351,9.351,0,0,1-.848-.775c-.348-.355-.681-.732-.959-1.064-.456-.544-1.117-1.225-1.813-1.941a26.359,26.359,0,0,1-2.977-3.39,17.7,17.7,0,0,0-2.428,1.767,24.007,24.007,0,0,1-5.544,3.676,18.341,18.341,0,0,0,2.063,4.117h0a22.536,22.536,0,0,1,1.812,3.4,13.016,13.016,0,0,0,3.155-1.824,17.061,17.061,0,0,1,2.276-1.439,10.1,10.1,0,0,0-.726-1.182,19.526,19.526,0,0,0-1.216-1.6,3.166,3.166,0,0,0-.845.5,4.2,4.2,0,0,1-1.176.675l-.141.05-.081-.127-.546-.853-.092-.143.133-.106,1.385-1.109.008-.007c.157-.112.273-.2.383-.282a6.6,6.6,0,0,1,1.14-.737l.119-.057.095.092c.3.291,1.381,1.628,2.316,2.854a17.646,17.646,0,0,1,1.515,2.178l.054.14-.124.085c-.277.189-.639.443-1.048.732-2.039,1.435-5.3,3.728-7.242,4.292l-.152.044-.07-.142-4.325-8.789c-.6.222-1.193.479-1.8.742h0c-.776.334-1.577.681-2.457.985-.73.252-1.541.457-2.346.66-.859.217-1.714.433-2.445.7a33.261,33.261,0,0,0,.967,5.358c.25,1.1.486,2.125.615,2.884a17.509,17.509,0,0,0,4.109-1.007c.755-.245,1.473-.477,2.069-.624l-1.066-3.239-2.337.619-.188.05-.045-.19-.265-1.12-.04-.168.167-.054,3.437-1.11.171-.055.063.169,2.151,5.745.053.143-.129.082a26.687,26.687,0,0,1-4.952,1.75,18.632,18.632,0,0,1-4.477.843l-.148-.01-.025-.147L994.5,378.04c-.734.034-1.511.13-2.3.227-.816.1-1.645.2-2.472.241-.689.032-1.506,0-2.316-.031a22.28,22.28,0,0,0-2.576-.008c-.035.41-.1,1.04-.178,1.773a44.144,44.144,0,0,0-.424,6.7l6.273.016-.21-3.394-2.3.013h-.191v-.191l.007-1.193v-.18l.18-.008,3.637-.16.182-.008.015.182.5,6.228.014.179-.179.023a32.171,32.171,0,0,1-4.886.21c-1.683-.041-3.367-.17-4.869-.325l-.188-.019.02-.188,1.041-9.859a36.889,36.889,0,0,1-4.763-.906c-1.482-.382-2.9-.838-4.42-1.351a36.593,36.593,0,0,0-1.479,3.409c-.72,1.812-1.442,3.764-1.61,4.417a15.965,15.965,0,0,0,2.553.984,29.6,29.6,0,0,0,3.427.88,6.54,6.54,0,0,0,.477-1.365,13.633,13.633,0,0,0,.334-1.917l-2.14-.614-.17-.049.037-.172.25-1.163.042-.2.193.054,3.536.986.169.048-.033.17-1.189,6.005-.035.176-.177-.025a42.1,42.1,0,0,1-5.732-1.421,13.156,13.156,0,0,1-3.661-1.581l-.1-.088.052-.126,3.735-9.021c-.328-.2-.807-.418-1.264-.629-.3-.138-.592-.274-.833-.4h0c-1.362-.7-3.878-2.3-5.285-3.2-.411-.261-.726-.461-.882-.558a30.137,30.137,0,0,0-3.046,3.845c-.7.987-1.4,1.96-2.062,2.747a14.328,14.328,0,0,0,2.308,1.823,21.346,21.346,0,0,0,3.008,1.736l1.616-2.958-1.87-1.205-.142-.091.074-.151.471-.961.066-.134.145.033a20.653,20.653,0,0,1,3.294,1.8l.016.01.148.093-.081.155-2.866,5.487-.074.142-.153-.051a22.089,22.089,0,0,1-3.929-2.208,32.56,32.56,0,0,1-4.211-3.17l-.1-.1.069-.122a5.277,5.277,0,0,1,.75-1.051l.1-.114c.19-.223.3-.367.406-.519.1-.131.2-.268.34-.446.258-.317.676-.795,1.156-1.344a32.377,32.377,0,0,0,3.362-4.233c-.54-.552-1.06-1-1.569-1.443a19.3,19.3,0,0,1-1.895-1.8c-.792-.888-1.535-1.8-2.319-2.763l-.753-.922a15.7,15.7,0,0,0-3.58,2.487,19.339,19.339,0,0,1-3.236,2.339A9.35,9.35,0,0,0,951,369.308c.978,1.2,2.232,2.538,2.829,3.138l2.389-2.308a7.006,7.006,0,0,0-.709-.851,3.751,3.751,0,0,1-.7-.948l-.061-.114.085-.1.075-.087a1.713,1.713,0,0,1,.908-.671l.122-.053.091.1,2.382,2.549.1.113-.09.126a32.862,32.862,0,0,1-2.581,2.83,11.3,11.3,0,0,1-2,1.7l-.147.074-.093-.136a24.115,24.115,0,0,0-2.138-2.418c-1.635-1.716-3.522-3.7-3.835-5.107l-.025-.11.086-.074a22.778,22.778,0,0,1,2.725-1.942c.447-.286.9-.576,1.381-.907.224-.155.5-.351.8-.567a27.993,27.993,0,0,1,3.09-2.025c-.2-.484-.822-1.537-1.393-2.5-.394-.668-.766-1.3-.964-1.681-.325-.633-.734-1.438-1.105-2.273a15.007,15.007,0,0,1-.818-2.229l-7.959,2.921a22.652,22.652,0,0,0,1.222,3.26,14.237,14.237,0,0,0,1.334,2.51l2.923-1.6-.912-2.13-.078-.181.186-.07,1.069-.4.159-.059.076.153,1.6,3.232.08.161-.157.087c-.283.158-.669.385-1.119.649a29.55,29.55,0,0,1-4.5,2.363l-.15.038-.067-.14c-.261-.547-.474-.988-.676-1.4a42.654,42.654,0,0,1-3.072-7.508l-.047-.173.171-.055,9.367-3.043q-.1-.469-.208-.925c-.089-.387-.169-.719-.243-1.027h0c-.062-.235-.126-.491-.192-.763s-.122-.516-.177-.766h0c-.219-.925-.422-1.847-.589-2.855a30.163,30.163,0,0,1-.349-3.13l-8.417.473a29.594,29.594,0,0,0,.277,3.521,18.131,18.131,0,0,0,.526,2.818l3.287-.626-.248-2.364-.021-.2.2-.007,1.127-.04.163-.005.029.161.624,3.476.032.177-.175.04-6.053,1.392-.172.04-.051-.169a48.23,48.23,0,0,1-1.13-6.27,8.064,8.064,0,0,1,.107-3.514l.051-.1.112,0,9.632-.268c.042-.682.059-1.344.075-2,.026-1.019.052-2.037.165-3.095.093-.862.247-1.688.4-2.491.127-.684.253-1.353.333-2.012l-8.263-1.839c-.065.346-.144.733-.227,1.142a25,25,0,0,0-.7,5.127l3.382.173.213-1.728.009-.038a1.15,1.15,0,0,1,.194-.41l.052-.072.063-.088.108.011,1.009.1.186.019-.016.184-.307,3.652-.015.183-.183-.01-6.163-.322-.14-.007-.034-.136a15.855,15.855,0,0,1,.262-4.457,26.979,26.979,0,0,1,1.219-5.289l.066-.139.15.038,9.541,2.444a14.559,14.559,0,0,1,.7-2.473c.325-.873.712-1.727,1.109-2.567.192-.452.391-.9.6-1.339s.428-.89.651-1.322c.109-.245.21-.481.3-.7q.108-.264.21-.537c-.821-.389-1.912-1.049-3.04-1.73a25.283,25.283,0,0,0-4.322-2.3,19.662,19.662,0,0,0-1.359,2.472,31.722,31.722,0,0,0-1.337,3.165,5.341,5.341,0,0,0,1.281.69,10.764,10.764,0,0,0,1.859.572l.863-2.065.072-.171.172.068,1.154.456.175.07-.069.175-1.344,3.406-.068.172-.172-.063-5.787-2.118-.137-.05.013-.144a14.983,14.983,0,0,1,1.364-3.8,38.139,38.139,0,0,1,2.711-4.966l.081-.109.128.041a25.41,25.41,0,0,1,3.725,2.091c.283.178.532.334.738.459h0c.316.192.67.417,1.048.659a26.764,26.764,0,0,0,2.992,1.75,19.9,19.9,0,0,0,1.57-2.16c.47-.7.932-1.388,1.285-1.816.216-.263.611-.7,1.051-1.2.787-.878,1.725-1.926,2.021-2.375-.68-.654-1.284-1.306-1.9-1.97-.325-.351-.655-.706-.994-1.06h0c-.2-.209-.41-.44-.63-.682a14.8,14.8,0,0,0-2.342-2.235c-.552.5-1.727,1.709-2.707,2.834a12.088,12.088,0,0,0-1.437,1.892,16.828,16.828,0,0,0,1.611,1.3,7.367,7.367,0,0,0,1.166.712,5.413,5.413,0,0,1,.609-.92,3.445,3.445,0,0,1,.823-.742l.118-.072.1.09.79.683.119.1-.081.136a13.649,13.649,0,0,1-1,1.412c-.376.477-.777.945-1.141,1.358l-.077.087-.111-.029a9.667,9.667,0,0,1-2.065-1.227,37.326,37.326,0,0,1-3-2.324l-.076-.072.02-.1a10.616,10.616,0,0,1,2.207-3.193,34.748,34.748,0,0,1,4.2-4.168l.118-.076.107.091a28.586,28.586,0,0,1,2.615,2.666c.3.337.6.671.853.94h0c.246.265.51.538.783.819a19.83,19.83,0,0,1,2.367,2.753,5.858,5.858,0,0,0,1.333-1c.2-.179.4-.354.583-.5l.01-.008,1.348-.92c.384-.283.772-.559,1.16-.824s.792-.53,1.2-.79l2.3-1.567-3.849-7.365a13.223,13.223,0,0,0-3.259,1.886,15.266,15.266,0,0,1-2.2,1.38,9.893,9.893,0,0,0,.682,1.1c.434.628.946,1.295,1.286,1.708l1.933-1.174.141-.086.1.129.122.153h0a2.192,2.192,0,0,1,.522,1l.051.169-.165.062a6.34,6.34,0,0,0-1.562.981,7.753,7.753,0,0,1-1.327.886l-.119.058-.094-.091a26.818,26.818,0,0,1-2.127-2.506,21.03,21.03,0,0,1-1.706-2.492l-.077-.147.135-.095.717-.5c1.963-1.385,5.709-4.028,7.59-4.536l.149-.04.069.139,4.333,8.775c.816-.3,1.609-.616,2.4-.934a31.569,31.569,0,0,1,6.7-2.106c-.122-.871-.558-3.216-.98-5.221a31.063,31.063,0,0,0-.745-3.071,17.525,17.525,0,0,0-3.647.919c-.833.273-1.656.542-2.445.714l1.074,3.244,2.327-.612.19-.05.042.193.239,1.108.036.166-.161.053L972.577,300l-.172.057-.064-.171-2.145-5.75-.053-.141.127-.082a26.039,26.039,0,0,1,4.989-1.784,17.17,17.17,0,0,1,4.432-.812l.143.014.025.142,1.673,9.62c.741-.021,1.571-.123,2.416-.227.811-.1,1.639-.2,2.434-.236.622-.027,1.4,0,2.186.033a21.752,21.752,0,0,0,2.586.008l.051-.466h0a60.107,60.107,0,0,0,.562-8l-6.277-.013.195,3.394L988,295.57l.193,0,0,.193-.021,1.2,0,.178-.178.008-3.624.154-.182.008Z" transform="translate(-938.013 -289.583)"/>
</svg>