<svg xmlns="http://www.w3.org/2000/svg" width="297.298" height="27.799" viewBox="0 0 297.298 27.799">
  <defs>
    <style>
      .cls-1 {
        fill: #eacd00;
        opacity: 0.66;
      }
    </style>
  </defs>
  <path id="path2987" class="cls-1" d="M302.047,327.648c-.512-.037-.581-.253-.081-.251.342,0,.889.158.891.254C302.857,327.7,302.785,327.7,302.047,327.648Zm7.37-.2c-.126-.1.454-.248.753-.191.134.025.244.094.245.154C310.415,327.536,309.563,327.568,309.416,327.451Zm-6.143-.189a1.737,1.737,0,0,1,.463,0c.15.019.065.037-.189.039S303.169,327.284,303.273,327.262Zm-167.745.46c-.053-.042-.027-.077.058-.078a.465.465,0,0,1,.251.076c.053.042.027.077-.058.078A.465.465,0,0,1,135.528,327.722Zm167.78-.931c0-.06.081-.1.182-.08.28.046.322.187.055.188C303.415,326.9,303.309,326.851,303.308,326.791Zm13.883-.221c-.182-.058-.149-.073.153-.068.212,0,.594.033.849.064.447.055.441.058-.153.068a3.781,3.781,0,0,1-.849-.064Zm-1.429-.124a1.166,1.166,0,0,1,.386,0c.106.021.02.039-.192.04s-.3-.017-.193-.038Zm2.044-.023a1.491,1.491,0,0,1,.607-.118c1.012-.085.946-.225-.091-.192a8.435,8.435,0,0,1-1.369-.057c-.255-.047-1-.143-1.647-.213s-1.378-.177-1.616-.238a7.4,7.4,0,0,0-1.088-.154c-.94-.061-1.031-.254-.121-.257.426,0,.662.028.6.075s.066.083.262.09a11.457,11.457,0,0,1,1.361.1,9.292,9.292,0,0,0,1.12.1c.149,0,.253.051.233.1a9.835,9.835,0,0,0,2.7.273c.905.007,1.418.186,1.153.4-.141.115-.37.144-1.142.147A3.546,3.546,0,0,1,317.806,326.423Zm-3.125-.044c-.021-.011-.433-.035-.915-.054a6.983,6.983,0,0,1-1.159-.121c-.228-.07-.148-.079.412-.05a11.778,11.778,0,0,1,2.08.187C315.162,326.39,314.777,326.426,314.681,326.379Zm-185.183.283a.65.65,0,0,0-.4-.037c-.206.034-.271.017-.216-.056.113-.15-.7-.365-1.088-.286-.478.1-.693.086-.695-.04,0-.064.1-.116.23-.117s.231-.036.23-.078-.105-.077-.232-.077-.232-.033-.232-.074a1.328,1.328,0,0,0-.618-.042,1.37,1.37,0,0,1-.618-.039c0-.04.068-.072.153-.073a.176.176,0,0,0,.152-.194.175.175,0,0,1,.152-.194c.2,0,.2-.287-.011-.35-.248-.076-.609.117-.606.323s-.225.242-.438.055c-.134-.118-.168-.119-.39-.006s-.214.129-.012.167a.735.735,0,0,1,.381.238.536.536,0,0,0,.369.194c.379,0,.426.218.054.252-.332.031-.331.033.046.11s.377.08.056.132a2.256,2.256,0,0,1-.46.036,2.249,2.249,0,0,0-.47.042.969.969,0,0,1-.657-.1l-.319-.158.63,0c.658,0,.791-.152.2-.231-.287-.038-.4-.18-.4-.5a.334.334,0,0,0-.161-.247c-.089-.053-.127-.124-.086-.159s-.021-.149-.139-.254c-.163-.146-.216-.159-.219-.056,0,.171-.62.188-.622.017,0-.066-.071-.1-.155-.072s-.154.007-.155-.043.128-.074.308-.052.309.012.308-.021a4.233,4.233,0,0,0-1.786-.079c-.913.066-1.138.027-1.147-.2-.006-.161.294-.193.754-.08.641.158.867.06.641-.275-.1-.147-.137-.325-.084-.4s.02-.128-.089-.128c-.231,0-1.015.309-.962.378.022.028-.03.063-.115.077s-.154-.011-.155-.057-.175-.083-.387-.082c-.392,0-.532.119-.2.172.115.019.141.107.073.247l-.106.218-.713-.393a1.892,1.892,0,0,0-1.507-.344c-.344.067-.306.135.23.419.47.249.538.446.135.394-.117-.015-.421-.036-.676-.047-.4-.017-.457-.048-.422-.221.059-.285-.37-.184-.485.115a.527.527,0,0,1-.361.281,1.445,1.445,0,0,0-.472.193c-.287.2-1.2.2-1.309-.01-.061-.115-.007-.155.211-.155.162,0,.295.033.3.076s.122.025.27-.038.4-.163.562-.222c.389-.142.219-.35-.379-.46-.481-.089-.641-.283-.235-.285s.208-.244-.253-.327c-.2-.036-.246.006-.231.2s-.048.25-.333.271c-.255.019-.327.063-.264.161s-.037.169-.3.241a1.524,1.524,0,0,1-.967-.032c-.318-.076-.491-.154-.386-.173a.217.217,0,0,0,.19-.183q0-.148.319-.149c.421,0,.3-.186-.144-.218-.362-.025-.459-.207-.146-.272.145-.03.135-.06-.04-.12s-.134-.09.278-.133c.347-.036.46-.078.352-.132a.432.432,0,0,0-.376.013.957.957,0,0,1-.466.045,5.6,5.6,0,0,0-1.137.092c-.881.138-1.368.271-.986.27.107,0,.148.037.092.084-.074.061-.15.061-.271,0a1.189,1.189,0,0,0-.437-.083c-.326,0-.569.174-.3.217.123.02.138.062.043.12-.163.1-.046.515.145.514.067,0,.086.069.043.154-.079.155-.442.2-.744.1a1.138,1.138,0,0,1-.377-.384c-.118-.18-.277-.328-.352-.327s-.123-.043-.107-.1a.311.311,0,0,0-.092-.235c-.163-.185.291-.439.692-.388.346.044.387-.085.131-.416-.13-.168-.2-.19-.3-.1-.082.068-.071.15.029.209.118.07.106.107-.046.132a22.18,22.18,0,0,1-3.709.4c-.152-.014-.276.011-.275.055s.1.061.232.036c.281-.055.3.036.041.178-.153.084-.153.094,0,.05.216-.062.271.075.057.143a5.3,5.3,0,0,1-.965-.039,7.7,7.7,0,0,0-2.536-.039c-.385.1-.4.119-.13.158a10.9,10.9,0,0,0,2.388.121c.348-.095.92-.1.921-.013a2.308,2.308,0,0,0,.776-.013,3.4,3.4,0,0,1,1.119.006c.311.078.314.084.035.069-.231-.013-.3.023-.264.141s-.109.186-.728.3a6.117,6.117,0,0,1-2.524.051c-.266-.175-.7-.235-.834-.116a2.418,2.418,0,0,1-1.322.116c-.4-.106-.747.057-.625.294.112.218-.113.239-.768.071-.6-.155-.871-.142-.869.042a.153.153,0,0,1-.152.155.171.171,0,0,1-.157-.178c0-.162-.064-.177-.658-.157l-.843.027c-.1,0-.147.057-.1.121s.031.119-.042.123c-1.317.072-1.77.066-1.712-.021a.726.726,0,0,1,.435-.1c.385,0,1.063-.189,1.062-.292,0-.032-.2-.058-.433-.057a1.824,1.824,0,0,1-.6-.08,2.609,2.609,0,0,0-.726-.094c-.318-.007-.562-.053-.563-.106s-.146-.051-.462.04c-.6.172-.583.249.041.249h.5l-.384.151-.384.151.578-.048c.7-.058.774.067.118.206-.421.089-.632.234-.338.233a.173.173,0,0,1,.147.154c.014.085-.064.155-.173.155a1.227,1.227,0,0,0-.472.155c-.264.148-.263.156.008.207.168.032.307.016.342-.038.1-.152.325-.1.3.065-.019.141-.093.152-.722.109a4.379,4.379,0,0,1-.848-.115,1.971,1.971,0,0,0-.579-.066c-.6,0-.542-.123.1-.232a1.209,1.209,0,0,0,.538-.162c0-.039.155-.072.346-.073.318,0,.31-.011-.1-.116a3.561,3.561,0,0,0-.657-.113c-.118,0-.214-.034-.215-.077s.138-.078.308-.078c.2,0,.308-.053.307-.15,0-.189-.794-.325-1.579-.271a4.694,4.694,0,0,1-.947-.031c-.351-.065-.38-.05-.472.249s-.054.337.379.52c.493.208.481.308-.036.31-.2,0-.271-.037-.213-.115s-.037-.131-.284-.161c-.221-.027-.34-.086-.295-.147s0-.125-.1-.154c-.126-.038-.123-.083.01-.165.279-.171-.256-.337-.82-.254-.541.08-.561-.02-.039-.194a3.142,3.142,0,0,1,.986-.112,2.534,2.534,0,0,0,.853-.091,2.328,2.328,0,0,1,.782-.09c.673.027,1.143-.052,1.141-.191,0-.124-.4-.15-.536-.035a.714.714,0,0,1-.424.014,2.46,2.46,0,0,0-.76.022c-.5.1-.719.027-.442-.143.215-.132.214-.133-.235-.254-.29-.078-.278-.09.191-.174.368-.067.5-.137.5-.268,0-.15-.083-.178-.52-.176a4.75,4.75,0,0,1-.985-.117,1.5,1.5,0,0,0-.563-.07c-.053.027-.1.011-.1-.036a5.043,5.043,0,0,0-1.9-.1.4.4,0,0,1-.365,0c-.114-.057-.14-.021-.085.118.093.235-.169.263-.708.077a1.742,1.742,0,0,0-1-.031c-.354.051-.678.088-.72.083a3.286,3.286,0,0,0-.489.07,7.3,7.3,0,0,1-2.47-.34,4.589,4.589,0,0,0-.942-.1,2.561,2.561,0,0,1-.889-.152,1.978,1.978,0,0,0-1.321-.071,1.115,1.115,0,0,1-.6,0,2.3,2.3,0,0,0-.6-.094c-.43-.016-.544-.1-.218-.159.111-.02-.02-.1-.31-.179a1.457,1.457,0,0,1-.5-.2c0-.032-.145-.057-.321-.057-.429,0-.352-.311.1-.427a4.948,4.948,0,0,0,.583-.19c.345-.146.692.008.409.181-.425.26.2.356,1.08.167.383-.082.509-.159.52-.317.014-.194-.019-.2-.479-.16a1.125,1.125,0,0,1-.609-.043c-.08-.064-.014-.079.219-.049s.333.007.332-.073-.144-.1-.734-.063a4.423,4.423,0,0,0-.866.119c-.171.086-.587.011-.47-.085.052-.042-.077-.051-.31-.021s-.4.018-.4-.022a2.182,2.182,0,0,0-1.044-.249c-.327,0-.071.128.349.173.284.03.287.038.037.094-.429.1-1.175-.09-1.084-.27.061-.119-.006-.149-.333-.148a.812.812,0,0,1-.5-.119c-.074-.094-.234-.11-.729-.07-.464.037-.573.029-.4-.031a3.056,3.056,0,0,1,.748-.084c.408,0,.5-.029.423-.125a.6.6,0,0,1-.1-.15,4.52,4.52,0,0,0-.7-.077,2.582,2.582,0,0,0-1.079.078c-.493.164-.484.25.035.313.276.034.353.071.228.11-.1.033-.144.117-.089.188s.026.129-.07.129-.17.035-.17.078.114.077.251.076c.205,0,.216.02.06.116-.3.183-.5.138-.436-.1.077-.277-.259-.451-1-.517-.475-.043-.579-.03-.578.072,0,.069-.1.125-.23.125s-.232-.031-.232-.069a1.844,1.844,0,0,0-.7-.095l-.695-.025,0,.3c0,.238-.038.283-.2.217a1.3,1.3,0,0,0-.541-.037c-.2.027-.339.01-.34-.041s-.14-.086-.31-.085c-.24,0-.309-.051-.312-.231a.226.226,0,0,0-.2-.239c-.106,0-.02-.037.192-.074.316-.055.266-.064-.28-.052-.829.019-1.129-.149-.544-.3a1.9,1.9,0,0,1,1.027-.052,7.6,7.6,0,0,0,1.608.25c.191,0,.347-.035.346-.077s.106-.078.236-.078c.189,0,.2-.032.07-.155a.656.656,0,0,0-.384-.153c-.387,0-.413-.145-.068-.382a1.909,1.909,0,0,1,1.044-.287c.587-.046.654-.067.395-.124s-.3-.126-.258-.374c.059-.334-.04-.372-.465-.176-.264.122-.285.115-.383-.121a.526.526,0,0,0-.746-.238.75.75,0,0,1-.538.008c-.4-.106-.405-.195-.014-.334.242-.086.286-.162.207-.353-.055-.134-.177-.243-.27-.243s-.012-.055.179-.124c.277-.1.311-.146.166-.233s-.093-.125.3-.195c.265-.047.439-.12.388-.161s.034-.122.19-.18.249-.117.207-.131l-.575-.2a3.194,3.194,0,0,0-1.822-.062c-.177.09-.153.119.158.189.474.106.774.366.515.447a4.891,4.891,0,0,1-1.623-.056,1.706,1.706,0,0,0-.631-.037.782.782,0,0,1-.61-.1,4.606,4.606,0,0,0-1.624-.243.094.094,0,0,1-.117-.082,4.428,4.428,0,0,1,1.788-.5,1.282,1.282,0,0,0,.549-.067,1.287,1.287,0,0,1,.552-.066c.151.028.2.014.134-.04-.149-.119.2-.209.406-.106a2.908,2.908,0,0,0,1.5-.035.931.931,0,0,1,.408-.117.43.43,0,0,0,.3-.117c.1-.129.979-.167.981-.042,0,.043-.13.078-.29.078a2.119,2.119,0,0,0-.652.149l-.361.148.711-.043c.818-.049.931,0,.981.451.022.2-.044.327-.194.369-.188.054-.171.079.1.151a1.346,1.346,0,0,0,.73-.008c.269-.063.44-.068.51-.016a1.17,1.17,0,0,0,.376.127c.288.052.377.208.119.209-.3,0,.426.286.858.339.484.059,1.459-.157,1.457-.323,0-.127-.5-.254-1-.252-.218,0-.4-.029-.4-.067s-.14-.086-.31-.108-.31-.077-.31-.124.138-.085.307-.086.308-.049.307-.109.1-.128.229-.153.23-.1.229-.164c0-.154-.972-.159-1.221-.007-.29.177-.782.211-.785.054s.465-.393.8-.394c.252,0,.717-.23.485-.24s-.63-.052-.968-.1c-.417-.065-.284-.2.144-.14.277.035.3.014.212-.163-.08-.156-.047-.2.144-.2.481,0,.239-.123-.41-.2a8.779,8.779,0,0,0-1.8-.029.53.53,0,0,0-.289.23c-.127.187-.218.216-.6.189-.364-.026-.482.006-.624.165s-.244.191-.726.153a1.756,1.756,0,0,0-.816.074,2.64,2.64,0,0,1-1.519.1c-.405-.152-.507-.139-.406.05.079.147.04.158-.383.113a3.538,3.538,0,0,0-1.043.072c-.763.163-.764.162-.315-.137.215-.143.389-.318.388-.388,0-.16.359-.168.617-.014.21.125.619.156.618.046,0-.037-.106-.111-.234-.163-.28-.115-.3-.32-.052-.448a1.553,1.553,0,0,1,.979-.024,1.69,1.69,0,0,0,.972.041,1.773,1.773,0,0,1,.19-.208c.1-.094.03-.193-.251-.358-.214-.125-.389-.27-.389-.322s-.143-.077-.425-.044c-.4.047-.406.043-.132-.066.339-.135.261-.207-.734-.669-.724-.337-.506-.414.477-.168.856.214,1.113.219,1.11.025s.688-.468,1.089-.416c.25.032.275.057.115.114s-.169.08.006.115.178.052,0,.107c-.309.1.192.321.714.32.413,0,1.159-.288,1.157-.445,0-.132.8-.255,1.263-.195a.864.864,0,0,0,.934-.415.336.336,0,0,1,.514-.024c.067.085.249.1.744.066s.677-.02.747.07a1.658,1.658,0,0,0,.72.168,1.963,1.963,0,0,1,.629.105c0,.03.157.059.348.065.338.01.339.008.046-.1-.277-.1-.239-.111.461-.119a22.7,22.7,0,0,0,2.822-.227.553.553,0,0,1-.507-.509c-.009-.085-.185-.233-.392-.328-.45-.207-.393-.249.415-.306a3.664,3.664,0,0,1,1.118.08c.572.141.918.158.917.045,0-.043.1-.078.23-.078s.231-.036.23-.078.07-.078.157-.078.044.088-.1.2a4.581,4.581,0,0,1-1.974.5c-.2-.093-.395-.086-.393.014,0,.045.063.062.139.039a.237.237,0,0,1,.236.082c.082.1.245.117.981.071a6.5,6.5,0,0,0,2.032-.373c0-.027-.152-.069-.342-.093-.27-.034-.3-.064-.159-.138s.268-.073.566.006a1.7,1.7,0,0,0,.583.06c.316-.062.515-.052.474.025-.051.094.223.087.6-.015.3-.081.294-.088-.09-.237-.486-.189-.57-.5-.1-.379.379.1.73.032.828-.16.079-.157.875-.225.877-.075,0,.122.31.089.409-.043.049-.066-.024-.181-.163-.257-.4-.216-.314-.241.633-.2l.886.038-.341-.157a1.7,1.7,0,0,0-.55-.156,1.8,1.8,0,0,1-.509-.113c-.283-.107-.274-.111.162-.076.647.053,1.219-.117,1.255-.372a.64.64,0,0,1,.551-.525c.1,0,.57.078,1.038.171,1.057.211,2.779.2,2.778-.018,0-.162.576-.3,1.216-.294.369,0,.476-.024.428-.113-.08-.149.208-.291.509-.251.2.026.2.019,0-.05s-.2-.11-.053-.228.135-.17,0-.234-.108-.087.087-.088c.177,0,.261-.064.26-.194,0-.185.435-.292.481-.118.011.043.029.1.04.137a1.634,1.634,0,0,0,.348.282c.311.211.359.218.955.14.649-.085,1.473-.054,1.347.05-.148.122.865.143,1.9.04a10.806,10.806,0,0,1,1.947-.04,6.021,6.021,0,0,0,1.016.021,1.068,1.068,0,0,1,.444.035,1.515,1.515,0,0,0,.736-.011,2.742,2.742,0,0,1,.588-.073c.085.01.105-.006.045-.036s-.014-.1.1-.161c.274-.139.443-.138.339,0s.169.188.668.123c.312-.04.34-.063.153-.122a5.089,5.089,0,0,0-1.186-.264c-.123,0-.179-.036-.125-.08a.76.76,0,0,1,.433-.032c.331.048.331.047.025-.072-.171-.066-.276-.123-.233-.125s.537-.016,1.1-.029a3.657,3.657,0,0,0,1.282-.157,1.307,1.307,0,0,1,.481-.133c.121,0,.22-.036.219-.078s-.1-.077-.217-.077a1.126,1.126,0,0,1-.538-.269l-.322-.27.419-.011c.23-.006.488,0,.573.007a10.184,10.184,0,0,0,2.523-.13c.374-.113.52-.124.667-.051s.133.093-.065.094c-.349,0-.487.141-.268.271a.58.58,0,0,0,.438.044,3.044,3.044,0,0,1,1.258-.151,4.257,4.257,0,0,0,1.49-.043c.183-.024.668-.067,1.079-.1,1.087-.078,1.317-.122,1.229-.235-.061-.078.116-.093.8-.066a5.468,5.468,0,0,0,1.646-.136,10.439,10.439,0,0,1,2.031-.2c1.423-.032,1.7-.08,1.423-.245-.147-.088-.119-.109.145-.11.413,0,.422-.125.016-.232-.17-.045-.31-.137-.311-.2,0-.1.107-.112.527-.074a1.4,1.4,0,0,0,.626-.032c.053-.044.006-.085-.1-.091s.11-.036.491-.067l.694-.056-.724-.009a2.672,2.672,0,0,0-.818.068.475.475,0,0,1-.257.078c-.09,0,.293-.224.851-.5.691-.341.984-.539.919-.622-.1-.132-.062-.136,1.532-.149a3.543,3.543,0,0,1,1.007.078,1.962,1.962,0,0,0,.563.171c.363.068.41.1.23.158-.195.063-.193.073.014.073a1.078,1.078,0,0,0,.409-.086,1.188,1.188,0,0,1,.687,0c.563.091.851.083.779-.023-.025-.037.129-.051.343-.032.282.026.413,0,.476-.1.075-.122.143-.128.5-.05a2.261,2.261,0,0,1,.518.161.573.573,0,0,0,.347.022c.219-.043.314-.314.28-.8,0-.05.085-.073.2-.052a6.77,6.77,0,0,0,1.078-.056c.639-.069.9-.134.95-.242s.226-.15.79-.16a17.638,17.638,0,0,0,2.01-.116c.382-.045.495-.037.416.028-.06.049-.04.09.045.089a.458.458,0,0,0,.249-.078.858.858,0,0,1,.4-.079c.194,0,.268.032.2.089s0,.074.261.038a14.067,14.067,0,0,1,2.669-.161c.21.058.081.112-.676.285-.515.117-.894.247-.842.288a5.5,5.5,0,0,0,2.027-.048c.488-.065,1.063-.118,1.279-.118.374,0,.379.006.1.113a7.893,7.893,0,0,1-1.077.243c-1.184.2-1.262.3-.167.22.509-.037,1.272-.063,1.7-.058a13.448,13.448,0,0,0,1.6-.1c.77-.1.861-.1,1.2.032s.352.149.094.232c-.234.075-.211.082.148.042.233-.026.736-.069,1.117-.1.605-.044.693-.074.691-.238s.058-.185.5-.165c.353.016.518.067.56.174s.013.134-.152.071a3.083,3.083,0,0,0-.476-.128c-.227-.04-.243-.018-.11.152.1.128.1.231.006.289a.111.111,0,0,0-.016.2c.109.087.275.089.956.009.453-.053,1.032-.115,1.286-.137a6.945,6.945,0,0,0,.77-.112c.169-.039.5-.107.731-.15.356-.066.423-.123.42-.358,0-.215-.076-.289-.313-.319-.455-.058-.381-.137.266-.283a7.36,7.36,0,0,1,2.273-.192c.238.066.222.088-.146.211-.313.1-.357.147-.183.18a2.248,2.248,0,0,0,.575,0c.24-.032.313-.019.238.043-.155.128.374.112,1.04-.03a1.989,1.989,0,0,0,.715-.273c.216-.206.489-.2.886.029a2.954,2.954,0,0,0,1.381.235c.58.027,1.333.085,1.673.128a15.515,15.515,0,0,0,1.66.068,4.12,4.12,0,0,1,1.042.057c0,.074-.454.132-1.617.205a5.879,5.879,0,0,0-1.771.279c0,.029-.145.072-.324.1s-.293.089-.255.145a4.794,4.794,0,0,0,2.028.013,1.656,1.656,0,0,1,.6-.061c.091.028.113.011.052-.038s.056-.1.322-.134c.236-.026.709-.1,1.051-.16.731-.133,1.011-.144.689-.029-.17.061-.071.069.381.03a2.128,2.128,0,0,0,.823-.207.634.634,0,0,1,.448-.109.915.915,0,0,0,.445-.044,1.216,1.216,0,0,1,.52-.049c.17.022.31.015.309-.015a37.612,37.612,0,0,1,5.783-.218,16.832,16.832,0,0,0,1.7-.033,10.78,10.78,0,0,1,1.543-.014c.309.06.309.06,0,.075-.17.008-.361.011-.424.006-.149-.011-.143.081.013.2a4.752,4.752,0,0,0,1.654.245,6.48,6.48,0,0,1,1.772-.01c0,.033.158.1.349.143l.348.083-.385.018a5.566,5.566,0,0,0-1.155.128,13.837,13.837,0,0,1-1.457.139c-1.047.051-1.492.16-1.019.25a5.535,5.535,0,0,0,1.143-.074,3.11,3.11,0,0,1,1.02-.053c.093.046.076.072-.047.073-.107,0-.154.033-.105.072.181.144,9.47-.036,10.651-.206a7.525,7.525,0,0,1,1.132-.068,1.112,1.112,0,0,0,.724-.13c.185-.134.424-.153,2.172-.173,1.081-.012,2.019-.04,2.085-.061s.869-.044,1.783-.052,1.816-.043,2-.078a.77.77,0,0,1,.429.007,4.3,4.3,0,0,0,1.524-.078c.222-.043.4-.053.4-.022a23.027,23.027,0,0,0,3.047-.038c.573-.033.81-.02.811.046s.128.075.309.051c.208-.028.309,0,.31.076s.1.1.4.066c.258-.033.363-.023.3.029a1.012,1.012,0,0,1-.456.082,1.289,1.289,0,0,0-.548.118,2.069,2.069,0,0,1-.8.119c-.366,0-.569.033-.511.079s-.012.077-.144.078-.24.036-.239.08c0,.072.32.056,1.137-.059a.66.66,0,0,1,.42.064c.109.087.247.083.827-.023.562-.1.727-.109.861-.029a7.741,7.741,0,0,0,2.31.026c0-.041-.157-.078-.348-.082-.331-.006-.33-.009.038-.065.317-.048,5.554-.066,13.5-.045a14.727,14.727,0,0,0,1.8-.078c.247-.049.433-.053.463-.01a5.974,5.974,0,0,0,1.246.083,8.155,8.155,0,0,1,1.2.056,9.2,9.2,0,0,0,1.273.026,22.24,22.24,0,0,1,2.248.089c.536.059,1.509.106,2.161.1s1.812.044,2.576.1,1.911.125,2.548.147,1.609.074,2.162.115c2.462.184,6.491.351,6.33.263a40.507,40.507,0,0,0-4.172-.423c-1.253-.067-9.2-.41-9.88-.428a15.052,15.052,0,0,1-1.966-.187,2.809,2.809,0,0,1,.869-.011c1.384.066,8.352.049,8.77-.021.273-.046.327-.033.256.061s.141.115,1.7.088a12.168,12.168,0,0,1,1.79.035c0,.037.109.066.241.066s.2.031.154.07c-.116.1.751.183,1.632.165a2.181,2.181,0,0,1,.9.1,8.5,8.5,0,0,0,2.345.1c1.187-.006,2.2.01,2.252.036a5.315,5.315,0,0,1-1.088.061c-1.373.016-1.436.019-1.554.079a2.745,2.745,0,0,0,.786.06,9.625,9.625,0,0,1,1.4.123,33.979,33.979,0,0,0,4.517.29,11.046,11.046,0,0,1,1.637.093,18.01,18.01,0,0,0,2.085.129,53.468,53.468,0,0,1,5.417.287,7.3,7.3,0,0,0,2.286.039c0-.039-.123-.087-.271-.106-.253-.032-.253-.035,0-.044a.517.517,0,0,1,.37.112c.068.087.127.1.207.03s.319-.071,1.006,0a9.835,9.835,0,0,0,1.407.047,1.683,1.683,0,0,1,.584.015,5.364,5.364,0,0,0,1.7.007c.054-.045.025-.081-.065-.081s-.164-.052-.165-.115c0-.153.523-.151.781,0,.165.1.167.133.006.183-.118.037.072.065.474.069.369,0,.845.024,1.058.045s1.1.039,1.966.039a11.829,11.829,0,0,1,1.66.064.746.746,0,0,0,.389.023,1.249,1.249,0,0,1,.537.052,2.852,2.852,0,0,0,.926.056,1.9,1.9,0,0,1,.7.028c0,.036.109.065.241.065s.2-.037.129-.09c-.158-.126.69-.035,1.772.191.479.1,1.149.219,1.489.264a10.543,10.543,0,0,0,2.49.065c-.369-.1-.31-.231.093-.2.218.015.34.073.328.157-.021.151.648.241,1.457.2.63-.035.446-.208-.247-.232-.437-.015-.74-.138-.343-.139.085,0,.154-.049.153-.108s.1-.128.229-.153c.146-.029.231,0,.232.079,0,.1.122.115.71.073.781-.056,1.5,0,1.365.109-.046.038.039.172.189.3.264.22.309.227,1.362.213a7.467,7.467,0,0,1,1.458.084,16.374,16.374,0,0,0,2.281.121,20.372,20.372,0,0,1,2.222.1.658.658,0,0,0,.547-.039c.2-.1.2-.12.014-.12a.933.933,0,0,1-.407-.109c-.155-.092-.08-.105.481-.083.366.015.783.028.928.03a.915.915,0,0,1,.529.279c.4.419,1.279.516,1.3.144,0-.043.064-.03.139.028.109.085.2.074.46-.06.383-.195.408-.287.091-.347-.137-.026-.231,0-.231.063,0,.132-.259.181-.725.138-.412-.038-.483-.157-.085-.142.153.006.25-.035.225-.095s.034-.153.132-.213.129-.108.07-.108,0-.055.134-.122c.267-.136.308-.4.088-.571s-.024-.248.288-.1c.349.165.614.531.318.44q-.195-.059-.08.033c.146.116.376.024.748-.3l.276-.239-.433-.008c-.271,0-.33-.021-.158-.044.241-.032.225-.056-.129-.194-.267-.1-.353-.183-.252-.234.084-.043.12-.119.081-.169-.066-.085.294-.21.871-.3a.776.776,0,0,0,.428-.361c.167-.286.236-.32.6-.3.3.016.431.073.467.2.042.142.12.165.426.125.28-.036.375-.017.376.076,0,.2.3.143.475-.088.3-.409.846-.439,1.52-.084.336.177.475.326.478.514a.541.541,0,0,0,.27.41c.184.1.213.162.094.2a.6.6,0,0,0-.271.363,1.854,1.854,0,0,1-.354.581c-.14.149-.257.279-.26.287s-.3.04-.658.07l-.653.055.016-.571c.026-.9-.265-1.559-.575-1.3a.276.276,0,0,1-.229.04,1.3,1.3,0,0,0-.565.18c-.339.172-.43.287-.414.525.028.411.2.65.465.649.122,0,.222.051.223.115a.134.134,0,0,1-.147.116.57.57,0,0,0-.313.157c-.124.118-.116.163.036.184a7.618,7.618,0,0,1,1.515.268,8.643,8.643,0,0,0,1.242.191c1.07.124,1.212.159,1.025.254a3.877,3.877,0,0,1-1.141.124c-.9.013-.921.018-.763.189a.723.723,0,0,0,.523.174c.251,0,.362.043.363.144,0,.17.55.246,1.067.148a2.195,2.195,0,0,1,.931.084,11.143,11.143,0,0,0,2,.2,4.648,4.648,0,0,1,1.667.192c.38.208.2.241-.8.151-1.125-.1-1.762-.1-1.761,0,0,.044.185.114.409.155.613.114.3.188-.811.194a4.044,4.044,0,0,0-1.1.093,1.074,1.074,0,0,1-.545.047c-.288-.027-.373-.061-.247-.1s.057-.059-.179-.058c-.2,0-.823-.054-1.375-.124a7.6,7.6,0,0,0-2.222-.125c-.113.093.514.216.989.195a14.411,14.411,0,0,1,2.241.26,2.277,2.277,0,0,0,.387.063c.371.027,1.415.093,2.085.132.736.042,2.084.169,2.917.275.33.042.956.089,1.39.1s1.16.048,1.612.072l.822.044-.264-.2a.968.968,0,0,0-.4-.2c-.076,0-.052-.069.053-.155.253-.206.562-.2,1.107.035.248.105.4.192.331.192s-.035.051.068.112.144.148.09.193.028.081.188.08a1.28,1.28,0,0,1,.434.068,4.712,4.712,0,0,0,.92.111c.425.023.946.058,1.158.077.405.037.865.074,2.394.19.51.039,1.253.076,1.651.083.774.013,1.29.12.934.193-.321.066.434.3,1.126.356.8.059,1.318-.078.573-.15a2.04,2.04,0,0,1-.59-.117.954.954,0,0,0-.46-.019c-.229.03-.376.015-.377-.037s.072-.086.162-.086.12-.035.067-.078.074-.078.3-.078.4.03.4.068c0,.077.472.184.576.131.037-.019-.045-.119-.183-.222-.341-.257-.088-.354,1.076-.412.5-.025.928-.058.959-.074a10.348,10.348,0,0,0-2.39-.852c-.568-.124-.821-.229-.892-.367-.079-.153-.282-.221-.988-.33l-.889-.137.876-.026.876-.026-.09-.265c-.068-.2-.029-.277.161-.314.318-.062.321-.4.005-.577a.827.827,0,0,1-.33-.43l-.09-.3.4.231a1.177,1.177,0,0,1,.405.313c0,.045.164.152.356.237s.578.281.858.436a2.377,2.377,0,0,0,.677.281.1.1,0,0,1,.093.149c-.083.163.392.468.726.467.128,0,.2.088.19.237-.012.214-.056.235-.438.208-.327-.023-.424,0-.423.107,0,.184.276.256.542.144a.687.687,0,0,1,.395-.037c.133.041.133.069,0,.112-.118.037.015.115.381.221a5.107,5.107,0,0,0,.672.164,1.211,1.211,0,0,1,.4.192,1.249,1.249,0,0,0,.541.2c.149,0,.094.036-.136.083a3.786,3.786,0,0,1-.848.047c-.645-.045-1.156.069-1.154.257s-.028.172,2.119.186c1.512.01,1.951-.046,1.627-.206a.411.411,0,0,0-.4,0,.591.591,0,0,1-.493-.013c-.61-.22.1-.331,1.509-.235.547.037.572.049.349.174-.286.16-.3.317-.055.582.172.186.246.2,1.381.192,1.043,0,1.211.015,1.294.143a.762.762,0,0,0,.462.191c.264.032.346.085.293.19-.084.165.755.51,1.077.444.149-.031.149-.04,0-.045-.106,0-.193-.044-.194-.091s.147-.068.385-.038c.223.027.386.014.385-.032s-.07-.079-.155-.078-.14-.026-.122-.058-.056-.136-.164-.232c-.175-.155-.157-.182.165-.244a6.085,6.085,0,0,1,1.109-.03c.541.029.718.015.638-.049a1.027,1.027,0,0,0-.475-.087c-.464,0-.853-.071-.854-.16a5,5,0,0,1,1.7,0,5.645,5.645,0,0,1,.72.273c.33.151.379.21.219.26s-.128.077.123.116c.355.055.457.264.14.286-.106.007-.8.019-1.536.025a6.629,6.629,0,0,0-1.534.108c-.152.077-.028.1.607.094,1.02,0,2.188.249,2.2.476a3.058,3.058,0,0,1-.836.061,3.669,3.669,0,0,0-.925.073c-.22.181.144.3,1.2.384,1.777.146,1.807.151,1.809.274,0,.184-.4.215-.858.066a4.734,4.734,0,0,0-1.291-.139,4.436,4.436,0,0,1-1.248-.134,3.236,3.236,0,0,0-1.749-.018c-.073.1.46.421.611.372a1.482,1.482,0,0,1,.278-.02c.176,0,.184.037.041.2-.157.179-.244.2-.832.167-.727-.037-.9.073-.229.146.234.026.634.074.889.108.44.058.446.064.117.117-.512.081-.419.192.161.19a3.109,3.109,0,0,1,.811.1,5.2,5.2,0,0,0,1.029.141l.723.037-.881-.32c-.485-.176-1.021-.36-1.191-.409-.282-.081-.266-.089.183-.092a1.559,1.559,0,0,0,.587-.082,1.544,1.544,0,0,1,.587-.079c.437,0,2.939.216,3.969.343l.386.048-.459.067a4.284,4.284,0,0,1-1.031-.008,16.047,16.047,0,0,0-3.056-.106,6.934,6.934,0,0,0,2.43.46c.674.035.965.083.966.158s.193.108.623.106c.41,0,.653.037.712.114a.6.6,0,0,0,.4.115,2.36,2.36,0,0,1,.7.152l.394.153-.7,0a3.159,3.159,0,0,0-.907.1c-.24.118-.7.076-1.678-.152a6.9,6.9,0,0,0-2.616-.165,2.733,2.733,0,0,1-1.3-.043,1.744,1.744,0,0,1-.71-.232c0-.049-.211-.125-.466-.168-.364-.062-.464-.057-.463.023,0,.056.112.148.248.2.225.092.225.109,0,.193-.409.152.014.241,1.612.338.807.049,1.606.1,1.776.119.355.035.8.063,2.316.149.975.055.809.066-1.7.116-1.527.03-2.9.026-3.046-.011a2.454,2.454,0,0,0-.771.008c-.455.067-.465.075-.107.08a2.5,2.5,0,0,1,.7.118,3.118,3.118,0,0,0,.858.113c.51,0,.551.017.486.194s-.015.193.335.192a2.855,2.855,0,0,0,.7-.1,10.008,10.008,0,0,1,3.413.28,1.936,1.936,0,0,0,.576.187.606.606,0,0,1,.345.153.5.5,0,0,0,.277.145c.061,0,.215,0,.343,0,.284.014-.894.238-1.27.241-.149,0-.252.041-.23.089a2.219,2.219,0,0,1-.884.229c-.508.078-.763.144-.568.147.231,0,.318.037.246.1s-.028.075.132.043a3.192,3.192,0,0,1,1.353.188c0,.038-.068.048-.152.022s-.113,0-.06.073a.438.438,0,0,0,.308.119c.118,0,.215.036.216.081s-.055.065-.122.044a.739.739,0,0,0-.347.034c-.184.059-.174.072.056.072.154,0,.247.026.208.058-.079.065.135.078,1.635.1,1.215.019,1.063.136-.189.146-.776.006-.822.016-.539.115.43.151.863.367.8.4a3.208,3.208,0,0,1-.632-.092,37.185,37.185,0,0,0-3.937-.419c-.641.02-.533.076.245.125.411.026.845.063.963.082.393.062.029.134-.637.126-.643-.008-.648-.006-.269.1.352.1.359.111.079.125a4.347,4.347,0,0,0-.9.109,21.293,21.293,0,0,1-3.679-.139c-.508-.109-.5-.11.68-.117a4.4,4.4,0,0,0,1.195-.084c0-.043-.088-.079-.194-.082l-1.427-.024c-1.735-.027-2.75-.153-2.946-.365a.5.5,0,0,0-.373-.146c-.381.044-.95-.059-.837-.151.065-.053.037-.066-.071-.032s-.178.019-.178-.026-.123-.08-.271-.079c-.215,0-.181.042.165.193a2.246,2.246,0,0,0,.658.189c.123,0,.223.034.224.077,0,.1-.418.1-.488.007a2.772,2.772,0,0,0-1.315.158.728.728,0,0,0-.406.323c-.062.178,0,.215.574.315,1.359.24,1.874.349,1.656.353-.5.009.232.228.818.245a1.886,1.886,0,0,1,.7.11,5.366,5.366,0,0,0,1.264.136,15.859,15.859,0,0,1,2.992.269,13.464,13.464,0,0,0,1.8.184,11.274,11.274,0,0,1,2.473.3,1.042,1.042,0,0,1-.136.207,4.207,4.207,0,0,0-.3.5l-.165.318-.736-.178c-.916-.221-1.383-.236-.669-.021.414.125.482.175.312.229-.155.05-.076.07.275.07a1.5,1.5,0,0,1,.6.088c.076.061,0,.074-.26.043-.2-.025-1.2-.061-2.223-.081l-1.852-.036.8.129a2.023,2.023,0,0,1,.872.26c.044.083.3.149.692.181a4.525,4.525,0,0,1,.908.156c.255.095.219.1-.332.067-.34-.021-.9-.085-1.236-.142a4.867,4.867,0,0,0-1.883-.061c-.032.048.078.1.244.126a.438.438,0,0,1,.356.219c.04.133.2.2.623.258.666.091.677.1.553.342-.071.139-.147.167-.3.11a1.456,1.456,0,0,0-.587-.018c-.379.058-.377.059.078.075.39.014.407.022.108.052a1.461,1.461,0,0,1-.568-.052,4.908,4.908,0,0,0-1.622.054c-.411.069.327.212,1.005.2.476-.012.546,0,.309.055-.206.047.177.067,1.158.062.806,0,1.57,0,1.7.009a5.373,5.373,0,0,0,.732-.041c.354-.041.5-.03.5.038s-.1.076-.239.05-.206-.018-.163.016-.246.106-.641.16c-.526.072-.658.117-.495.167.3.093.188.132-.538.186-.467.035-.523.029-.232-.023.372-.067.368-.069-.112-.075-.381,0-.476.021-.407.109s-.008.107-.428.069a4.572,4.572,0,0,0-1.058-.022c-.226.013-.067.043.387.073l.772.05-.8.015a3.025,3.025,0,0,1-.9-.068,4.228,4.228,0,0,0-1.282-.025c-1.3.064-2.168.233-1.891.37a1.641,1.641,0,0,0,.827-.026,5.911,5.911,0,0,1,2.728.2c1.437.29,2.031.484,1.483.486a4.542,4.542,0,0,1-.883-.152c-.726-.192-.711-.193-.893.052-.142.191-.2.2-.864.158-.392-.026-.911-.046-1.154-.045-.28,0-.442-.039-.443-.109,0-.148-.518-.22-1.1-.154-.375.043-.456.085-.391.206s.02.141-.139.111c-.121-.023-.22,0-.22.041a4.508,4.508,0,0,1-1.7-.067c-.539-.074-.509-.081.5-.122a1.918,1.918,0,0,0,.592-.1c.125-.064-.007-.1-.5-.139a5.246,5.246,0,0,1-1.165-.236,4.131,4.131,0,0,0-1.7-.18c-1.45,0-1.9-.046-1.915-.214-.009-.08-.042-.091-.09-.029a.711.711,0,0,1-.411.106c-.184.005.048.069.516.143.982.155,1.145.341.313.358-1.138.024-1.234.035-1.232.151,0,.065-.165.15-.368.19a1.516,1.516,0,0,0-.47.154c-.161.133-.7.1-.6-.032.048-.064.006-.116-.093-.116s-.136-.035-.083-.079.039-.074-.03-.068a3.55,3.55,0,0,1-.359,0c-.206-.009-.206-.018,0-.087s.176-.075-.078-.064c-.17.007-.586.008-.926,0-.444-.008-.554-.032-.393-.084s.086-.07-.278-.063a2.107,2.107,0,0,1-.659-.068,1.32,1.32,0,0,0-.538-.039c-.29.029-.359.073-.288.182.082.126.03.139-.418.1-.282-.023-.6-.056-.705-.072s-.193.022-.192.085-.072.114-.162.114-.122-.033-.072-.075-.177-.061-.609-.038c-.616.033-.7.02-.7-.113s-.083-.146-.773-.107a2.16,2.16,0,0,1-.772-.026,11.451,11.451,0,0,0-2.608.1c-.165.068-.233.065-.285-.011s-.113-.081-.313,0-.223.082-.124,0c.078-.066.047-.1-.087-.087-.461.033-.762-.005-.665-.085.061-.05-.013-.077-.185-.068s-.53.008-.827,0c-.526-.018-.522-.02.153-.075.654-.053.663-.057.153-.067-.3-.006-.714-.03-.926-.054-.3-.034-.336-.025-.154.039.206.073.206.082,0,.084a1.992,1.992,0,0,1-.541-.1,2.572,2.572,0,0,0-1-.051,7.611,7.611,0,0,1-1.234-.01c-.3-.036-.951-.1-1.452-.147-.823-.074-.931-.067-1.118.063-.139.1-.156.17-.052.221.272.134.171.278-.189.27-.264-.006-.282-.016-.076-.044.149-.02.237-.064.2-.1a3.212,3.212,0,0,0-.876.047,10.383,10.383,0,0,1-2.795.044,4.613,4.613,0,0,0-.922-.059c-.288.027-.206.065.463.213a3.128,3.128,0,0,1,.813.241,3.459,3.459,0,0,1-1.272.08c-.331-.01-.424.021-.422.142,0,.171-.179.195-.613.08a12.37,12.37,0,0,0-1.632-.084c-.74,0-1.56-.029-1.822-.055l-.478-.047.5-.105c.395-.083.462-.127.323-.21-.238-.142.162-.218.858-.164.717.056.968-.1.5-.311a7.7,7.7,0,0,0-2.189-.557,3.53,3.53,0,0,1-.751-.086,8.4,8.4,0,0,0-1.341-.1,11.536,11.536,0,0,1-1.86-.176,9.206,9.206,0,0,0-1.422-.163c-.315,0-.907-.031-1.315-.072-.737-.073-3.318-.189-5.681-.255l-1.235-.035.734.117a3.663,3.663,0,0,1,.735.157,13.515,13.515,0,0,1-1.967-.02c-.286-.051-.236-.171.075-.179.231-.005.225-.016-.04-.072-.309-.065-.309-.065,0-.077.5-.019-.331-.158-1-.167a8.75,8.75,0,0,1-1.091-.1,15.462,15.462,0,0,0-1.876-.078,4.846,4.846,0,0,1-1.162-.043c.118-.037.1-.066-.055-.09-.449-.071-2.877-.276-4.089-.345-.679-.039-1.687-.105-2.239-.148s-1.353-.1-1.78-.135a8.549,8.549,0,0,1-.927-.1c-.083-.025-.741-.067-1.463-.093s-1.416-.06-1.544-.076c-.336-.041-2.472-.11-4.168-.136-1.411-.021-2.964-.082-3.937-.154-.255-.019-.811-.052-1.235-.073s-1.5-.1-2.394-.179-2.089-.158-2.659-.179-1.786-.089-2.7-.151c-2.2-.148-2.649-.17-4.289-.214-.764-.02-2.014-.068-2.779-.106-1.585-.079-3.252-.139-4.708-.169-.552-.012-1.281-.061-1.622-.109s-2.147-.1-4.09-.116c-5.013-.039-6.916-.073-7.092-.127a.986.986,0,0,0-.428.025,17.649,17.649,0,0,1-1.814.132c-4.185.163-4.8.179-5.013.134-.128-.027-1-.02-1.928.016s-2.911.088-4.4.118-2.734.056-2.776.058-.632.018-1.311.035-1.858.055-2.622.084-2.36.076-3.547.1c-3.26.077-4.349.165-4.779.383a.685.685,0,0,1-.385.088.261.261,0,0,0-.215.029c-.046.038.3.072.771.076.511,0,.817-.023.762-.067a34.508,34.508,0,0,1,3.932.036c.519.033,1.156.044,6.758.113,1.383.017,2.6.057,2.7.089a15.258,15.258,0,0,0,1.73.04c.956-.011,1.4.006,1.158.045-.212.035-1.5.074-2.853.087a41.561,41.561,0,0,0-5.012.173c-.87.124-9.547.1-9.706-.028a22.489,22.489,0,0,0-5.262-.111c-.293.085-.32.112-.114.114.281,0,.392.156.113.157-.088,0-.578-.069-1.09-.153-.971-.16-1.5-.13-.983.056.272.1.27.1-.045.1a.849.849,0,0,1-.461-.114,5.482,5.482,0,0,0-2.113-.119,2.36,2.36,0,0,1-.949.041,2.507,2.507,0,0,0-1.108.071,2.762,2.762,0,0,1-.5.161,28.2,28.2,0,0,0,4.166-.006c.436-.036.5-.025.348.055a11.222,11.222,0,0,1-2.543.184,3,3,0,0,0-.732.055c0,.062-.161.072-1.835.114a6.987,6.987,0,0,0-1.561.128c-.084.069-.126.069-.175,0a17.321,17.321,0,0,0-3.174-.036,4.328,4.328,0,0,0,.975.045,25.1,25.1,0,0,1,3.588.259c.059.031-1.265.036-2.941.012-3.2-.047-3.668,0-2.427.245.97.191.765.277-.5.211a12.059,12.059,0,0,0-2.928.049c-.249.126-.426.114-.427-.029,0-.093-.083-.106-.348-.057-.19.035-1.075.069-1.966.075-1.837.012-2.09.031-1.541.113.242.036-.15.059-1.043.062-1.5,0-1.829.054-1.385.214.4.143.175.2-.821.2a9.366,9.366,0,0,0-1.323.088,9.485,9.485,0,0,1-1.112.115,2.367,2.367,0,0,0-.806.132c-.232.186-.139.437.182.487.618.1.284.175-.961.228-1.636.07-2.151,0-2.334-.312-.149-.254-.584-.348-1.117-.242-.552.111-1.454.085-1.456-.042s-.243-.155-.385-.039a1.539,1.539,0,0,1-.726-.121,1.6,1.6,0,0,0-1-.111,2.97,2.97,0,0,1-1.07,0,4.506,4.506,0,0,0-1.265,0c-1.749.253-1.876.255-2.318.029a2.018,2.018,0,0,0-.913-.215,1.223,1.223,0,0,0-.5.049,1.224,1.224,0,0,1-.461.158c-.528.119-.606.246-.151.245.17,0,.309.038.31.087s.144,0,.319-.118c.377-.244.644-.2.507.083-.095.195-.08.2.478.152.459-.039.559-.027.493.062-.054.071.1.154.438.232.463.108,1.191.418.984.419a10.169,10.169,0,0,1-1.835-.236c-.075-.06-.19-.061-.394,0-.272.078-.273.085-.012.134.2.037.247.1.173.217a.743.743,0,0,0-.087.378c.014.2-.033.213-.553.214-.633,0-.8-.041-1.052-.266a.562.562,0,0,0-.311-.148.9.9,0,0,1-.344-.1.561.561,0,0,0-.33-.063c-.068.021-.242-.073-.388-.211s-.236-.184-.193-.085c.056.128.01.156-.211.128s-.263-.085-.2-.26.031-.224-.175-.223a1.285,1.285,0,0,0-.486.115.874.874,0,0,1-.619.04,1.594,1.594,0,0,0-.561-.021c-.105.033-.132.006-.073-.073s-.049-.16-.386-.243c-.6-.147-.588-.147-.585.024,0,.078.193.189.428.248a3.492,3.492,0,0,1,1.064.379c-.056,0,.022.093.172.206.27.2.269.206-.071.162-.236-.03-.344-.01-.343.065s-.129.109-.288.11c-.321,0-.693-.177-.537-.256a.474.474,0,0,1,.308.035c.348.143.222-.035-.189-.266a.791.791,0,0,0-.825-.1c-.41.1-.458.1-.715-.07-.371-.244-.542-.228-.538.051a.207.207,0,0,0,.235.231c.127,0,.215.036.194.082a2.035,2.035,0,0,0,.813.253c.622.125.865.216.9.34a.248.248,0,0,0,.221.169c.093,0,.131.019.084.043a2.346,2.346,0,0,1-.668-.076,3.053,3.053,0,0,0-.639-.091c-.094.048.132.282.272.282.234,0,1.46.6,1.344.662a.615.615,0,0,1-.4-.091,4.537,4.537,0,0,0-1.566-.569c-.208,0-.276.038-.215.117.1.122-.159.151-1.138.128-.6-.014-.636.093-.111.333a1.042,1.042,0,0,1,.389.242c0,.036-.083.023-.186-.028a2.114,2.114,0,0,0-.686-.09,1.641,1.641,0,0,1-.59-.07,1.335,1.335,0,0,0-.528-.064c-.552.01-.792-.062-.794-.238,0-.093-.2-.166-.6-.225-.768-.113-.794-.111-.792.042,0,.2.952.58,1.344.541.251-.025.351.011.4.144.08.2-.13.34-.516.342a10.844,10.844,0,0,1-3.431-1.019.679.679,0,0,0-.394-.091c-.054.027-.023.074.068.1a1.425,1.425,0,0,1,.6.5c0,.035.128.108.278.162s.272.132.272.174.179.116.4.164c.474.106.366.243-.2.245a1.956,1.956,0,0,0-.668.123c-.183.084-.3.1-.372.037Zm-.8-1.86a1.812,1.812,0,0,0-1.1-.247c-.128.023-.131.1-.01.3.209.333.9.487,1.084.243a.276.276,0,0,0,.028-.291Zm-1,.017c0-.043.068-.1.153-.126s.154-.014.155.029-.068.1-.153.126S127.7,324.862,127.7,324.819Zm7.193.364c-.046-.036,0-.159.1-.272.155-.171.257-.2.611-.161.244.025.424.011.424-.034,0-.09-.489-.18-.8-.147-.115.012-.193-.019-.174-.069s-.1-.113-.272-.14-.306-.078-.307-.116a1.144,1.144,0,0,0-.528-.116,3.175,3.175,0,0,1-.845-.194c-.381-.176-.485-.183-.483-.032,0,.072-.088.1-.246.067-.182-.034-.232-.008-.189.1a.327.327,0,0,0,.288.149c.126,0,.213.043.194.093s.242.131.581.181a1.672,1.672,0,0,1,.617.155c0,.036.158.143.35.238a1.348,1.348,0,0,1,.37.231c.042.122.064.135.223.135.09,0,.126-.03.081-.067Zm1.449-.248c0-.043-.075-.077-.164-.077s-.12.035-.067.078a.344.344,0,0,0,.164.077A.072.072,0,0,0,136.34,324.936Zm193.839-1.127a1.145,1.145,0,0,0-.733-.006c-.039.032.129.061.373.065s.406-.023.361-.059Zm-230.609.611c.164.031.21.016.135-.043-.173-.138-.559-.105-.543.047.008.074.047.094.088.043A.4.4,0,0,1,99.569,324.42Zm24-.031c.157-.08-.195-.337-.461-.336-.2,0-.21.022-.051.116s.147.116.011.116c-.1,0-.139.035-.086.078a.735.735,0,0,0,.586.027Zm-19.21-.159c-.048-.024-.134.02-.19.1-.082.11-.064.119.087.043.1-.053.151-.115.1-.139Zm-8.374.072a.479.479,0,0,0-.318-.029c-.318.062-.28.105.093.1C95.937,324.376,96.039,324.342,95.988,324.3Zm215.483-.781a.588.588,0,0,0-.3.007c-.051.026.04.044.2.04C311.558,323.564,311.594,323.545,311.471,323.521ZM98,324c-.052-.026-.087.02-.08.1s.045.108.094.046.037-.123-.014-.148Zm201.249-.6a5.913,5.913,0,0,1-.774-.166.751.751,0,0,0-.271-.053c-.448-.016-.515-.033-.427-.106.052-.043-.006-.057-.132-.033a2.238,2.238,0,0,1-.718-.081c-.643-.164-.743-.1-.285.184a5.787,5.787,0,0,0,2.607.364l.694.012ZM93.4,324c.16-.13.141-.165-.12-.234s-.924.009-.923.116c0,.284.737.368,1.043.118Zm232.162-.667a6.977,6.977,0,0,0-1.595-.024,5.242,5.242,0,0,0,.978.057C325.365,323.362,325.642,323.347,325.557,323.333Zm4.94-.118a.405.405,0,0,0-.276.054c-.15.077-.132.086.087.043C330.46,323.282,330.545,323.239,330.5,323.215Zm-187.743.461a.506.506,0,0,0-.234-.247c-.1-.05-.185-.136-.186-.192,0-.137-.1-.126-.451.05-.292.148-.291.153.074.348C142.407,323.875,142.824,323.9,142.754,323.676Zm-46.437.146a.921.921,0,0,0,.432-.068c.053-.044-.1-.076-.366-.075-.566,0-.947.072-.945.174,0,.044.117.052.27.019A3.142,3.142,0,0,1,96.317,323.822Zm38.563-.231a.366.366,0,0,0-.258-.118c-.114,0-.111.05.01.161.194.179.394.144.248-.043Zm169.643-.433a.588.588,0,0,0-.3.007c-.051.026.04.044.2.04C304.61,323.2,304.646,323.182,304.523,323.158Zm27.627-.095a4.369,4.369,0,0,0-.694,0c-.191.019-.034.034.348.032S332.341,323.081,332.149,323.063Zm-238.675.308.491-.01-.5-.079a1.614,1.614,0,0,1-.508-.126.738.738,0,0,0-.224-.189c-.195-.127-.253-.13-.535-.03-.174.062-.264.138-.2.17s-.016.106-.177.166c-.282.1-.28.111.08.177a2.259,2.259,0,0,0,.728,0,6.147,6.147,0,0,1,.848-.078Zm5.876.027c.241-.093.257-.132.094-.23a1.743,1.743,0,0,0-1.265.014c-.4.183-.349.246.223.279.276.016.537.034.579.039A1.388,1.388,0,0,0,99.351,323.4Zm237.866-.822a.7.7,0,0,0-.365.049c-.114.058-.053.068.2.033C337.263,322.63,337.333,322.595,337.217,322.576Zm-180.535.557c0-.133-.478-.219-.829-.151-.5.1-.248.265.393.263C156.523,323.244,156.683,323.2,156.682,323.133Zm-59.524.141a.344.344,0,0,0-.37,0c-.143.073-.1.093.186.092s.329-.022.184-.093Zm220.018-.724c.609,0,.508-.045-.236-.1-.363-.027-.547-.015-.488.032.113.09-.706.009-.929-.092a2.783,2.783,0,0,0-.7-.075l-.548-.008.539-.059.539-.059-.506-.008c-.33-.006-.538.034-.6.112a.345.345,0,0,1-.311.079c-.122-.023-.178-.008-.125.035a1.954,1.954,0,0,0,.665.079c.313,0,.848.03,1.188.064a5.176,5.176,0,0,0,.823.031A6.654,6.654,0,0,1,317.176,322.549Zm-175.307.512c0-.043-.123-.076-.271-.075-.231,0-.236.013-.038.076C141.853,323.156,141.87,323.156,141.869,323.061Zm11.03-.114c.052-.043.038-.081-.031-.086-1.077-.071-1.34-.041-1.023.115a2.237,2.237,0,0,0,1.054-.029Zm-7.121-.169c.048-.064.02-.116-.062-.116a.135.135,0,0,0-.148.116c0,.064.029.116.062.116A.284.284,0,0,0,145.778,322.778Zm-41.272.109c.325-.1.014-.151-.823-.121-1.015.035-1.125.2-.131.192a5.114,5.114,0,0,0,.954-.071Zm-1.677-.158c0-.078-.154-.094-1.023-.1-.326,0-.458.025-.407.09A3.018,3.018,0,0,0,102.829,322.729Zm53.228-.179c0-.043-.105-.077-.232-.077s-.231.036-.23.078.105.077.232.077S156.057,322.592,156.057,322.55Zm177.621-.571a1.162,1.162,0,0,0-.386,0c-.106.022-.019.039.193.038s.3-.019.192-.04Zm-222.839.6c.048-.027,0-.064-.106-.083s-.194-.083-.195-.143c0-.225-.522-.079-.689.194-.107.176-.086.183.394.133A3.058,3.058,0,0,0,110.838,322.574Zm225.254-.812a4.395,4.395,0,0,0-.528-.078c-.339-.037-.4-.029-.231.027C335.542,321.781,336.248,321.828,336.092,321.762ZM97.853,322.3l.352-.116-.321-.148a1.127,1.127,0,0,0-.843-.06c-.537.091-1.048.314-.717.313.1,0,.174.051.175.113C96.5,322.539,97.3,322.478,97.853,322.3Zm-6.369.083a.448.448,0,0,0-.242-.077c-.08,0-.145.035-.144.078s.109.077.242.077S91.536,322.423,91.483,322.38Zm4.422-.451a3.447,3.447,0,0,1,.645-.108c.479,0,.391-.156-.154-.268-.708-.145-.684-.147-.681.041s-.6.336-.838.224c-.222-.1-.395-.082-.393.048,0,.064-.1.116-.221.117a.615.615,0,0,0-.321.082A5.933,5.933,0,0,0,95.906,321.93Zm4.505-.2a3.091,3.091,0,0,0,.7-.2c0-.025-.073-.023-.161,0a.661.661,0,0,1-.375-.038,1,1,0,0,0-.677.034,2.309,2.309,0,0,0-.572.212c-.068.056-.042.069.068.034s.178-.019.178.026c0,.108.015.107.835-.073Zm231.249-.677a1.162,1.162,0,0,0-.386,0c-.106.022-.019.039.193.038s.3-.019.192-.04Zm.475-.124c-.039-.032.227-.062.593-.068.562-.008.6-.019.278-.071l-.387-.061.385-.015c.212-.008.293-.033.181-.055a3.493,3.493,0,0,0-.847.084,9.521,9.521,0,0,1-1.211.144c-.827.029-.593.107.309.1.423,0,.738-.029.7-.061Zm-234.668.7q.085-.113-.139-.069c-.243.048-.305.182-.083.181A.316.316,0,0,0,97.466,321.63Zm230.332-.847c.405-.156.328-.2-.333-.2-.38,0-.631.043-.684.113C326.634,320.891,327.357,320.953,327.8,320.782Zm2.613-.031a.588.588,0,0,0-.3.007c-.051.026.04.044.2.04C330.5,320.794,330.535,320.775,330.411,320.751Zm1.281-.106a3.157,3.157,0,0,0-.9-.063l-.8.014.7.052c1.064.079,1.106.079,1,0Zm-253.26.74c0-.185-.285-.212-.461-.044-.141.134-.119.157.149.156C78.293,321.5,78.433,321.446,78.432,321.385Zm256.226-.8a1.737,1.737,0,0,0-.463,0c-.1.022.019.037.273.035s.34-.02.189-.039Zm-157.144-.088a1.163,1.163,0,0,0-.386,0c-.106.022-.019.039.193.038s.3-.019.192-.04Zm19.048-.138c.031-.048-.1-.109-.3-.135a23.664,23.664,0,0,0-2.979-.036,1.633,1.633,0,0,1-.782-.018c-.127-.063-.528.018-.527.107a7.458,7.458,0,0,0,1.428.064c1.949-.007,1.949-.007,2.057.079a1.922,1.922,0,0,0,1.1-.061Zm-116.526.03a1.06,1.06,0,0,1,.507-.133c.48,0,.8-.084.8-.2,0-.059.12-.109.269-.111.247,0,.244-.013-.025-.114s-.27-.115-.041-.16c.14-.027.254-.079.254-.114,0-.121-.633-.163-.9-.06-.2.078-.191.061.03-.071l.291-.173-.482.03a4.2,4.2,0,0,0-.886.164,1.943,1.943,0,0,1-.7.1c-.161-.021-.293-.008-.292.027s-.12.083-.269.106-.014.032.3.021.555,0,.54.035.113.113.283.182c.26.106.266.12.038.085a3.137,3.137,0,0,0-1.8.532,9.164,9.164,0,0,0,.944.009A2.5,2.5,0,0,0,80.036,320.385Zm-.344-.254a.588.588,0,0,1,.3-.007c.123.024.087.043-.093.047C79.732,320.175,79.641,320.157,79.692,320.131Zm1.34-.494c0-.04.067-.094.151-.12s.113,0,.062.073C81.144,319.723,81.034,319.748,81.032,319.637Zm-1.389-.034c0-.019.069-.056.153-.082s.154-.011.155.034-.068.082-.153.082S79.643,319.621,79.643,319.6Zm109.861.419c0-.032-.035-.058-.078-.058-.614,0-.62,0-.385.079.253.081.464.071.463-.021Zm136.156-.439c.256-.056.223-.068-.2-.071-.3,0-.471.028-.414.073C325.156,319.674,325.243,319.674,325.661,319.583Zm10.178-.425a6.281,6.281,0,0,0-2.23-.07c-.228.073-.23.073.843.183.17.017.691.032,1.158.032h.849Zm-261.127.882c0-.043-.109-.077-.242-.077s-.2.035-.144.078a.448.448,0,0,0,.242.077C74.647,320.117,74.712,320.082,74.711,320.04Zm249.634-.792a1.317,1.317,0,0,0-.382-.065c-.21-.019-.344-.006-.3.031A1.308,1.308,0,0,0,324.345,319.248Zm-259.2.592a1.817,1.817,0,0,0-.464-.073c-.206,0-.206.009,0,.075a1.818,1.818,0,0,0,.464.073c.206,0,.206-.009,0-.075Zm2.154-.424c0-.073-.463-.109-.545-.042-.05.041.053.074.227.073A.859.859,0,0,0,67.3,319.416Zm8.282-.045c.513-.071.257-.263-.347-.261-.564,0-.847.136-.511.241A1.663,1.663,0,0,0,75.579,319.371Zm249.864-.923a.588.588,0,0,0-.3.007c-.051.026.04.044.2.04C325.53,318.491,325.566,318.472,325.443,318.448Zm.9-.081a3.548,3.548,0,0,0-1.047-.219c-.134.068.407.241.75.24A1.129,1.129,0,0,0,326.339,318.367ZM70.6,318.64c-.127-.035-.192-.1-.143-.137.18-.148-.84-.1-1.155.052-.193.095-.156.116.275.157a2.018,2.018,0,0,1,.579.114.59.59,0,0,0,.378-.029C70.784,318.718,70.794,318.694,70.6,318.64Zm1.4.142c0-.161-.636-.18-1-.03l-.37.152.685-.027A1.8,1.8,0,0,0,71.994,318.782Zm255.14-1.032c-.632-.151-.8-.226-.734-.332.124-.2-.2-.294-1.3-.379a3.735,3.735,0,0,0-1.383.036l-.4.112.424,0c.233,0,.425.035.425.077s.1.056.217.033c.147-.029.251.035.326.2a.494.494,0,0,0,.288.274c.14.025,1.766.122,2.8.167A2.65,2.65,0,0,0,327.135,317.751Zm-253.524.785-.387-.109.415,0a1.283,1.283,0,0,1,.5.064,1.379,1.379,0,0,0,.469.1c.211.02.352.01.313-.021-.108-.086.675-.223,1.568-.275a2.623,2.623,0,0,1,.9.034.527.527,0,0,0,.283.078c.11,0,.091-.031-.049-.076-.187-.06-.163-.075.124-.077.23,0,.318.029.247.087s-.041.068.065.035.138-.177.078-.387c-.075-.262-.043-.343.151-.381.232-.046.6.16.548.309-.074.232.519.41.752.225a6.1,6.1,0,0,1,.728-.358,1.9,1.9,0,0,0,.616-.35c0-.045.182-.073.4-.063.448.022.942-.191.572-.246a8.158,8.158,0,0,0-3.05-.062,4.749,4.749,0,0,1-.989.079,2.383,2.383,0,0,0-1.423.291c-.337.176-.511.338-.485.45s-.053.185-.229.2c-.192.021-.243-.006-.178-.093s-.008-.122-.311-.121c-.417,0-.565.188-.206.259.116.023.085.041-.077.045s-.27.037-.269.074a3.46,3.46,0,0,1-.942.113,4.939,4.939,0,0,0-1.117.14c-.134.073-.08.083.24.044a1.049,1.049,0,0,1,.511.027.712.712,0,0,0,.358.074c.19,0,.156-.033-.126-.113Zm.456-.5c.187-.062.167-.076-.108-.076a.947.947,0,0,0-.432.078C73.407,318.132,73.764,318.131,74.067,318.032Zm243.729-.8a1.739,1.739,0,0,0-.463,0c-.1.022.019.037.273.035S317.946,317.255,317.8,317.236Zm1.3-.15a5.906,5.906,0,0,0-2.493-.189c0,.191.7.279,2.186.275C319.246,317.172,319.3,317.156,319.092,317.086Zm15.839-.056.471-.049-.373-.171c-.34-.156-.457-.165-1.317-.1a7.557,7.557,0,0,1-1.068.03.321.321,0,0,0-.307.234,13.418,13.418,0,0,0,1.641.1A9.108,9.108,0,0,0,334.931,317.03Zm-260.253.536c0-.043-.07-.077-.155-.077s-.154.035-.153.078.07.077.155.077S74.679,317.608,74.678,317.566Zm-2.163-.186q0-.116-.464-.114c-.266,0-.463.043-.464.1s-.051.058-.152-.019c-.083-.063-.152-.078-.152-.032,0,.139.181.186.72.184C72.357,317.5,72.517,317.46,72.516,317.38Zm1.387-.118c0-.041-.1-.055-.232-.03a.534.534,0,0,0-.23.076c0,.017.1.03.232.03S73.9,317.3,73.9,317.261Zm-2.922-.073c.439-.12.373-.358-.117-.418a1.162,1.162,0,0,0-.5.014,1.981,1.981,0,0,1-1.015.257c-.153-.122-1.157-.091-1.156.036,0,.069.109.094.3.069a1.692,1.692,0,0,1,.579.042,5.86,5.86,0,0,0,1.913,0Zm4.461-.068a.185.185,0,0,0,.075-.16c0-.079.205-.156.539-.2a2.97,2.97,0,0,0,.615-.132,1.313,1.313,0,0,1,.384-.094c.234-.03.2-.042-.121-.047a6.926,6.926,0,0,0-2.64.7A3.371,3.371,0,0,0,75.442,317.121Zm248.216-.837c-.037-.092-.2-.135-.5-.133-.544,0-.706.17-.209.216C323.628,316.429,323.713,316.42,323.658,316.284Zm5.033-.045a2.412,2.412,0,0,0-1.1-.01c-.246.048-.233.061.1.1C328.185,316.386,328.8,316.329,328.691,316.239ZM78.642,316.9c.51-.086.422-.169-.234-.221-.894-.071-1.03-.058-1.244.116-.181.147-.17.157.119.11.175-.028.318-.022.319.015C77.6,316.993,78.13,316.982,78.642,316.9Zm246.894-.869a1.815,1.815,0,0,0-.464-.073c-.206,0-.206.009,0,.075a1.818,1.818,0,0,0,.464.073C325.743,316.1,325.743,316.092,325.536,316.026Zm-251.062.718c.191-.026.346-.079.346-.116,0-.117-.735-.072-.827.05s-.033.136.481.066Zm4.475-.419c-.072-.182-.476-.192-.861-.023-.419.185-.339.225.359.182C78.854,316.46,78.986,316.418,78.949,316.326Zm256.392-.777a14.9,14.9,0,0,0-2.787-.236c-.09.044.059.073.387.075.293,0,.95.049,1.459.1l.991.108C335.427,315.6,335.4,315.58,335.341,315.549Zm3.346-.08a2.275,2.275,0,0,0,.535-.074c-.026-.013-.51-.044-1.075-.069-.986-.044-1.023-.039-.941.115.067.125.174.152.492.12C337.921,315.538,338.366,315.5,338.687,315.469Zm-266.754.669c-.126-.161-.361-.132-.359.044,0,.1.077.137.223.109C71.918,316.267,71.979,316.2,71.933,316.138Zm268.25-.9c0-.064-.1-.116-.228-.115a8.331,8.331,0,0,1-.9-.111c-.37-.061-.946-.13-1.28-.153l-.608-.041.66.152a10.93,10.93,0,0,0,1.237.2,6.311,6.311,0,0,1,.809.114C340.185,315.376,340.185,315.376,340.183,315.242Zm-260.128.607c0-.041-.1-.055-.232-.03a.533.533,0,0,0-.23.076c0,.017.1.03.232.03S80.056,315.89,80.055,315.849Zm247.163-.911c.225-.074.185-.078-.734-.075a.218.218,0,0,0-.166.078C326.254,315.04,326.915,315.038,327.218,314.938Zm-255.966.511a.419.419,0,0,0-.267-.082c-.106.054.113.2.3.2C71.387,315.566,71.375,315.522,71.252,315.449Zm254.342-.815a3.433,3.433,0,0,0-.618-.062c-.248,0-.233.015.078.064C325.583,314.719,325.988,314.718,325.594,314.634Zm-248.481.449c0-.043.168-.078.376-.079a1.088,1.088,0,0,0,.471-.079c.105-.087-.141-.1-.645-.028-.339.047-.627.264-.349.263C77.047,315.161,77.114,315.126,77.113,315.083ZM324.041,313.9a3.884,3.884,0,0,0-1.236-.112c-.536.029.538.226,1.237.227h.617l-.619-.115ZM81.2,314.683c.052-.043-.049-.077-.223-.077s-.317.036-.317.078.1.077.223.077A.613.613,0,0,0,81.2,314.683Zm235.341-1.388a2,2,0,0,0-.463-.011c-.29.006-.4.026-.255.045s.228.073.165.126.027.04.191-.023S316.5,313.307,316.537,313.295Zm1.352.154c-.18-.089-1.219-.112-1.109-.025a1.828,1.828,0,0,0,.656.078C317.742,313.5,317.946,313.477,317.889,313.449Zm-3.423-.306a2.328,2.328,0,0,1-.464-.094,10.846,10.846,0,0,0-1.891-.081c-.567.019-.392.166.2.164a1.316,1.316,0,0,1,.54.056,4.06,4.06,0,0,0,.965.022C314.341,313.192,314.636,313.161,314.466,313.143Zm23.5-.144a.873.873,0,0,0-.458-.085c-.137.026-.075.067.179.119C338.221,313.144,338.251,313.14,337.964,313Zm-20.956-.114c0-.042-.138-.065-.305-.052-.46.037-.5.1-.072.113C316.839,312.954,317.009,312.926,317.008,312.884Zm4.473-.084a7.889,7.889,0,0,0-1.012-.181c-.394-.036-.473-.018-.492.114s.05.148.267.119a4.179,4.179,0,0,1,.8.02C321.9,312.97,322.052,312.946,321.481,312.8Zm8.408-.072a2.866,2.866,0,0,0-.61-.191,1.709,1.709,0,0,1-.465-.145,5.461,5.461,0,0,0-1.85-.315,10.572,10.572,0,0,1-1.237-.112,21.36,21.36,0,0,0-3.647-.063c-.109.034.08.131.5.255.548.162.615.2.365.229-.583.057-.574.158.023.239a3.365,3.365,0,0,0,1.456,0,2.372,2.372,0,0,1,.877-.007c.751.1,1.644.148,3.354.194.762.021,1.416.053,1.454.071a.419.419,0,0,0,.159.033c.049,0-.119-.086-.375-.189ZM317.7,312.7c.174-.088.117-.126-.359-.238-.664-.156-2.51-.255-1.92-.1.192.049.349.119.349.155s.14.065.309.064.309.031.31.071.192.086.426.1l.552.042A.8.8,0,0,0,317.7,312.7Zm-231.025.288c.156-.1.116-.105-.266-.061-.74.085-.859.113-.771.183A1.706,1.706,0,0,0,86.674,312.989Zm228.091-1.029c.055-.046-.029-.131-.186-.19-.427-.16-.533-.134-.333.081S314.6,312.092,314.765,311.959Zm11.484-.344a4.546,4.546,0,0,0-1.544-.062c-.127.035-.2.068-.153.072s.285.025.538.044a3.8,3.8,0,0,1,.511.061,1.2,1.2,0,0,0,.648-.116Zm-259.817.75c0-.017-.1-.03-.232-.03s-.231.034-.23.076.1.055.232.03a.533.533,0,0,0,.23-.076Zm262.131-.906a2.087,2.087,0,0,0-.5-.253l-.506-.209.849-.008.848-.008-.5-.108c-.277-.059-.5-.161-.5-.227,0-.167-.425-.148-.643.029-.247.2-.534.135-1.4-.324-.5-.265-.676-.407-.55-.447.281-.088.137-.119-1.2-.255a6.617,6.617,0,0,0-2.817.024c-.185.129-.226.128-.773-.014a3.873,3.873,0,0,1-.757-.263c-.183-.116-.243-.109-1.3.158-.267.068-.688-.181-.529-.312.05-.041-.138-.079-.42-.084-.723-.013-1.451-.041-2.5-.093a7.127,7.127,0,0,0-1.157.01,3.254,3.254,0,0,1-2.562-.09c-.194-.146-.375-.18-.952-.178a1.806,1.806,0,0,1-.911-.132c-.153-.1-.445-.136-1.253-.142-.58,0-1.159-.028-1.286-.052a9.236,9.236,0,0,0-1.742-.235c-1.119.2-1.106.2-.79.3a7.842,7.842,0,0,0,1.036.2,3.164,3.164,0,0,1,.851.193,3.887,3.887,0,0,0,1.478.343,1.334,1.334,0,0,0,.557-.113.668.668,0,0,1,.408-.07c.173.033.184.067.049.15-.184.113.082.144.918.106.307-.014.346.009.255.155-.1.163-.076.169.488.111a7.456,7.456,0,0,1,.749-.049c.085.006,1.09.023,2.233.037a8.579,8.579,0,0,1,2.242.136,4.2,4.2,0,0,0,1.164.163c.9.047.97.041.7-.06-.3-.111-.295-.113.023-.165.505-.082,1.055.016,1.084.195.021.128-.041.149-.336.113-.405-.05-.632.114-.351.252.123.061.121.139-.008.284-.238.266-.247.258.324.3,1.4.1,1.814.113,1.814.052a2.322,2.322,0,0,0-.736-.208c-.721-.138-.726-.141-.283-.184s.439-.049.178-.178a.738.738,0,0,0-.415-.091c-.078.024-.142.012-.142-.028a4.227,4.227,0,0,1,1.794.148,1.222,1.222,0,0,0,.465.127,5.224,5.224,0,0,1,.833.106c.383.07.939.144,1.237.165s.749.061,1,.09c.419.047.443.039.25-.076s-.181-.128,0-.127c.305,0,.522.1.523.229,0,.077.21.129.619.156a4.726,4.726,0,0,1,1.624.319c0,.032-.069.059-.154.059s-.154.037-.153.082.314.073.772.061a3.462,3.462,0,0,0,.772-.064Zm-6.459-1.152c-.712-.225-.628-.333.114-.146a1.631,1.631,0,0,1,.62.231C322.839,310.5,322.664,310.485,322.1,310.307Zm3.563,1.028a1.164,1.164,0,0,0-.386,0c-.106.022-.019.039.193.038s.3-.019.192-.04Zm-5.981-.082c.053-.044-.009-.057-.146-.03-.267.052-.315.108-.093.107A.439.439,0,0,0,319.685,311.253Zm12.883-.117c0-.04-.071-.094-.156-.12-.289-.088-.159-.267.231-.318.31-.04.353-.072.21-.157a1.008,1.008,0,0,0-.438-.106,1.175,1.175,0,0,1-.437-.087c-.222-.11-1.119.059-1.117.211,0,.055.228.189.505.3s.574.232.659.271c.2.095.541.1.54.006Zm-268.7.828c.048-.039-.028-.128-.169-.2-.3-.146-.617-.043-.467.15a.592.592,0,0,0,.635.048Zm6.256-.066a.921.921,0,0,1,.4-.117c.117,0,.212-.036.212-.078s-.1-.077-.22-.077a.4.4,0,0,1-.324-.231c-.131-.289-.589-.308-.936-.039-.313.243-.175.351.448.352.409,0,.447.014.223.08-.281.083-.365.227-.132.226A.8.8,0,0,0,70.128,311.9Zm2.172-.081c.182.056.177-.2-.007-.346-.12-.093-.2-.09-.532.021a2.6,2.6,0,0,1-.629.131c-.4,0-.259.15.19.2.234.025.494.054.579.065a.257.257,0,0,0,.205-.047.2.2,0,0,1,.193-.023Zm1.837,0c0-.035-.1-.111-.213-.169-.181-.089-.258-.084-.508.034a2.747,2.747,0,0,1-.519.183c-.123.024.105.037.508.029A2.192,2.192,0,0,0,74.138,311.821Zm3.171-.057a2.265,2.265,0,0,1,.6-.1c.607-.036.675-.194.1-.234-.254-.018-.426,0-.383.031s.01.063-.075.064a.466.466,0,0,1-.251-.077.452.452,0,0,0-.356-.007,9.333,9.333,0,0,1-1.146.129,3.231,3.231,0,0,0-.886.122,7.964,7.964,0,0,0,2.4.071Zm4.745-.476c.5-.1-.126-.275-.886-.248-.239.008-.255.03-.1.125.122.073.133.116.03.116a.485.485,0,0,1-.26-.076c-.132-.105-.85-.1-.848.012,0,.048.137.068.309.045s.27-.01.223.029a4.446,4.446,0,0,0,1.528,0Zm-7.846-.061c.058-.048-.163-.074-.57-.068-.562.008-.6.019-.278.071C73.91,311.316,74.1,311.316,74.208,311.227Zm257.361-1.46c.058-.2-.315-.409-.732-.408-.34,0-.376.138-.11.426C330.954,310.03,331.5,310.019,331.569,309.767Zm-21.561-.213a4.761,4.761,0,0,0-.605-.075l-.541-.045.541.1c.479.091.787.1.6.017Zm25.877-.222a.583.583,0,0,0-.455,0c-.123.063-.046.085.286.082C336.115,309.414,336.136,309.4,335.885,309.332Zm-11.057-.107c0-.043-.075-.077-.164-.077s-.12.035-.067.078a.344.344,0,0,0,.164.077A.072.072,0,0,0,324.828,309.225Zm2.364-.088c.5-.009-.686-.222-1.24-.222a7.25,7.25,0,0,1-1.055-.077c-.529-.1-.838-.01-.452.13a3.619,3.619,0,0,0,.912.107,6.159,6.159,0,0,1,.936.069,1.731,1.731,0,0,0,.514.031A3.238,3.238,0,0,1,327.192,309.137Zm-7.153-.36a4.8,4.8,0,0,0-1.7.006,3.008,3.008,0,0,0,.965.073C319.987,308.852,320.2,308.829,320.039,308.777Zm-233.526.584c.133-.026.2-.079.156-.116a1.154,1.154,0,0,0-.894.05c-.092.123.279.157.737.067Zm216.12-.773a.344.344,0,0,0-.37,0c-.143.073-.1.093.186.092s.329-.022.184-.093Zm13.313-.184a.344.344,0,0,0-.164-.077.073.073,0,0,0-.067.078c0,.043.075.077.164.077S316,308.446,315.945,308.4Zm-17.822-.095a1.818,1.818,0,0,0-.464-.073c-.206,0-.206.009,0,.075a1.816,1.816,0,0,0,.464.073C298.331,308.383,298.33,308.375,298.123,308.309Zm-3.4-.642c0-.117-.27-.183-1.161-.286a4.61,4.61,0,0,0-1.942-.045c-.105.087-.164.083-.329-.021a6.226,6.226,0,0,0-1.976-.175c0,.075.425.269.586.269a2.531,2.531,0,0,1,.592.192c.388.165.474.176.619.076.092-.064.2-.1.234-.083a10.641,10.641,0,0,0,1.066.072c.55.021,1.243.068,1.54.1C294.555,307.84,294.722,307.818,294.72,307.667Zm-208.561.221a1.162,1.162,0,0,0-.386,0c-.106.022-.019.039.193.038s.3-.019.192-.04Zm197.594-1.154c-.3-.1-.508-.1-.386,0a.719.719,0,0,0,.357.075c.225,0,.229-.012.028-.076Zm38.968-.286c.035,0,.064-.052.063-.116s-.146-.115-.378-.115a1.065,1.065,0,0,1-.489-.089c-.076-.061-.028-.074.145-.042.142.027.257.012.256-.032,0-.147-.51-.032-.557.126-.053.177.376.37.687.309a2.369,2.369,0,0,1,.274-.041Zm-41.826-.051a4.251,4.251,0,0,0-1.216-.122c-.239.008-.255.03-.1.125a2.415,2.415,0,0,0,.985.106C281.357,306.5,281.358,306.5,280.895,306.4Zm12.882-.117a.2.2,0,0,0-.142-.154c-.237-.072-.616.042-.526.159C293.22,306.427,293.778,306.423,293.776,306.279Zm-.923-.272c.326,0,.4-.115.135-.2-.091-.028-.131-.1-.09-.151.084-.112-.428-.2-.767-.138-.119.023-.215.087-.215.142,0,.124.388.2.7.142.127-.025.231-.015.232.021a1.26,1.26,0,0,1-.535.153,1.167,1.167,0,0,1-.849-.058.758.758,0,0,0-.638-.056c-.411.112-.209.217.464.241a1.245,1.245,0,0,1,.6.121c.06.077.153.063.373-.057a1.5,1.5,0,0,1,.6-.161Zm-35.3.222a1.163,1.163,0,0,0-.386,0c-.106.022-.019.039.193.038s.3-.019.192-.04Zm32.531-.309a.778.778,0,0,0-.017-.244c-.063-.275-.782-.493-.778-.236,0,.072-.144.116-.384.117-.555,0-.464.093.281.283C289.965,306.037,290.065,306.046,290.086,305.92Zm32.074-.087c-.128-.04-.2-.1-.156-.134s-.132-.068-.387-.077c-.44-.016-.446-.012-.115.07.192.048.349.116.349.152s.122.065.271.063c.23,0,.236-.013.038-.075Zm-47.136,0a.522.522,0,0,0-.28-.075c-.11,0-.091.031.049.076.3.1.351.095.231,0Zm13.77-.022a2.507,2.507,0,0,0-.54,0c-.148.02-.027.035.27.034S288.943,305.832,288.794,305.813Zm-10.071-.222a.344.344,0,0,0-.164-.077.072.072,0,0,0-.067.078c0,.043.075.077.164.077S278.777,305.633,278.724,305.591Zm-4.861-.063a3.51,3.51,0,0,1,.461-.132l.385-.091-.412,0a4.745,4.745,0,0,1-.656-.05c-.159-.03-.244,0-.243.076s-.085.106-.23.078a1.482,1.482,0,0,0-.5.017c-.211.048-.153.072.271.11.614.055.816.054.926,0Zm2.961.017a.587.587,0,0,0-.3.007c-.051.026.04.044.2.04C276.91,305.587,276.947,305.569,276.823,305.544Zm21.879-.137a.131.131,0,0,0-.139-.116.321.321,0,0,0-.225.117c-.053.071,0,.116.139.116S298.7,305.472,298.7,305.408Zm-27.3-.224c.139-.085.132-.111-.033-.114l-.945-.027c-.5-.016-.733.007-.732.072,0,.15.113.173.845.176A2.288,2.288,0,0,0,271.4,305.183Zm12.083-.137c.111-.091-.863-.1-1.143-.007-.166.053-.05.074.417.073A2.527,2.527,0,0,0,283.484,305.046Zm-14.49-.126a5.594,5.594,0,0,0-.849-.057,3.323,3.323,0,0,1-.651-.043,1.384,1.384,0,0,0-.463-.016c-.109.022-.045.043.141.046a.993.993,0,0,1,.434.082,3.7,3.7,0,0,0,.974.067C269.36,304.991,269.406,304.982,268.994,304.92Zm-2.982-.19a.588.588,0,0,0-.3.007c-.051.026.04.044.2.04C266.1,304.773,266.135,304.755,266.012,304.73Zm11.234-.062c-.307-.1-.972-.1-.849,0a1.556,1.556,0,0,0,.589.074C277.36,304.743,277.422,304.724,277.246,304.668Zm-14.434-.021a20.287,20.287,0,0,0-2.961-.278c-.179.091.084.135,1.371.231C262.923,304.727,262.987,304.729,262.811,304.647Zm-5.242-.3a.644.644,0,0,0-.328-.076c-.127,0-.188.035-.135.078a.644.644,0,0,0,.328.076C257.561,304.425,257.622,304.39,257.569,304.348Zm-1.935-.495c0-.114-.613-.229-1.118-.21a.7.7,0,0,1-.357-.062,4.46,4.46,0,0,0-1.82.045c-.115.154.248.2.454.056.149-.1.212-.1.536.011a3.846,3.846,0,0,0,.989.13,6.118,6.118,0,0,1,.931.069c.17.036.327.068.348.071s.038-.046.037-.109Zm-3.733-.366c.048-.129-.012-.139-.538-.088-.665.065-.825.1-.824.194a1.747,1.747,0,0,0,.654.051C251.7,303.635,251.859,303.6,251.9,303.487Zm-1.8.06a.588.588,0,0,0-.3.007c-.051.026.04.044.2.04C250.191,303.589,250.228,303.571,250.1,303.547Zm-131.449-.175a1.161,1.161,0,0,0-.386,0c-.106.022-.019.039.193.038s.3-.019.192-.04Zm2.468-.073c.021-.043-.119-.088-.31-.1-.366-.025-.482.1-.152.167C120.919,303.415,121.077,303.393,121.122,303.3Zm115.213-.3a.577.577,0,0,0-.24-.076c-.138-.026-.2-.013-.145.031C236.042,303.025,236.337,303.059,236.336,303Zm.617-.049c0-.043-.075-.077-.164-.077s-.12.035-.067.078a.345.345,0,0,0,.164.077A.072.072,0,0,0,236.952,302.948Zm1.168-.013a1.784,1.784,0,0,0-.764.01c-.107.054.087.076.607.069l.764-.01Zm-115.961.008c0-.04-.122-.075-.271-.078s.007-.052.346-.109.55-.107.469-.112c-.315-.016.229-.187.625-.2a.9.9,0,0,0,.476-.1c.1-.158-.438-.185-.993-.051-.517.125-.555.125-.752-.008a5.13,5.13,0,0,0-2.349,0c-.373.189.017.362.618.273.4-.059.482-.047.553.086a.27.27,0,0,0,.294.114c.116-.023.211-.008.212.034s-.086.077-.192.079.016.049.271.1c.475.1.7.09.694-.038Zm-.931-.379c0-.043.107-.078.24-.078s.2.034.146.077a.44.44,0,0,1-.24.078C121.295,302.641,121.229,302.606,121.228,302.564Zm2.975.387c.363-.015.342-.138-.032-.186a4.6,4.6,0,0,0-1.627.181,5.881,5.881,0,0,0,1.659,0Zm21.058-.481c.137-.07.1-.112-.164-.18a1.326,1.326,0,0,0-.772.019c-.235.059-.386.141-.336.182A2.577,2.577,0,0,0,145.261,302.47Zm5.43-.392c0-.043-.07-.077-.155-.077s-.154.035-.153.078.07.077.155.077S150.692,302.121,150.691,302.078Zm-4.6-.115a.588.588,0,0,0-.3.007c-.051.026.04.044.2.04.18,0,.216-.023.093-.047Zm6.6-.051c0-.045-.07-.06-.155-.034s-.153.064-.153.082.07.034.155.034S152.7,301.957,152.7,301.912Zm1.911-.124c.057-.076.022-.111-.091-.092-.23.039-.355.215-.152.215a.345.345,0,0,0,.243-.123Zm-19.735-.126c.278-.057.27-.063-.078-.064a4.334,4.334,0,0,0-.847.113l-.461.113.539-.05C134.321,301.748,134.7,301.7,134.871,301.662Zm19.135-.122a.406.406,0,0,0-.276.054c-.15.077-.132.086.087.043C153.968,301.608,154.053,301.564,154.006,301.541Zm10.727-.128a.768.768,0,0,0,.389-.091c.081-.066-.166-.075-.951-.032-.583.032-1.089.073-1.125.091s.022.085.128.148c.171.1.256.1.735,0a5.349,5.349,0,0,1,.823-.117Zm-10.192.068c0-.019-.07-.034-.155-.034s-.154.037-.153.082.07.06.155.034.153-.064.153-.082Zm15.959-.129a1.318,1.318,0,0,1,.565-.074.585.585,0,0,0,.353-.031c.134-.11-.428-.154-1.128-.087a6.9,6.9,0,0,1-.978.028.715.715,0,0,0-.541.128c-.184.153-.16.159.619.154A4.24,4.24,0,0,0,170.5,301.351Zm-14.333-.1c.286-.11.282-.115-.114-.116-.5,0-.9.071-.9.163C155.157,301.408,155.84,301.376,156.167,301.25Zm12.025-.082c.119-.1-.085-.1-.386,0-.2.065-.194.076.03.076a.711.711,0,0,0,.355-.077ZM82.514,326.617c0-.1.152-.2.382-.25a.948.948,0,0,1,.385-.049,1.607,1.607,0,0,1-.382.25C82.542,326.764,82.516,326.767,82.514,326.617Zm20.829-.019c0-.045.068-.082.153-.082s.154.015.155.034-.069.056-.153.082S103.344,326.643,103.343,326.6Zm-2.926-.143c-.121-.111-.124-.161-.01-.161.187,0,.394.215.267.28-.046.023-.162-.03-.258-.118Zm33.76-.017a.481.481,0,0,1-.326-.167c-.088-.163.189-.557.295-.419a.423.423,0,0,0,.292.1c.12,0,.219.049.22.11s.153.134.337.163l.336.052-.372.105a2.644,2.644,0,0,1-.45.1C134.466,326.473,134.317,326.456,134.177,326.438Zm172.174-.569a9.486,9.486,0,0,0-1.145-.059c-1.144-.019-1.99-.169-1.992-.354,0-.08.2-.123.669-.141.425-.017.635,0,.575.052a5.724,5.724,0,0,0,1.989.312c.26,0,.856.021,1.323.049.69.04.777.06.464.106a9.749,9.749,0,0,1-1.882.035Zm-12.271-.041a.588.588,0,0,1,.3-.007c.123.024.087.043-.093.047C294.12,325.872,294.028,325.854,294.079,325.828Zm-205.512.564a1.068,1.068,0,0,1,.551-.106c.393-.008.455.011.317.1C89.215,326.515,88.481,326.524,88.567,326.392Zm-.657-.115c0-.108.563-.239,1.274-.3s1.11-.008.956.118a.49.49,0,0,1-.358-.013,1.885,1.885,0,0,0-.986.082C88.011,326.352,87.911,326.364,87.91,326.277Zm48.445-.177c0-.045.068-.082.153-.082s.154.015.155.034-.069.056-.153.082S136.356,326.145,136.355,326.1Zm-41.349.057c0-.043-.107-.077-.236-.077a.657.657,0,0,1-.416-.195c-.147-.159-.136-.218.06-.318.22-.112.251-.108.344.036a.306.306,0,0,0,.338.113c.156-.031.218-.007.186.071s.126.189.339.277l.388.16-.5,0C95.232,326.233,95.006,326.2,95.006,326.157Zm23.553-.131a.234.234,0,0,1-.105-.193c0-.107.115-.142.471-.143.4,0,.458-.024.373-.156-.113-.175.062-.2.385-.059.182.08.187.076.033-.026s-.137-.154.033-.271c.214-.147.221-.146.455,0,.327.211.309.259-.135.362-.211.049-.384.132-.383.184,0,.1-.642.347-.89.347A.636.636,0,0,1,118.559,326.026Zm-32.589,0a.878.878,0,0,0-.472-.036c-.308.04-.369.019-.371-.13,0-.128.132-.2.482-.271.54-.1.776-.071.654.091-.138.185.426.269,1.14.171s.867-.069.721.124c-.075.1-.309.128-1.073.131A4.239,4.239,0,0,1,85.97,326.027Zm-2.232-.2c0-.04.179-.158.4-.262.349-.165.393-.17.347-.043C84.428,325.678,83.74,325.96,83.738,325.831Zm209.672-.805a.723.723,0,0,0-.33-.031.256.256,0,0,1-.21-.043c-.054-.043-.007-.079.1-.08.149,0,.142-.021-.026-.073-.315-.1-.1-.183.3-.12.183.028.294.071.247.1s.028.085.168.135C293.963,325.017,293.729,325.124,293.41,325.026Zm40.577-.185a2.554,2.554,0,0,1,1.183-.264c.493,0,.447.124-.067.182-.233.026-.58.071-.77.1S333.987,324.878,333.987,324.841Zm-195.105.313c-.057-.045-.066-.1-.021-.124.11-.056.412.041.413.132S139.009,325.255,138.882,325.154Zm160.656-.513c-.457-.054-.3-.175.229-.178.276,0,.883-.024,1.349-.049l.848-.047-.376.155a5.489,5.489,0,0,1-2.05.119Zm-160.111.367c0-.045.068-.082.153-.082s.154.015.155.034-.069.056-.153.082S139.427,325.052,139.426,325.007Zm184.216-.65c0-.062.206-.151.46-.2a1.862,1.862,0,0,1,.462-.053,2.37,2.37,0,0,1-.46.2c-.359.13-.461.142-.462.053Zm-12.228-.017c-.327-.094-.351-.251-.059-.374a3.163,3.163,0,0,1,1.147-.178c-.062.239.06.322.471.321.6,0,.937.191.45.259A8.148,8.148,0,0,1,311.414,324.341Zm-235.443.634a.406.406,0,0,1,.276-.054c.048.024-.037.067-.189.1C75.838,325.06,75.82,325.051,75.971,324.974Zm241.111-.8c-.053-.042.051-.077.23-.078s.284.034.232.077a.423.423,0,0,1-.23.078A.432.432,0,0,1,317.082,324.173Zm-242.88.77a.588.588,0,0,1,.3-.007c.123.024.087.043-.093.047C74.242,324.987,74.15,324.969,74.2,324.943Zm36.368-.23c-.171-.084-.311-.183-.312-.219s.137-.129.306-.206.306-.188.305-.245c0-.12.139-.131.446-.035.126.04.182.135.133.23s-.02.182.056.205c.156.048-.276.422-.488.423A1.475,1.475,0,0,1,110.569,324.713Zm-34.773-.1a.562.562,0,0,1,.265-.267c.1-.033.044-.074-.141-.1-.753-.122-.767-.132-.277-.21.319-.051.509-.136.54-.242a.228.228,0,0,1,.238-.145c.227.022.253-.184.032-.251-.191-.058-.208-.27-.022-.271a.276.276,0,0,1,.213.142c.06.112.183.134.575.1.466-.036.488-.028.329.124-.094.089-.161.19-.149.223.072.208-.059.335-.391.378a1.771,1.771,0,0,0-.576.173c-.169.105-.158.116.072.072.4-.076.33.041-.159.278-.545.265-.676.264-.549,0Zm80.518-.135c-.127-.1.055-.247.24-.191s.19.267,0,.267a.447.447,0,0,1-.242-.077Zm-37.57.023c0-.057.1-.1.223-.1a.443.443,0,0,1,.305.1c.05.064-.034.1-.223.1C118.882,324.608,118.745,324.562,118.744,324.505Zm187.329-.609c-.472-.093-.39-.335.124-.366a.838.838,0,0,1,.584.137C307.124,323.941,306.811,324.042,306.073,323.9Zm-225.975.64c-.359-.129-.285-.261.147-.263.212,0,.386.031.387.071s.152.083.336.1a.693.693,0,0,1,.4.12C81.45,324.681,80.448,324.662,80.1,324.536Zm1.486-.234a.874.874,0,0,1,.522-.082c.326.061.276.087-.317.159C81.356,324.432,81.343,324.427,81.584,324.3Zm-16.592.046c-.255-.126-.069-.255.371-.256.274,0,.433.031.378.076A1.265,1.265,0,0,1,64.992,324.348Zm74.885-.275c0-.043.107-.078.24-.078s.2.034.146.077a.44.44,0,0,1-.239.078c-.08,0-.146-.034-.146-.077Zm145.028-.488c0-.043.259-.078.578-.078.43,0,.52.019.348.075C285.527,323.682,284.906,323.684,284.9,323.586Zm-136.389.343a.9.9,0,0,1,.244-.117c.029,0,.014.052-.034.116a.344.344,0,0,1-.244.117C148.391,324.045,148.405,324,148.515,323.928Zm5.168-.056c-.248-.052-.2-.067.269-.073.318,0,.579.027.58.07C154.533,323.962,154.113,323.963,153.683,323.872Zm136.157-.458c-.187-.06-.163-.075.124-.077.2,0,.314.032.262.075-.113.093-.1.093-.386,0Zm-177.891.564c0-.019.069-.056.153-.082s.154-.011.155.034-.068.082-.153.082-.154-.015-.155-.034Zm47.211-.194c0-.1.433-.172.533-.092.045.036-.027.087-.16.113-.323.063-.371.061-.372-.021Zm173.684-.566a1.736,1.736,0,0,1,.463,0c.15.019.065.037-.189.039s-.378-.013-.273-.035Zm-260.856.773c0-.043-.24-.077-.533-.076a2.215,2.215,0,0,1-1.442-.5,5.274,5.274,0,0,0-2.1-.3c-.569.112-.2-.065.435-.208a3.292,3.292,0,0,0,.807-.258,4.339,4.339,0,0,1,1.583-.249l.54-.032-.565.1c-.777.132-.85.19-.461.369a2.584,2.584,0,0,1,.586.393c.228.217.3.234.842.2.442-.031.573-.017.517.058s.186.132.708.2c.92.115,1.132.339.245.258-.354-.032-.54-.019-.54.037s-.138.086-.307.087S71.988,324.035,71.987,323.992Zm-2.278-1.076c.111,0,.1-.028-.038-.07-.251-.078-.631-.024-.63.09,0,.043.111.056.244.03A2.871,2.871,0,0,1,69.71,322.916Zm41.928.9c0-.081-.067-.145-.2-.2-.078-.03.041-.055.264-.055.52,0,.615.077.238.2C111.772,323.818,111.638,323.843,111.638,323.821Zm178.37-.669c-.2-.056-.3-.123-.215-.149a.721.721,0,0,1,.432.1c.323.177.289.184-.216.046Zm-207.378.608c-.127-.013-.49-.044-.805-.069l-.573-.045.319-.162a1.652,1.652,0,0,1,1.018-.116,2.815,2.815,0,0,0,.9-.039c.149-.063.29-.043.553.078l.353.163-.341.046c-.188.025-.3.077-.256.114A2.981,2.981,0,0,1,82.631,323.759Zm5.013-.133a8.29,8.29,0,0,1,.924-.148c.267.009-1.061.3-1.385.3C87.013,323.779,87.22,323.711,87.643,323.627Zm18.438.031c0-.036-.192-.109-.426-.163s-.342-.114-.238-.133a1.5,1.5,0,0,1,.575.1c.4.145.509.255.245.256C106.152,323.723,106.082,323.694,106.082,323.658Zm58.782-.235c0-.061.1-.152.217-.2.179-.075.2-.063.137.069C165.119,323.483,164.866,323.579,164.864,323.423Zm-84.815.263a.588.588,0,0,1,.3-.007c.123.024.087.043-.093.047C80.089,323.73,80,323.712,80.049,323.687Zm70.544-.267c-.055-.044.007-.057.145-.031.268.051.318.106.1.106A.445.445,0,0,1,150.593,323.42Zm137.85-.609a12.205,12.205,0,0,0-1.26-.047c-.6,0-.831-.02-.74-.076a3.084,3.084,0,0,1,1.027-.029c.492.029,1.085.055,1.318.058s.425.04.425.082C289.216,322.885,289.011,322.888,288.443,322.81Zm-207.576.6a.416.416,0,0,1,.224-.065c.08,0,.146.029.146.064s-.1.065-.224.065S80.824,323.444,80.868,323.408Zm-2.8-.14a1.543,1.543,0,0,1,.882-.458c.064,0,.117.067.118.153,0,.1.1.154.32.154.479,0,.225.127-.35.177-.278.024-.634.07-.792.1C78,323.446,77.978,323.428,78.071,323.268Zm71.568-.194a1.135,1.135,0,0,1,.414-.117c.139,0,.138.028-.006.116a.944.944,0,0,1-.414.117C149.441,323.191,149.442,323.174,149.639,323.074Zm9.862.036a.588.588,0,0,1,.3-.007c.123.024.087.043-.093.047C159.542,323.154,159.45,323.136,159.5,323.11Zm115.63-.393a1.738,1.738,0,0,1,.463,0c.15.019.065.037-.189.039S275.027,322.739,275.132,322.717Zm-213.284.419a.36.36,0,0,1-.022-.307.16.16,0,0,0-.1-.225c-.094-.02-.016-.028.173-.018.427.022.658.124.284.125-.23,0-.257.045-.169.271.106.273,0,.369-.164.154Zm213.589-.652a1.737,1.737,0,0,1,.463,0c.15.019.065.037-.189.039S275.333,322.506,275.437,322.484Zm-2.351-.145c-.3-.146-.157-.246.384-.279.315-.019.391.014.434.19s-.011.213-.256.214A1.5,1.5,0,0,1,273.086,322.339Zm-3.97.019a3.421,3.421,0,0,0-.615-.111c-.378-.044-.24-.055.535-.043a8.083,8.083,0,0,1,1.145.067c.055.027,0,.05-.118.051a5.149,5.149,0,0,0-.53.045A1.029,1.029,0,0,1,269.116,322.358ZM55.928,323c0-.154.366-.343.657-.336.25.006.271.017.08.043a.554.554,0,0,0-.355.186C56.226,323.024,55.93,323.108,55.928,323Zm30.629-.133c-.05-.04.045-.11.211-.156.323-.088.576.006.4.15A.679.679,0,0,1,86.558,322.865Zm178.964-.754c-.608-.133-.612-.136-.234-.2.212-.037.42-.07.462-.073a1.386,1.386,0,0,0,.231-.053,1.442,1.442,0,0,1,.424-.026c.521.04.263-.1-.272-.152-.3-.027-.541-.082-.542-.123,0-.1.254-.094.642.008a7.614,7.614,0,0,0,1.11.122c.91.044,1.038.073.627.142-.16.027-.443.085-.628.13a2.978,2.978,0,0,1-.81.036c-.356-.034-.472-.018-.471.068,0,.063.11.114.242.113s.2.034.146.077C266.327,322.278,266.268,322.273,265.521,322.111Zm6.4.05c-.18-.058-.136-.075.2-.077.25,0,.393.03.339.075C272.348,322.255,272.223,322.255,271.925,322.16Zm-2.87-.385a7.487,7.487,0,0,1,2.014-.189l.925-.036-.782.066a8.6,8.6,0,0,0-1.092.15,2.151,2.151,0,0,1-1.066.009Zm-9.086-.139c-.573-.147-.59-.161-.282-.231a1.692,1.692,0,0,1,.608-.015,2,2,0,0,0,.472.044c.106-.009.193.017.194.058a.444.444,0,0,0,.1.2c.13.167-.314.146-1.088-.052Zm12.143-.141a.588.588,0,0,1,.3-.007c.123.024.087.043-.093.047-.163,0-.254-.014-.2-.04Zm-16.556-.362c0-.043.107-.078.239-.078s.2.034.146.077a.44.44,0,0,1-.24.078C255.623,321.21,255.557,321.175,255.556,321.133Zm-190.339.389a1.061,1.061,0,0,1,.854-.446c.167,0,.155.031-.052.147-.148.083-.23.181-.184.218s-.113.127-.355.2l-.44.132Zm7.2.147c0-.041.1-.075.23-.076s.232.013.232.03a.532.532,0,0,1-.23.076C72.524,321.723,72.42,321.71,72.419,321.669Zm-5.056-.155c.336-.258.709-.273.618-.025-.055.149-.167.2-.459.2-.366,0-.375-.008-.159-.173Zm3.047-.016c0-.08.484-.286.676-.287.107,0,.2.052.2.115s-.085.116-.192.117a2.825,2.825,0,0,0-.437.048C70.521,321.518,70.411,321.521,70.411,321.5Zm2.93-.1c0-.019.069-.056.153-.082s.154-.011.155.034-.068.082-.153.082S73.342,321.421,73.341,321.4Zm-4.322-.1c0-.045.068-.082.153-.082s.154.015.155.034-.069.056-.153.082S69.02,321.346,69.02,321.3Zm-2.564-.106c-.047-.06-.009-.182.084-.271.137-.131.125-.161-.067-.16-.13,0-.237-.034-.238-.077,0-.089.094-.094.573-.031s.6.311.272.5C66.762,321.332,66.573,321.344,66.456,321.195Zm3.827-.176c-.169-.095-.145-.113.153-.115a6.54,6.54,0,0,0,.7-.05c.249-.034.347-.014.348.071,0,.065.089.136.195.157s-.119.041-.5.044A2.408,2.408,0,0,1,70.283,321.018Zm1.742.036a.612.612,0,0,1,.317-.078c.122,0,.223.034.223.077s-.142.078-.317.078S71.973,321.1,72.025,321.054ZM59,320.988c-.008-.081.028-.127.08-.1s.058.092.014.148S59.007,321.078,59,320.988Zm2.607-.277c-.408-.227-.446-.471-.072-.472.121,0,.22-.036.219-.078s.138-.078.308-.078c.3,0,.4.123.328.385a1.072,1.072,0,0,0-.022.29c.014.234-.288.215-.76-.047Zm4.364.162a.588.588,0,0,1,.3-.007c.123.024.087.043-.093.047C66.011,320.917,65.919,320.9,65.97,320.873Zm-2.727-.131a.345.345,0,0,1,.243-.123c.2,0,.078.175-.152.215C63.221,320.853,63.186,320.818,63.243,320.742Zm-10.835-.406c-.067-.054-.046-.07.053-.04a.243.243,0,0,0,.242-.047c.055-.07.081-.071.09-.005C52.812,320.377,52.54,320.442,52.407,320.336Zm15.75-.042a.458.458,0,0,1,.249-.078c.085,0,.112.034.06.077a.458.458,0,0,1-.249.078C68.133,320.371,68.106,320.337,68.158,320.294Zm269.836-1.536a21.146,21.146,0,0,0-2.164-.33c-.17-.014-.344-.035-.386-.046s-.355-.023-.695-.027c-1.725-.021-2.095-.039-2.022-.1.044-.036-.066-.144-.245-.239l-.325-.173.907.038c1.96.082,3.5.2,4.165.306a13.99,13.99,0,0,0,1.845.111c1.306,0,1.483.092.54.294-.338.072-.614.175-.614.228,0,.125-.082.12-1.005-.065Zm-276.865.873a.31.31,0,0,1,.2-.231c.272-.115.558.027.457.226S61.131,319.825,61.129,319.631Zm-10.339-.084c0-.066.291-.277.649-.468s1-.541,1.417-.779c.715-.4,1.15-.537,1.152-.357,0,.043-.064.078-.143.078a.356.356,0,0,0-.249.175,1.709,1.709,0,0,1-.384.376c-.327.236-.151.38.459.378.369,0,.372,0,.1.154-.342.192-.665.2-.638.022.012-.085-.107-.144-.322-.159-.258-.018-.366.026-.439.175s-.2.2-.445.2a2.487,2.487,0,0,0-.753.163c-.332.133-.4.14-.406.041Zm9.315-.263a.622.622,0,0,1,.308-.506c.28-.157.28-.161-.007-.166-.162,0-.433-.02-.6-.039s-.552-.039-.849-.045a1.922,1.922,0,0,1-.73-.131c-.236-.149-.269-.5-.04-.427.3.092.916-.04.914-.2,0-.243.589-.391,1.572-.395a3.278,3.278,0,0,0,.891-.065,1.12,1.12,0,0,1,.518-.033c.435.024.537,0,.632-.153a.426.426,0,0,0,.085-.256c-.061-.159.448-.262.845-.171.444.1.5.2.114.21-.161,0-.192.022-.077.045.311.062.226.178-.189.259-.507.1-.487.273.044.37,1.132.208,1.081.192.709.226a1.475,1.475,0,0,0-.518.143,1.206,1.206,0,0,1-.515.113c-.412,0-1.016.208-1.014.347,0,.216-.481.2-.911-.036-.358-.194-.462-.215-.608-.125-.274.168,1.107.486,2.189.5.154,0,.235.041.181.086a.575.575,0,0,1-.356.046c-.142-.019-.478-.057-.748-.083-.439-.043-.481-.031-.405.111.058.108-.006.177-.2.218-.158.033-.286.129-.285.214,0,.107-.085.147-.28.132a1.234,1.234,0,0,0-.483.062C60.124,319.612,60.088,319.561,60.105,319.285Zm-.159-1.253c.136-.069.216-.142.176-.161-.108-.053-.713.128-.712.214C59.412,318.2,59.669,318.172,59.946,318.031Zm-2.059,1.49c0-.082.295-.117.384-.046.054.043-.01.079-.143.079S57.887,319.54,57.887,319.521Zm273.7-1.35a.073.073,0,0,1,.067-.078.344.344,0,0,1,.164.077c.053.042.023.077-.067.078S331.583,318.214,331.583,318.171Zm-.576-.045a.588.588,0,0,1,.3-.007c.123.024.087.043-.093.047-.163,0-.254-.014-.2-.04Zm9.457-.384c.075-.062,0-.076-.223-.045a.8.8,0,0,1-.419-.025c-.1-.078.7-.1,1.076-.027s.29.184-.148.186C340.49,317.832,340.392,317.8,340.464,317.742ZM64.3,318.57c.061-.082,0-.1-.237-.081-.47.047-.4,0,.291-.214.806-.245,1.526-.213,1.425.062-.075.2-.191.231-.45.1-.124-.061-.259-.04-.493.079-.372.189-.66.216-.536.051ZM50,318.249c0-.1.136-.22.3-.274s.306-.162.305-.24.124-.2.279-.271c.337-.155,1.1-.175,1.106-.03s-.7.442-1,.443c-.127,0-.229.066-.228.147s-.171.2-.382.274C50.017,318.421,50,318.419,50,318.249Zm4.744.111c-.194-.1.086-.263.441-.265.332,0,.351.015.18.154A.6.6,0,0,1,54.745,318.36Zm276.452-1c-.386-.144-.2-.241.255-.133.192.046.259.086.148.089s-.159.041-.105.083c.129.1.059.094-.3-.039Zm14.714-.712a6.586,6.586,0,0,0-1.1-.022c-.419.033-.581.014-.652-.076a.839.839,0,0,0-.523-.12c-.8,0-1.563-.141-1.521-.286.03-.1.161-.128.563-.109a3.389,3.389,0,0,1,.678.084,12.345,12.345,0,0,0,1.391.144,8.954,8.954,0,0,1,2.551.406A3.737,3.737,0,0,1,345.911,316.647Zm-291.753.946a2.219,2.219,0,0,1,.794-.5c.238,0,.136.446-.112.495C54.538,317.645,54.159,317.649,54.158,317.593Zm2.776-.122c-.213-.033-.3-.064-.194-.069.234-.01.258-.241.025-.24a2.167,2.167,0,0,0-.437.075c-.288.078-.94.03-.941-.07a1.162,1.162,0,0,1,.473-.159c.561-.119.969-.407.975-.688,0-.149.095-.209.351-.228.191-.014.347.008.348.05s.176.042.462-.013a.931.931,0,0,1,.713.036c.3.147.17.294-.254.3-.165,0-.3.036-.3.078s-.095.078-.212.078c-.474,0-.606.214-.359.581.257.383.2.407-.651.273ZM344.026,316a4.466,4.466,0,0,0-.656-.068c-.742-.044-.855-.1-.387-.189a1.853,1.853,0,0,1,.833.044c.586.145.592.148.42.2a.362.362,0,0,1-.21.011Zm-282.7.66a.445.445,0,0,1,.569-.3c.147.073-.3.553-.519.554C61.282,316.915,61.263,316.817,61.327,316.663Zm1.316-.093c-.137-.082-.1-.115.172-.151.468-.063.7.065.311.171A.551.551,0,0,1,62.643,316.57Zm-3.766-.858a1.166,1.166,0,0,1,.386,0c.106.021.02.039-.192.04s-.3-.017-.193-.038Zm-1.7-.339a.406.406,0,0,1,.276-.054c.048.024-.037.067-.189.1C57.04,315.458,57.022,315.45,57.173,315.373Zm.37-.448a.544.544,0,0,1,.386-.109c.277.052.259.15-.037.208C57.465,315.107,57.356,315.077,57.543,314.925Zm283.97-1.246a1.165,1.165,0,0,1,.386,0c.106.021.02.039-.192.04s-.3-.017-.193-.038Zm-284.622.775c-.309-.094-.081-.184.241-.1.145.04.2.093.121.118A.753.753,0,0,1,56.89,314.454Zm.153-.307c0-.041.216-.132.481-.2.391-.1.505-.108.608-.026s.227.083.646.005c.629-.116,1.09-.126.962-.02a1.308,1.308,0,0,1-.529.079,1.534,1.534,0,0,0-.625.118A3.217,3.217,0,0,1,57.043,314.148Zm4.539-.944c-.3-.052-.293-.057.049-.113.406-.066.522-.04.367.083A.659.659,0,0,1,61.582,313.2Zm-2.819-.5a.588.588,0,0,1,.3-.007c.123.024.087.043-.093.047C58.8,312.745,58.712,312.727,58.763,312.7Zm285.4-1.252c-.138-.082-.121-.118.076-.156.258-.051.68.069.681.193,0,.108-.56.081-.757-.037Zm-4.493-.3a.828.828,0,0,0-.34-.115,1.046,1.046,0,0,1-.366-.108,1.9,1.9,0,0,0-.415-.144c-.133-.024-.147-.062-.041-.12.383-.209,2.434.3,2.15.534a1.474,1.474,0,0,1-.988-.048Zm2.781-.448a3.32,3.32,0,0,0-.8-.02,2.235,2.235,0,0,1-.7-.031c-.232-.067-.193-.08.241-.084.412,0,.5-.03.421-.128s-.023-.115.293-.077c.6.073,1.367.324,1.132.37a2.033,2.033,0,0,1-.578-.03Zm-5.141-.1a1.165,1.165,0,0,1,.386,0c.106.021.02.039-.192.04s-.3-.017-.193-.038Zm-272.892.854a6.306,6.306,0,0,1,1.416-.352c.109,0,.061.042-.108.092a3.713,3.713,0,0,0-.51.193C65.02,311.484,64.414,311.535,64.413,311.455Zm-2.145-.117c-.2-.04-.332-.092-.285-.116a1.436,1.436,0,0,1,.525.074C62.994,311.426,62.846,311.452,62.268,311.338Zm277.385-1.158a.073.073,0,0,1,.067-.078.344.344,0,0,1,.164.077c.053.042.023.077-.067.078s-.164-.034-.164-.077Zm-273.244.727c.22-.135.31-.149.311-.05,0,.038-.113.091-.252.119C66.257,311.017,66.247,311.006,66.409,310.907Zm265.837-1.993c-.577-.346-.852-.69-.593-.741s.876.078.878.191c0,.066.232.1.688.1.924,0,1.228.147.707.35-.211.082-.493.2-.627.267-.361.175-.532.148-1.053-.165Zm-254.06.666c-.132-.105.111-.463.294-.433.262.043.259.492,0,.493a.6.6,0,0,1-.291-.06Zm241.693-1.267a.073.073,0,0,1,.067-.078.344.344,0,0,1,.164.077c.053.042.023.077-.067.078S319.879,308.356,319.879,308.313Zm-4.933-.427c-.272-.158-.423-.3-.334-.314.239-.041.9.239.825.351-.034.053.047.1.182.1s.245.034.245.076C315.866,308.261,315.418,308.16,314.946,307.887Zm1.611.128c-.155-.085-.212-.154-.127-.154a1.882,1.882,0,0,1,.512.153c.254.109.29.154.127.154A1.3,1.3,0,0,1,316.557,308.015Zm-236.364.795c-.053-.042-.063-.077-.023-.077a2.749,2.749,0,0,0,.317-.048c.16-.031.244-.005.245.077,0,.136-.386.171-.539.049Zm-2.855-.068c0-.043.138-.078.308-.078s.309.034.31.076-.138.078-.308.078S77.338,308.785,77.338,308.742Zm243.114-.9a1.69,1.69,0,0,0-.521-.054.243.243,0,0,1-.306-.207.34.34,0,0,0-.216-.257c-.27-.044-.182-.168.12-.169.455,0,.525-.1.143-.206l-.353-.1.339,0a6.629,6.629,0,0,1,1.823.529c.045.036-.22.021-.588-.033-.567-.083-.669-.082-.668.01,0,.06.094.108.207.108s.206.033.207.075.17.1.377.122c.24.029.346.085.294.155-.1.127-.473.139-.859.029Zm6.351-.035c-.007-.011-.037-.082-.067-.159-.044-.112-.012-.122.164-.05.12.049.181.121.135.158-.079.065-.205.092-.232.05Zm-252.485.631c-.162-.13.03-.173.5-.113.4.051.406.061.124.119C74.517,308.533,74.437,308.532,74.319,308.438Zm5.02-.046c0-.136.09-.156.224-.049.049.039.019.094-.066.121S79.34,308.458,79.339,308.392Zm237.064-.914a2.956,2.956,0,0,0-.862-.272c-.5-.053-1.467-.388-1.286-.444a5.868,5.868,0,0,1,.943.024c.786.06,1.4.278,1.422.5,0,.046.184.124.4.173s.353.124.3.166c-.164.135-.467.086-.92-.148Zm-236.526.792c-.2-.043-.231-.067-.078-.07a1.713,1.713,0,0,1,.464.069c.283.09.04.091-.386,0Zm233.819-.786c0-.043.155-.077.346-.077.281,0,.3.015.117.076C313.861,307.58,313.7,307.58,313.7,307.484Zm-4.338-.02a11,11,0,0,0-1.232-.1,4.4,4.4,0,0,1-1.144-.131,4.65,4.65,0,0,1,1.2-.1c.937-.018,1.22,0,1.289.09C309.571,307.355,309.49,307.529,309.358,307.463Zm7.571-.525c0-.039.138-.052.308-.031a.9.9,0,0,1,.309.069.832.832,0,0,1-.308.031C317.069,307.008,316.929,306.977,316.929,306.939Zm-7.108-.064c-.28-.086-.16-.138.463-.2.384-.04.494-.028.444.048A1.19,1.19,0,0,1,309.821,306.875Zm7.438-.483c-.187-.125-.342-.3-.343-.385s-.1-.157-.234-.157-.232-.034-.232-.077.173-.078.385-.079c.272,0,.385-.043.384-.144,0-.078.13-.2.292-.278.281-.129.31-.127.643.037.412.2.591.753.278.853-.153.049-.156.065-.009.066.106,0,.193.035.194.078s-.138.078-.308.078-.308.053-.307.117C318.006,306.693,317.624,306.636,317.259,306.392Zm-230.184.492a.588.588,0,0,1,.3-.007c.123.024.087.043-.093.047-.163,0-.254-.014-.2-.04Zm226.379-.948a1.712,1.712,0,0,0-.564-.109.207.207,0,0,1-.2-.081c-.116-.148.2-.149.771,0a3.69,3.69,0,0,0,.732.114c.239,0,.256.02.1.116C314.059,306.117,314.021,306.115,313.454,305.936Zm-9.2-.547c0-.178.054-.193.692-.2a3.431,3.431,0,0,1,.695.033c0,.1-.72.353-1.027.354C304.338,305.582,304.258,305.539,304.256,305.389Zm-211.947.627a.588.588,0,0,1,.3-.007c.123.024.087.043-.093.047C92.35,306.06,92.258,306.042,92.309,306.016Zm1.885-.156c.339-.07.754-.166.923-.213l.615-.173a16.375,16.375,0,0,0,2.227-.769,1.461,1.461,0,0,1,.468-.28c.48-.223,1.528-.439,1.53-.316a7.606,7.606,0,0,1-1.935.929,1.161,1.161,0,0,0-.478.156,1.281,1.281,0,0,1-.547.156c-.5,0-.9.155-.8.306.077.118-.03.146-.723.186-.447.026-1.056.069-1.352.1l-.539.048Zm224.786-.8c-.168-.134.021-.163.234-.036.123.073.135.117.033.118A.5.5,0,0,1,318.98,305.064Zm-2.543-.3c0-.043.068-.078.153-.078s.155.034.155.077-.068.078-.153.078S316.438,304.811,316.437,304.768Zm-24.555-.234c-.147-.046-.061-.068.279-.069a1.772,1.772,0,0,1,.565.055c.1.082-.589.094-.844.015Zm22.082-.105c0-.064.1-.116.225-.117s.193.045.139.116a.322.322,0,0,1-.225.117A.13.13,0,0,1,313.964,304.429Zm-8.893-.129c-.2-.149-.218-.218-.083-.287.24-.122.877.185.747.359S305.369,304.524,305.071,304.3Zm-17.379.05a1.736,1.736,0,0,1,.463,0c.15.019.065.037-.189.039S287.587,304.372,287.692,304.35Zm18.863-.166c0-.034.138-.08.307-.1s.308-.014.309.02-.138.08-.307.1S306.555,304.218,306.554,304.185ZM293.36,304c-.053-.042-.027-.077.058-.078a.465.465,0,0,1,.251.076c.053.042.027.077-.058.078A.465.465,0,0,1,293.36,304Zm-181.681-.2a.127.127,0,0,1,.136-.116.33.33,0,0,1,.228.115c.055.07,0,.116-.136.116S111.68,303.858,111.679,303.794Zm178.973-.544a.419.419,0,0,1,.146-.174.254.254,0,0,1,.323-.027c.1.049.133.127.077.173C291.082,303.318,290.65,303.34,290.652,303.25Zm22.225-.241-.375-.142.372-.061.432-.069c.033,0,.081.087.108.2C313.471,303.191,313.384,303.2,312.878,303.009Zm-197.266.656a2.529,2.529,0,0,0-.782-.075c-.4,0-.686-.033-.686-.085s.17-.07.482-.04c.266.026.873.047,1.351.047h.868l-.518.115c-.615.136-.593.135-.715.038Zm144.066-.531a.588.588,0,0,1,.3-.007c.123.024.087.043-.093.047C259.718,303.178,259.627,303.16,259.677,303.134Zm-1.74-.106c-.3-.035-.78-.083-1.072-.106-.761-.061-.782-.115-.045-.118a2.246,2.246,0,0,1,.73.075,1.4,1.4,0,0,0,.55.075c.25,0,.454.033.455.076s-.016.074-.038.07S258.234,303.063,257.937,303.028Zm-145.877.417-.618-.053.8-.014a3.161,3.161,0,0,1,.9.063c.105.084-.137.085-1.08,0ZM254,302.659c-.116-.092.34-.094.771,0,.261.055.232.067-.183.073A1.534,1.534,0,0,1,254,302.659Zm-2.849-.229c-1.091-.1-1.095-.141-.01-.1.884.033.971.024.732-.072-.365-.147-.343-.208.074-.208.354,0,.969.147.63.15a.369.369,0,0,0-.278.157c-.1.168-.134.17-1.147.074Zm-1.9-.193a1.166,1.166,0,0,1,.386,0c.106.021.02.039-.192.04s-.3-.017-.193-.038Zm17.668-.132a.588.588,0,0,1,.3-.007c.123.024.087.043-.093.047C266.956,302.148,266.865,302.13,266.916,302.1Zm-19.909-.018c-.192-.018-.31-.065-.261-.106a.265.265,0,0,1,.219-.034,5.193,5.193,0,0,0,.755.05c.344.006.589.039.546.075A3.644,3.644,0,0,1,247.006,302.086Zm3.553-.081a.588.588,0,0,1,.3-.007c.123.024.087.043-.093.047C250.6,302.049,250.508,302.031,250.559,302Zm-134.117.3c0-.067.081-.109.182-.092.287.047.336.213.064.214C116.554,302.425,116.443,302.37,116.442,302.3ZM244,301.94c-.535-.026-.847-.173-.371-.174.694,0,1.643.1,1.462.16a1.158,1.158,0,0,1-.358.054c-.085-.006-.415-.024-.733-.04Zm1.521-.012c-.043-.035.126-.049.376-.031a1.82,1.82,0,0,1,.456.062A1.974,1.974,0,0,1,245.519,301.928Zm-3.388-.131c-.191-.095-.107-.167.165-.141.149.014.375.03.5.036.162.007.139.031-.076.078C242.328,301.855,242.257,301.859,242.132,301.8Zm-39.251-.018a.587.587,0,0,1,.3-.007c.123.024.087.043-.093.047-.163,0-.254-.014-.2-.04Zm21.363-.231a1.165,1.165,0,0,1,.386,0c.106.021.02.039-.192.04s-.3-.017-.193-.038Zm-78.65.006c0-.043.155-.077.346-.077.281,0,.3.015.117.076C145.758,301.65,145.595,301.651,145.593,301.554Zm-3.088-.14c0-.045.068-.082.153-.082s.154.015.155.034-.069.056-.153.082S142.506,301.459,142.506,301.414Zm-25.922-.1a.567.567,0,0,1,.238-.077c.137-.027.2-.014.146.03C116.878,301.338,116.584,301.374,116.583,301.312Zm25.765-.134a1.8,1.8,0,0,1,.462-.077c.206,0,.206.008,0,.075a1.8,1.8,0,0,1-.462.077C142.143,301.254,142.143,301.246,142.348,301.178Zm48.67-.169c-.154-.123.016-.17.4-.111.267.041.295.068.129.121C191.265,301.111,191.142,301.108,191.019,301.009Zm-49.887-.1-.365-.1.49-.056a2.012,2.012,0,0,1,.582-.01c.051.025-.023.046-.165.047-.3,0-.343.125-.062.181.106.021.124.038.039.037A2.906,2.906,0,0,1,141.132,300.912Zm100.8-.307c-.234-.045-.169-.061.272-.066a2.863,2.863,0,0,1,.579.022C242.785,300.63,242.216,300.659,241.933,300.6Zm-51.107.021q-.7-.138.076-.114c.9.029.912.031.657.114C191.288,300.715,191.278,300.715,190.827,300.626Zm8.406-.035a.406.406,0,0,1,.276-.054c.048.024-.037.067-.189.1-.219.043-.237.034-.087-.043Zm-9.371-.036c0-.043.068-.078.153-.078s.155.034.155.077-.068.078-.153.078S189.862,300.6,189.861,300.555Zm-35.444.072a.588.588,0,0,1,.3-.007c.123.024.087.043-.093.047-.163,0-.254-.014-.2-.04Zm41.307-.126c0-.019.069-.056.153-.082s.154-.011.155.034-.068.082-.153.082-.155-.015-.155-.034Zm5.168-.06a6.33,6.33,0,0,1,1.774-.02,5,5,0,0,1-1.118.073c-.806.007-.99-.008-.656-.052Zm-28.778-.213a10.908,10.908,0,0,1,2.546-.009c.062.049-.421.078-1.34.081C172.335,300.3,171.956,300.28,172.114,300.228Zm28.157-.089c-.252-.049-.189-.071.337-.118a3.208,3.208,0,0,1,.926.022c.245.07.229.081-.132.084a5.31,5.31,0,0,0-.617.038,1.811,1.811,0,0,1-.514-.026Zm5.519.007a.588.588,0,0,1,.3-.007c.123.024.087.043-.093.047C205.83,300.189,205.739,300.171,205.79,300.145Zm1.91-.018c-.04-.032.095-.058.3-.059s.371.025.372.057-.134.058-.3.059A.886.886,0,0,1,207.7,300.127Zm-8.318-.043a1.166,1.166,0,0,1,.386,0c.106.021.02.039-.192.04s-.3-.017-.193-.038Z" transform="translate(-50.001 -300)"/>
</svg>