<svg id="Layer_1" data-name="Layer 1" xmlns="http://www.w3.org/2000/svg" viewBox="0 0 100 100"><defs><style>.cls-1{fill:#ddba83;}.cls-2{fill:#a08047;}</style></defs><title>bosses</title><rect class="cls-1" x="11.35" y="11.53" width="77.31" height="77.31" rx="10.55"/><path class="cls-2" d="M90.61,37.8a3.42,3.42,0,0,0,1-2.4V24.17a16,16,0,0,0-16-16h-25a3.38,3.38,0,0,0-2.39,1,2.18,2.18,0,0,0-.25.28l-.19.23H45.65a3.38,3.38,0,0,0-2.82-1.5H35.05a3.34,3.34,0,0,0-2.39,1l-.52.51h-.42a3.37,3.37,0,0,0-2.81-1.5H24a16,16,0,0,0-16,16V45.75a3.38,3.38,0,0,0,1.51,2.81v5.68l-.79,1A3.41,3.41,0,0,0,8,57.33V75.71a16,16,0,0,0,16,16H30.2a3.41,3.41,0,0,0,2.4-1,3.35,3.35,0,0,0,.42-.51H45.49l.08.1a3.38,3.38,0,0,0,2.74,1.4H62.46a3.4,3.4,0,0,0,2.4-1,3.35,3.35,0,0,0,.42-.51h7.34a3.4,3.4,0,0,0,2.81,1.5h.15a16,16,0,0,0,16-16V60.78a3.38,3.38,0,0,0-1-2.39l-.51-.52V38.31Zm-3.9-.89-4.27,4.26,1.5,5.89-.81,8.64,3.58,3.58V74.7A12.13,12.13,0,0,1,74.84,86.83h0l-2.42-6.09-2.19,2.19L65.6,79.69,63,86.84H47.23l-4-5.54-5.08,3L30.2,86v.81H25.05A12.14,12.14,0,0,1,12.91,74.7V55.4L18,48.9l-5.07-2.43V25.18A12.13,12.13,0,0,1,25.05,13h4.41l1.09,3,3-3H43.78L46.23,17,49.37,13h25.2A12.14,12.14,0,0,1,86.71,25.18Z"/><path class="cls-2" d="M65.17,40.63l-1.59-2.74,1.5.45-.61-2.74L65.23,34a12.92,12.92,0,0,0-3.9-4.49A17.58,17.58,0,0,0,52,25.73l-1.46-.17H48l-.49.07c-1.3.21-2.62.34-3.9.65a14.68,14.68,0,0,0-2.1.67l-.87,2.29-2.46,1.94-1,5,1,1.76h-1l-1.33-2.47.53-3.88-.68-.63a13.07,13.07,0,0,0-3.64,8.31,35.33,35.33,0,0,0,.11,5.14,10,10,0,0,0,1.64,5c.45.66.83,1.36,1.22,2.06a5.67,5.67,0,0,1,.82,2.41c.07,1,.25,2,.36,3a.77.77,0,0,0,.5.72c2,1,3.92,1.95,5.87,2.95a1.52,1.52,0,0,1,.62.61,16.76,16.76,0,0,1,1,1.89.87.87,0,0,0,.91.64,3.78,3.78,0,0,1,1,.29,2.05,2.05,0,0,0,.53.13c1.24,0,2.49,0,3.72-.06s2.66-.25,4-.41a.52.52,0,0,0,.36-.32c.26-.72.47-1.46.74-2.17a1.16,1.16,0,0,1,.51-.58Q58.79,59,61.7,57.6a1.08,1.08,0,0,0,.66-1,15,15,0,0,1,.73-4.1,6.38,6.38,0,0,0,.12-.63,2.92,2.92,0,0,1,.25-.72c.45-.83,1-1.63,1.38-2.48a17.78,17.78,0,0,0,1.66-6.33ZM46,50.88a3.68,3.68,0,0,1-3.52,2.56,5.4,5.4,0,0,1-1.5-.11,3.17,3.17,0,0,1-2.52-2.77c-.14-.67-.17-1.37-.25-2.07a16.33,16.33,0,0,1,.25-2.09,3.25,3.25,0,0,1,.63-1c.05-.09.15-.15.21-.24,1.08-.52,3-.23,4.61,1.18s2.4,1.1,2.52,1.69A7.65,7.65,0,0,1,46,50.88ZM52,58.06a1.08,1.08,0,0,1-.93.65,2,2,0,0,1-1.76-.39,2.11,2.11,0,0,1-2.7-.14.85.85,0,0,1-.21-.48,2.4,2.4,0,0,1,.53-1.77c.78-1.1,1.6-2.18,2.41-3.26.51.75,1.08,1.58,1.66,2.4a1.55,1.55,0,0,0,.35.41A2.28,2.28,0,0,1,52,58.06Zm8.05-6.46a3.47,3.47,0,0,1-3.78,1.83c-2.34-.33-3.34-1.86-3.58-3.91a7.26,7.26,0,0,1,0-1.68c.26-.4,1.13-.38,2.45-1.52,1.63-1.41,3.54-1.7,4.62-1.18v0a.86.86,0,0,0,.07.1.41.41,0,0,0,.16.16,1.52,1.52,0,0,1,.74,1.25c.05.51.08,1,.11,1.51A7.29,7.29,0,0,1,60.06,51.6Z"/><path class="cls-2" d="M56.58,62.22c-.4.84-.77,1.7-1.25,2.5a4.12,4.12,0,0,1-2.9,2,25.54,25.54,0,0,1-5.73.12A4.23,4.23,0,0,1,43.38,65c-.72-1-1.26-2.16-1.9-3.28l-1.83.46c.48,1.59.94,3.13,1.42,4.67a.9.9,0,0,0,.28.34c.69.58,1.41,1.14,2.07,1.75A4.32,4.32,0,0,1,44.26,70a4.83,4.83,0,0,0,2,2.07c3,1.54,6,.31,7.9-2.08a13.11,13.11,0,0,1,1.25-1.33,12.41,12.41,0,0,1,1.31-1.09,2.48,2.48,0,0,0,1-1.48c.35-1.3.76-2.58,1.15-3.91l-1.4-.36C56.94,61.63,56.81,61.72,56.58,62.22Z"/></svg>