<svg id="Layer_1" data-name="Layer 1" xmlns="http://www.w3.org/2000/svg" viewBox="0 0 100 100"><defs><style>.cls-1{fill:#ddba83;}.cls-2{fill:#a08047;}</style></defs><title>campaign</title><rect class="cls-1" x="11.43" y="11.46" width="77.31" height="77.31" rx="10.55"/><path class="cls-2" d="M90.63,52a2.26,2.26,0,0,0,.28-.25,3.35,3.35,0,0,0,1-2.39v-25a16,16,0,0,0-16-16H64.65a3.42,3.42,0,0,0-2.4,1l-.51.51H42.18l-.51-.51a3.42,3.42,0,0,0-2.4-1H24.34a16,16,0,0,0-16,16v.14A3.39,3.39,0,0,0,9.83,27.3v7.34a2.59,2.59,0,0,0-.51.42,3.34,3.34,0,0,0-1,2.39V51.6a3.37,3.37,0,0,0,1.41,2.75l.1.07V66.9a3,3,0,0,0-.52.42,3.41,3.41,0,0,0-1,2.4v6.16a16,16,0,0,0,16,16H42.72a3.43,3.43,0,0,0,2.09-.71l1-.79h5.68a3.38,3.38,0,0,0,2.82,1.5H75.89a16,16,0,0,0,16-16V71A3.37,3.37,0,0,0,90.4,68.2v-.43l.51-.51a3.35,3.35,0,0,0,1-2.39V57.09a3.39,3.39,0,0,0-1.51-2.82V52.18ZM87,74.87A12.13,12.13,0,0,1,74.88,87H53.59l-2.44-5.07L44.65,87H25.35A12.13,12.13,0,0,1,13.22,74.87V69.72H14l1.73-8,3-5.08-5.53-4V36.91l7.14-2.59L17.14,29.7l2.19-2.19-6.1-2.42h0A12.13,12.13,0,0,1,25.35,13.21H40.77l3.58,3.58L53,16l5.88,1.5,4.26-4.27H74.88A12.14,12.14,0,0,1,87,25.35v25.2l-3.92,3.14L87,56.14V66.37l-3,3,3,1.09Z"/><path class="cls-2" d="M67,33.84a10.06,10.06,0,0,0-1.55,2.7c-.35,1.36-2.13,1.8-2.13,1.8l.8,3-3.26-.89L58,37.56l-.41-3.72H37.8l-2.63,4.33-2.24-4.33H28.18v8.73l4.48,2.65-4.48,2.06V66.63H31.9l1.48-7.22L35,59c.07-.29.15-.6.25-.93l1.53.46.15,0,0,.08.24.07a19.56,19.56,0,0,0-.51,2.23l2.72,2.22.41,3.57H66.12l-.7-3.6,1.49-3.85,2.26,1.58-.72,3,1,2.88h3.4V33.84ZM38.19,56l-1.76-.92a10.3,10.3,0,0,1,1.93-2.66l1.38,1.42A8.75,8.75,0,0,0,38.19,56Zm6.15-3.45a5.54,5.54,0,0,0-2.29,0l-.19.06-.56-1.91.27-.08A6.14,6.14,0,0,1,43,50.45a8.74,8.74,0,0,1,1.7.17Zm5.43,1.91-.12,0c-.87-.36-1.76-.74-2.61-1l.69-1.87c.89.33,1.8.72,2.68,1.09l.12,0Zm5.82,2a20.74,20.74,0,0,1-3-.88l.68-1.87a18.18,18.18,0,0,0,2.71.79Zm1.19-12.24-1.1,1-2-2.23L51.5,45.15l-1-1.06,2.19-2.17-2.08-2.27,1.11-1,2,2.22,2.15-2.12,1,1.07L54.71,42Zm2,.58a13.2,13.2,0,0,1,1.51,1L59.07,47.4c-.69-.51-1.25-.81-1.25-.82Zm3,10.2a5.68,5.68,0,0,1-2.82,1.51l-.41-1.94a3.77,3.77,0,0,0,1.84-1l.18-.19L62,54.78Zm1.83-3.43-2-.21a1.93,1.93,0,0,0,0-.24A3.34,3.34,0,0,0,61,49.27l1.64-1.13a5.28,5.28,0,0,1,1,3A3.4,3.4,0,0,1,63.59,51.6Z"/></svg>