<svg width="44" height="44" viewBox="0 0 44 44" fill="none" xmlns="http://www.w3.org/2000/svg">
<path d="M11.1085 7H32.8915C35.1395 7 37 8.82406 37 11.075V32.8862C37 35.1371 35.1783 37 32.8915 37H11.1085C8.86047 37 7 35.1759 7 32.8862V11.075C7.03876 8.82406 8.86047 7 11.1085 7Z" fill="#DDBA83"/>
<path d="M37.6172 17.3301C37.8469 17.1005 38 16.756 38 16.4115V12.1244C38 8.75598 35.244 6 31.8756 6H22.3062C21.9617 6 21.6172 6.15311 21.3876 6.38278C21.3493 6.42105 21.311 6.45933 21.311 6.49761L21.2344 6.57416H20.4306C20.1627 6.22967 19.7799 6 19.3206 6H16.3349C15.9904 6 15.6459 6.15311 15.4163 6.38278L15.2249 6.57416H15.0718C14.8421 6.22967 14.4211 6 14 6H12.1244C8.75598 6 6 8.75598 6 12.1244V20.3923C6 20.8134 6.22967 21.2344 6.57416 21.4641V23.6459L6.26794 24.0287C6.11483 24.2584 6 24.5263 6 24.8325V31.8756C6 35.244 8.75598 38 12.1244 38H14.4976C14.8421 38 15.1866 37.8469 15.4163 37.6172C15.4928 37.5407 15.5311 37.5024 15.5694 37.4258H20.3541L20.3923 37.4641C20.622 37.8086 21.0431 38 21.4258 38H26.823C27.1675 38 27.512 37.8469 27.7416 37.6172C27.8182 37.5407 27.8565 37.5024 27.8947 37.4258H30.689C30.9187 37.7703 31.3397 38 31.7608 38H31.8373C35.2057 38 37.9617 35.244 37.9617 31.8756V26.134C37.9617 25.7895 37.8086 25.445 37.5789 25.2153L37.3876 25.0239V17.5215L37.6172 17.3301ZM36.1244 16.9856L34.4785 18.6316L35.0526 20.89L34.7464 24.2201L36.1244 25.5981V31.4928C36.1244 34.0191 34.0957 36.0861 31.5694 36.1244L30.6507 33.7895L29.8086 34.6316L28.0478 33.4067L27.0526 36.1244H21.0048L19.4737 34.0191L17.5215 35.1675L14.4593 35.8182V36.1244H12.5072C9.94258 36.1244 7.8756 34.0574 7.8756 31.4928V24.067L9.82775 21.5789L7.8756 20.6603V12.5072C7.8756 9.94258 9.94258 7.8756 12.5072 7.8756H14.1914L14.6124 9.02392L15.7608 7.8756H19.6651L20.622 9.36842L21.8086 7.8756H31.4545C34.0191 7.8756 36.0861 9.94258 36.0861 12.5072V16.9856H36.1244Z" fill="#A08047"/>
<path d="M30.9628 21.5782C30.8884 21.0973 30.7025 20.6966 30.405 20.376C29.5124 19.4141 28.2107 19.4141 27.3182 20.376C27.0579 20.6565 26.8347 20.8969 26.5744 21.1775C26.0537 20.6164 25.5702 20.0954 25.0496 19.5344C25.3471 19.2538 25.6446 18.9733 25.905 18.6527C26.5372 17.9313 26.5744 16.8092 26.0909 15.9676C25.6074 15.126 24.6777 14.7252 23.7851 14.9656C23.3017 15.0859 22.9298 15.3664 22.595 15.7672C22.5579 15.8073 22.4835 15.8874 22.4463 15.9275V12H21.5909V15.9275C21.4421 15.7672 21.3306 15.6069 21.1818 15.4866C20.5124 14.8454 19.7686 14.7252 18.9504 15.0859C17.5372 15.687 17.2025 17.6107 18.281 18.813C18.5041 19.0935 18.7645 19.334 19.0248 19.6145C18.5041 20.1756 18.0207 20.6966 17.5 21.2576C17.2397 20.9771 16.9793 20.6966 16.719 20.416C15.6405 19.2939 13.9669 19.5344 13.2603 20.9771C13.1488 21.2176 13.1116 21.4981 13 21.7786C13 21.9389 13 22.1393 13 22.2996C13 22.3397 13.0372 22.3798 13.0372 22.4198C13.1116 22.9008 13.2975 23.3015 13.595 23.6221C14.4876 24.584 15.7893 24.584 16.6818 23.6221C16.9421 23.3416 17.1653 23.1011 17.4256 22.8206C17.9463 23.3817 18.4298 23.9027 18.9504 24.4637C18.6529 24.7443 18.3554 25.0248 18.095 25.3454C17.4628 26.0668 17.4256 27.1489 17.9091 28.0305C18.3926 28.8721 19.3223 29.2729 20.2149 29.0324C20.6983 28.9122 21.0702 28.6317 21.405 28.2309C21.4793 28.1508 21.5537 28.0706 21.6281 27.9905V30.2748L20.7355 31.7176V33H22.0744H23.4132V31.7176L22.5207 30.2748V28.1107C22.6322 28.2309 22.7438 28.3511 22.8554 28.4714C23.5248 29.1126 24.3058 29.2729 25.124 28.8721C26.5 28.2309 26.8347 26.3473 25.7562 25.145C25.5331 24.8645 25.2727 24.624 25.0124 24.3435C25.5331 23.7824 26.0165 23.2614 26.5372 22.7405C26.7975 23.021 27.0579 23.3015 27.281 23.542C28.3595 24.6641 30.0331 24.4237 30.7397 22.9809C30.8512 22.7405 30.8884 22.4599 31 22.1794C31 22.0191 31 21.8187 31 21.6584C31 21.6584 30.9628 21.6183 30.9628 21.5782ZM15.9008 22.9008C15.4545 23.3015 14.7851 23.1813 14.4132 22.7405C14.0413 22.2595 14.0413 21.5782 14.4504 21.1374C14.8595 20.6966 15.4917 20.6565 15.938 21.0573C16.2355 21.3378 16.4959 21.6584 16.7562 21.979C16.4959 22.2595 16.2355 22.6202 15.9008 22.9008ZM23.7107 16.1679C24.1198 15.8073 24.7149 15.9275 25.0868 16.3282C25.4587 16.729 25.4959 17.4103 25.124 17.8111C24.8636 18.1317 24.5661 18.3721 24.2686 18.6927C23.7851 18.1718 23.3017 17.6508 22.781 17.0897C23.1157 16.7691 23.376 16.4485 23.7107 16.1679ZM22.0372 17.9714C22.5207 18.4924 23.0041 19.0134 23.5248 19.5744C23.0413 20.0954 22.5579 20.6164 22.0744 21.1374C21.5909 20.6164 21.1074 20.0954 20.5868 19.5344C21.0702 19.0134 21.5537 18.4924 22.0372 17.9714ZM18.9132 17.6908C18.6157 17.25 18.7273 16.6088 19.0992 16.2481C19.5083 15.8874 20.0661 15.8473 20.4752 16.208C20.7727 16.4885 20.9959 16.8092 21.2562 17.0897C20.7727 17.6107 20.2893 18.1317 19.7686 18.6927C19.5083 18.3721 19.1736 18.0515 18.9132 17.6908ZM18.3554 21.9389C18.8388 21.4179 19.3223 20.8969 19.8058 20.376C20.2893 20.8969 20.7727 21.4179 21.2562 21.9389C20.7727 22.4599 20.2893 22.9809 19.8058 23.5019C19.3223 23.021 18.8388 22.4599 18.3554 21.9389ZM20.4008 27.75C19.9917 28.1107 19.3967 27.9905 19.0248 27.5897C18.6529 27.1889 18.6157 26.5076 18.9504 26.1069C19.2107 25.7863 19.5083 25.5458 19.8058 25.2252C20.2893 25.7462 20.7727 26.2672 21.2934 26.8282C20.9959 27.1088 20.7355 27.4695 20.4008 27.75ZM22.0744 25.9466C21.5909 25.4256 21.1074 24.8645 20.624 24.3435C21.1074 23.8225 21.5909 23.3015 22.0744 22.7805C22.5579 23.3015 23.0413 23.8225 23.5248 24.3836C23.0413 24.9046 22.5579 25.4256 22.0744 25.9466ZM25.0868 26.0267C25.4587 26.4676 25.4587 27.1889 25.0496 27.5897C24.6405 28.0305 24.0455 28.0706 23.5992 27.6298C23.3017 27.3492 23.0785 27.0286 22.8182 26.7481C23.3017 26.2271 23.7851 25.7061 24.3058 25.1851C24.5661 25.4656 24.8264 25.7462 25.0868 26.0267ZM24.3058 23.542C23.8223 23.021 23.3388 22.5 22.8554 21.979C23.3388 21.458 23.8223 20.937 24.343 20.416C24.8264 20.937 25.3099 21.458 25.7934 21.979C25.2727 22.4599 24.7893 23.021 24.3058 23.542ZM29.6612 22.7805C29.2521 23.2615 28.5826 23.3015 28.1364 22.8607C27.8388 22.5802 27.6157 22.2595 27.3182 21.979C27.5785 21.6985 27.8388 21.3779 28.0992 21.0973C28.5455 20.6565 29.2149 20.6966 29.624 21.1374C30.0702 21.5782 30.0702 22.2996 29.6612 22.7805Z" fill="#A08047"/>
</svg>
