<svg xmlns="http://www.w3.org/2000/svg" width="18.621" height="18.621" viewBox="0 0 18.621 18.621">
    <path data-name="Path 3859" d="M96.037 90a6.037 6.037 0 1 0 6.037 6.037A6.044 6.044 0 0 0 96.037 90zm-.271 5.492h.542a2.008 2.008 0 0 1 .275 4v1.108h-1.091v-1.111a2.011 2.011 0 0 1-1.734-1.989h1.091a.918.918 0 0 0 .917.917h.542a.917.917 0 1 0 0-1.834h-.542a2.008 2.008 0 0 1-.275-4v-1.109h1.091v1.112a2.011 2.011 0 0 1 1.733 1.989h-1.09a.918.918 0 0 0-.917-.917h-.542a.917.917 0 1 0 0 1.834zm0 0" transform="translate(-86.727 -86.727)" style="fill:#fff"/>
    <path data-name="Path 3860" d="M15.893 2.727A9.311 9.311 0 0 0 2.726 15.894 9.311 9.311 0 0 0 15.893 2.727zM9.31 16.439a7.128 7.128 0 1 1 7.128-7.129 7.136 7.136 0 0 1-7.128 7.129zm0 0" transform="translate(.001)" style="fill:#fff"/>
</svg>
