<svg width="44" height="44" viewBox="0 0 44 44" fill="none" xmlns="http://www.w3.org/2000/svg">
<path d="M11.1085 7H32.8915C35.1395 7 37 8.82406 37 11.075V32.8862C37 35.1371 35.1783 37 32.8915 37H11.1085C8.86047 37 7 35.1759 7 32.8862V11.075C7.03876 8.82406 8.86047 7 11.1085 7Z" fill="#DDBA83"/>
<path d="M37.6172 17.3301C37.8469 17.1005 38 16.756 38 16.4115V12.1244C38 8.75598 35.244 6 31.8756 6H22.3062C21.9617 6 21.6172 6.15311 21.3876 6.38278C21.3493 6.42105 21.311 6.45933 21.311 6.49761L21.2344 6.57416H20.4306C20.1627 6.22967 19.7799 6 19.3206 6H16.3349C15.9904 6 15.6459 6.15311 15.4163 6.38278L15.2249 6.57416H15.0718C14.8421 6.22967 14.4211 6 14 6H12.1244C8.75598 6 6 8.75598 6 12.1244V20.3923C6 20.8134 6.22967 21.2344 6.57416 21.4641V23.6459L6.26794 24.0287C6.11483 24.2584 6 24.5263 6 24.8325V31.8756C6 35.244 8.75598 38 12.1244 38H14.4976C14.8421 38 15.1866 37.8469 15.4163 37.6172C15.4928 37.5407 15.5311 37.5024 15.5694 37.4258H20.3541L20.3923 37.4641C20.622 37.8086 21.0431 38 21.4258 38H26.823C27.1675 38 27.512 37.8469 27.7416 37.6172C27.8182 37.5407 27.8565 37.5024 27.8947 37.4258H30.689C30.9187 37.7703 31.3397 38 31.7608 38H31.8373C35.2057 38 37.9617 35.244 37.9617 31.8756V26.134C37.9617 25.7895 37.8086 25.445 37.5789 25.2153L37.3876 25.0239V17.5215L37.6172 17.3301ZM36.1244 16.9856L34.4785 18.6316L35.0526 20.89L34.7464 24.2201L36.1244 25.5981V31.4928C36.1244 34.0191 34.0957 36.0861 31.5694 36.1244L30.6507 33.7895L29.8086 34.6316L28.0478 33.4067L27.0526 36.1244H21.0048L19.4737 34.0191L17.5215 35.1675L14.4593 35.8182V36.1244H12.5072C9.94258 36.1244 7.8756 34.0574 7.8756 31.4928V24.067L9.82775 21.5789L7.8756 20.6603V12.5072C7.8756 9.94258 9.94258 7.8756 12.5072 7.8756H14.1914L14.6124 9.02392L15.7608 7.8756H19.6651L20.622 9.36842L21.8086 7.8756H31.4545C34.0191 7.8756 36.0861 9.94258 36.0861 12.5072V16.9856H36.1244Z" fill="#A08047"/>
<path d="M22.3388 12.4803C22.7269 12.5579 23.1537 12.5967 23.503 12.7519C25.482 13.4892 26.6073 14.8861 26.9177 16.9815C27.0729 18.1844 26.6849 19.2321 26.064 20.241C25.676 20.8231 25.2491 21.4051 24.8223 21.9872C25.87 21.9872 26.9565 21.9872 28.0818 21.9872C28.0818 22.7245 28.0818 23.4617 28.0818 24.2378C26.4132 24.2378 24.7447 24.2378 23.0761 24.2378C23.0761 26.6825 23.0761 29.1271 23.0761 31.5717C22.3388 31.5717 21.6016 31.5717 20.8643 31.5717C20.8643 29.1271 20.8643 26.7213 20.8643 24.2378C19.1957 24.2378 17.5272 24.2378 15.8198 24.2378C15.8198 23.5005 15.8198 22.7633 15.8198 21.9872C16.9063 21.9872 17.9928 21.9872 19.1181 21.9872C18.8465 21.6768 18.6137 21.3663 18.3809 21.0947C17.8376 20.3574 17.3331 19.6202 17.1003 18.7277C16.6347 16.9815 17.0615 15.4682 18.2644 14.11C19.0793 13.1787 20.1658 12.6743 21.4075 12.5191C21.4464 12.5191 21.4852 12.4803 21.524 12.4803C21.7956 12.4803 22.0672 12.4803 22.3388 12.4803ZM21.912 21.638C22.7657 20.8231 23.5806 20.0082 24.2014 18.9993C24.4731 18.5337 24.7059 18.068 24.7059 17.5248C24.7059 15.8174 23.1537 14.4981 21.4464 14.7697C19.7002 15.0801 18.6137 17.0203 19.4286 18.6113C20.0494 19.7754 20.9419 20.7455 21.912 21.638Z" fill="#A08047"/>
</svg>
