<svg width="44" height="44" viewBox="0 0 44 44" fill="none" xmlns="http://www.w3.org/2000/svg">
<path d="M11.1085 7H32.8915C35.1395 7 37 8.82406 37 11.075V32.8862C37 35.1371 35.1783 37 32.8915 37H11.1085C8.86047 37 7 35.1759 7 32.8862V11.075C7.03876 8.82406 8.86047 7 11.1085 7Z" fill="#DDBA83"/>
<path d="M37.6172 17.3301C37.8469 17.1005 38 16.756 38 16.4115V12.1244C38 8.75598 35.244 6 31.8756 6H22.3062C21.9617 6 21.6172 6.15311 21.3876 6.38278C21.3493 6.42105 21.311 6.45933 21.311 6.49761L21.2344 6.57416H20.4306C20.1627 6.22967 19.7799 6 19.3206 6H16.3349C15.9904 6 15.6459 6.15311 15.4163 6.38278L15.2249 6.57416H15.0718C14.8421 6.22967 14.4211 6 14 6H12.1244C8.75598 6 6 8.75598 6 12.1244V20.3923C6 20.8134 6.22967 21.2344 6.57416 21.4641V23.6459L6.26794 24.0287C6.11483 24.2584 6 24.5263 6 24.8325V31.8756C6 35.244 8.75598 38 12.1244 38H14.4976C14.8421 38 15.1866 37.8469 15.4163 37.6172C15.4928 37.5407 15.5311 37.5024 15.5694 37.4258H20.3541L20.3923 37.4641C20.622 37.8086 21.0431 38 21.4258 38H26.823C27.1675 38 27.512 37.8469 27.7416 37.6172C27.8182 37.5407 27.8565 37.5024 27.8947 37.4258H30.689C30.9187 37.7703 31.3397 38 31.7608 38H31.8373C35.2057 38 37.9617 35.244 37.9617 31.8756V26.134C37.9617 25.7895 37.8086 25.445 37.5789 25.2153L37.3876 25.0239V17.5215L37.6172 17.3301ZM36.1244 16.9856L34.4785 18.6316L35.0526 20.89L34.7464 24.2201L36.1244 25.5981V31.4928C36.1244 34.0191 34.0957 36.0861 31.5694 36.1244L30.6507 33.7895L29.8086 34.6316L28.0478 33.4067L27.0526 36.1244H21.0048L19.4737 34.0191L17.5215 35.1675L14.4593 35.8182V36.1244H12.5072C9.94258 36.1244 7.8756 34.0574 7.8756 31.4928V24.067L9.82775 21.5789L7.8756 20.6603V12.5072C7.8756 9.94258 9.94258 7.8756 12.5072 7.8756H14.1914L14.6124 9.02392L15.7608 7.8756H19.6651L20.622 9.36842L21.8086 7.8756H31.4545C34.0191 7.8756 36.0861 9.94258 36.0861 12.5072V16.9856H36.1244Z" fill="#A08047"/>
<path d="M12.3285 22.1815C12.367 22.143 12.367 22.143 12.4055 22.1045C12.8288 21.6811 13.2522 21.2578 13.714 20.7959C16.4082 18.1017 19.1409 15.4076 21.835 12.6749C21.8735 12.6364 21.8735 12.6364 21.912 12.598C21.912 12.598 21.912 12.6364 21.9505 12.6364C23.2976 13.9835 24.6831 15.3306 26.0302 16.7162C26.1072 16.7932 26.1457 16.8316 26.2227 16.8701C25.068 18.0248 23.9134 19.1794 22.7972 20.3341C21.9505 19.4873 21.1037 18.6406 20.257 17.7938C20.7958 17.2165 21.3732 16.6777 21.912 16.1004C22.2199 16.4083 22.4893 16.7162 22.7972 16.9856C22.4893 17.2165 22.2199 17.4859 21.912 17.7169C22.2199 18.0248 22.4893 18.2942 22.7972 18.5636C23.3361 18.0248 23.8749 17.4475 24.4137 16.9086C23.567 16.0619 22.7202 15.2151 21.912 14.3684C20.7574 15.4846 19.6412 16.6007 18.4866 17.7554C21.1037 20.3725 23.7209 22.9512 26.2996 25.5684C27.4543 24.4523 28.5704 23.2976 29.6866 22.22C28.8398 21.3732 27.9931 20.5265 27.1849 19.6798C26.646 20.2186 26.1072 20.7959 25.5299 21.3347C25.7993 21.6042 26.1072 21.8736 26.3766 22.143C26.6075 21.8351 26.877 21.5657 27.1079 21.2963C27.4158 21.6042 27.6852 21.9121 27.9931 22.22C27.4158 22.7588 26.877 23.3361 26.2996 23.8365C25.4529 22.9897 24.6062 22.143 23.7594 21.3347C24.9141 20.1801 26.0302 19.0255 27.1849 17.8708C27.2233 17.9093 27.2233 17.9478 27.2618 17.9478C28.6474 19.3334 30.033 20.7189 31.4185 22.1045C31.457 22.143 31.457 22.143 31.4955 22.1815C31.457 22.1815 31.457 22.22 31.4185 22.22C29.7636 23.875 28.1086 25.5299 26.4536 27.1464C25.1065 28.4935 23.7979 29.8021 22.4508 31.1492C22.2584 31.3416 22.0659 31.5341 21.8735 31.7265L21.835 31.688C20.4494 30.3409 19.0639 28.9554 17.6783 27.5698C17.6398 27.5313 17.6013 27.4928 17.5628 27.4928C18.7175 26.3382 19.8721 25.1835 20.9883 24.0289C21.835 24.8756 22.6818 25.7609 23.5285 26.6076C22.9512 27.1849 22.4123 27.7238 21.835 28.3011C21.5656 27.9932 21.2577 27.7238 20.9883 27.4159C21.2962 27.1849 21.5656 26.954 21.8735 26.7231C21.5656 26.4152 21.2577 26.1458 20.9498 25.8378C20.411 26.4152 19.8721 26.954 19.3333 27.4928C20.18 28.3396 20.9883 29.1478 21.7965 29.9946C22.9127 28.8784 24.0673 27.7238 25.222 26.6076C22.6818 23.9904 20.0646 21.4117 17.4859 18.833C16.3697 19.9492 15.2536 21.1038 14.1374 22.22C14.9841 23.0282 15.7924 23.875 16.6391 24.6832C17.178 24.1444 17.7553 23.6055 18.2941 23.0282C18.0247 22.7588 17.7553 22.5279 17.4859 22.2585C17.2549 22.5664 17.024 22.8358 16.7546 23.1052C16.4467 22.7973 16.1388 22.4894 15.8694 22.1815C16.4467 21.6426 17.024 21.0653 17.5628 20.565C18.4096 21.4117 19.2178 22.22 20.0646 23.0282C18.9484 24.1829 17.7938 25.299 16.6776 26.4537L16.6391 26.4152C15.446 25.222 14.2529 23.9904 13.0213 22.7973C12.7518 22.5664 12.5209 22.3739 12.3285 22.1815Z" fill="#A08047"/>
</svg>
