<svg id="Layer_1" data-name="Layer 1" xmlns="http://www.w3.org/2000/svg" viewBox="0 0 100 100"><defs><style>.cls-1{fill:#ddba83;}.cls-2{fill:#a08047;}.cls-3{fill:#c38c67;}</style></defs><title>guildwars</title><rect class="cls-1" x="11.43" y="11.53" width="77.31" height="77.31" rx="10.55"/><path class="cls-2" d="M90.63,51.82a2.26,2.26,0,0,0,.28-.25,3.36,3.36,0,0,0,1-2.4v-25a16,16,0,0,0-16-16H64.65a3.38,3.38,0,0,0-2.4,1l-.51.51H42.18l-.51-.51a3.38,3.38,0,0,0-2.4-1H24.34a16,16,0,0,0-16,16v.14a3.39,3.39,0,0,0,1.51,2.82v7.33a3.57,3.57,0,0,0-.51.42,3.38,3.38,0,0,0-1,2.4V51.43a3.38,3.38,0,0,0,1.41,2.75l.1.07V66.73a3.48,3.48,0,0,0-.52.41,3.42,3.42,0,0,0-1,2.4v6.17a16,16,0,0,0,16,16H42.72A3.37,3.37,0,0,0,44.81,91l1-.78h5.68a3.38,3.38,0,0,0,2.82,1.5H75.89a16,16,0,0,0,16-16V70.84A3.39,3.39,0,0,0,90.4,68V67.6l.51-.51a3.37,3.37,0,0,0,1-2.4V56.91A3.37,3.37,0,0,0,90.4,54.1V52ZM87,74.7A12.14,12.14,0,0,1,74.88,86.84H53.59l-2.44-5.08-6.5,5.08H25.35A12.14,12.14,0,0,1,13.22,74.7V69.54H14l1.73-8,3-5.08-5.53-4V36.74l7.14-2.6-3.22-4.61,2.19-2.19-6.1-2.43h0A12.13,12.13,0,0,1,25.35,13H40.77l3.58,3.57,8.65-.8,5.88,1.5L63.14,13H74.88A12.13,12.13,0,0,1,87,25.18v25.2l-3.92,3.13L87,56V66.2l-3,3,3,1.1Z"/><path class="cls-2" d="M80.25,38.14a13.75,13.75,0,0,0-9.59-3.22h-.19c-1.31.07-2.62.22-3.92.18a9.27,9.27,0,0,1-5.36-1.77c.16-.4.31-.79.48-1.18s.1-.64-.32-.84L60.6,31c-.69-.32-.81-.28-1.12.4q-6.3,13.88-12.61,27.75L43,67.71c-.25.54-.18.69.36,1l1,.5h.38a3.5,3.5,0,0,0,.37-.49c.43-.93.85-1.86,1.27-2.8Q50,57.83,53.67,49.75c.34-.76.72-1.5,1.07-2.25a21.11,21.11,0,0,0,2,1.11,13.28,13.28,0,0,0,6.5.58,13.75,13.75,0,0,1,5.94.61,16.21,16.21,0,0,1,3.68,1.83l.83.69c.47.4.55.4,1-.07a8.73,8.73,0,0,0,2-4.08c.29-1.37.4-2.78.62-4.17a7.74,7.74,0,0,1,2.88-5.15C80.57,38.57,80.59,38.41,80.25,38.14Z"/><path class="cls-2" d="M21.53,38.14a13.73,13.73,0,0,1,9.59-3.22h.19c1.3.07,2.61.22,3.92.18a9.22,9.22,0,0,0,5.35-1.77c-.16-.4-.31-.79-.47-1.18s-.1-.64.32-.84c.24-.12.5-.22.75-.34.68-.32.81-.28,1.11.4Q48.61,45.24,54.9,59.11l3.9,8.6c.25.54.19.69-.36,1l-1,.5h-.37a2.87,2.87,0,0,1-.37-.49c-.44-.93-.85-1.86-1.28-2.8L48.11,49.75c-.35-.76-.72-1.5-1.08-2.25a19.83,19.83,0,0,1-2,1.11,13.29,13.29,0,0,1-6.5.58,13.8,13.8,0,0,0-5.95.61,16.34,16.34,0,0,0-3.67,1.83c-.28.23-.56.45-.83.69-.48.4-.56.4-1-.07a8.83,8.83,0,0,1-2-4.08c-.28-1.37-.39-2.78-.61-4.17a7.75,7.75,0,0,0-2.89-5.15C21.21,38.57,21.19,38.41,21.53,38.14Z"/><path class="cls-3" d="M62.88,59.25l-1.13-.85A4.47,4.47,0,0,1,62.88,59.25Z"/></svg>