              <svg
                xmlns="http://www.w3.org/2000/svg"
                width="15.932"
                height="15.934"
                viewBox="0 0 15.932 15.934"
              >
                <g id="Home" transform="translate(-3.168 -3.166)">
                  <path
                    id="Vector"
                    d="M15.932,12.827a3.051,3.051,0,0,1-2.987,3.107H9.957V12.11a.925.925,0,0,0-.924-.924H6.9a.918.918,0,0,0-.916.924v3.824h-3A3.051,3.051,0,0,1,0,12.827V7.482A3.2,3.2,0,0,1,1.059,5.1L6.038.735a2.9,2.9,0,0,1,3.855,0L14.872,5.1a3.168,3.168,0,0,1,1.059,2.382Z"
                    transform="translate(3.168 3.166)"
                    fill="#fff"
                  />
                </g>
              </svg>
