<svg width="512" height="512" viewBox="0 0 512 512" fill="none" xmlns="http://www.w3.org/2000/svg">
<path d="M96 480H160C177.7 480 192 465.7 192 448C192 430.3 177.7 416 160 416H96C78.33 416 64 401.67 64 384V128C64 110.33 78.33 96 96 96H160C177.7 96 192 81.67 192 64C192 46.33 177.7 32 160 32H96C42.98 32 0 74.98 0 128V384C0 437 42.98 480 96 480ZM504.8 238.5L360.7 102.5C353.725 95.922 343.5 94.125 334.7 97.906C325.897 101.703 320.19 110.376 320.19 119.956L320.098 191.956L192.098 191.955C174.408 191.955 160.078 206.285 160.078 223.955V287.955C160.078 305.625 174.418 319.955 192.098 319.955L320.098 319.956L320.19 391.056C320.19 400.634 325.897 409.306 334.7 413.106C343.503 416.887 353.73 415.09 360.7 408.512L504.8 272.512C514.4 264.4 514.4 247.6 504.8 238.5Z" fill="white"/>
</svg>
