 <svg
xmlns="http://www.w3.org/2000/svg"
width="17.121"
height="15.298"
viewBox="0 0 17.121 15.298"
>
<g id="Wallet" transform="translate(-2 -3.06)">
    <path
    id="Vector"
    d="M13.929,15.3H3.193A3.2,3.2,0,0,1,0,12.1V2.422a.255.255,0,0,1,.016-.08c0-.01.007-.021.009-.031,0-.027-.007-.053-.011-.078A.923.923,0,0,1,0,2.089,2.03,2.03,0,0,1,1.96,0h8.416a3.351,3.351,0,0,1,3.218,2.885h.334a3.2,3.2,0,0,1,3.193,3.194V12.1A3.2,3.2,0,0,1,13.929,15.3ZM13.449,8a1.083,1.083,0,1,0,1.087,1.087A1.084,1.084,0,0,0,13.449,8ZM1.96,1.284a.749.749,0,0,0-.676.8.744.744,0,0,0,.676.8H12.276a2.025,2.025,0,0,0-1.9-1.6Z"
    transform="translate(2 3.06)"
    fill="#fff"
    />
</g>
</svg>