<svg width="27" height="23" viewBox="0 0 27 23" fill="none" xmlns="http://www.w3.org/2000/svg">
<path d="M15.333 4.74761e-06C12.283 4.74761e-06 9.35794 1.21161 7.20127 3.36828C5.0446 5.52495 3.833 8.45002 3.833 11.5H0L4.971 16.471L5.06 16.65L10.222 11.5H6.389C6.37913 9.419 7.09176 7.39907 8.40526 5.78495C9.71876 4.17083 11.5517 3.06257 13.5913 2.64933C15.6309 2.2361 17.7507 2.54349 19.5889 3.51904C21.4271 4.4946 22.8697 6.07786 23.6707 7.99859C24.4716 9.91932 24.5811 12.0585 23.9805 14.051C23.3799 16.0434 22.1065 17.7658 20.3776 18.9239C18.6486 20.0821 16.5713 20.6044 14.5002 20.4016C12.429 20.1988 10.4925 19.2835 9.021 17.812L7.207 19.627C8.54401 20.9656 10.1906 21.9536 12.0008 22.5035C13.8111 23.0534 15.729 23.1482 17.5846 22.7795C19.4403 22.4108 21.1763 21.59 22.6388 20.3898C24.1013 19.1896 25.2451 17.6471 25.9688 15.8991C26.6925 14.1511 26.9738 12.2515 26.7877 10.3688C26.6016 8.48606 25.9539 6.67832 24.9019 5.10582C23.85 3.53331 22.4263 2.24463 20.7572 1.35399C19.088 0.463357 17.2249 -0.00171417 15.333 4.74761e-06V4.74761e-06ZM14.055 6.389V12.778L19.524 16.024L20.444 14.478L15.972 11.82V6.389H14.055Z" fill="white"/>
</svg>
