<svg xmlns="http://www.w3.org/2000/svg" width="51.482" height="45.999" viewBox="0 0 51.482 45.999">
    <defs>
        <linearGradient id="3u85y7jqia" x1="-.113" y1=".85" x2="1.845" y2="-.315" gradientUnits="objectBoundingBox">
            <stop offset="0" stop-color="#0e86d8"/>
            <stop offset="1" stop-color="#2680eb"/>
        </linearGradient>
    </defs>
    <path d="M41.881 46H9.6A9.625 9.625 0 0 1 0 36.372V7.285a.757.757 0 0 1 .049-.242c.01-.031.02-.062.028-.093a5.027 5.027 0 0 0-.033-.233A2.755 2.755 0 0 1 0 6.281 6.1 6.1 0 0 1 5.895 0H31.2a9.421 9.421 0 0 1 6.326 2.494 10.86 10.86 0 0 1 3.352 6.181h1a9.612 9.612 0 0 1 9.6 9.6v18.1A9.625 9.625 0 0 1 41.881 46zm-1.442-21.932a3.256 3.256 0 1 0 3.269 3.269 3.26 3.26 0 0 0-3.269-3.269zM5.895 3.861a2.255 2.255 0 0 0-2.034 2.42 2.239 2.239 0 0 0 2.034 2.394h31.018A6.093 6.093 0 0 0 31.2 3.861z" style="fill:url(#3u85y7jqia)"/>
</svg>
