              <svg
                xmlns="http://www.w3.org/2000/svg"
                width="17.731"
                height="18.663"
                viewBox="0 0 17.731 18.663"
              >
                <g
                  id="Group_720"
                  data-name="Group 720"
                  transform="translate(-73 -321)"
                >
                  <path
                    id="Vector"
                    d="M6.783,6.676a.647.647,0,0,1-.9,0,.638.638,0,0,1,0-.9l1.7-1.7H.638a.638.638,0,0,1,0-1.277H7.575l-1.7-1.7a.638.638,0,0,1,0-.9.63.63,0,0,1,.9,0L9.566,2.965a.655.655,0,0,1,.2.477.706.706,0,0,1-.187.451Z"
                    transform="translate(80.969 326.89)"
                    fill="#fff"
                  />
                  <path
                    id="Vector-2"
                    data-name="Vector"
                    d="M7.324,8.177A1.574,1.574,0,0,1,8.451,7.7h5.209l-.237-.233a1.6,1.6,0,0,1-.352-.529,1.629,1.629,0,0,1-.121-.628,1.658,1.658,0,0,1,.119-.626,1.627,1.627,0,0,1,.345-.531,1.322,1.322,0,0,1,.246-.224V3.361A3.536,3.536,0,0,0,12.573.937,3.368,3.368,0,0,0,10.135,0h-6.6A3.377,3.377,0,0,0,1.092.936,3.545,3.545,0,0,0,0,3.361V15.3a3.545,3.545,0,0,0,1.092,2.424,3.377,3.377,0,0,0,2.441.935h6.6a3.368,3.368,0,0,0,2.438-.935A3.536,3.536,0,0,0,13.659,15.3V13.735a1.318,1.318,0,0,1-.246-.205A1.627,1.627,0,0,1,13.068,13a1.658,1.658,0,0,1-.119-.626,1.63,1.63,0,0,1,.117-.638,1.6,1.6,0,0,1,.356-.537l.237-.243H8.451a1.574,1.574,0,0,1-1.124-.475,1.65,1.65,0,0,1,0-2.3Z"
                    transform="translate(73 321)"
                    fill="#fff"
                  />
                </g>
              </svg>