<svg id="Layer_1" data-name="Layer 1" xmlns="http://www.w3.org/2000/svg" viewBox="0 0 100 100"><defs><style>.cls-1{fill:#ddba83;}.cls-2{fill:#a08047;}.cls-3{fill:#c38c67;}</style></defs><title>leaderboards</title><rect class="cls-1" x="11.74" y="11.53" width="77.31" height="77.31" rx="10.55"/><path class="cls-2" d="M91.22,37.8a3.42,3.42,0,0,0,1-2.4V24.17a16,16,0,0,0-16-16h-25a3.38,3.38,0,0,0-2.39,1,3.33,3.33,0,0,0-.25.28l-.19.23H46.26a3.38,3.38,0,0,0-2.82-1.5H35.66a3.34,3.34,0,0,0-2.39,1l-.51.51h-.43a3.36,3.36,0,0,0-2.81-1.5H24.65a16,16,0,0,0-16,16V45.75a3.37,3.37,0,0,0,1.5,2.81v5.68l-.79,1a3.4,3.4,0,0,0-.71,2.08V75.71a16,16,0,0,0,16,16h6.16a3.41,3.41,0,0,0,2.4-1,3.35,3.35,0,0,0,.42-.51H46.11l.07.1a3.38,3.38,0,0,0,2.75,1.4H63.08a3.39,3.39,0,0,0,2.81-1.5h7.34a3.4,3.4,0,0,0,2.82,1.5h.14a16,16,0,0,0,16-16V60.78a3.38,3.38,0,0,0-1-2.39l-.51-.52V38.31Zm-3.9-.89-4.27,4.26,1.5,5.89-.81,8.64,3.58,3.58V74.7A12.13,12.13,0,0,1,75.45,86.83h0L73,80.73l-2.19,2.19-4.62-3.23-2.59,7.15H47.84l-4-5.54-5.08,3-8,1.73v.81H25.66A12.14,12.14,0,0,1,13.52,74.7V55.4l5.07-6.5-5.07-2.43V25.18A12.13,12.13,0,0,1,25.66,13h4.41l1.09,3,3-3H44.39L46.84,17,50,13h25.2A12.14,12.14,0,0,1,87.32,25.18Z"/><path class="cls-2" d="M65.86,30.77H64.2l-4,1.75a2.86,2.86,0,0,0-2.52-1.64v0a.08.08,0,0,0,0-.07H43.08a.49.49,0,0,0,0,.12,2.83,2.83,0,0,0-2.44,1.62l-4.05-1.74H34.77a.64.64,0,0,1-.13.15,5.57,5.57,0,0,0-3.5,6.47A9.4,9.4,0,0,0,33.78,42c1.81,1.82,3.72,3.52,5.61,5.26a2.45,2.45,0,0,1,.94,2.11.89.89,0,0,1-.56.64c-.2,0-.48-.3-.69-.5s0-.24-.08-.36a1.12,1.12,0,0,0-2.22.28,3.79,3.79,0,0,0,.34,1.29c.78,1.58,2.27,2,4.26,1.16.33.37.64.75,1,1.11a15.12,15.12,0,0,0,4.41,3,.72.72,0,0,1,.47.94c-.13.56-.18,1.14-.27,1.71-.21,1.37-.43,2.75-.64,4.14H44.53a2.88,2.88,0,0,0-3.11,3.1c0,1,0,2,0,3V71.2H59.48l0-2.27c0-1.06,0-2,0-3a2.88,2.88,0,0,0-3.14-3.14H54.5c-.33-2.18-.65-4.33-1-6.42,1.14-.66,2.25-1.21,3.24-1.92s1.88-1.63,2.85-2.49c.1,0,.27.15.46.23a2.94,2.94,0,0,0,4-2.84,1,1,0,0,0-1-1.08A1,1,0,0,0,61.9,49c0,.17,0,.39-.13.5s-.44.51-.68.53-.43-.34-.57-.57a.55.55,0,0,1,0-.5,6.73,6.73,0,0,1,1.05-1.76c2.19-2.1,4.68-3.9,6.48-6.4a7.79,7.79,0,0,0,1.77-4.47C69.86,33.69,68.57,31.89,65.86,30.77Zm-25.63,6a.62.62,0,0,1-1.06-.1,2.64,2.64,0,0,1-.15-.5,1.11,1.11,0,0,0-2.2.33,2.87,2.87,0,0,0,2.58,2.77c.29,0,.59,0,.93,0v5.85c-2.27-2-4.62-3.78-6.18-6.31-.9-1.46-1.32-3-.25-4.57a2.11,2.11,0,0,1,3-.91,26.21,26.21,0,0,1,3.2,1.94A1.32,1.32,0,0,1,40.23,36.73Zm26.48,2a22.83,22.83,0,0,1-2.28,2.8c-1.2,1.2-2.51,2.3-3.91,3.57V39.3a9.61,9.61,0,0,0,1.56-.22,2.84,2.84,0,0,0,2-2.59,1.12,1.12,0,0,0-1-1.23,1.17,1.17,0,0,0-1.29.89,1.84,1.84,0,0,1-.62.79c-.07.06-.54-.17-.56-.32-.06-.42-.17-1.06,0-1.26a8,8,0,0,1,4.23-2.29c1.25-.18,2.47,1.08,2.66,2.63A4.34,4.34,0,0,1,66.71,38.75Z"/><path class="cls-3" d="M63.18,59.25l-1.13-.85A4.3,4.3,0,0,1,63.18,59.25Z"/></svg>