<svg id="Layer_1" data-name="Layer 1" xmlns="http://www.w3.org/2000/svg" viewBox="0 0 100 100"><defs><style>.cls-1{fill:#ddba83;}.cls-2{fill:#a08047;}</style></defs><title>mount olympus</title><rect class="cls-1" x="11.74" y="11.46" width="77.31" height="77.31" rx="10.55"/><path class="cls-2" d="M91.22,38a3.38,3.38,0,0,0,1-2.39V24.34a16,16,0,0,0-16-16h-25a3.38,3.38,0,0,0-2.39,1,3.33,3.33,0,0,0-.25.28l-.19.24H46.26a3.39,3.39,0,0,0-2.82-1.51H35.66a3.38,3.38,0,0,0-2.39,1l-.51.52h-.43a3.37,3.37,0,0,0-2.81-1.51H24.65a16,16,0,0,0-16,16V45.92a3.41,3.41,0,0,0,1.5,2.82v5.67l-.79,1a3.43,3.43,0,0,0-.71,2.09V75.88a16,16,0,0,0,16,16h6.16a3.39,3.39,0,0,0,2.82-1.5H46.11l.07.1a3.38,3.38,0,0,0,2.75,1.4H63.08a3.37,3.37,0,0,0,2.39-1,2.59,2.59,0,0,0,.42-.51h7.34a3.38,3.38,0,0,0,2.82,1.5h.14a16,16,0,0,0,16-16V61a3.42,3.42,0,0,0-1-2.4l-.51-.51V38.49Zm-3.9-.89-4.27,4.27,1.5,5.88-.81,8.65,3.58,3.57V74.88A12.13,12.13,0,0,1,75.45,87h0L73,80.9l-2.19,2.19-4.62-3.23L63.62,87H47.84l-4-5.53-5.08,3-8,1.72V87H25.66A12.13,12.13,0,0,1,13.52,74.88V55.58l5.07-6.5-5.07-2.44V25.35A12.14,12.14,0,0,1,25.66,13.21h4.41l1.09,3,3-3H44.39l2.45,3.92L50,13.21h25.2A12.15,12.15,0,0,1,87.32,25.35Z"/><path d="M55.13,30.91l.28.17A1.4,1.4,0,0,0,55.13,30.91Z"/><path class="cls-2" d="M69.71,66.52l0-1.42V63.66H68.27l0-.71V60.8h-.68l0-1.42c0-.19,0-.39,0-.58q0-7.56,0-15.13h2.12V40.8H69c0-.47,0-.95,0-1.42s0-1,0-1.42h.69V36.52c0-.72,0-.72-.61-1s-1.58-.61-2.35-1a1.09,1.09,0,0,0-1.15.05,3.66,3.66,0,0,1-1.9.49c-.85.05-1.38-.18-1.6-1-.09-.35-.36-.48-.68-.63a3.59,3.59,0,0,0-3.34,0l-.13,0a.44.44,0,0,1-.62-.14c-.77-.9-.94-1.62-1.89-2.3l-.28-.17L50.4,27.16l-5,3.51a1,1,0,0,0-.55.64c-.18.57.06,1.76-.13,2.33L42.11,33a1.3,1.3,0,0,0-.52,0,14.77,14.77,0,0,1-2,.39,2,2,0,0,0-2,1.47.42.42,0,0,1-.3.25c-1.36.17-2.71.31-4.07.46l-2.14.26V38h.69V40.8h-.68v2.87h2.1a2.44,2.44,0,0,1,0,.27V60.8h-.72v2.85H31.11v2.87l-.7,0H29v2.81H71.83V66.52ZM41.12,60.8h-.71v2.86H36.84l0-.71V60.8h-.69c0-.47,0-.94,0-1.42,0-.19,0-.39,0-.58q0-7.56,0-15.13h5a2.44,2.44,0,0,1,0,.27Zm7.86,0h-.72v2.86H44.7c0-.23,0-.47,0-.71V60.8H44c0-.47,0-.94,0-1.42,0-.19,0-.39,0-.58q0-7.56,0-15.13h5c0,.09,0,.18,0,.27Zm7.86,0h-.72v2.86H52.56c0-.23,0-.47,0-.71V60.8h-.69l0-1.42c0-.19,0-.39,0-.58q0-7.56,0-15.13h5c0,.09,0,.18,0,.27Zm7.85,0H64v2.86H60.42c0-.23,0-.47,0-.71V60.8h-.69l0-1.42c0-.19,0-.39,0-.58q0-7.56,0-15.13h5c0,3.43,0,6.87,0,10.3C64.7,56.25,64.69,58.52,64.69,60.8Z"/></svg>