              <svg
                width="51"
                height="70"
                viewBox="0 0 51 70"
                xmlns="http://www.w3.org/2000/svg"
              >
                <path
                  d="M50 69.701H.83a.587.587 0 01-.59-.588L.093.68c0-.17.079-.353.197-.483A.734.734 0 01.776 0h36.482c.118 0 .223.026.328.091l12.703 7.94c.17.105.276.288.276.497l.13 60.494c0 .17-.078.352-.196.483a.73.73 0 01-.499.196zM1.511 68.434H49.41l-.131-59.488-12.284-7.68H1.367l.144 67.168z"
                  fill="#E6E6E6"
                ></path>
                <path
                  d="M49.921 8.58L37.218.627l4.134 10.526 8.57-2.573z"
                  fill="#EBEBEB"
                ></path>
                <path
                  d="M41.3 11.793a.6.6 0 01-.551-.366L36.615.901c-.105-.248-.013-.548.21-.731a.657.657 0 01.761-.066l12.703 7.94a.59.59 0 01.262.615.681.681 0 01-.485.522l-8.57 2.586a1.015 1.015 0 01-.196.026zm-2.756-9.56l3.202 8.15 6.64-1.999-9.842-6.15zM19.148 31.462a2.766 2.766 0 01-2.768 2.768 2.777 2.777 0 01-2.782-2.768 2.766 2.766 0 012.768-2.77c1.536.014 2.782 1.255 2.782 2.77zM37.18 31.462a2.766 2.766 0 01-2.77 2.768 2.777 2.777 0 01-2.782-2.768 2.766 2.766 0 012.77-2.77c1.535 0 2.768 1.255 2.781 2.77zM40.998 49.393a.579.579 0 01-.59-.588c-.014-4.44-6.759-8.058-15.052-8.058-5.486 0-10.538 1.62-13.163 4.245-1.168 1.162-1.758 2.416-1.758 3.735a.694.694 0 01-.63.679.585.585 0 01-.643-.588c0-1.658.748-3.278 2.165-4.688 2.874-2.86 8.294-4.65 14.12-4.65 9.095 0 16.22 4.062 16.233 9.234a.694.694 0 01-.63.679h-.052zM9.306 25.872a.576.576 0 01-.42-.17c-.236-.235-.223-.64.027-.888l2.992-2.99c.262-.262.656-.275.905-.04.236.235.223.64-.026.888l-2.992 2.991a.738.738 0 01-.486.209zM41.34 25.872a.576.576 0 01-.42-.17l-3.006-2.99c-.236-.236-.223-.64.026-.889.263-.261.657-.274.906-.026l3.005 2.99c.236.236.223.64-.026.889a.762.762 0 01-.486.196z"
                  fill="#E6E6E6"
                ></path>
              </svg>