<svg width="44" height="44" viewBox="0 0 44 44" fill="none" xmlns="http://www.w3.org/2000/svg">
<path d="M11.1085 7H32.8915C35.1395 7 37 8.82406 37 11.075V32.8862C37 35.1371 35.1783 37 32.8915 37H11.1085C8.86047 37 7 35.1759 7 32.8862V11.075C7.03876 8.82406 8.86047 7 11.1085 7Z" fill="#DDBA83"/>
<path d="M37.6172 17.3301C37.8469 17.1005 38 16.756 38 16.4115V12.1244C38 8.75598 35.244 6 31.8756 6H22.3062C21.9617 6 21.6172 6.15311 21.3876 6.38278C21.3493 6.42105 21.311 6.45933 21.311 6.49761L21.2344 6.57416H20.4306C20.1627 6.22967 19.7799 6 19.3206 6H16.3349C15.9904 6 15.6459 6.15311 15.4163 6.38278L15.2249 6.57416H15.0718C14.8421 6.22967 14.4211 6 14 6H12.1244C8.75598 6 6 8.75598 6 12.1244V20.3923C6 20.8134 6.22967 21.2344 6.57416 21.4641V23.6459L6.26794 24.0287C6.11483 24.2584 6 24.5263 6 24.8325V31.8756C6 35.244 8.75598 38 12.1244 38H14.4976C14.8421 38 15.1866 37.8469 15.4163 37.6172C15.4928 37.5407 15.5311 37.5024 15.5694 37.4258H20.3541L20.3923 37.4641C20.622 37.8086 21.0431 38 21.4258 38H26.823C27.1675 38 27.512 37.8469 27.7416 37.6172C27.8182 37.5407 27.8565 37.5024 27.8947 37.4258H30.689C30.9187 37.7703 31.3397 38 31.7608 38H31.8373C35.2057 38 37.9617 35.244 37.9617 31.8756V26.134C37.9617 25.7895 37.8086 25.445 37.5789 25.2153L37.3876 25.0239V17.5215L37.6172 17.3301ZM36.1244 16.9856L34.4785 18.6316L35.0526 20.89L34.7464 24.2201L36.1244 25.5981V31.4928C36.1244 34.0191 34.0957 36.0861 31.5694 36.1244L30.6507 33.7895L29.8086 34.6316L28.0478 33.4067L27.0526 36.1244H21.0048L19.4737 34.0191L17.5215 35.1675L14.4593 35.8182V36.1244H12.5072C9.94258 36.1244 7.8756 34.0574 7.8756 31.4928V24.067L9.82775 21.5789L7.8756 20.6603V12.5072C7.8756 9.94258 9.94258 7.8756 12.5072 7.8756H14.1914L14.6124 9.02392L15.7608 7.8756H19.6651L20.622 9.36842L21.8086 7.8756H31.4545C34.0191 7.8756 36.0861 9.94258 36.0861 12.5072V16.9856H36.1244Z" fill="#A08047"/>
<path d="M26.452 31.0673C26.3356 31.0673 26.2192 31.0673 26.1028 31.0673C26.064 31.0673 26.0252 31.0673 26.0252 31.0673C25.5984 31.0673 25.1327 30.9897 24.7059 30.9121C23.8134 30.7569 22.9597 30.4464 22.1448 30.0584C21.9896 29.9808 21.8732 29.9808 21.718 30.0584C20.5927 30.6016 19.4286 30.9121 18.2256 30.9897C18.148 30.9897 18.0316 30.9897 17.954 31.0285C17.7212 31.0285 17.4884 31.0285 17.2555 31.0285C17.2167 31.0285 17.2167 31.0285 17.1779 31.0285C16.7511 30.9897 16.3242 30.9509 15.8974 30.8733C14.6169 30.5628 13.4528 30.0972 12.4439 29.3211C12.3663 29.2435 12.2886 29.1659 12.2886 29.0883C12.2886 28.8943 12.2498 28.7003 12.2498 28.4674C12.2498 28.2346 12.2498 27.963 12.2498 27.7302C12.2886 27.3421 12.3663 26.9541 12.4439 26.566C12.8707 24.6259 13.802 23.0349 15.2377 21.6768C15.6258 21.3275 16.0526 20.9783 16.4795 20.7067C16.5959 20.6291 16.6347 20.5514 16.6347 20.435C16.6735 20.047 16.7123 19.6978 16.7899 19.3097C17.1003 17.7964 17.7212 16.3994 18.6913 15.1965C19.4674 14.2652 20.3598 13.4892 21.4464 12.9459C21.6016 12.8683 21.7956 12.7907 21.9508 12.7131C21.9896 12.7131 22.0284 12.7131 22.0672 12.7131C22.106 12.7131 22.106 12.7519 22.1448 12.7519C23.0373 13.1787 23.8522 13.722 24.5507 14.4204C25.676 15.5458 26.452 16.9039 26.9177 18.4172C27.1117 19.1157 27.2281 19.8142 27.2669 20.5126C27.2669 20.6679 27.3445 20.7455 27.4609 20.8231C28.3534 21.4439 29.1295 22.1812 29.7504 23.0349C30.7205 24.3542 31.3025 25.8288 31.4965 27.4585C31.5353 27.9242 31.5353 28.4286 31.5353 28.8943C31.5353 29.2047 31.3801 29.4375 31.1085 29.5927C30.7981 29.748 30.5264 29.942 30.216 30.0972C29.1295 30.6404 28.0042 30.9121 26.8013 30.9509C26.7237 31.0673 26.5685 31.0673 26.452 31.0673ZM26.1028 29.942C26.5685 29.942 27.0341 29.9032 27.4997 29.8256C28.431 29.7092 29.2847 29.3987 30.0996 28.9719C30.3324 28.8555 30.4488 28.6615 30.4488 28.4286C30.4488 27.9242 30.3712 27.4197 30.2936 26.9153C29.9832 25.4407 29.3235 24.199 28.3534 23.0737C27.8102 22.4528 27.1505 21.9484 26.452 21.5215C26.2968 21.4439 26.2192 21.3275 26.2192 21.1335C26.2192 20.9007 26.2192 20.6291 26.1804 20.3962C26.1416 19.7366 25.9864 19.0381 25.7536 18.4172C25.1327 16.5935 24.0074 15.1189 22.3388 14.11C22.1836 13.9936 22.0284 13.9936 21.8344 14.11C21.0195 14.5757 20.2822 15.1965 19.6614 15.9338C18.4585 17.4083 17.8376 19.1157 17.7988 21.0171C17.7988 21.2499 17.7212 21.4051 17.5272 21.5215C17.1003 21.7544 16.7123 22.0648 16.3242 22.3752C14.5005 23.9662 13.4916 25.9452 13.414 28.351C13.414 28.545 13.4916 28.7003 13.6856 28.8167C13.9184 28.9331 14.1512 29.0883 14.4229 29.2047C15.3153 29.5927 16.2466 29.8256 17.2555 29.8644C17.9152 29.9032 18.6137 29.8644 19.2733 29.7092C20.127 29.5539 20.9419 29.2435 21.718 28.8167C21.8732 28.7391 22.0284 28.7391 22.1836 28.8167C22.5717 29.0495 22.9209 29.2047 23.3477 29.3599C24.2014 29.7092 25.1327 29.9032 26.1028 29.942Z" fill="#A08047"/>
<path d="M22.7657 28.1958C23.7746 27.3809 24.6671 26.4496 25.2491 25.2855C25.0163 25.1303 24.8223 24.9363 24.5895 24.781C24.5507 24.8199 24.5119 24.8975 24.5119 24.9363C23.8522 26.178 22.8433 27.1481 21.6404 27.8466C20.9031 28.2734 20.127 28.6226 19.3121 28.8167C18.6137 28.9719 17.9152 29.0107 17.1779 28.9719C16.2078 28.8943 15.3153 28.6614 14.4617 28.2346C14.3841 28.1958 14.3453 28.1182 14.3453 28.0406C14.3841 27.4585 14.5005 26.8377 14.6945 26.2944C15.0825 25.1303 15.7422 24.0826 16.6735 23.2677C17.0227 22.9573 17.4108 22.6468 17.7988 22.3364C17.7988 22.3364 17.7988 22.3364 17.8376 22.2976C18.0316 23.5781 18.3809 24.8199 19.1181 25.9064C19.3898 25.7899 19.6614 25.6735 19.933 25.5571C19.8942 25.5183 19.8554 25.4407 19.8554 25.4019C19.3509 24.6258 19.0405 23.7333 18.8853 22.8409C18.7689 22.2588 18.7689 21.7155 18.7689 21.1335C18.8077 20.3962 18.8853 19.6589 19.1181 18.9605C19.5062 17.6411 20.2822 16.5158 21.3299 15.6233C21.5628 15.4293 21.7956 15.2741 22.0284 15.0801C22.1448 15.0025 22.2224 15.0025 22.3388 15.0801C23.3089 15.7786 24.085 16.6322 24.6671 17.7187C25.0163 18.3784 25.2491 19.0769 25.3655 19.8142C25.4431 20.1634 25.482 20.5514 25.5596 20.9007V20.9395C25.4431 20.9007 25.3267 20.8619 25.1715 20.8231C24.5507 20.5902 23.9298 20.435 23.2701 20.3186C22.8045 20.241 22.3 20.2022 21.8344 20.241C21.7956 20.241 21.7568 20.241 21.7568 20.2798C21.718 20.5514 21.6792 20.7843 21.6792 21.0559C21.6792 21.0559 21.6792 21.0559 21.6792 21.0947C21.718 21.0947 21.7568 21.0947 21.7956 21.0947C22.1448 21.0947 22.4941 21.0947 22.8433 21.1335C23.503 21.1723 24.1238 21.3663 24.7059 21.5991C25.9088 22.0648 26.9565 22.7632 27.849 23.7333C28.7803 24.7422 29.3623 25.9064 29.5952 27.2257C29.634 27.5361 29.6728 27.8466 29.7116 28.1182C29.7116 28.2346 29.6728 28.3122 29.5564 28.3898C28.8579 28.739 28.1206 28.9331 27.3445 29.0495C26.1804 29.2047 25.0551 29.0495 23.9298 28.6226C23.4642 28.4674 23.1149 28.351 22.7657 28.1958C22.8045 28.1958 22.7657 28.1958 22.7657 28.1958ZM21.524 25.8288L21.4852 25.8676C20.6703 26.4884 19.739 26.9153 18.7301 27.1481C18.5749 27.1869 18.4973 27.1481 18.4197 27.0317C17.8764 26.2556 17.4496 25.4407 17.1391 24.5482C17.1003 24.4706 17.1003 24.4318 17.0615 24.3542C16.2466 25.2467 15.7422 26.2556 15.5094 27.4197C15.5482 27.4197 15.5482 27.4197 15.587 27.4585C16.0138 27.6137 16.4407 27.7301 16.8675 27.7689C17.4884 27.8466 18.0704 27.8466 18.6913 27.7301C19.3898 27.5749 20.0494 27.3421 20.6703 27.0317C22.1448 26.2944 23.2313 25.1691 23.8134 23.5781C23.8522 23.4229 23.9298 23.2677 23.9686 23.1513H24.0074C24.5119 23.3841 25.0163 23.6557 25.4432 23.9662C25.8312 24.2378 26.2192 24.587 26.5297 24.9363C26.5685 25.0139 26.6073 25.0527 26.5685 25.1303C26.3744 25.5571 26.1804 25.984 25.9088 26.372C25.5984 26.7989 25.3267 27.2257 25.0163 27.6525C25.0163 27.6913 24.9775 27.6913 24.9775 27.7301C25.5984 27.8854 26.258 27.9242 26.8789 27.8466C27.3833 27.8078 27.849 27.6913 28.3534 27.5361C28.3534 27.4585 28.3146 27.3809 28.3146 27.2645C28.1206 26.4108 27.8102 25.5959 27.2281 24.8975C26.6849 24.2378 26.064 23.6945 25.3655 23.2289C23.9686 22.3364 22.4553 22.026 20.7867 22.2976C20.6703 22.3364 20.5151 22.3364 20.3987 22.3752V22.3364C20.3987 22.026 20.3598 21.7543 20.3598 21.4439C20.3598 20.7066 20.4375 19.9694 20.6703 19.2321C20.7091 19.1545 20.7479 19.0769 20.8643 19.0769C21.1747 19.0381 21.4852 19.0381 21.8344 19.0381C22.4164 19.0381 23.0373 19.0769 23.6194 19.1933C23.697 19.1933 23.8134 19.2321 23.891 19.2321V19.1933C23.5418 18.1068 22.9597 17.1755 22.106 16.4382C22.0672 16.3994 22.0672 16.3994 22.0284 16.4382C21.2135 17.0979 20.6315 17.874 20.2822 18.8441C20.0494 19.4261 19.933 20.0082 19.8942 20.629C19.8166 21.2111 19.8166 21.832 19.933 22.414C20.0882 23.5005 20.5151 24.5094 21.2135 25.3631C21.2523 25.5183 21.3687 25.6735 21.524 25.8288Z" fill="#A08047"/>
</svg>
