<svg id="Layer_1" data-name="Layer 1" xmlns="http://www.w3.org/2000/svg" viewBox="0 0 100 100"><defs><style>.cls-1{fill:#ddba83;}.cls-2{fill:#a08047;}</style></defs><title>premier game studio_1</title><rect class="cls-1" x="11.43" y="12.25" width="77.31" height="77.31" rx="10.55"/><path class="cls-2" d="M90.63,52.35a2.33,2.33,0,0,0,.28-.26,3.35,3.35,0,0,0,1-2.39v-25a16,16,0,0,0-16-16H64.65a3.39,3.39,0,0,0-2.4,1l-.51.51H42.18l-.51-.51a3.39,3.39,0,0,0-2.4-1H24.34a16,16,0,0,0-16,16v.15a3.38,3.38,0,0,0,1.51,2.81V35a2.59,2.59,0,0,0-.51.42,3.36,3.36,0,0,0-1,2.4V52a3.38,3.38,0,0,0,1.41,2.75l.1.07V67.25a3,3,0,0,0-.52.42,3.42,3.42,0,0,0-1,2.4v6.17a16,16,0,0,0,16,16H42.72a3.37,3.37,0,0,0,2.09-.72l1-.79h5.68a3.39,3.39,0,0,0,2.82,1.51H75.89a16,16,0,0,0,16-16V71.37a3.39,3.39,0,0,0-1.51-2.82v-.42l.51-.51a3.39,3.39,0,0,0,1-2.4V57.44a3.4,3.4,0,0,0-1.51-2.82V52.53ZM87,75.23A12.13,12.13,0,0,1,74.88,87.36H53.59l-2.44-5.07-6.5,5.07H25.35A12.13,12.13,0,0,1,13.22,75.23V70.07H14l1.73-8,3-5.07-5.53-4V37.26l7.14-2.59-3.22-4.62,2.19-2.19-6.1-2.42h0A12.13,12.13,0,0,1,25.35,13.57H40.77l3.58,3.57L53,16.33l5.88,1.5,4.26-4.26H74.88A12.13,12.13,0,0,1,87,25.7V50.9L83.09,54,87,56.5V66.72l-3,3,3,1.1Z"/><path class="cls-2" d="M73.31,34.3l-1-.36L70,33.14q-5.14-1.8-10.32-3.59a2,2,0,0,0-1.71.1A1.81,1.81,0,0,0,57.14,31a7,7,0,0,1-2.52,4.58,6.35,6.35,0,0,1-3.49,1.53V36a1.69,1.69,0,0,0,.51-2.28,2,2,0,0,0-.48-.51,3,3,0,0,0,1.68-1.36h0a3.24,3.24,0,0,0-4.47-4.47h0a3.07,3.07,0,0,0-1.55,2.69,3.39,3.39,0,0,0,.06.64A3.13,3.13,0,0,0,49,33.22a1.82,1.82,0,0,0-.71,1.21A1.89,1.89,0,0,0,49.06,36v1.11A6.54,6.54,0,0,1,44.94,35a6.82,6.82,0,0,1-1.88-4,1.86,1.86,0,0,0-.83-1.39,2,2,0,0,0-1.68-.13l-1.49.52-3.13,1.09c-2.62.91-5.32,1.85-8,2.79l-.39.12a2.36,2.36,0,0,0-1.41.81.41.41,0,0,0-.05.18v.55a.27.27,0,0,0,.07.2,1.17,1.17,0,0,0,1.59.42l.58-.17.22-.06h.11a13.7,13.7,0,0,0,4.1.19,14.62,14.62,0,0,1,1.56-.1h0l-.08.1h-.05l-.11,0-.43.18c-.36.15-.74.31-1.11.49-.2.11-.57.45-.51.79a1,1,0,0,0,.42.54l.11.09a.72.72,0,0,0,.39.14l.36,0c.37,0,.75.07,1.13.08a18.22,18.22,0,0,0,5.11-.68l.07,0,0,.06a15.29,15.29,0,0,1-1.36.9.74.74,0,0,0-.36,1,1,1,0,0,0,.78.44h0l.18,0a16.56,16.56,0,0,0,2.4-.36c.61-.16,1.21-.38,1.79-.58l1-.36h.11a.22.22,0,0,1,0,.12,2.68,2.68,0,0,1-.26.46l-.12.18a2.16,2.16,0,0,0-.71,2q0,.35.09.69A5.59,5.59,0,0,0,45,45.72a10.38,10.38,0,0,0,2.57,1.67l-.51.36a3.88,3.88,0,0,0-1.72,2.81,3.72,3.72,0,0,0,1.15,3,11.22,11.22,0,0,0,1.32,1.07l.27.2-.12.08a4,4,0,0,0-1,6A7.21,7.21,0,0,0,48.1,62l.29.25-.36.39A4,4,0,0,0,47,66.52a13.6,13.6,0,0,0,1,2.53,9.3,9.3,0,0,1,1.11,4.09,1,1,0,0,0,1,1h0a1,1,0,0,0,1-1c0-.2,0-.41,0-.62v-.24s0-.08,0-.12a2.8,2.8,0,0,1,.06-.28l.09-.41a4,4,0,0,1,.24-.87c.17-.4.37-.81.56-1.21s.52-1,.74-1.6a6,6,0,0,0,.47-2.11,4.25,4.25,0,0,0-1.51-3.38l.08-.09A4.93,4.93,0,0,0,54,58.65a3.8,3.8,0,0,0-.91-2.89,8.48,8.48,0,0,0-.93-.87l-.13-.11.32-.24a11.28,11.28,0,0,0,1.4-1.1,3.58,3.58,0,0,0,.13-4.95,7,7,0,0,0-1.19-.92.91.91,0,0,0-.16-.11c.23-.14.46-.28.7-.4a6.38,6.38,0,0,0,3.74-5,2.41,2.41,0,0,0-.67-2.32l-.08-.16a3.84,3.84,0,0,1-.23-.45A.57.57,0,0,1,56,39a.27.27,0,0,1,.12,0c.36.11.73.24,1.08.37.58.2,1.17.42,1.78.57a16.59,16.59,0,0,0,2.19.34l.44,0h0a.8.8,0,0,0,.7-.45,1,1,0,0,0-.15-.76.86.86,0,0,0-.34-.32l-.07,0c-.13-.1-.27-.19-.41-.28s-.55-.36-.82-.56a0,0,0,0,0,0,0h0l.58.14a13,13,0,0,0,3.14.48h1.18l1.81,0a1.08,1.08,0,0,0,.78-.44.76.76,0,0,0,.08-.62.74.74,0,0,0-.47-.48c-.63-.27-1.24-.54-1.82-.82l.07,0a.61.61,0,0,1,.23,0A16.81,16.81,0,0,0,71.62,36l.3.08.74.22A1.08,1.08,0,0,0,74,35.67,1.12,1.12,0,0,0,73.31,34.3ZM48.26,59a2,2,0,0,1,.79-2.29V60.1A2.68,2.68,0,0,1,48.26,59Zm.79-6a3.82,3.82,0,0,1-1.43-1.31,1.62,1.62,0,0,1,.43-2c.32-.21.66-.4,1-.58h0Zm0-7.24-.35-.2c-.69-.38-1.41-.78-2.11-1.19a1.59,1.59,0,0,1-.49-.53,1.46,1.46,0,0,1-.2-.44.94.94,0,0,1,.52-.33,1.82,1.82,0,0,0,1.74-1.74h0a1.58,1.58,0,0,0-.58-1.37l.94-.66.54,0Zm2.44,14a3.64,3.64,0,0,1-.34.34V56.74a3.05,3.05,0,0,1,.46.41A2.08,2.08,0,0,1,51.48,59.73Zm.75-7.63a6.88,6.88,0,0,1-1,.76l0,0V49a2.88,2.88,0,0,1,1.39,1.11A1.65,1.65,0,0,1,52.23,52.1Zm1.89-8.31-.42.35a12.81,12.81,0,0,1-1.32,1,7.32,7.32,0,0,1-1.12.56l-.12,0V39.29l.55-.06,1,.65A1.62,1.62,0,0,0,52,41.24h0A1.83,1.83,0,0,0,53.7,43a.87.87,0,0,1,.51.24A.39.39,0,0,1,54.12,43.79Z"/></svg>