<svg id="Layer_1" data-name="Layer 1" xmlns="http://www.w3.org/2000/svg" viewBox="0 0 100 100"><defs><style>.cls-1{fill:#ddba83;}.cls-2{fill:#a08047;}</style></defs><title>pvp duels</title><rect class="cls-1" x="11.35" y="11.46" width="77.31" height="77.31" rx="10.55"/><path class="cls-2" d="M90.61,38a3.38,3.38,0,0,0,1-2.39V24.34a16,16,0,0,0-16-16h-25a3.38,3.38,0,0,0-2.39,1,2.18,2.18,0,0,0-.25.28l-.19.24H45.65a3.39,3.39,0,0,0-2.82-1.51H35.05a3.38,3.38,0,0,0-2.39,1l-.52.52h-.42a3.38,3.38,0,0,0-2.81-1.51H24a16,16,0,0,0-16,16V45.92a3.41,3.41,0,0,0,1.51,2.82v5.67l-.79,1A3.44,3.44,0,0,0,8,57.51V75.88a16,16,0,0,0,16,16H30.2A3.39,3.39,0,0,0,33,90.4H45.49l.08.1a3.38,3.38,0,0,0,2.74,1.4H62.46a3.4,3.4,0,0,0,2.4-1,2.59,2.59,0,0,0,.42-.51h7.34a3.37,3.37,0,0,0,2.81,1.5h.15a16,16,0,0,0,16-16V61a3.42,3.42,0,0,0-1-2.4l-.51-.51V38.49Zm-3.9-.89-4.27,4.27,1.5,5.88-.81,8.65,3.58,3.57V74.88A12.13,12.13,0,0,1,74.84,87h0l-2.42-6.1-2.19,2.19L65.6,79.86,63,87H47.23l-4-5.53-5.08,3-8,1.72V87H25.05A12.13,12.13,0,0,1,12.91,74.88V55.58L18,49.08l-5.07-2.44V25.35A12.14,12.14,0,0,1,25.05,13.21h4.41l1.09,3,3-3H43.78l2.45,3.92,3.14-3.92h25.2A12.15,12.15,0,0,1,86.71,25.35Z"/><path class="cls-2" d="M64,58.92c0,.61-.37.81-.89.49-.7-.43-1.41-.85-2.09-1.32a1,1,0,0,1-.33-.61c0-.7,0-1.41,0-2.12s-.35-.92-1-.74L54,56.18a.69.69,0,0,0-.26,1.31c1.43,1.06,2.84,2.14,4.28,3.2A2.6,2.6,0,0,1,59.14,63c0,1,0,1.95,0,2.92a24,24,0,0,0,.44,4.78A1.19,1.19,0,0,1,59.18,72a1.14,1.14,0,0,1-1.34,0c-2.26-1.16-4.54-2.3-6.8-3.48a8.8,8.8,0,0,0-1.35-.57l-.89-1.87L47,64.71l-.3-2.83-.44.37L45.73,65l1.6,1.47-.46.92-.63,0H45.3c.08-.39.17-.77.25-1.15-.09.38-.17.76-.25,1.15a4.07,4.07,0,0,1-.49,0H39.6c-1,0-1.29-.41-1.08-1.36.32-1.39.65-2.76.93-4.15a7.73,7.73,0,0,0-.39-4.23l-.18-.5.36-.89L40,55l-1.2-.58L38,53l-.06-.37h0c0-.2,0-.41,0-.63a.13.13,0,0,0,0-.06,11.19,11.19,0,0,1,.37-2.76,10.52,10.52,0,0,1,.31-1,12.44,12.44,0,0,1,7.22-8.05,13.31,13.31,0,0,1,11,.55l.2.1.2.1.19.11a0,0,0,0,1,0,0l.19.1a14.16,14.16,0,0,1,3.32,2.59,4.81,4.81,0,0,0,.25.51c0,.07.09.14.14.21l-.23,1.82.59,1.63.29-.68,1.55,1.48h0A8.4,8.4,0,0,1,63.91,51C64,53.62,64,56.27,64,58.92Z"/><path class="cls-2" d="M72.14,34.11l-7.06,5.76a1.11,1.11,0,0,0,.07.16,1.54,1.54,0,0,1-2.23,2.09.85.85,0,0,0-.17-.06h0a18.63,18.63,0,0,0-6.66-4.49h0l-.58-.19A17.43,17.43,0,0,0,53.53,37a15.36,15.36,0,0,0-2.7-.21h-.32l-.28,0h-.3a15.14,15.14,0,0,0-2.38.43A15.83,15.83,0,0,0,35.4,52.28v.3A1.57,1.57,0,0,1,33,53.74a3.69,3.69,0,0,1-.6-.7,27.56,27.56,0,0,1-1.45,8.45A18.82,18.82,0,0,1,28.65,66a.94.94,0,0,1-1.2.42c-.55-.21-.71-.68-.52-1.33.48-1.57,1-3.12,1.37-4.72A44,44,0,0,0,29,55c.15-2,.09-4,.23-6.07a22.46,22.46,0,0,1,2.44-8.74A24.83,24.83,0,0,1,48,26.92c1.33-.35,2.73-.47,4.1-.7a2.18,2.18,0,0,0,.23-.09h3.78c.68.09,1.35.16,2,.28,1,.19,2.08.41,3.11.62,1.51.48,3,.89,4.52,1.44A24.86,24.86,0,0,1,72.12,32,1.21,1.21,0,0,1,72.14,34.11Z"/></svg>