            <svg
              id="Component_42_2"
              data-name="Component 42 – 2"
              xmlns="http://www.w3.org/2000/svg"
              width="42"
              height="42"
              viewBox="0 0 42 42"
            >
              <circle
                id="Ellipse_780"
                data-name="Ellipse 780"
                cx="21"
                cy="21"
                r="21"
                fill="#2b4555"
              />
              <path
                id="Path_3641"
                data-name="Path 3641"
                d="M9.744,12.9a1.031,1.031,0,0,1-.008-1.462l3.751-3.807H1.033a1.033,1.033,0,0,1,0-2.067H13.48L9.728,1.76A1.034,1.034,0,1,1,11.2.305l5.484,5.564h0a1.011,1.011,0,0,1,.215.326.986.986,0,0,1,.079.4,1.036,1.036,0,0,1-.294.723L11.2,12.879A1.022,1.022,0,0,1,9.744,12.9Z"
                transform="translate(27.598 12.511) rotate(90)"
                fill="#00bbd6"
              />
            </svg>