<svg xmlns="http://www.w3.org/2000/svg" width="20" height="20" viewBox="0 0 20 20" fill="none">
<path fill-rule="evenodd" clip-rule="evenodd" d="M9.16602 1.66663C13.3082 1.66663 16.666 5.02449 16.666 9.16663C16.666 10.9373 16.0524 12.5646 15.0263 13.8476L18.0886 16.9107C18.414 17.2361 18.414 17.7638 18.0886 18.0892C17.7882 18.3896 17.3155 18.4127 16.9886 18.1585L16.9101 18.0892L13.847 15.0269C12.564 16.053 10.9367 16.6666 9.16602 16.6666C5.02388 16.6666 1.66602 13.3088 1.66602 9.16663C1.66602 5.02449 5.02388 1.66663 9.16602 1.66663ZM9.16602 3.33329C5.94435 3.33329 3.33268 5.94496 3.33268 9.16663C3.33268 12.3883 5.94435 15 9.16602 15C12.3877 15 14.9993 12.3883 14.9993 9.16663C14.9993 5.94496 12.3877 3.33329 9.16602 3.33329Z" fill="#D0D0D0"/>
</svg>