        <svg
          xmlns="http://www.w3.org/2000/svg"
          width="72.529"
          height="72.529"
          viewBox="0 0 72.529 72.529"
        >
          <g
            id="Icon_feather-plus"
            data-name="Icon feather-plus"
            transform="translate(36.765 13.846) rotate(45)"
          >
            <g
              id="Group_899"
              data-name="Group 899"
              transform="translate(-8.643 -8.643)"
            >
              <g
                id="Ellipse_787"
                data-name="Ellipse 787"
                transform="translate(-1.501 -0.794)"
                fill="#fff"
                stroke="#2dd784"
                stroke-width="3"
              >
                <circle cx="25.643" cy="25.643" r="25.643" stroke="none" />
                <circle cx="25.643" cy="25.643" r="24.143" fill="none" />
              </g>
              <g id="tick" transform="translate(-39.384 -22.414) rotate(-45)">
                <g
                  id="Group_901"
                  data-name="Group 901"
                  transform="translate(0 67.997)"
                >
                  <path
                    id="Path_3836"
                    data-name="Path 3836"
                    d="M25.505,68.377a1.294,1.294,0,0,0-1.83,0L8.169,83.883l-5.96-5.96a1.294,1.294,0,0,0-1.83,1.83l6.875,6.875a1.3,1.3,0,0,0,1.83,0L25.505,70.207A1.294,1.294,0,0,0,25.505,68.377Z"
                    transform="translate(0 -67.997)"
                    fill="#2dd784"
                  />
                </g>
              </g>
            </g>
          </g>
        </svg>