<svg id="Component_17_14" data-name="Component 17 – 14" xmlns="http://www.w3.org/2000/svg" width="78.503" height="78.503" viewBox="0 0 78.503 78.503">
  <circle id="Ellipse_23" data-name="Ellipse 23" cx="39.251" cy="39.251" r="39.251" fill="#fff" opacity="0.45"/>
  <path id="Icon_awesome-discord" data-name="Icon awesome-discord" d="M21.835,17.867a1.925,1.925,0,1,1-1.918-2.088A2,2,0,0,1,21.835,17.867Zm-8.783-2.088a2.1,2.1,0,0,0,0,4.175,2,2,0,0,0,1.918-2.088A1.992,1.992,0,0,0,13.052,15.779Zm19.86-11.9v33.74c-4.738-4.187-3.223-2.8-8.726-7.918l1,3.479H3.855A3.865,3.865,0,0,1,0,29.3V3.874A3.865,3.865,0,0,1,3.855,0h25.2A3.865,3.865,0,0,1,32.912,3.874ZM27.552,21.7a25.186,25.186,0,0,0-2.708-10.965,9.3,9.3,0,0,0-5.285-1.975l-.263.3a12.517,12.517,0,0,1,4.683,2.388A15.98,15.98,0,0,0,9.93,10.908c-.7.32-1.11.545-1.11.545A12.688,12.688,0,0,1,13.767,8.99l-.188-.226a9.3,9.3,0,0,0-5.285,1.975A25.186,25.186,0,0,0,5.586,21.7a6.819,6.819,0,0,0,5.736,2.859s.7-.846,1.26-1.561a5.849,5.849,0,0,1-3.291-2.219c.277.194.733.445.771.47A13.709,13.709,0,0,0,21.8,21.91,10.762,10.762,0,0,0,23.96,20.8a5.935,5.935,0,0,1-3.4,2.238c.564.715,1.241,1.523,1.241,1.523A6.875,6.875,0,0,0,27.552,21.7Z" transform="translate(22.218 20.737)" fill="#fff"/>
</svg>
