<svg id="Component_15_14" data-name="Component 15 – 14" xmlns="http://www.w3.org/2000/svg" width="78.503" height="78.503" viewBox="0 0 78.503 78.503">
  <circle id="Ellipse_8" data-name="Ellipse 8" cx="39.251" cy="39.251" r="39.251" fill="#fff" opacity="0.45"/>
  <path id="Icon_awesome-twitter" data-name="Icon awesome-twitter" d="M35.162,11.313c.025.348.025.7.025,1.044,0,10.618-8.082,22.853-22.853,22.853A22.7,22.7,0,0,1,0,31.6a16.616,16.616,0,0,0,1.94.1,16.086,16.086,0,0,0,9.972-3.432A8.046,8.046,0,0,1,4.4,22.7a10.129,10.129,0,0,0,1.517.124,8.495,8.495,0,0,0,2.114-.273A8.033,8.033,0,0,1,1.591,14.67v-.1A8.089,8.089,0,0,0,5.222,15.59,8.044,8.044,0,0,1,2.735,4.848a22.831,22.831,0,0,0,16.561,8.4,9.067,9.067,0,0,1-.2-1.84A8.04,8.04,0,0,1,33,5.917a15.813,15.813,0,0,0,5.1-1.94A8.01,8.01,0,0,1,34.565,8.4,16.1,16.1,0,0,0,39.19,7.161a17.266,17.266,0,0,1-4.028,4.153Z" transform="translate(21.572 22.396)" fill="#fff"/>
</svg>
