<svg xmlns="http://www.w3.org/2000/svg" width="71.344" height="72.798" viewBox="0 0 71.344 72.798">
  <g id="Group_284" data-name="Group 284" transform="translate(-300.01 -347.01)">
    <g id="Group_212" data-name="Group 212" transform="translate(299.758 347.257)">
      <g id="Group_211" data-name="Group 211" transform="translate(0 0)">
        <path id="Path_3582" data-name="Path 3582" d="M25.4.179A25.224,25.224,0,1,1,.179,25.4,25.241,25.241,0,0,1,25.4.179Z" transform="translate(0 35.425) rotate(-45)" fill="#f9a140"/>
        <path id="Path_3505" data-name="Path 3505" d="M566.689,94.927A27.5,27.5,0,1,0,596.259,120.2,27.5,27.5,0,0,0,566.689,94.927Zm3.939,50.233a22.884,22.884,0,1,1,21.025-24.6A22.884,22.884,0,0,1,570.628,145.16Z" transform="translate(-532.915 -86.922)" fill="#272525" opacity="0.1"/>
        <path id="Path_3506" data-name="Path 3506" d="M557.573,83.219a30.325,30.325,0,1,0,32.6,27.862A30.325,30.325,0,0,0,557.573,83.219Zm4.343,55.386A25.231,25.231,0,1,1,585.1,111.478,25.231,25.231,0,0,1,561.916,138.6Z" transform="translate(-524.019 -78.026)" fill="#f4d242"/>
      </g>
    </g>
    <path id="Path_3516" data-name="Path 3516" d="M601.946,159.959q-.126-6.468-.251-12.936c-.008-.383-.008-.383.389-.39,2.142-.042,4.284-.088,6.425-.118.251,0,.306-.075.3-.317-.035-1.124-.044-2.25-.076-3.374-.006-.211.058-.263.261-.267,3.889-.07,7.777-.174,11.666-.215a7.8,7.8,0,0,1,7.778,6.473,8.051,8.051,0,0,1-1.255,5.875c-.126.2-.091.281.072.418a7.429,7.429,0,0,1,1.57,10.359,7.575,7.575,0,0,1-6.4,3.51.489.489,0,0,0-.461.268,7.67,7.67,0,0,1-6.625,3.8c-4.263.09-8.527.164-12.791.258-.292.006-.352-.072-.357-.352Q602.08,166.457,601.946,159.959Zm15.428-.6a7.919,7.919,0,0,0-3.682-.907q-3.76.061-7.52.149c-.248.006-.335-.037-.339-.312q-.054-3.745-.145-7.489c-.007-.279.087-.318.331-.322,1.974-.031,3.948-.074,5.921-.117a13.314,13.314,0,0,1,1.95.073,3.486,3.486,0,0,1,3.019,2.02,5.222,5.222,0,0,1,.413,1.986c.006.161-.05.2-.2.2-.316,0-.632.009-.948.015-.545.011-.545.011-.595-.529a1.86,1.86,0,0,0-1.693-1.954,4.616,4.616,0,0,0-.677-.069c-1.846-.059-3.69.054-5.536.06-.21,0-.237.085-.233.265.033,1.371.063,2.743.077,4.115,0,.247.071.308.315.3q2.9-.072,5.8-.115a9,9,0,0,1,1.122.06,9.9,9.9,0,0,1,3.608,1.158c.161.086.23.065.322-.084a7.751,7.751,0,0,0,.691-1.4,6.129,6.129,0,0,0-5.942-8.329c-3.227.063-6.455.129-9.682.181-.268,0-.317.079-.312.333q.23,11.293.438,22.586c0,.262.07.321.33.316q5.566-.122,11.133-.22a5.8,5.8,0,0,0,4.378-1.962,6.141,6.141,0,0,0,1.611-5.52,6.014,6.014,0,0,0-2.2-3.348c-.18-.155-.281-.177-.478,0a7.494,7.494,0,0,1-5.1,2.022c-1.875.017-3.75.072-5.626.1-.21,0-.288.042-.281.277q.061,2.249.088,4.5c0,.222.062.279.284.273,1.648-.042,3.3-.064,4.944-.1a9.366,9.366,0,0,0,2.661-.344,2.14,2.14,0,0,0,1.567-1.753,3.542,3.542,0,0,0,.081-.881c-.013-.2.057-.252.247-.249.414.005.829,0,1.244-.024.175-.008.254.028.235.223-.028.284-.02.572-.055.855a3.88,3.88,0,0,1-2.817,3.479,8.352,8.352,0,0,1-2.387.387c-2.477.064-4.954.1-7.431.165-.265.006-.251-.124-.254-.3-.048-2.615-.1-5.23-.157-7.844-.006-.275.068-.34.335-.344q3.746-.057,7.491-.141A5.781,5.781,0,0,0,617.374,159.358Zm1.111-11.324a.777.777,0,0,0,.076.1A7.705,7.705,0,0,1,621.3,152.5c.035.153.126.18.252.191a9.879,9.879,0,0,1,3.872,1.187c.146.077.218.063.3-.079a8.31,8.31,0,0,0,.565-1.071,6.134,6.134,0,0,0-5.853-8.667l-3.4.066c-2.092.041-4.185.085-6.277.117-.22,0-.288.06-.276.285.027.542.039,1.085.031,1.628,0,.241.058.314.311.307,2.576-.062,5.152-.11,7.727-.161a14.644,14.644,0,0,1,2.541.075,3.541,3.541,0,0,1,2.6,1.513,4.889,4.889,0,0,1,.685,2.479c.008.137-.037.2-.182.2-.247,0-.493.014-.74.011s-.565.114-.745-.035c-.155-.13-.072-.447-.107-.68a1.8,1.8,0,0,0-1.335-1.693A10.272,10.272,0,0,0,618.485,148.034Zm6.694,12.229.237,0c.641-.012.652-.012.612.642a3.982,3.982,0,0,1-2.653,3.829.253.253,0,0,0-.193.277,7.844,7.844,0,0,1-.266,1.987c-.058.211-.02.249.2.219a5.892,5.892,0,0,0,3.955-2.257,6.149,6.149,0,0,0,1.346-5.068,6.04,6.04,0,0,0-2.277-3.5c-.162-.138-.248-.133-.406.012a7.677,7.677,0,0,1-3.333,1.828,7.315,7.315,0,0,1-1.875.2c-.332,0-.349.311-.478.494-.107.151.111.2.194.267a8.315,8.315,0,0,1,2.62,3.689c.066.2.142.157.27.091a2.067,2.067,0,0,0,1.068-1.383,4.268,4.268,0,0,0,.127-1.113c0-.156.054-.209.206-.2C624.744,160.279,624.961,160.268,625.178,160.263Zm-4.052-3.6a5.327,5.327,0,0,0,3.268-1.39,8.3,8.3,0,0,0-2.718-.845c-.093-.012-.174-.015-.18.12A8.788,8.788,0,0,1,621.126,156.665Z" transform="translate(-285.846 224.858)" fill="#f4d242"/>
    <circle id="Ellipse_729" data-name="Ellipse 729" cx="15.271" cy="15.271" r="15.271" transform="translate(336.416 389.266)" fill="#3acc89"/>
    <path id="Path_3578" data-name="Path 3578" d="M1.5,6V9.966H5.466" transform="translate(342.898 393.43)" fill="none" stroke="#032087" stroke-linecap="round" stroke-linejoin="round" stroke-width="1"/>
    <path id="Path_3579" data-name="Path 3579" d="M29.466,24.966V21H25.5" transform="translate(329.474 385.039)" fill="none" stroke="#032087" stroke-linecap="round" stroke-linejoin="round" stroke-width="1"/>
    <path id="Path_3580" data-name="Path 3580" d="M14.382,8.468A5.949,5.949,0,0,0,4.567,6.247L1.5,9.129m14.542,2.644-3.067,2.882a5.949,5.949,0,0,1-9.816-2.221" transform="translate(342.898 394.267)" fill="none" stroke="#032087" stroke-linecap="round" stroke-linejoin="round" stroke-width="1"/>
  </g>
</svg>
