<svg xmlns="http://www.w3.org/2000/svg" width="160" height="52.135" viewBox="0 0 160 52.135"><defs><style>.a{fill:#fff;}</style></defs><g transform="translate(-79 -20)"><path class="a" d="M122.344,41.65a14.236,14.236,0,0,0,2.794-8.375A13.407,13.407,0,0,0,111.593,20H91.275v6.7H79V72.135h22.857a13.408,13.408,0,0,0,11.556-6.7h.719a13.757,13.757,0,0,0,13.545-13.9C127.677,47.638,125.476,44.162,122.344,41.65ZM94.238,22.889h17.355a10.486,10.486,0,0,1,10.582,10.385,11.3,11.3,0,0,1-2.244,6.7,17.078,17.078,0,0,0-7.323-2.345,13.46,13.46,0,0,0-4.867-8.04h.211c2.5,0,4.868-.042,6.011,1.047a4.706,4.706,0,0,1,1.016,3.434h2.963c0-2.471-.593-4.271-1.863-5.527-1.989-1.968-5.121-1.926-8.084-1.926H94.28V22.889ZM112.82,40.561a15.007,15.007,0,0,1,5.037,1.591,10.107,10.107,0,0,1-5.8,2.3A12.005,12.005,0,0,0,112.82,40.561ZM101.857,69.2H81.963V29.631H99.317A10.485,10.485,0,0,1,109.9,40.016a11.3,11.3,0,0,1-2.243,6.7,17.221,17.221,0,0,0-8.339-2.429H88.735V36.331H95.72c2.5,0,4.867-.042,6.01,1.047a4.706,4.706,0,0,1,1.016,3.434h2.963c0-2.471-.593-4.271-1.862-5.528-1.99-1.968-5.08-1.926-8.085-1.926h-9.9V47.177H99.4a14.065,14.065,0,0,1,6.307,1.675A9.934,9.934,0,0,1,99.4,51.2H85.857V65.644H97.286c4.106,0,11.005,0,11.005-8.249h-2.963c0,4.606-2.37,5.36-8.042,5.36H88.82V54.17H99.4a13.061,13.061,0,0,0,8.8-3.6c2.54,2.01,4.318,4.732,4.318,7.705A10.92,10.92,0,0,1,101.857,69.2Zm12.868-6.742a13.493,13.493,0,0,0,.635-4.146q5.079-1.57,5.079-7.663h-2.963c0,2.889-.973,4.1-2.539,4.732a14.24,14.24,0,0,0-4.911-7.035c.212-.293.424-.628.635-.921h.889a13.066,13.066,0,0,0,8.805-3.6c2.539,2.01,4.317,4.732,4.317,7.705A10.77,10.77,0,0,1,114.725,62.462Z"/><path class="a" d="M150.238,43.869a4.758,4.758,0,0,0,2.54-1.507,4.379,4.379,0,0,0,.973-2.931,4.213,4.213,0,0,0-1.566-3.518,6.836,6.836,0,0,0-4.444-1.3h-7.577V53.752h7.7a7.124,7.124,0,0,0,4.7-1.382,4.755,4.755,0,0,0,1.609-3.769,4.488,4.488,0,0,0-1.1-3.015A4.65,4.65,0,0,0,150.238,43.869ZM143.3,37.127h3.768a3.914,3.914,0,0,1,2.624.754,2.586,2.586,0,0,1,.847,2.094,2.666,2.666,0,0,1-.847,2.094,3.7,3.7,0,0,1-2.5.754h-3.852v-5.7ZM149.984,50.4a4.135,4.135,0,0,1-2.751.8H143.3V45.083h3.937a4.135,4.135,0,0,1,2.751.8,3.112,3.112,0,0,1,0,4.522Z"/><path class="a" d="M160.227,38.8H157.1V53.71h3.132Z"/><path class="a" d="M158.661,32.646a2.005,2.005,0,0,0-1.439.5,1.67,1.67,0,0,0-.55,1.3,1.528,1.528,0,0,0,.55,1.256,2.076,2.076,0,0,0,1.439.5,2.187,2.187,0,0,0,1.482-.5,1.584,1.584,0,0,0,.55-1.256,1.67,1.67,0,0,0-.55-1.3A2.187,2.187,0,0,0,158.661,32.646Z"/><path class="a" d="M168.4,50.569a2.443,2.443,0,0,1-.466-1.759V41.44h3.64V38.8h-3.64V35.075H164.8V38.8H162.64V41.44H164.8v7.328a5.206,5.206,0,0,0,1.227,3.853,4.989,4.989,0,0,0,3.64,1.131h1.9v-2.68h-1.524A2.408,2.408,0,0,1,168.4,50.569Z"/><path class="a" d="M184.608,43.869a4.758,4.758,0,0,0,2.54-1.507,4.379,4.379,0,0,0,.973-2.931,4.213,4.213,0,0,0-1.566-3.518,6.836,6.836,0,0,0-4.444-1.3h-7.577V53.752h7.7a7.124,7.124,0,0,0,4.7-1.382,4.755,4.755,0,0,0,1.609-3.769,4.488,4.488,0,0,0-1.1-3.015A5.215,5.215,0,0,0,184.608,43.869Zm-6.984-6.742h3.767a3.916,3.916,0,0,1,2.625.754,2.589,2.589,0,0,1,.846,2.094,2.666,2.666,0,0,1-.846,2.094,3.7,3.7,0,0,1-2.5.754h-3.894ZM184.312,50.4a4.135,4.135,0,0,1-2.751.8h-3.937V45.083h3.937a4.135,4.135,0,0,1,2.751.8,2.835,2.835,0,0,1,.974,2.261A2.711,2.711,0,0,1,184.312,50.4Z"/><path class="a" d="M202.259,39.556a8.259,8.259,0,0,0-3.936-.921,8.145,8.145,0,0,0-3.937.921,7.2,7.2,0,0,0-2.751,2.638,7.941,7.941,0,0,0-1.016,4.062,7.834,7.834,0,0,0,1.016,4.062A7.017,7.017,0,0,0,194.386,53a8.031,8.031,0,0,0,3.937.921A8.143,8.143,0,0,0,202.259,53a6.923,6.923,0,0,0,2.752-2.638,7.976,7.976,0,0,0,.973-4.1,8.376,8.376,0,0,0-.973-4.062A6.177,6.177,0,0,0,202.259,39.556Zm-.084,9.464a4.018,4.018,0,0,1-1.609,1.633,4.722,4.722,0,0,1-4.4,0,4,4,0,0,1-1.608-1.633,6.332,6.332,0,0,1,0-5.528,4.481,4.481,0,0,1,6.01-1.675,3.876,3.876,0,0,1,1.609,1.675,6.341,6.341,0,0,1,0,5.528Z"/><path class="a" d="M219.868,39.556a8.26,8.26,0,0,0-3.937-.921,8.143,8.143,0,0,0-3.936.921,7.2,7.2,0,0,0-2.751,2.638,7.931,7.931,0,0,0-1.016,4.062,7.825,7.825,0,0,0,1.016,4.062A7.017,7.017,0,0,0,211.995,53a8.03,8.03,0,0,0,3.936.921A8.144,8.144,0,0,0,219.868,53a6.914,6.914,0,0,0,2.751-2.638,7.976,7.976,0,0,0,.974-4.1,8.365,8.365,0,0,0-.974-4.062A6.633,6.633,0,0,0,219.868,39.556Zm-.085,9.464a4.01,4.01,0,0,1-1.608,1.633,4.722,4.722,0,0,1-4.4,0,4.006,4.006,0,0,1-1.609-1.633,6.332,6.332,0,0,1,0-5.528,4.482,4.482,0,0,1,6.011-1.675,3.874,3.874,0,0,1,1.608,1.675,5.572,5.572,0,0,1,.635,2.764A6.659,6.659,0,0,1,219.783,49.02Z"/><path class="a" d="M232.27,46.214l6.56-7.412h-3.767l-5.333,6.365V33.693H226.6V53.71h3.132V47.093l5.418,6.616H239Z"/></g></svg>